<svg width="189" height="36" viewBox="0 0 189 36" fill="none" xmlns="http://www.w3.org/2000/svg">
<g clip-path="url(#clip0_3624_26008)">
<path d="M1.93036 18.6289C2.46007 19.5508 3.14903 20.2375 3.99721 20.689C4.8454 21.1405 5.81026 21.3659 6.89178 21.3653C7.53772 21.3699 8.17991 21.2664 8.79192 21.059C9.35431 20.8688 9.87711 20.5766 10.3343 20.1968C10.7714 19.8301 11.1259 19.3744 11.3745 18.8599C11.6392 18.309 11.7727 17.704 11.7645 17.0924C11.7645 16.333 11.6059 15.708 11.2887 15.2173C10.9665 14.7185 10.5325 14.3022 10.0213 14.0018C9.45432 13.6683 8.85405 13.3954 8.23036 13.1876C7.56546 12.9612 6.88138 12.7358 6.17813 12.5113C5.48333 12.289 4.80003 12.0319 4.13078 11.7411C3.4786 11.4627 2.87344 11.0844 2.33691 10.6196C1.79398 10.1396 1.36152 9.54689 1.0695 8.88247C0.746472 8.18566 0.584958 7.32477 0.584958 6.29978C0.584958 5.33678 0.77377 4.48078 1.15139 3.73178C1.51557 3.00114 2.03788 2.36148 2.68008 1.8596C3.34471 1.34565 4.09787 0.958837 4.90195 0.718486C5.75552 0.459991 6.64271 0.330691 7.53426 0.334852C8.66276 0.324194 9.78214 0.538416 10.8276 0.965108C11.8376 1.38528 12.7105 2.0873 13.4462 3.07118L11.6992 4.3317C11.2384 3.65822 10.624 3.10494 9.90724 2.71789C9.22284 2.35905 8.4104 2.17963 7.46992 2.17963C6.83937 2.17668 6.21165 2.26434 5.60585 2.43995C5.04681 2.59844 4.52187 2.85959 4.05766 3.21015C3.61649 3.55082 3.25591 3.9853 3.00181 4.48241C2.72413 5.04681 2.58728 5.67051 2.60306 6.29978C2.60306 7.38479 2.87897 8.22089 3.43078 8.80809C4.01282 9.41265 4.71822 9.88371 5.49861 10.189C6.37546 10.5441 7.27427 10.8419 8.18941 11.0805C9.12327 11.3226 10.0274 11.6683 10.8851 12.1111C11.707 12.5371 12.4162 13.1533 12.9539 13.9089C13.5038 14.6794 13.779 15.7406 13.7797 17.0924C13.7797 18.0757 13.5961 18.9467 13.2288 19.7055C12.8767 20.445 12.3715 21.1006 11.7469 21.6285C11.1093 22.1584 10.3762 22.5604 9.58747 22.8127C8.76637 23.0787 7.90862 23.2132 7.04582 23.211C5.69214 23.2252 4.34909 22.9698 3.09443 22.4594C1.88942 21.9557 0.857939 21.1095 0 19.9208L1.93036 18.6289Z" fill="#B2B3B3"/>
<path d="M19.6016 0.887695H21.6236V22.657H19.6016V0.887695Z" fill="#B2B3B3"/>
<path d="M28.793 0.887695H30.814V20.8122H40.9221V22.657H28.793V0.887695Z" fill="#B2B3B3"/>
<path d="M39.4531 0.887695H41.6292L48.6136 19.9813L55.6574 0.887695H57.8023L49.5612 22.657H47.5392L39.4531 0.887695Z" fill="#B2B3B3"/>
<path d="M61.9062 0.887695H75.1653V2.73247H63.9253V10.4815H74.4624V12.3312H63.9253V20.8171H75.6528V22.6619H61.9062V0.887695Z" fill="#B2B3B3"/>
<path d="M81.293 0.887695H86.9905C87.2764 0.887695 87.6641 0.897808 88.1536 0.918034C88.6884 0.944222 89.2209 1.00601 89.7476 1.103C90.343 1.21184 90.9272 1.37565 91.4927 1.59233C92.0813 1.81643 92.6225 2.15013 93.0877 2.57588C93.5777 3.03844 93.9726 3.59306 94.2498 4.20829C94.5566 4.86073 94.7103 5.65997 94.7109 6.606C94.7109 7.64991 94.5319 8.51048 94.1737 9.18771C93.8475 9.82712 93.388 10.3885 92.8264 10.8338C92.289 11.2499 91.6828 11.5676 91.0354 11.7723C90.4248 11.9674 89.799 12.1108 89.1646 12.201L95.4753 22.656H93.1764L87.0811 12.3312H83.315V22.657H81.293V0.887695ZM83.315 10.4786H87.6047C88.6654 10.4786 89.5279 10.3451 90.1921 10.0783C90.8564 9.81144 91.3724 9.48587 91.7403 9.10159C92.0856 8.74667 92.3416 8.31421 92.4871 7.84009C92.614 7.44253 92.6817 7.02832 92.6879 6.6109C92.6813 6.19375 92.6133 5.77988 92.4861 5.38268C92.3412 4.90709 92.0856 4.47299 91.7403 4.11629C91.3718 3.72483 90.8557 3.39698 90.1921 3.13274C89.5285 2.8685 88.666 2.73508 87.6047 2.73247H83.315V10.4786Z" fill="#B2B3B3"/>
<path d="M115.665 1.20082C117.817 2.35302 119.133 4.37004 119.615 7.25187H116.669C116.316 5.64034 115.589 4.46595 114.486 3.72869C113.383 2.99144 111.991 2.62379 110.311 2.62574C108.32 2.62574 106.643 3.39138 105.281 4.92266C103.918 6.45393 103.237 8.73584 103.238 11.7684C103.238 14.3925 103.8 16.527 104.924 18.1718C106.047 19.8166 107.879 20.6425 110.418 20.6497C112.364 20.6497 113.975 20.0713 115.249 18.9146C116.524 17.7578 117.176 15.8889 117.207 13.3078H110.328V10.825H119.975V22.6256H118.065L117.346 19.7875C116.356 20.8967 115.478 21.6672 114.714 22.0991C113.428 22.8396 111.795 23.2099 109.815 23.2099C107.255 23.2099 105.052 22.364 103.208 20.6722C101.199 18.5511 100.193 15.6387 100.191 11.9348C100.191 8.24129 101.174 5.30531 103.14 3.12682C105.004 1.04227 107.419 0 110.386 0C112.421 0 114.18 0.400272 115.665 1.20082Z" fill="#6B6C6C"/>
<path d="M126.449 0.570801H136.435C138.08 0.570801 139.436 0.816118 140.505 1.30675C142.531 2.24757 143.545 3.98404 143.546 6.51616C143.546 7.83735 143.272 8.91877 142.731 9.75944C142.189 10.6001 141.425 11.2754 140.449 11.7872C141.305 12.1366 141.953 12.5966 142.385 13.1671C142.818 13.7377 143.061 14.6635 143.111 15.9446L143.215 18.9021C143.245 19.7437 143.313 20.3701 143.426 20.7791C143.604 21.4799 143.923 21.9304 144.382 22.1307V22.6259H140.733C140.619 22.3933 140.538 22.1454 140.494 21.8899C140.433 21.5905 140.383 21.0091 140.344 20.1499L140.165 16.4711C140.1 15.0292 139.58 14.0629 138.605 13.5723C138.052 13.3035 137.185 13.1684 136.004 13.1671H129.421V22.6259H126.449V0.570801ZM136.116 10.6745C137.475 10.6745 138.547 10.3946 139.333 9.83479C140.119 9.275 140.515 8.26372 140.52 6.80095C140.52 5.22792 139.968 4.15694 138.863 3.58801C138.271 3.28658 137.481 3.13652 136.493 3.13783H129.424V10.6735L136.116 10.6745Z" fill="#6B6C6C"/>
<path d="M149.719 0.570801H165.661V3.27386H152.62V9.96887H164.674V12.5271H152.62V20.0031H165.886V22.6298H149.719V0.570801Z" fill="#6B6C6C"/>
<path d="M169.395 0.570801H172.864L179.181 11.1716L185.496 0.570801H188.999L180.677 13.7377V22.6259H177.701V13.7377L169.395 0.570801Z" fill="#6B6C6C"/>
<path d="M81.3242 29.394H82.656V29.9078H81.9141V35.4363H82.656V35.9481H81.3242V29.394Z" fill="#676867"/>
<path d="M83.4062 30.9158C83.5798 30.8832 83.6955 30.7556 83.7533 30.5331C83.7837 30.421 83.7946 30.3045 83.7855 30.1886H83.4062V29.4302H84.1462V30.1299C84.151 30.3855 84.0928 30.6384 83.9766 30.8659C83.9204 30.9717 83.8388 31.0617 83.7393 31.1278C83.6397 31.194 83.5252 31.2341 83.4062 31.2446V30.9158ZM84.5762 30.9158C84.7497 30.8832 84.8641 30.7556 84.9193 30.5331C84.9501 30.4211 84.9619 30.3046 84.9544 30.1886H84.5762V29.4302H85.3181V30.1299C85.3232 30.3866 85.2645 30.6405 85.1475 30.8688C85.0927 30.9756 85.0113 31.0664 84.9111 31.1322C84.811 31.1981 84.6956 31.2368 84.5762 31.2446V30.9158Z" fill="#676867"/>
<path d="M90.0341 29.4302V30.0379H88.3163V34.5466H87.6182V30.0379H85.9023V29.4302H90.0341Z" fill="#676867"/>
<path d="M91.0156 29.4302H94.7126V30.0565H91.6903V31.6106H94.4864V32.1978H91.6883V33.931H94.7613V34.5466H91.0156V29.4302Z" fill="#676867"/>
<path d="M99.5756 29.8009C99.9068 30.1032 100.115 30.5176 100.161 30.9646H99.4879C99.4285 30.6611 99.2708 30.3858 99.0394 30.1816C98.8165 29.9898 98.5029 29.8936 98.0986 29.8929C97.8731 29.8857 97.6489 29.9298 97.4428 30.0218C97.2366 30.1138 97.0539 30.2514 96.9082 30.4243C96.6053 30.778 96.4536 31.3211 96.4529 32.0538C96.4529 32.6528 96.5901 33.1385 96.8643 33.511C97.1373 33.8839 97.5468 34.0708 98.0888 34.0708C98.5893 34.0708 98.9699 33.8751 99.2305 33.4836C99.3855 33.235 99.4908 32.9584 99.5405 32.6694H100.214C100.169 33.1731 99.9619 33.6484 99.6244 34.0239C99.2233 34.4623 98.6832 34.6818 98.004 34.6825C97.4623 34.6977 96.9353 34.5044 96.5309 34.1423C96.0077 33.6647 95.7461 32.9297 95.7461 31.9373C95.7461 31.1818 95.9411 30.562 96.3311 30.0779C96.7561 29.5559 97.3411 29.295 98.0859 29.295C98.7307 29.2917 99.2272 29.4604 99.5756 29.8009Z" fill="#676867"/>
<path d="M101.406 29.4302H102.103V31.5441H104.722V29.4302H105.42V34.5466H104.722V32.1518H102.103V34.5466H101.406V29.4302Z" fill="#676867"/>
<path d="M106.801 29.4302H107.612L110.155 33.5679V29.4302H110.813V34.5466H110.039L107.459 30.4186V34.5466H106.801V29.4302Z" fill="#676867"/>
<path d="M116.413 30.1606C116.751 30.6147 116.921 31.1921 116.921 31.8977C116.921 32.6617 116.728 33.2968 116.342 33.8031C115.887 34.3975 115.241 34.6944 114.402 34.6937C113.622 34.6937 113.005 34.4327 112.55 33.9108C112.149 33.4091 111.949 32.7749 111.949 32.0083C111.949 31.3173 112.12 30.7259 112.462 30.234C112.902 29.6017 113.552 29.286 114.412 29.2866C115.314 29.2892 115.981 29.5805 116.413 30.1606ZM115.805 33.4215C116.081 32.9669 116.223 32.4427 116.213 31.9104C116.213 31.3095 116.056 30.8251 115.743 30.4571C115.429 30.0891 115.001 29.9061 114.458 29.9081C114.216 29.9 113.976 29.9445 113.753 30.0386C113.53 30.1327 113.33 30.2742 113.167 30.4532C112.834 30.8153 112.668 31.3526 112.668 32.0611C112.651 32.5732 112.802 33.0767 113.097 33.4949C113.381 33.8863 113.844 34.0821 114.486 34.0821C115.094 34.0794 115.534 33.8592 115.805 33.4215Z" fill="#676867"/>
<path d="M118.023 29.4302H118.714V33.932H121.27V34.5466H118.023V29.4302Z" fill="#676867"/>
<path d="M126.456 30.1606C126.794 30.6147 126.963 31.1921 126.963 31.8977C126.963 32.6617 126.77 33.2968 126.384 33.8031C125.93 34.3972 125.285 34.6937 124.445 34.6937C123.665 34.6937 123.048 34.4327 122.593 33.9108C122.192 33.4091 121.992 32.7749 121.992 32.0083C121.992 31.3173 122.163 30.7259 122.505 30.234C122.945 29.6017 123.595 29.286 124.455 29.2866C125.358 29.2892 126.025 29.5805 126.456 30.1606ZM125.848 33.4215C126.124 32.9669 126.266 32.4427 126.256 31.9104C126.256 31.3095 126.099 30.8251 125.786 30.4571C125.472 30.0891 125.043 29.9061 124.499 29.9081C124.257 29.8999 124.017 29.9443 123.794 30.0384C123.571 30.1325 123.371 30.274 123.208 30.4532C122.875 30.8153 122.709 31.3526 122.709 32.0611C122.692 32.5732 122.843 33.0767 123.138 33.4949C123.422 33.8863 123.886 34.0821 124.527 34.0821C125.136 34.0794 125.576 33.8592 125.848 33.4215Z" fill="#676867"/>
<path d="M131.461 29.5749C131.96 29.8424 132.265 30.3102 132.376 30.9783H131.694C131.614 30.6055 131.444 30.3324 131.188 30.1621C130.898 29.9828 130.561 29.8943 130.221 29.9077C129.999 29.9042 129.778 29.9501 129.576 30.0421C129.374 30.1342 129.194 30.2701 129.051 30.4401C128.734 30.793 128.576 31.3218 128.577 32.0265C128.577 32.6352 128.707 33.1304 128.967 33.5121C129.225 33.8947 129.649 34.0846 130.241 34.0846C130.652 34.0991 131.052 33.9555 131.36 33.6834C131.653 33.4142 131.807 32.9817 131.815 32.3817H130.22V31.8063H132.456V34.5465H132.013L131.845 33.8879C131.671 34.0976 131.465 34.2785 131.236 34.4242C130.885 34.6087 130.493 34.6978 130.098 34.6826C129.531 34.6918 128.983 34.4815 128.566 34.0954C128.1 33.6028 127.867 32.9272 127.867 32.0686C127.868 31.21 128.095 30.5288 128.55 30.0251C128.76 29.788 129.019 29.6002 129.31 29.4748C129.6 29.3495 129.914 29.2898 130.23 29.2999C130.657 29.2874 131.08 29.3819 131.461 29.5749Z" fill="#676867"/>
<path d="M134.035 29.4302H134.735V34.5466H134.037L134.035 29.4302Z" fill="#676867"/>
<path d="M136.203 29.4302H139.903V30.0565H136.881V31.6106H139.677V32.1978H136.881V33.931H139.958V34.5466H136.209L136.203 29.4302Z" fill="#676867"/>
<path d="M141.611 32.8939C141.614 33.1424 141.681 33.3861 141.806 33.6004C142.028 33.94 142.416 34.1084 142.976 34.1084C143.209 34.112 143.44 34.0746 143.659 33.9978C144.049 33.8539 144.252 33.5975 144.252 33.2256C144.252 32.9457 144.168 32.748 144 32.6296C143.753 32.4829 143.482 32.3803 143.201 32.3262L142.532 32.1706C142.096 32.0675 141.787 31.955 141.605 31.833C141.292 31.6196 141.134 31.2996 141.134 30.8749C141.127 30.664 141.165 30.4541 141.244 30.2589C141.324 30.0638 141.444 29.8878 141.597 29.7426C141.905 29.4477 142.341 29.3005 142.906 29.3012C143.378 29.2878 143.841 29.4248 144.23 29.6927C144.595 29.953 144.776 30.365 144.776 30.9346H144.129C144.112 30.7095 144.038 30.4924 143.914 30.3043C143.713 30.0371 143.37 29.904 142.888 29.904C142.498 29.904 142.218 29.9902 142.046 30.1605C141.965 30.2377 141.9 30.3307 141.856 30.4339C141.812 30.537 141.79 30.6481 141.79 30.7604C141.783 30.8715 141.808 30.9824 141.861 31.0799C141.915 31.1775 141.995 31.2577 142.092 31.3114C142.225 31.3848 142.523 31.4777 142.99 31.5893L143.681 31.7527C143.958 31.8075 144.221 31.9173 144.455 32.0757C144.768 32.3164 144.926 32.6629 144.926 33.118C144.926 33.6836 144.726 34.0888 144.326 34.3335C143.901 34.5819 143.417 34.7066 142.926 34.6936C142.309 34.6936 141.825 34.5321 141.476 34.2043C141.127 33.8764 140.954 33.4439 140.961 32.8909L141.611 32.8939Z" fill="#676867"/>
<path d="M145.91 30.9158C146.084 30.8832 146.199 30.7556 146.257 30.5331C146.288 30.421 146.299 30.3045 146.289 30.1886H145.91V29.4302H146.65V30.1299C146.654 30.3855 146.596 30.6381 146.48 30.8659C146.424 30.9716 146.343 31.0616 146.243 31.1277C146.144 31.1938 146.029 31.234 145.91 31.2446V30.9158ZM147.08 30.9158C147.254 30.8832 147.368 30.7556 147.424 30.5331C147.454 30.421 147.466 30.3046 147.459 30.1886H147.08V29.4302H147.822V30.1299C147.827 30.3865 147.769 30.6405 147.652 30.8688C147.597 30.9758 147.516 31.0666 147.416 31.1325C147.315 31.1983 147.2 31.237 147.08 31.2446V30.9158Z" fill="#676867"/>
<path d="M148.879 35.2747C149.038 35.2483 149.15 35.1347 149.214 34.9361C149.248 34.8384 149.265 34.736 149.267 34.6327C149.268 34.6177 149.268 34.6026 149.267 34.5877C149.265 34.5731 149.262 34.5587 149.258 34.5446H148.881V33.7852H149.623V34.4888C149.628 34.7413 149.571 34.9913 149.456 35.216C149.398 35.3223 149.316 35.4133 149.216 35.4814C149.116 35.5495 149.001 35.5927 148.881 35.6074L148.879 35.2747Z" fill="#676867"/>
<path d="M150.82 30.9158C150.994 30.8832 151.11 30.7556 151.167 30.5331C151.198 30.421 151.209 30.3045 151.2 30.1886H150.82V29.4302H151.561V30.1299C151.566 30.3856 151.507 30.6384 151.391 30.8659C151.335 30.9718 151.253 31.0619 151.153 31.1281C151.054 31.1942 150.939 31.2343 150.82 31.2446V30.9158ZM151.99 30.9158C152.164 30.8832 152.278 30.7556 152.333 30.5331C152.364 30.421 152.376 30.3047 152.369 30.1886H151.99V29.4302H152.732V30.1299C152.737 30.3865 152.679 30.6403 152.563 30.8688C152.507 30.9756 152.426 31.0663 152.326 31.1321C152.225 31.198 152.11 31.2367 151.99 31.2446V30.9158Z" fill="#676867"/>
<path d="M153.805 29.4302H156.086C156.537 29.4302 156.901 29.5581 157.179 29.8138C157.456 30.0696 157.595 30.4304 157.593 30.8962C157.6 31.2771 157.469 31.6474 157.224 31.9385C156.975 32.2321 156.598 32.3818 156.088 32.3818H154.497V34.5466H153.808L153.805 29.4302ZM156.481 30.1338C156.283 30.0532 156.07 30.0165 155.857 30.0262H154.492V31.7966H155.857C156.12 31.8089 156.382 31.7407 156.606 31.6008C156.801 31.4677 156.898 31.2348 156.898 30.9011C156.893 30.5224 156.756 30.2679 156.481 30.1338Z" fill="#676867"/>
<path d="M158.984 30.8149L159.976 33.8488L161.009 30.8149H161.692L160.294 34.5466H159.63L158.258 30.8169L158.984 30.8149Z" fill="#676867"/>
<path d="M162.638 29.7749H163.269V30.8152H163.862V31.3271H163.269V33.7639C163.262 33.8159 163.272 33.8685 163.295 33.9152C163.319 33.9619 163.356 34.0005 163.401 34.0262C163.478 34.0569 163.561 34.07 163.644 34.0644C163.673 34.0644 163.706 34.0644 163.741 34.0644C163.777 34.0644 163.817 34.0585 163.863 34.0536V34.5468C163.79 34.568 163.716 34.5831 163.64 34.5919C163.556 34.6011 163.472 34.6057 163.388 34.6056C163.095 34.6056 162.9 34.5302 162.794 34.3815C162.683 34.2064 162.629 34.0013 162.639 33.7943V31.3271H162.137V30.8152H162.639L162.638 29.7749Z" fill="#676867"/>
<path d="M167.113 29.4302H167.803V33.932H170.36V34.5466H167.113V29.4302Z" fill="#676867"/>
<path d="M171.393 29.7749H172.023V30.8152H172.617V31.3271H172.023V33.7639C172.017 33.8159 172.027 33.8685 172.05 33.9152C172.074 33.9619 172.111 34.0005 172.156 34.0262C172.233 34.0569 172.316 34.07 172.399 34.0644C172.427 34.0644 172.461 34.0644 172.496 34.0644C172.531 34.0644 172.571 34.0585 172.618 34.0536V34.5468C172.545 34.5679 172.47 34.5829 172.395 34.5919C172.311 34.6011 172.227 34.6057 172.142 34.6056C171.85 34.6056 171.655 34.5302 171.549 34.3815C171.438 34.2064 171.384 34.0013 171.394 33.7943V31.3271H170.891V30.8152H171.393V29.7749Z" fill="#676867"/>
<path d="M175.559 30.9305C175.703 31.0318 175.83 31.1553 175.935 31.2965V29.4116H176.535V34.5466H175.973V34.028C175.849 34.2372 175.671 34.409 175.458 34.5251C175.246 34.6304 175.012 34.6831 174.776 34.6788C174.363 34.6788 174.007 34.5036 173.703 34.1552C173.399 33.8068 173.251 33.3409 173.251 32.7606C173.239 32.2581 173.383 31.7644 173.664 31.3484C173.939 30.9504 174.332 30.7514 174.844 30.7514C175.094 30.7416 175.343 30.8037 175.559 30.9305ZM174.164 33.7265C174.333 33.996 174.603 34.1304 174.972 34.1297C175.112 34.1309 175.25 34.0975 175.374 34.0325C175.498 33.9674 175.604 33.8728 175.682 33.7569C175.867 33.5076 175.959 33.1488 175.959 32.6803C175.959 32.2119 175.864 31.8632 175.673 31.6342C175.589 31.5273 175.481 31.4413 175.359 31.3826C175.236 31.3239 175.102 31.2941 174.966 31.2955C174.819 31.2917 174.674 31.3225 174.542 31.3854C174.41 31.4483 174.294 31.5416 174.204 31.6576C174.009 31.8984 173.912 32.2536 173.912 32.7224C173.899 33.0744 173.987 33.4226 174.164 33.7265Z" fill="#676867"/>
<path d="M179.402 29.3462C179.13 29.8509 178.893 30.3741 178.694 30.912C178.52 31.4828 178.437 32.0771 178.447 32.6736C178.441 33.2998 178.535 33.9228 178.728 34.5184C178.918 35.0297 179.146 35.526 179.41 36.003H178.99C178.651 35.4733 178.442 35.1353 178.362 34.9891C178.26 34.7977 178.172 34.5992 178.098 34.3951C177.966 34.0402 177.875 33.671 177.828 33.2951C177.803 33.1029 177.79 32.9094 177.79 32.7157C177.779 32.0893 177.888 31.4667 178.112 30.8817C178.248 30.5398 178.532 30.029 178.965 29.3491L179.402 29.3462Z" fill="#676867"/>
<path d="M180.555 33.7852H181.279V34.5466H180.555V33.7852Z" fill="#676867"/>
<path d="M182.452 36.0001C182.819 35.2824 183.055 34.7579 183.162 34.4264C183.498 33.2494 183.485 31.9995 183.124 30.8298C182.933 30.3193 182.704 29.8234 182.441 29.3462H182.862C183.217 29.9168 183.432 30.27 183.508 30.4031C183.603 30.5809 183.684 30.7654 183.752 30.9551C183.859 31.2331 183.939 31.5213 183.99 31.8154C184.14 32.7077 184.052 33.6241 183.735 34.4714C183.598 34.8179 183.314 35.3274 182.884 36.0001H182.452Z" fill="#676867"/>
<path d="M185.125 30.9158C185.299 30.8832 185.414 30.7556 185.472 30.5331C185.503 30.421 185.513 30.3045 185.504 30.1886H185.125V29.4302H185.865V30.1299C185.87 30.3855 185.812 30.6384 185.695 30.8659C185.639 30.9717 185.558 31.0617 185.458 31.1278C185.358 31.194 185.244 31.2341 185.125 31.2446V30.9158ZM186.295 30.9158C186.468 30.8832 186.583 30.7556 186.638 30.5331C186.669 30.4211 186.681 30.3046 186.673 30.1886H186.295V29.4302H187.037V30.1299C187.042 30.3866 186.983 30.6405 186.866 30.8688C186.811 30.9756 186.73 31.0664 186.63 31.1322C186.53 31.1981 186.414 31.2368 186.295 31.2446V30.9158Z" fill="#676867"/>
<path d="M187.668 35.4363H188.407V29.9078H187.668V29.394H189.001V35.9511H187.668V35.4363Z" fill="#676867"/>
</g>
<defs>
<clipPath id="clip0_3624_26008">
<rect width="189" height="36" fill="white"/>
</clipPath>
</defs>
</svg>
