<svg width="40" height="40" viewBox="0 0 40 40" fill="none" xmlns="http://www.w3.org/2000/svg">
<g id="fi_11817690" clip-path="url(#clip0_20500_54410)">
<g id="Group">
<g id="Group_2">
<g id="Group_3">
<path id="Vector" d="M33.4844 38.5534H33.4769L33.4695 38.5549L31.3819 38.9637H13.992C13.7581 38.9637 13.5289 38.9159 13.3176 38.8247L12.4045 33.0752C12.4012 32.8284 12.2022 32.6286 11.9545 32.6254L6.26583 31.7643C6.17598 31.5538 6.12833 31.3253 6.12833 31.0917V1.7883C6.12833 1.61833 6.26628 1.48038 6.43626 1.48038H31.3438L33.4749 1.85416L33.4747 1.85533H33.4883C33.6583 1.85533 33.7962 1.99327 33.7962 2.16324L33.7923 38.2455C33.7923 38.4155 33.6544 38.5534 33.4844 38.5534Z" fill="#F5F5F5" stroke="#F9F9F9" stroke-width="0.155098"/>
</g>
<g id="Group_4">
<path id="Vector_2" d="M34.2635 1.78879V38.6562C34.2635 38.869 34.0293 39.0417 33.7405 39.0417H29.7344C30.6632 39.0417 31.4153 38.4874 31.4153 37.8027V2.64228C31.4153 1.95767 30.6632 1.40332 29.7344 1.40332H33.7405C34.0293 1.40332 34.2635 1.57599 34.2635 1.78879Z" fill="#E0E0E0"/>
</g>
<path id="Vector_3" d="M8.76953 7.85905V4.50756C8.76953 4.29847 8.93909 4.12891 9.14819 4.12891H30.7275C30.9366 4.12891 31.1061 4.29847 31.1061 4.50756V7.85905C31.1061 8.06814 30.9366 8.2377 30.7275 8.2377H9.14819C8.93909 8.2377 8.76953 8.06814 8.76953 7.85905Z" fill="#6078EC" fill-opacity="0.8"/>
<path id="Vector_4" d="M13.2425 32.2131V38.8782C13.0494 38.7911 12.8707 38.6685 12.7169 38.5147L6.56979 32.3593C6.41681 32.2063 6.29488 32.0283 6.20703 31.8345H12.8638C13.0736 31.8345 13.2425 32.0041 13.2425 32.2131Z" fill="#E0E0E0"/>
<path id="Vector_5" d="M30.5988 35.8704C30.8556 35.8704 31.0638 35.6622 31.0638 35.4054V29.8263C31.0638 29.7922 31.06 29.7589 31.0525 29.7264C31.007 29.5173 30.8215 29.3613 30.5988 29.3613H25.0197C24.7629 29.3613 24.5547 29.5696 24.5547 29.8263V35.4054C24.5547 35.6622 24.7629 35.8704 25.0197 35.8704H30.5988Z" fill="#5DB887"/>
</g>
<g id="Group_5">
<path id="Vector_6" d="M6.61254 1.89338H6.53499V1.97093V16.9559C6.53499 17.2268 6.31541 17.4463 6.04455 17.4463C5.77369 17.4463 5.55411 17.2268 5.55411 16.9559V1.78842C5.55411 1.30545 5.94712 0.91251 6.43002 0.91251H33.8706C34.3535 0.91251 34.7465 1.30545 34.7465 1.78842V38.6558C34.7465 39.1388 34.3535 39.5317 33.8706 39.5317H13.9858C13.375 39.5317 12.801 39.2939 12.3689 38.8617L6.2216 32.7061C5.79104 32.2746 5.55411 31.7016 5.55411 31.0918V19.6064C5.55411 19.3355 5.77369 19.116 6.04455 19.116C6.31541 19.116 6.53499 19.3355 6.53499 19.6064V31.2665V31.3441H6.61254H13.2417C13.5126 31.3441 13.7321 31.5636 13.7321 31.8345V38.4734V38.5509H13.8097H33.6881H33.7657V38.4734V1.97093V1.89338H33.6881H6.61254ZM7.41431 32.325H7.22727L7.35944 32.4573L12.6188 37.7239L12.7513 37.8565V37.6691V32.4025V32.325H12.6737H7.41431Z" fill="#212121" stroke="#F9F9F9" stroke-width="0.155098"/>
<path id="Vector_7" d="M30.6248 4.69749V4.61994H30.5472H15.3562C15.0854 4.61994 14.8658 4.40042 14.8658 4.12951C14.8658 3.85859 15.0854 3.63907 15.3562 3.63907H30.7366C31.2157 3.63907 31.6057 4.02898 31.6057 4.50816V7.85927C31.6057 8.33845 31.2157 8.72836 30.7366 8.72836H9.15758C8.67839 8.72836 8.28849 8.33845 8.28849 7.85927V4.50816C8.28849 4.02898 8.67839 3.63907 9.15758 3.63907H12.7056C12.9765 3.63907 13.196 3.85859 13.196 4.12951C13.196 4.40042 12.9765 4.61994 12.7056 4.61994H9.34691H9.26936V4.69749V7.66994V7.74749H9.34691H30.5472H30.6248V7.66994V4.69749Z" fill="#212121" stroke="#F9F9F9" stroke-width="0.155098"/>
<path id="Vector_8" d="M31.5629 29.8498L31.548 29.8702V29.8954V35.406C31.548 35.9328 31.1193 36.3615 30.5926 36.3615H25.0134C24.4867 36.3615 24.058 35.9328 24.0581 35.406V35.406V33.9421C24.0581 33.6712 24.2777 33.4517 24.5485 33.4517C24.8194 33.4517 25.039 33.6712 25.039 33.9421V35.303V35.3806H25.1165H30.4897H30.5672V35.303V31.4574V31.2189L30.427 31.4118L28.6646 33.835L28.6645 33.8352C28.5734 33.9613 28.4237 34.0374 28.2681 34.037H28.2679C28.1474 34.037 28.0304 33.9926 27.9399 33.9111L26.6903 32.7865L26.6903 32.7865C26.489 32.6053 26.4726 32.2952 26.6538 32.0938C26.835 31.8925 27.1451 31.8761 27.3464 32.0574L27.3464 32.0574L28.1274 32.7603L28.1914 32.8179L28.242 32.7483L30.2586 29.9755L30.3481 29.8524H30.1958H25.1164H25.0389V29.9299V31.2916C25.0389 31.5625 24.8193 31.782 24.5485 31.782C24.2776 31.782 24.058 31.5625 24.058 31.2916V29.8269C24.058 29.3002 24.4867 28.8715 25.0134 28.8715H31.022H31.0615L31.0847 28.8395L31.1887 28.6966C31.3481 28.4775 31.6547 28.4291 31.8738 28.5884C32.0929 28.7478 32.1413 29.0545 31.982 29.2735L31.982 29.2735L31.5629 29.8498Z" fill="#212121" stroke="#F5F5F5" stroke-width="0.155098"/>
<path id="Vector_9" d="M19.1891 30.4652H21.3455C21.6164 30.4652 21.8359 30.6848 21.8359 30.9557C21.8359 31.2266 21.6163 31.4461 21.3455 31.4461H19.1891C18.9182 31.4461 18.6986 31.2266 18.6986 30.9557C18.6986 30.6848 18.9182 30.4652 19.1891 30.4652Z" fill="#212121" stroke="#F9F9F9" stroke-width="0.155098"/>
<path id="Vector_10" d="M16.275 33.789H21.3568C21.6278 33.789 21.8473 34.0085 21.8473 34.2794C21.8473 34.5503 21.6277 34.7698 21.3568 34.7698H16.275C16.0042 34.7698 15.7846 34.5503 15.7846 34.2794C15.7846 34.0085 16.0042 33.789 16.275 33.789Z" fill="#212121" stroke="#F9F9F9" stroke-width="0.155098"/>
<path id="Vector_11" d="M18.5445 12.4366C18.5445 12.7076 18.325 12.9271 18.0541 12.9271H15.8844C15.6135 12.9271 15.394 12.7076 15.394 12.4366C15.394 12.1657 15.6135 11.9462 15.8844 11.9462H18.0541C18.325 11.9462 18.5445 12.1657 18.5445 12.4366Z" fill="#212121" stroke="#F9F9F9" stroke-width="0.155098"/>
<path id="Vector_12" d="M13.2494 12.9271H8.77892C8.50807 12.9271 8.28849 12.7076 8.28849 12.4366C8.28849 12.1657 8.50807 11.9462 8.77892 11.9462H13.2494C13.5202 11.9462 13.7398 12.1657 13.7398 12.4366C13.7398 12.7076 13.5202 12.9271 13.2494 12.9271Z" fill="#212121" stroke="#F9F9F9" stroke-width="0.155098"/>
<path id="Vector_13" d="M31.1136 16.8659C31.4272 16.8659 31.6815 16.6117 31.6815 16.298C31.6815 15.9842 31.4272 15.73 31.1136 15.73H28.3531C28.0395 15.73 27.7852 15.9842 27.7852 16.298C27.7852 16.6117 28.0395 16.8659 28.3531 16.8659H31.1136Z" fill="#212121"/>
<path id="Vector_14" d="M12.099 16.7884H8.77893C8.50807 16.7884 8.28849 16.5689 8.28849 16.298C8.28849 16.027 8.50807 15.8075 8.77893 15.8075H12.099C12.3699 15.8075 12.5894 16.027 12.5894 16.298C12.5894 16.5689 12.3699 16.7884 12.099 16.7884Z" fill="#212121" stroke="#F9F9F9" stroke-width="0.155098"/>
<path id="Vector_15" d="M14.7516 16.7884C14.4807 16.7884 14.2611 16.5689 14.2611 16.298C14.2611 16.0271 14.4807 15.8075 14.7516 15.8075H25.7062C25.977 15.8075 26.1966 16.027 26.1966 16.298C26.1966 16.5689 25.977 16.7884 25.7062 16.7884H14.7516Z" fill="#212121" stroke="#F9F9F9" stroke-width="0.155098"/>
<path id="Vector_16" d="M31.0985 20.6517H22.6696C22.3987 20.6517 22.1791 20.4322 22.1791 20.1612C22.1791 19.8903 22.3987 19.6708 22.6696 19.6708H31.0985C31.3693 19.6708 31.5889 19.8903 31.5889 20.1612C31.5889 20.4322 31.3693 20.6517 31.0985 20.6517Z" fill="#212121" stroke="#F9F9F9" stroke-width="0.155098"/>
<path id="Vector_17" d="M20.0357 20.6517H8.77892C8.50807 20.6517 8.28849 20.4322 8.28849 20.1612C8.28849 19.8903 8.50807 19.6708 8.77892 19.6708H20.0357C20.3065 19.6708 20.5261 19.8903 20.5261 20.1612C20.5261 20.4322 20.3065 20.6517 20.0357 20.6517Z" fill="#212121" stroke="#F9F9F9" stroke-width="0.155098"/>
<path id="Vector_18" d="M25.6934 23.5331C25.9642 23.5331 26.1838 23.7526 26.1838 24.0236C26.1838 24.2945 25.9642 24.514 25.6934 24.514H16.0641C15.7932 24.514 15.5736 24.2945 15.5736 24.0236C15.5736 23.7526 15.7932 23.5331 16.0641 23.5331H25.6934Z" fill="#212121" stroke="#F9F9F9" stroke-width="0.155098"/>
<path id="Vector_19" d="M28.3531 23.5331H31.1136C31.3844 23.5331 31.604 23.7526 31.604 24.0236C31.604 24.2945 31.3844 24.514 31.1136 24.514H28.3531C28.0823 24.514 27.8627 24.2945 27.8627 24.0236C27.8627 23.7526 28.0823 23.5331 28.3531 23.5331Z" fill="#212121" stroke="#F9F9F9" stroke-width="0.155098"/>
<path id="Vector_20" d="M13.4243 24.514H8.77892C8.50807 24.514 8.28849 24.2945 8.28849 24.0236C8.28849 23.7526 8.50807 23.5331 8.77892 23.5331H13.4243C13.6952 23.5331 13.9147 23.7526 13.9147 24.0236C13.9147 24.2945 13.6952 24.514 13.4243 24.514Z" fill="#212121" stroke="#F9F9F9" stroke-width="0.155098"/>
</g>
</g>
</g>
<defs>
<clipPath id="clip0_20500_54410">
<rect width="38.7746" height="38.7744" fill="white" transform="translate(0.769531 0.837891)"/>
</clipPath>
</defs>
</svg>
