<svg width="32" height="33" viewBox="0 0 32 33" fill="none" xmlns="http://www.w3.org/2000/svg">
<rect y="0.5" width="32" height="32" rx="4" fill="#6078EC" fill-opacity="0.1"/>
<path d="M18.5001 25.4584H13.5001C8.97508 25.4584 7.04175 23.5251 7.04175 19.0001V14.0001C7.04175 9.47508 8.97508 7.54175 13.5001 7.54175H17.6667C18.0084 7.54175 18.2917 7.82508 18.2917 8.16675C18.2917 8.50841 18.0084 8.79175 17.6667 8.79175H13.5001C9.65841 8.79175 8.29175 10.1584 8.29175 14.0001V19.0001C8.29175 22.8417 9.65841 24.2084 13.5001 24.2084H18.5001C22.3417 24.2084 23.7084 22.8417 23.7084 19.0001V14.8334C23.7084 14.4917 23.9917 14.2084 24.3334 14.2084C24.6751 14.2084 24.9584 14.4917 24.9584 14.8334V19.0001C24.9584 23.5251 23.0251 25.4584 18.5001 25.4584Z" fill="#6078EC"/>
<path d="M24.3334 15.4584H21.0001C18.1501 15.4584 17.0417 14.3501 17.0417 11.5001V8.16674C17.0417 7.91674 17.1917 7.68341 17.4251 7.59174C17.6584 7.49174 17.9251 7.55007 18.1084 7.72507L24.7751 14.3917C24.9501 14.5667 25.0084 14.8417 24.9084 15.0751C24.8084 15.3084 24.5834 15.4584 24.3334 15.4584ZM18.2917 9.67507V11.5001C18.2917 13.6501 18.8501 14.2084 21.0001 14.2084H22.8251L18.2917 9.67507Z" fill="#6078EC"/>
<path d="M16.8333 17.9583H11.8333C11.4916 17.9583 11.2083 17.6749 11.2083 17.3333C11.2083 16.9916 11.4916 16.7083 11.8333 16.7083H16.8333C17.1749 16.7083 17.4583 16.9916 17.4583 17.3333C17.4583 17.6749 17.1749 17.9583 16.8333 17.9583Z" fill="#6078EC"/>
<path d="M15.1666 21.2917H11.8333C11.4916 21.2917 11.2083 21.0084 11.2083 20.6667C11.2083 20.3251 11.4916 20.0417 11.8333 20.0417H15.1666C15.5083 20.0417 15.7916 20.3251 15.7916 20.6667C15.7916 21.0084 15.5083 21.2917 15.1666 21.2917Z" fill="#6078EC"/>
</svg>
