<svg width="24" height="25" viewBox="0 0 24 25" fill="none" xmlns="http://www.w3.org/2000/svg">
<g id="vuesax/outline/clock">
<g id="clock">
<path id="Vector" d="M12 23.519C6.07 23.519 1.25 18.699 1.25 12.769C1.25 6.83904 6.07 2.01904 12 2.01904C17.93 2.01904 22.75 6.83904 22.75 12.769C22.75 18.699 17.93 23.519 12 23.519ZM12 3.51904C6.9 3.51904 2.75 7.66904 2.75 12.769C2.75 17.869 6.9 22.019 12 22.019C17.1 22.019 21.25 17.869 21.25 12.769C21.25 7.66904 17.1 3.51904 12 3.51904Z" fill="#9E9E9E"/>
<path id="Vector_2" d="M15.7106 16.6988C15.5806 16.6988 15.4506 16.6688 15.3306 16.5888L12.2306 14.7388C11.4606 14.2788 10.8906 13.2688 10.8906 12.3788V8.27881C10.8906 7.86881 11.2306 7.52881 11.6406 7.52881C12.0506 7.52881 12.3906 7.86881 12.3906 8.27881V12.3788C12.3906 12.7388 12.6906 13.2688 13.0006 13.4488L16.1006 15.2988C16.4606 15.5088 16.5706 15.9688 16.3606 16.3288C16.2106 16.5688 15.9606 16.6988 15.7106 16.6988Z" fill="#9E9E9E"/>
</g>
</g>
</svg>
