<svg width="14" height="15" viewBox="0 0 14 15" fill="none" xmlns="http://www.w3.org/2000/svg">
<path d="M7.0013 13.7707C3.54214 13.7707 0.730469 10.959 0.730469 7.49984C0.730469 4.04067 3.54214 1.229 7.0013 1.229C10.4605 1.229 13.2721 4.04067 13.2721 7.49984C13.2721 10.959 10.4605 13.7707 7.0013 13.7707ZM7.0013 2.104C4.0263 2.104 1.60547 4.52484 1.60547 7.49984C1.60547 10.4748 4.0263 12.8957 7.0013 12.8957C9.9763 12.8957 12.3971 10.4748 12.3971 7.49984C12.3971 4.52484 9.9763 2.104 7.0013 2.104Z" fill="#FF3333"/>
<path d="M5.3501 9.58829C5.23927 9.58829 5.12844 9.54746 5.04094 9.45996C4.87177 9.29079 4.87177 9.01079 5.04094 8.84163L8.3426 5.53996C8.51177 5.37079 8.79177 5.37079 8.96094 5.53996C9.1301 5.70913 9.1301 5.98913 8.96094 6.15829L5.65927 9.45996C5.5776 9.54746 5.46094 9.58829 5.3501 9.58829Z" fill="#FF3333"/>
<path d="M8.65177 9.58829C8.54094 9.58829 8.4301 9.54746 8.3426 9.45996L5.04094 6.15829C4.87177 5.98913 4.87177 5.70913 5.04094 5.53996C5.2101 5.37079 5.4901 5.37079 5.65927 5.53996L8.96094 8.84163C9.1301 9.01079 9.1301 9.29079 8.96094 9.45996C8.87344 9.54746 8.7626 9.58829 8.65177 9.58829Z" fill="#FF3333"/>
</svg>
