<svg width="22" height="22" viewBox="0 0 22 22" fill="none" xmlns="http://www.w3.org/2000/svg">
<path d="M15.5833 19.2866H6.41658C3.51075 19.2866 1.14575 16.9216 1.14575 14.0158V5.23413C1.14575 4.04247 1.69575 3.62997 2.02575 3.49247C2.35575 3.35497 3.03409 3.25413 3.87742 4.09747L6.25159 6.47163C6.34325 6.5633 6.48992 6.5633 6.57242 6.47163L9.86325 3.1808C10.4683 2.5758 11.5316 2.5758 12.1274 3.1808L15.4183 6.47163C15.5099 6.5633 15.6566 6.5633 15.7391 6.47163L18.1133 4.09747C18.9566 3.25413 19.6349 3.36413 19.9649 3.49247C20.2949 3.62997 20.8449 4.0333 20.8449 5.23413V14.025C20.8541 17.1691 18.7366 19.2866 15.5833 19.2866ZM2.57575 4.8033C2.54825 4.87663 2.52075 5.01413 2.52075 5.23413V14.025C2.52075 16.17 4.27159 17.9208 6.41658 17.9208H15.5833C17.9483 17.9208 19.4791 16.39 19.4791 14.025V5.23413C19.4791 5.01413 19.4516 4.8858 19.4241 4.81247C19.3508 4.84913 19.2408 4.92247 19.0849 5.0783L16.7108 7.45247C16.1058 8.05747 15.0424 8.05747 14.4466 7.45247L11.1558 4.16163C11.0641 4.06997 10.9174 4.06997 10.8349 4.16163L7.55325 7.4433C6.94825 8.0483 5.88492 8.0483 5.28908 7.4433L2.91492 5.06913C2.75909 4.9133 2.63992 4.83997 2.57575 4.8033Z" fill="#616161"/>
</svg>
