<svg width="16" height="18" viewBox="0 0 16 18" fill="none" xmlns="http://www.w3.org/2000/svg">
<path d="M15.5 7.86377V14.25C15.4988 15.2442 15.1033 16.1973 14.4003 16.9004C13.6973 17.6034 12.7442 17.9988 11.75 18H4.25C3.2558 17.9988 2.30267 17.6034 1.59966 16.9004C0.896661 16.1973 0.501191 15.2442 0.5 14.25V3.75002C0.501191 2.75582 0.896661 1.80269 1.59966 1.09968C2.30267 0.396679 3.2558 0.00120818 4.25 1.72865e-05H7.63625C8.32596 -0.00175791 9.00919 0.133208 9.64642 0.397112C10.2836 0.661015 10.8622 1.04862 11.3488 1.53752L13.9617 4.15202C14.4509 4.6382 14.8388 5.21661 15.1028 5.85375C15.3669 6.49089 15.5019 7.17408 15.5 7.86377ZM10.2882 2.59802C10.0522 2.36939 9.7872 2.17271 9.5 2.01302V5.25002C9.5 5.44893 9.57902 5.63969 9.71967 5.78035C9.86032 5.921 10.0511 6.00002 10.25 6.00002H13.487C13.3272 5.71291 13.1303 5.44813 12.9012 5.21252L10.2882 2.59802ZM14 7.86377C14 7.74002 13.976 7.62152 13.9647 7.50002H10.25C9.65326 7.50002 9.08097 7.26296 8.65901 6.84101C8.23705 6.41905 8 5.84675 8 5.25002V1.53527C7.8785 1.52402 7.75925 1.50002 7.63625 1.50002H4.25C3.65326 1.50002 3.08097 1.73707 2.65901 2.15903C2.23705 2.58098 2 3.15328 2 3.75002V14.25C2 14.8468 2.23705 15.419 2.65901 15.841C3.08097 16.263 3.65326 16.5 4.25 16.5H11.75C12.3467 16.5 12.919 16.263 13.341 15.841C13.7629 15.419 14 14.8468 14 14.25V7.86377Z" fill="#757575"/>
</svg>
