<svg width="32" height="32" viewBox="0 0 32 32" fill="none" xmlns="http://www.w3.org/2000/svg">
<rect width="32" height="32" rx="6" fill="#6078EC" fill-opacity="0.1"/>
<path d="M22.1378 10.9866C22.7152 11.564 22.7247 12.4972 22.1591 13.0862L16.7422 18.7273C16.4669 19.014 16.0891 19.1797 15.6918 19.188L13.4164 19.2358L13.4645 16.9452C13.4726 16.5569 13.6311 16.1868 13.9065 15.913L19.4436 10.4076C20.0298 9.82467 20.9773 9.82602 21.5619 10.4106L22.1378 10.9866Z" fill="#6078EC"/>
<path opacity="0.3" d="M16.5987 9.33301C16.9669 9.33301 17.2654 9.63148 17.2654 9.99967C17.2654 10.3679 16.9669 10.6663 16.5987 10.6663H11.9987C11.2623 10.6663 10.6654 11.2633 10.6654 11.9997V19.9997C10.6654 20.7361 11.2623 21.333 11.9987 21.333H19.9987C20.7351 21.333 21.332 20.7361 21.332 19.9997V16.6663C21.332 16.2982 21.6305 15.9997 21.9987 15.9997C22.3669 15.9997 22.6654 16.2982 22.6654 16.6663V19.9997C22.6654 21.4724 21.4715 22.6663 19.9987 22.6663H11.9987C10.5259 22.6663 9.33203 21.4724 9.33203 19.9997V11.9997C9.33203 10.5269 10.5259 9.33301 11.9987 9.33301H16.5987Z" fill="#6078EC"/>
</svg>
