<svg width="21" height="21" viewBox="0 0 21 21" fill="none" xmlns="http://www.w3.org/2000/svg">
<g id="vuesax/outline/edit-2">
<g id="edit-2">
<path id="Vector" d="M4.79732 16.6045C4.28899 16.6045 3.81399 16.4295 3.47232 16.1045C3.03899 15.6962 2.83065 15.0795 2.90565 14.4129L3.21399 11.7129C3.27232 11.2045 3.58065 10.5295 3.93899 10.1629L10.7807 2.92118C12.489 1.11285 14.2723 1.06285 16.0807 2.77118C17.889 4.47952 17.939 6.26285 16.2307 8.07118L9.38899 15.3129C9.03899 15.6879 8.38899 16.0379 7.88065 16.1212L5.19732 16.5795C5.05565 16.5879 4.93065 16.6045 4.79732 16.6045ZM13.4557 2.76285C12.814 2.76285 12.2557 3.16285 11.689 3.76285L4.84732 11.0129C4.68065 11.1879 4.48899 11.6045 4.45565 11.8462L4.14732 14.5462C4.11399 14.8212 4.18065 15.0462 4.33065 15.1879C4.48065 15.3295 4.70565 15.3795 4.98065 15.3379L7.66399 14.8795C7.90565 14.8379 8.30565 14.6212 8.47232 14.4462L15.314 7.20452C16.3473 6.10452 16.7223 5.08785 15.214 3.67118C14.5473 3.02952 13.9723 2.76285 13.4557 2.76285Z" fill="#212121"/>
<path id="Vector_2" d="M14.6294 9.46293C14.6127 9.46293 14.5877 9.46293 14.5711 9.46293C11.9711 9.20459 9.8794 7.22959 9.4794 4.64626C9.4294 4.30459 9.66273 3.98793 10.0044 3.92959C10.3461 3.87959 10.6627 4.11293 10.7211 4.45459C11.0377 6.47126 12.6711 8.02126 14.7044 8.22126C15.0461 8.25459 15.2961 8.56293 15.2627 8.90459C15.2211 9.22126 14.9461 9.46293 14.6294 9.46293Z" fill="#212121"/>
<path id="Vector_3" d="M17.6797 19.2964H2.67969C2.33802 19.2964 2.05469 19.0131 2.05469 18.6714C2.05469 18.3297 2.33802 18.0464 2.67969 18.0464H17.6797C18.0214 18.0464 18.3047 18.3297 18.3047 18.6714C18.3047 19.0131 18.0214 19.2964 17.6797 19.2964Z" fill="#212121"/>
</g>
</g>
</svg>
