<svg width="39" height="40" viewBox="0 0 39 40" fill="none" xmlns="http://www.w3.org/2000/svg">
<g id="_x30_4_Job_Offer">
<g id="Group">
<path id="Vector" d="M38.633 17.1572L35.3041 19.6893L20.629 30.8561L5.95386 19.6893L2.625 17.1572L5.95378 14.012L14.7014 5.74833L18.9198 1.7645C19.8792 0.858449 21.3789 0.858449 22.3383 1.7645L26.5567 5.74833L35.3041 14.012L38.633 17.1572Z" fill="#6078EC" fill-opacity="0.6"/>
<path id="Vector_2" d="M34.8419 20.0441V9.07237C34.8419 7.69754 33.7273 6.58301 32.3525 6.58301H8.91516C7.54032 6.58301 6.42578 7.69754 6.42578 9.07237V20.0441L20.6339 30.8562L34.8419 20.0441Z" fill="#EEEEEE"/>
<g id="XMLID_1056_">
<path id="XMLID_1555_" d="M18.1604 11.2698C17.8174 11.893 17.7272 12.6115 17.9064 13.2929C18.0617 13.8831 18.3968 14.3923 18.8757 14.7654C19.3367 15.1246 19.9111 15.3313 20.4928 15.3474C20.4952 15.3475 20.4975 15.3475 20.4999 15.3475C20.6363 15.3475 20.7487 15.2388 20.7525 15.1016C20.7563 14.9621 20.6463 14.8458 20.5068 14.8419C19.5162 14.8146 18.648 14.1247 18.3954 13.1643C18.0912 12.0076 18.7463 10.8171 19.8868 10.454C20.4654 10.2698 21.0796 10.3241 21.6163 10.6067C22.1519 10.8888 22.5435 11.3628 22.7194 11.9418C22.8314 12.3649 22.795 12.7571 22.5981 13.2522C22.542 13.3933 22.3677 13.7217 21.9622 13.7217C21.898 13.7217 21.8331 13.6919 21.7794 13.638C21.7074 13.5656 21.6663 13.4633 21.6669 13.3562V11.266C21.6669 11.1264 21.5537 11.0132 21.4141 11.0132C21.2744 11.0132 21.1612 11.1264 21.1612 11.266V11.3466C20.9639 11.182 20.7188 11.0881 20.4441 11.0881C19.8056 11.0881 19.1452 11.6417 19.1452 12.568C19.1452 12.9763 19.2746 13.3586 19.5095 13.6447C19.7476 13.9347 20.0786 14.101 20.4175 14.101C20.7352 14.101 21.0213 13.9607 21.2392 13.7269C21.283 13.8262 21.3443 13.9175 21.421 13.9946C21.5703 14.1446 21.7625 14.2273 21.9622 14.2273C22.5464 14.2273 22.9164 13.8201 23.068 13.439C23.3056 12.8414 23.3485 12.3383 23.2068 11.8075C23.2061 11.8049 23.2054 11.8022 23.2046 11.7996C22.9899 11.0882 22.5095 10.5057 21.8519 10.1594C21.1944 9.8131 20.4421 9.74663 19.7334 9.97222C19.062 10.186 18.5034 10.6468 18.1604 11.2698ZM20.4176 13.5954C19.9948 13.5954 19.6508 13.1345 19.6508 12.568C19.6508 11.9581 20.0542 11.5937 20.4442 11.5937C20.8643 11.5937 21.1578 11.9912 21.1578 12.5603C21.1577 13.131 20.8257 13.5954 20.4176 13.5954Z" fill="black"/>
</g>
<path id="Vector_3" opacity="0.1" d="M34.8393 9.07149V20.0442L33.372 21.1616V10.5408C33.372 9.16616 32.2566 8.05079 30.8819 8.05079H7.44449C7.1399 8.05079 6.84773 8.10637 6.57812 8.20717C6.92793 7.25849 7.84163 6.5835 8.91384 6.5835H32.3492C33.726 6.5835 34.8393 7.69682 34.8393 9.07149Z" fill="#212121"/>
<path id="Vector_4" d="M38.6331 17.1587V36.8712C38.6331 37.5815 38.3351 38.2227 37.8557 38.6765C37.4098 39.1007 36.808 39.3611 36.1431 39.3611H5.11498C4.45006 39.3611 3.84822 39.1007 3.40239 38.6765C2.92293 38.2227 2.625 37.5815 2.625 36.8712V17.1587L5.95356 19.6861L17.9003 28.7779L19.9622 27.3731C20.3647 27.0989 20.8934 27.0989 21.296 27.3731L23.3558 28.7779H23.3578L35.3025 19.6861L38.6331 17.1587Z" fill="#6078EC" fill-opacity="0.6"/>
<g id="Group_2">
<path id="Vector_5" d="M1.06306 26.4146C0.926823 26.4146 0.816406 26.525 0.816406 26.6612V27.3329C0.816406 27.4692 0.926823 27.5796 1.06306 27.5796C1.19931 27.5796 1.30972 27.4692 1.30972 27.3329V26.6612C1.30972 26.525 1.19931 26.4146 1.06306 26.4146Z" fill="#212121"/>
<path id="Vector_6" d="M1.06306 28.3677C0.926823 28.3677 0.816406 28.4781 0.816406 28.6143V32.2916C0.816406 32.4279 0.926823 32.5383 1.06306 32.5383C1.19931 32.5383 1.30972 32.4279 1.30972 32.2916V28.6143C1.30972 28.4781 1.19931 28.3677 1.06306 28.3677Z" fill="#212121"/>
<path id="Vector_7" d="M38.7992 16.9771L35.0803 13.4631V9.07089C35.0803 7.56195 33.8528 6.33427 32.3437 6.33427H27.533L22.5039 1.58343C21.4513 0.589379 19.8008 0.589379 18.7458 1.58343L13.7168 6.33419H8.90587C7.39813 6.33419 6.17135 7.56187 6.17135 9.07082V13.4631L2.45247 16.977C2.40234 17.0245 2.375 17.0995 2.375 17.1579V36.8714C2.375 38.3846 3.61541 39.6074 5.11088 39.6074H36.1397C37.6319 39.6074 38.8755 38.387 38.8755 36.8714V17.173C38.8653 17.0774 38.8407 17.0163 38.7992 16.9771ZM38.2491 17.136C38.2293 17.1511 34.8666 19.7063 35.0802 19.5439V14.1416L38.2491 17.136ZM19.0844 1.94224C19.9489 1.1273 21.3021 1.1273 22.1651 1.94201L26.8144 6.33419H14.4353L19.0844 1.94224ZM8.90587 6.82751H32.3436C33.5806 6.82751 34.587 7.8339 34.587 9.07089V19.9193L23.3456 28.4753L21.4312 27.1687C20.9418 26.8345 20.3086 26.8348 19.8193 27.1687L17.9062 28.4745C17.5157 28.1773 20.132 30.1682 6.66459 19.9201V9.07089C6.66467 7.83382 7.67001 6.82751 8.90587 6.82751ZM6.17135 14.1416V19.5447C5.32694 18.9033 3.76589 17.718 3.00251 17.136L6.17135 14.1416ZM2.86824 17.6549C3.69356 18.2809 16.3633 27.922 17.4757 28.7683L3.43252 38.3539C3.08264 37.9582 2.86824 37.4399 2.86824 36.8715V17.6549ZM5.11088 39.1142C4.62529 39.1142 4.17658 38.9574 3.80905 38.6941L20.0971 27.5762C20.4181 27.3573 20.8324 27.3573 21.1534 27.5762L37.4416 38.694C37.074 38.9574 36.6253 39.1142 36.1397 39.1142H5.11088ZM38.3822 36.8715C38.3822 37.4399 38.1679 37.9582 37.818 38.3539L23.7756 28.7689C23.7954 28.7539 39.3701 16.903 38.3822 17.6549V36.8715Z" fill="#212121"/>
<path id="Vector_8" d="M32.5664 5.27264C33.8248 5.34027 34.9664 6.02874 35.62 7.11435C35.691 7.23196 35.8433 7.26801 35.9585 7.19833C36.0753 7.12813 36.1129 6.97659 36.0427 6.85982C35.3044 5.63403 34.0148 4.8565 32.5778 4.77979C32.444 4.77979 32.3358 4.88626 32.3321 5.01978C32.3286 5.15337 32.4331 5.26552 32.5664 5.27264Z" fill="#212121"/>
<path id="Vector_9" d="M36.1503 9.15092C36.1503 9.28716 36.2608 9.39758 36.397 9.39758C36.5332 9.39758 36.6437 9.28716 36.6437 9.15092C36.6409 9.08557 36.6635 8.74349 36.5627 8.23957C36.5361 8.10598 36.4065 8.01874 36.2725 8.04601C36.139 8.07259 36.0523 8.20254 36.0791 8.33606C36.1622 8.75364 36.1489 9.11677 36.1503 9.15092Z" fill="#212121"/>
<path id="Vector_10" d="M30.9809 17.3052H10.274C10.1378 17.3052 10.0273 17.4156 10.0273 17.5518C10.0273 17.6881 10.1378 17.7985 10.274 17.7985H30.9809C31.1172 17.7985 31.2276 17.6881 31.2276 17.5518C31.2276 17.4156 31.1172 17.3052 30.9809 17.3052Z" fill="#212121"/>
<path id="Vector_11" d="M30.9809 19.7964H10.274C10.1378 19.7964 10.0273 19.9068 10.0273 20.043C10.0273 20.1793 10.1378 20.2897 10.274 20.2897H30.9809C31.1172 20.2897 31.2276 20.1793 31.2276 20.043C31.2276 19.9068 31.1172 19.7964 30.9809 19.7964Z" fill="#212121"/>
</g>
<g id="Group_3">
<path id="Vector_12" d="M36.9928 28.5659C36.8565 28.5659 36.7461 28.6763 36.7461 28.8126V29.4844C36.7461 29.6206 36.8565 29.731 36.9928 29.731C37.129 29.731 37.2394 29.6206 37.2394 29.4844V28.8126C37.2393 28.6763 37.1289 28.5659 36.9928 28.5659Z" fill="white"/>
<path id="Vector_13" d="M36.9928 30.5186C36.8565 30.5186 36.7461 30.629 36.7461 30.7652V32.3275C36.7461 32.4638 36.8565 32.5742 36.9928 32.5742C37.129 32.5742 37.2394 32.4638 37.2394 32.3275V30.7652C37.2393 30.629 37.1289 30.5186 36.9928 30.5186Z" fill="white"/>
</g>
</g>
</g>
</svg>
