<svg width="592" height="115" viewBox="0 0 592 115" fill="none" xmlns="http://www.w3.org/2000/svg">
<rect width="592" height="115" fill="#6078EC" fill-opacity="0.1"/>
<g clip-path="url(#clip0_21162_53533)">
<path d="M340.99 29.8299C342.415 29.8299 343.57 28.6748 343.57 27.2499C343.57 25.825 342.415 24.6699 340.99 24.6699C339.565 24.6699 338.41 25.825 338.41 27.2499C338.41 28.6748 339.565 29.8299 340.99 29.8299Z" stroke="#ABB3FF" stroke-width="1.5" stroke-linecap="round" stroke-linejoin="round"/>
<path d="M215.15 76.8494C216.575 76.8494 217.73 75.6943 217.73 74.2694C217.73 72.8446 216.575 71.6895 215.15 71.6895C213.725 71.6895 212.57 72.8446 212.57 74.2694C212.57 75.6943 213.725 76.8494 215.15 76.8494Z" stroke="#CBD0FF" stroke-width="1.5" stroke-linecap="round" stroke-linejoin="round"/>
<path d="M240.859 17.0498V23.1398" stroke="#99A3FF" stroke-width="1.5" stroke-linecap="round" stroke-linejoin="round"/>
<path d="M243.899 20.0898H237.809" stroke="#99A3FF" stroke-width="1.5" stroke-linecap="round" stroke-linejoin="round"/>
<path d="M316.539 85.3594V91.4594" stroke="#BEB6FF" stroke-width="1.5" stroke-linecap="round" stroke-linejoin="round"/>
<path d="M319.59 88.4102H313.5" stroke="#BEB6FF" stroke-width="1.5" stroke-linecap="round" stroke-linejoin="round"/>
<path d="M302.549 45.9805H266.699V67.1305H302.549V45.9805Z" fill="#B6B5FF"/>
<path d="M302.539 67.1302L284.619 53.4102L266.699 67.1302H302.539Z" fill="#99A3FF"/>
<path d="M266.699 46L282.899 58.4C283.392 58.7795 283.997 58.9853 284.619 58.9853C285.241 58.9853 285.846 58.7795 286.339 58.4L302.549 46H266.699Z" fill="#CBD0FF"/>
<path d="M141.129 68.0594V67.9994C141.129 67.3709 140.879 66.7681 140.435 66.3236C139.99 65.8791 139.387 65.6294 138.759 65.6294H109.999C109.683 65.6228 109.37 65.6792 109.077 65.7953C108.783 65.9114 108.516 66.0849 108.291 66.3057C108.065 66.5264 107.886 66.7899 107.764 67.0808C107.642 67.3716 107.579 67.6839 107.579 67.9994V68.0894C107.583 68.4024 107.649 68.7115 107.773 68.9988C107.897 69.2862 108.076 69.5462 108.301 69.7637C108.526 69.9813 108.792 70.1521 109.084 70.2664C109.375 70.3806 109.686 70.4361 109.999 70.4294H114.139C114.45 70.4294 114.758 70.4907 115.046 70.6098C115.333 70.7289 115.595 70.9035 115.815 71.1236C116.035 71.3437 116.209 71.6049 116.328 71.8925C116.448 72.18 116.509 72.4882 116.509 72.7994C116.509 73.428 116.259 74.0308 115.815 74.4753C115.37 74.9197 114.767 75.1694 114.139 75.1694H102.999C102.37 75.1694 101.768 75.4191 101.323 75.8636C100.879 76.3081 100.629 76.9109 100.629 77.5394V77.6294C100.629 78.258 100.879 78.8608 101.323 79.3053C101.768 79.7497 102.37 79.9994 102.999 79.9994H130.089C130.717 79.9994 131.32 79.7497 131.765 79.3053C132.209 78.8608 132.459 78.258 132.459 77.6294V77.5394C132.459 77.2282 132.398 76.92 132.278 76.6325C132.159 76.3449 131.985 76.0837 131.765 75.8636C131.545 75.6435 131.283 75.4689 130.996 75.3498C130.708 75.2307 130.4 75.1694 130.089 75.1694H128.569C127.942 75.1668 127.342 74.9159 126.9 74.4718C126.457 74.0276 126.209 73.4263 126.209 72.7994C126.209 72.1726 126.457 71.5713 126.9 71.1271C127.342 70.6829 127.942 70.4321 128.569 70.4294H138.759C139.387 70.4294 139.99 70.1797 140.435 69.7353C140.879 69.2908 141.129 68.688 141.129 68.0594Z" fill="#BDC4FF"/>
<path d="M309 50.1299H325.32" stroke="#ABB3FF" stroke-width="1.5" stroke-linecap="round" stroke-linejoin="round"/>
<path d="M333.389 50.1299H330.699" stroke="#ABB3FF" stroke-width="1.5" stroke-linecap="round" stroke-linejoin="round"/>
<path d="M309 56.5596H328.68" stroke="#ABB3FF" stroke-width="1.5" stroke-linecap="round" stroke-linejoin="round"/>
<path d="M338.41 56.5596H335.16" stroke="#ABB3FF" stroke-width="1.5" stroke-linecap="round" stroke-linejoin="round"/>
<path d="M309 62.9805H325.32" stroke="#ABB3FF" stroke-width="1.5" stroke-linecap="round" stroke-linejoin="round"/>
<path d="M333.389 62.9805H330.699" stroke="#ABB3FF" stroke-width="1.5" stroke-linecap="round" stroke-linejoin="round"/>
<path d="M149.721 22.5199C149.721 22.2282 149.605 21.9484 149.399 21.7421C149.192 21.5358 148.913 21.4199 148.621 21.4199H137.711V31.4199H143.601C143.893 31.4199 144.172 31.304 144.379 31.0977C144.585 30.8914 144.701 30.6117 144.701 30.3199C144.701 30.0282 144.585 29.7484 144.379 29.5421C144.172 29.3358 143.893 29.2199 143.601 29.2199H142.001C141.777 29.2199 141.563 29.1318 141.403 28.9745C141.244 28.8173 141.154 28.6036 141.151 28.3799C141.147 28.2658 141.166 28.152 141.207 28.0454C141.248 27.9388 141.31 27.8415 141.389 27.7594C141.468 27.6773 141.563 27.6119 141.669 27.5674C141.774 27.5228 141.887 27.4999 142.001 27.4999H146.201C146.493 27.4999 146.772 27.384 146.979 27.1777C147.185 26.9714 147.301 26.6917 147.301 26.3999C147.301 26.2559 147.272 26.1134 147.217 25.9805C147.162 25.8476 147.08 25.727 146.978 25.6256C146.876 25.5243 146.755 25.4442 146.621 25.39C146.488 25.3358 146.345 25.3086 146.201 25.3099H144.931C144.819 25.3099 144.709 25.2879 144.606 25.2452C144.503 25.2025 144.409 25.1399 144.33 25.061C144.251 24.982 144.188 24.8883 144.146 24.7852C144.103 24.6821 144.081 24.5715 144.081 24.4599C144.084 24.2362 144.174 24.0226 144.333 23.8653C144.493 23.7081 144.707 23.6199 144.931 23.6199H148.621C148.913 23.6199 149.192 23.504 149.399 23.2977C149.605 23.0914 149.721 22.8117 149.721 22.5199Z" fill="white"/>
<path d="M92 22.5199C92 22.2282 92.1159 21.9484 92.3222 21.7421C92.5285 21.5358 92.8083 21.4199 93.1 21.4199H104V31.4199H98.11C97.9621 31.4213 97.8155 31.3929 97.6789 31.3364C97.5423 31.2798 97.4185 31.1963 97.3149 31.0908C97.2112 30.9853 97.13 30.86 97.0759 30.7224C97.0218 30.5848 96.996 30.4377 97 30.2899C97 30.1455 97.0285 30.0024 97.0837 29.869C97.139 29.7355 97.22 29.6142 97.3222 29.5121C97.4243 29.41 97.5456 29.3289 97.679 29.2737C97.8125 29.2184 97.9555 29.1899 98.1 29.1899H99.69C99.9128 29.1899 100.126 29.1014 100.284 28.9439C100.442 28.7864 100.53 28.5727 100.53 28.3499C100.531 28.2388 100.511 28.1285 100.469 28.0254C100.427 27.9223 100.366 27.8285 100.288 27.7495C100.209 27.6704 100.116 27.6076 100.014 27.5648C99.9112 27.522 99.8012 27.4999 99.69 27.4999H95.51C95.2183 27.4999 94.9385 27.384 94.7322 27.1777C94.5259 26.9714 94.41 26.6917 94.41 26.3999C94.4126 26.1099 94.5297 25.8327 94.7357 25.6286C94.9417 25.4244 95.22 25.3099 95.51 25.3099H96.79C96.9012 25.3099 97.0112 25.2879 97.1138 25.245C97.2164 25.2022 97.3094 25.1394 97.3875 25.0604C97.4657 24.9813 97.5273 24.8875 97.569 24.7844C97.6106 24.6814 97.6313 24.5711 97.63 24.4599C97.63 24.2371 97.5415 24.0235 97.384 23.866C97.2264 23.7084 97.0128 23.6199 96.79 23.6199H93.1C92.8083 23.6199 92.5285 23.504 92.3222 23.2977C92.1159 23.0914 92 22.8117 92 22.5199Z" fill="white"/>
<path d="M138.78 18.79H102.93V39.94H138.78V18.79Z" fill="#B6B5FF"/>
<path d="M138.781 39.9405L120.861 26.2305L102.941 39.9405H138.781Z" fill="#99A3FF"/>
<path d="M102.93 18.79L119.14 31.19C119.633 31.5695 120.237 31.7753 120.86 31.7753C121.482 31.7753 122.087 31.5695 122.58 31.19L138.78 18.79H102.93Z" fill="#CBD0FF"/>
<path d="M474.928 93.3695C474.928 93.1441 474.839 92.9279 474.679 92.7685C474.52 92.6091 474.304 92.5195 474.078 92.5195H465.648V100.22H470.208C470.432 100.217 470.646 100.126 470.803 99.9671C470.96 99.8079 471.048 99.5932 471.048 99.3695C471.048 99.1458 470.96 98.9311 470.803 98.772C470.646 98.6129 470.432 98.5222 470.208 98.5195H468.998C468.825 98.5196 468.659 98.4514 468.535 98.3298C468.412 98.2082 468.341 98.0428 468.338 97.8695C468.341 97.6962 468.412 97.5309 468.535 97.4093C468.659 97.2877 468.825 97.2195 468.998 97.2195H472.218C472.444 97.2195 472.66 97.13 472.819 96.9706C472.979 96.8112 473.068 96.595 473.068 96.3695C473.068 96.1441 472.979 95.9279 472.819 95.7685C472.66 95.6091 472.444 95.5195 472.218 95.5195H471.218C471.046 95.5195 470.881 95.4511 470.759 95.3292C470.637 95.2073 470.568 95.0419 470.568 94.8695C470.568 94.7842 470.585 94.6997 470.618 94.6208C470.651 94.5419 470.698 94.4703 470.759 94.4099C470.819 94.3496 470.891 94.3017 470.97 94.269C471.049 94.2363 471.133 94.2195 471.218 94.2195H474.068C474.181 94.2209 474.293 94.1998 474.397 94.1577C474.501 94.1156 474.596 94.0532 474.676 93.9741C474.756 93.8951 474.819 93.8009 474.863 93.6971C474.906 93.5934 474.928 93.482 474.928 93.3695Z" fill="white"/>
<path d="M430.32 93.3695C430.32 93.2579 430.342 93.1474 430.385 93.0443C430.428 92.9411 430.49 92.8474 430.569 92.7685C430.648 92.6896 430.742 92.627 430.845 92.5842C430.948 92.5415 431.059 92.5195 431.17 92.5195H439.6V100.22H435C434.889 100.22 434.778 100.198 434.675 100.155C434.572 100.112 434.478 100.05 434.399 99.9706C434.32 99.8916 434.258 99.7979 434.215 99.6948C434.172 99.5917 434.15 99.4812 434.15 99.3695C434.15 99.2579 434.172 99.1474 434.215 99.0443C434.258 98.9411 434.32 98.8474 434.399 98.7685C434.478 98.6896 434.572 98.627 434.675 98.5842C434.778 98.5415 434.889 98.5195 435 98.5195H436.22C436.393 98.5195 436.558 98.4511 436.68 98.3292C436.802 98.2073 436.87 98.0419 436.87 97.8695C436.87 97.6971 436.802 97.5318 436.68 97.4099C436.558 97.288 436.393 97.2195 436.22 97.2195H433C432.775 97.2195 432.559 97.13 432.399 96.9706C432.24 96.8112 432.15 96.595 432.15 96.3695C432.15 96.1441 432.24 95.9279 432.399 95.7685C432.559 95.6091 432.775 95.5195 433 95.5195H434C434.173 95.5195 434.338 95.4511 434.46 95.3292C434.582 95.2073 434.65 95.0419 434.65 94.8695C434.65 94.7842 434.633 94.6997 434.601 94.6208C434.568 94.5419 434.52 94.4703 434.46 94.4099C434.4 94.3496 434.328 94.3017 434.249 94.269C434.17 94.2363 434.086 94.2195 434 94.2195H431.15C430.928 94.2143 430.717 94.1225 430.562 93.9636C430.407 93.8048 430.32 93.5915 430.32 93.3695Z" fill="white"/>
<path d="M466.48 90.4902H438.77V106.84H466.48V90.4902Z" fill="#B6B5FF"/>
<path d="M466.48 106.83L452.62 96.2305L438.77 106.83H466.48Z" fill="#99A3FF"/>
<path d="M438.77 90.4902L451.29 100.07C451.674 100.361 452.143 100.519 452.625 100.519C453.107 100.519 453.575 100.361 453.96 100.07L466.48 90.4902H438.77Z" fill="#CBD0FF"/>
<path d="M423.241 8.27937C423.238 8.10077 423.165 7.93036 423.038 7.80499C422.911 7.67962 422.739 7.60936 422.561 7.60938H415.891V13.7094H419.491C419.579 13.7107 419.668 13.6943 419.75 13.6613C419.833 13.6282 419.908 13.5791 419.971 13.5167C420.034 13.4544 420.084 13.3801 420.119 13.2981C420.153 13.2162 420.171 13.1282 420.171 13.0394C420.171 12.859 420.099 12.6861 419.971 12.5585C419.844 12.431 419.671 12.3594 419.491 12.3594H418.491C418.423 12.3607 418.355 12.3485 418.292 12.3235C418.229 12.2984 418.172 12.2611 418.124 12.2136C418.075 12.1661 418.037 12.1094 418.01 12.0469C417.984 11.9843 417.971 11.9172 417.971 11.8494C417.971 11.7115 418.025 11.5792 418.123 11.4817C418.22 11.3842 418.353 11.3294 418.491 11.3294H421.051C421.228 11.3294 421.399 11.2588 421.524 11.1331C421.65 11.0075 421.721 10.8371 421.721 10.6594C421.721 10.4817 421.65 10.3113 421.524 10.1856C421.399 10.06 421.228 9.98938 421.051 9.98938H420.261C420.193 9.98939 420.126 9.97587 420.063 9.94962C420.001 9.92337 419.944 9.8849 419.896 9.83648C419.849 9.78806 419.812 9.73065 419.787 9.66762C419.761 9.60458 419.749 9.53719 419.751 9.46938C419.763 9.33496 419.828 9.21076 419.93 9.12305C420.033 9.03534 420.166 8.99099 420.301 8.99937H422.561C422.653 8.99954 422.745 8.98071 422.83 8.94407C422.916 8.90742 422.992 8.85372 423.056 8.78628C423.12 8.71884 423.169 8.63907 423.201 8.5519C423.233 8.46472 423.246 8.37198 423.241 8.27937Z" fill="white"/>
<path d="M387.898 8.27945C387.898 8.19062 387.916 8.10267 387.95 8.02072C387.985 7.93877 388.035 7.86446 388.098 7.80212C388.161 7.73977 388.237 7.69063 388.319 7.65755C388.401 7.62447 388.49 7.60812 388.578 7.60945H395.248V13.7094H391.638C391.55 13.7056 391.462 13.6841 391.382 13.6462C391.301 13.6083 391.229 13.5548 391.17 13.4887C391.11 13.4226 391.064 13.3453 391.035 13.2613C391.005 13.1773 390.993 13.0883 390.998 12.9994C390.998 12.8208 391.069 12.6494 391.194 12.5221C391.319 12.3949 391.49 12.3221 391.668 12.3194H392.668C392.736 12.3208 392.804 12.3086 392.867 12.2835C392.93 12.2585 392.987 12.2211 393.036 12.1737C393.084 12.1262 393.122 12.0695 393.149 12.007C393.175 11.9444 393.188 11.8773 393.188 11.8094C393.188 11.6715 393.134 11.5393 393.036 11.4418C392.939 11.3442 392.806 11.2894 392.668 11.2894H390.108C389.931 11.2894 389.76 11.2189 389.635 11.0932C389.509 10.9676 389.438 10.7971 389.438 10.6194C389.438 10.4418 389.509 10.2713 389.635 10.1457C389.76 10.02 389.931 9.94945 390.108 9.94945H390.898C390.966 9.94946 391.033 9.93595 391.096 9.90969C391.158 9.88344 391.215 9.84498 391.263 9.79656C391.31 9.74813 391.347 9.69073 391.373 9.62769C391.398 9.56466 391.41 9.49726 391.408 9.42945C391.408 9.29325 391.355 9.16248 391.26 9.06525C391.164 8.96801 391.035 8.91207 390.898 8.90945H388.638C388.548 8.91908 388.457 8.91021 388.37 8.88338C388.283 8.85655 388.202 8.81232 388.133 8.75338C388.064 8.69444 388.007 8.62203 387.967 8.54055C387.927 8.45907 387.903 8.37024 387.898 8.27945Z" fill="white"/>
<path d="M416.542 6H394.602V18.95H416.542V6Z" fill="#B6B5FF"/>
<path d="M416.542 18.9498L405.572 10.5498L394.602 18.9498H416.542Z" fill="#99A3FF"/>
<path d="M394.602 6L404.512 13.59C404.814 13.8227 405.185 13.9489 405.567 13.9489C405.948 13.9489 406.319 13.8227 406.622 13.59L416.542 6H394.602Z" fill="#CBD0FF"/>
<path d="M190.26 97.5901C190.261 97.5013 190.245 97.4131 190.212 97.3307C190.179 97.2482 190.13 97.1732 190.067 97.1099C190.005 97.0466 189.931 96.9964 189.849 96.9621C189.767 96.9278 189.679 96.9101 189.59 96.9102H182.91V103H186.52C186.698 103 186.868 102.93 186.994 102.804C187.12 102.678 187.19 102.508 187.19 102.33C187.19 102.152 187.12 101.982 186.994 101.856C186.868 101.731 186.698 101.66 186.52 101.66H185.52C185.382 101.66 185.25 101.605 185.152 101.508C185.055 101.41 185 101.278 185 101.14C185.003 101.004 185.059 100.874 185.156 100.779C185.253 100.684 185.384 100.63 185.52 100.63H188.08C188.259 100.628 188.429 100.555 188.555 100.427C188.68 100.3 188.75 100.129 188.75 99.9501C188.75 99.7725 188.68 99.602 188.554 99.4764C188.428 99.3507 188.258 99.2802 188.08 99.2802H187.3C187.162 99.2802 187.03 99.2254 186.932 99.1278C186.835 99.0303 186.78 98.8981 186.78 98.7602C186.78 98.6923 186.794 98.6252 186.82 98.5626C186.846 98.5001 186.885 98.4434 186.933 98.3959C186.981 98.3485 187.039 98.3111 187.102 98.2861C187.165 98.261 187.232 98.2488 187.3 98.2502H189.56C189.65 98.2542 189.739 98.2402 189.823 98.2089C189.908 98.1777 189.985 98.1299 190.05 98.0683C190.115 98.0068 190.167 97.9327 190.204 97.8506C190.24 97.7684 190.259 97.6799 190.26 97.5901Z" fill="white"/>
<path d="M154.931 97.5901C154.93 97.5013 154.946 97.4131 154.979 97.3307C155.012 97.2482 155.061 97.1732 155.124 97.1099C155.186 97.0466 155.26 96.9964 155.342 96.9621C155.424 96.9278 155.512 96.9101 155.601 96.9102H162.281V103H158.671C158.493 103 158.323 102.93 158.197 102.804C158.071 102.678 158.001 102.508 158.001 102.33C158.001 102.152 158.071 101.982 158.197 101.856C158.323 101.731 158.493 101.66 158.671 101.66H159.671C159.809 101.66 159.941 101.605 160.039 101.508C160.136 101.41 160.191 101.278 160.191 101.14C160.191 101.072 160.177 101.005 160.151 100.943C160.125 100.88 160.086 100.823 160.038 100.776C159.99 100.728 159.932 100.691 159.869 100.666C159.806 100.641 159.739 100.629 159.671 100.63H157.081C156.909 100.631 156.743 100.566 156.617 100.449C156.491 100.332 156.414 100.172 156.401 100C156.401 99.9113 156.419 99.8234 156.453 99.7414C156.487 99.6595 156.537 99.5852 156.601 99.5228C156.664 99.4605 156.739 99.4113 156.821 99.3783C156.904 99.3452 156.992 99.3288 157.081 99.3302H157.861C157.929 99.3302 157.996 99.3167 158.058 99.2904C158.121 99.2641 158.178 99.2257 158.225 99.1773C158.273 99.1288 158.31 99.0714 158.335 99.0084C158.36 98.9454 158.372 98.878 158.371 98.8102C158.371 98.6749 158.317 98.5452 158.222 98.4495C158.126 98.3539 157.996 98.3002 157.861 98.3002H155.601C155.509 98.3003 155.419 98.2818 155.335 98.2456C155.251 98.2095 155.175 98.1565 155.112 98.09C155.05 98.0235 155.001 97.9448 154.97 97.8588C154.939 97.7729 154.925 97.6814 154.931 97.5901Z" fill="white"/>
<path d="M183.561 95.2998H161.621V108.25H183.561V95.2998Z" fill="#B6B5FF"/>
<path d="M183.561 108.25L172.591 99.8496L161.621 108.25H183.561Z" fill="#99A3FF"/>
<path d="M161.621 95.2998L171.541 102.89C171.844 103.123 172.214 103.249 172.596 103.249C172.978 103.249 173.349 103.123 173.651 102.89L183.561 95.2998H161.621Z" fill="#CBD0FF"/>
</g>
<path d="M503.22 45.4693C503.22 45.0803 503.383 44.7072 503.672 44.4321C503.962 44.157 504.355 44.0025 504.765 44.0025H506.173C506.739 44.0025 507.282 43.7889 507.683 43.4087C508.084 43.0285 508.309 42.5129 508.309 41.9752C508.309 41.4375 508.084 40.9219 507.683 40.5417C507.282 40.1615 506.739 39.9479 506.173 39.9479H495.828C495.63 39.9491 495.433 39.913 495.25 39.8416C495.067 39.7702 494.9 39.665 494.76 39.532C494.62 39.399 494.509 39.241 494.434 39.067C494.359 38.893 494.32 38.7066 494.322 38.5185C494.322 38.1394 494.48 37.7758 494.763 37.5078C495.045 37.2397 495.428 37.0891 495.828 37.0891H500.523C500.803 37.0891 501.081 37.0367 501.34 36.9348C501.599 36.8329 501.835 36.6836 502.033 36.4953C502.232 36.3071 502.389 36.0836 502.496 35.8376C502.604 35.5917 502.659 35.328 502.659 35.0618C502.659 34.5241 502.434 34.0085 502.033 33.6283C501.633 33.2481 501.089 33.0345 500.523 33.0345H499.794C499.239 33.032 498.707 32.8216 498.315 32.4489C497.922 32.0763 497.701 31.5716 497.698 31.0446C497.698 30.5168 497.919 30.0106 498.312 29.6375C498.705 29.2643 499.238 29.0546 499.794 29.0546H508.761C509.042 29.0546 509.32 29.0022 509.579 28.9003C509.838 28.7984 510.073 28.6491 510.272 28.4608C510.47 28.2726 510.627 28.0491 510.735 27.8031C510.842 27.5572 510.897 27.2935 510.897 27.0273C510.897 26.4896 510.672 25.974 510.272 25.5938C509.871 25.2136 509.328 25 508.761 25H486.634C486.068 25 485.525 25.2136 485.124 25.5938C484.724 25.974 484.498 26.4896 484.498 27.0273C484.498 27.2935 484.554 27.5572 484.661 27.8031C484.768 28.0491 484.926 28.2726 485.124 28.4608C485.322 28.6491 485.558 28.7984 485.817 28.9003C486.076 29.0022 486.354 29.0546 486.634 29.0546H486.979C487.535 29.0546 488.068 29.2643 488.461 29.6375C488.855 30.0106 489.075 30.5168 489.075 31.0446C489.075 31.5723 488.855 32.0785 488.461 32.4517C488.068 32.8248 487.535 33.0345 486.979 33.0345H477.136C476.569 33.0345 476.026 33.2481 475.626 33.6283C475.225 34.0085 475 34.5241 475 35.0618C475 35.328 475.055 35.5917 475.163 35.8376C475.27 36.0836 475.427 36.3071 475.626 36.4953C475.824 36.6836 476.059 36.8329 476.319 36.9348C476.578 37.0367 476.855 37.0891 477.136 37.0891H484.479C484.878 37.0891 485.261 37.2397 485.544 37.5078C485.826 37.7758 485.985 38.1394 485.985 38.5185C485.987 38.8919 485.835 39.2513 485.561 39.5189C485.286 39.7864 484.912 39.9405 484.518 39.9479H481.565C481.285 39.9479 481.007 40.0003 480.748 40.1022C480.489 40.2041 480.253 40.3534 480.055 40.5417C479.857 40.7299 479.699 40.9534 479.592 41.1994C479.485 41.4454 479.429 41.709 479.429 41.9752C479.429 42.5129 479.654 43.0285 480.055 43.4087C480.456 43.7889 480.999 44.0025 481.565 44.0025H490.04C490.45 44.0025 490.843 44.157 491.133 44.4321C491.423 44.7072 491.585 45.0803 491.585 45.4693C491.585 45.8583 491.423 46.2314 491.133 46.5064C490.843 46.7815 490.45 46.936 490.04 46.936H484.046C483.478 46.9385 482.935 47.1542 482.535 47.5359C482.134 47.9175 481.91 48.4342 481.91 48.9727C481.91 49.5104 482.135 50.026 482.535 50.4062C482.936 50.7864 483.479 51 484.046 51H514.864C515.431 51 515.974 50.7864 516.374 50.4062C516.775 50.026 517 49.5104 517 48.9727C517 48.4342 516.775 47.9175 516.375 47.5359C515.975 47.1542 515.431 46.9385 514.864 46.936H504.765C504.562 46.936 504.361 46.8981 504.174 46.8244C503.986 46.7507 503.816 46.6426 503.672 46.5064C503.529 46.3702 503.415 46.2085 503.337 46.0306C503.26 45.8526 503.22 45.6619 503.22 45.4693Z" fill="#BDC4FF"/>
<defs>
<clipPath id="clip0_21162_53533">
<rect width="387.28" height="102.25" fill="white" transform="translate(92 6)"/>
</clipPath>
</defs>
</svg>
