<svg width="20" height="33" viewBox="0 0 20 33" fill="none" xmlns="http://www.w3.org/2000/svg">
<path d="M8.32393 32.6809V28.6281H11.4469V32.6809H8.32393ZM8.32393 4.52174V0.451382H11.4469V4.52174H8.32393ZM10.131 29.7334C8.42334 29.7334 6.88527 29.4293 5.51678 28.821C4.16 28.2011 3.04299 27.3298 2.16576 26.2069C1.28853 25.0723 0.715404 23.739 0.446386 22.2067L3.5167 21.6979C3.89098 23.2536 4.68049 24.4875 5.88522 25.3998C7.10165 26.3122 8.5637 26.7683 10.2714 26.7683C11.9908 26.7683 13.3826 26.3531 14.447 25.5227C15.5114 24.6922 16.0436 23.622 16.0436 22.312C16.0436 21.3529 15.757 20.5809 15.1839 19.9961C14.6224 19.4113 13.675 18.9142 12.3416 18.5048L6.56946 16.7153C3.11902 15.6392 1.3938 13.5806 1.3938 10.5395C1.3938 9.11258 1.73884 7.86691 2.42893 6.80254C3.13071 5.72647 4.10737 4.89602 5.35888 4.3112C6.6221 3.71468 8.09 3.42227 9.76258 3.43397C11.3884 3.44566 12.8387 3.74977 14.1137 4.34629C15.3886 4.93111 16.4412 5.77325 17.2717 6.87272C18.1138 7.97218 18.6811 9.28803 18.9735 10.8203L15.8155 11.3992C15.6517 10.405 15.2891 9.53365 14.7277 8.78508C14.178 8.03651 13.4762 7.45754 12.6224 7.04816C11.7685 6.62709 10.8094 6.41071 9.74504 6.39901C8.75084 6.38731 7.85607 6.55106 7.06071 6.89026C6.27705 7.22946 5.65714 7.70316 5.20098 8.31138C4.74482 8.91959 4.51674 9.61553 4.51674 10.3992C4.51674 11.253 4.83254 11.9782 5.46415 12.5747C6.10745 13.1595 7.11335 13.6625 8.48183 14.0836L13.2189 15.4871C15.3008 16.107 16.8038 16.9433 17.7278 17.996C18.6519 19.037 19.1139 20.4289 19.1139 22.1716C19.1139 23.6805 18.7396 25.0022 17.991 26.1367C17.2541 27.2713 16.2073 28.1544 14.8505 28.786C13.5054 29.4176 11.9323 29.7334 10.131 29.7334Z" fill="#5DB887"/>
</svg>
