<svg width="15" height="16" viewBox="0 0 15 16" fill="none" xmlns="http://www.w3.org/2000/svg">
<path fill-rule="evenodd" clip-rule="evenodd" d="M4.60733 4.14973C4.60733 2.73938 5.92264 1.45455 7.73032 1.45455C9.538 1.45455 10.8533 2.73938 10.8533 4.14973C10.8533 5.56008 9.538 6.84492 7.73032 6.84492C5.92264 6.84492 4.60733 5.56008 4.60733 4.14973ZM7.73032 0C5.28511 0 3.15278 1.77974 3.15278 4.14973C3.15278 6.51973 5.28511 8.29947 7.73032 8.29947C10.1755 8.29947 12.3079 6.51973 12.3079 4.14973C12.3079 1.77974 10.1755 0 7.73032 0ZM2.04048 13.1337C2.04048 12.6459 2.45856 12.0751 3.60242 11.5902C4.69272 11.128 6.19487 10.8663 7.73032 10.8663C9.24929 10.8663 10.7504 11.172 11.8467 11.6592C12.3957 11.9032 12.8088 12.1776 13.0745 12.4508C13.337 12.7208 13.4202 12.9497 13.4202 13.1337C13.4202 13.176 13.4057 13.286 13.1956 13.4606C12.9791 13.6405 12.617 13.8313 12.0899 14.002C11.0419 14.3415 9.52019 14.5455 7.73032 14.5455C5.94046 14.5455 4.41879 14.3415 3.37079 14.002C2.84368 13.8313 2.48155 13.6405 2.26505 13.4606C2.05496 13.286 2.04048 13.176 2.04048 13.1337ZM7.73032 9.41176C6.05722 9.41176 4.35082 9.69308 3.0347 10.251C1.77214 10.7863 0.585938 11.7128 0.585938 13.1337C0.585938 13.7457 0.915236 14.2302 1.3354 14.5793C1.74915 14.9231 2.30375 15.1854 2.92256 15.3858C4.16638 15.7887 5.85326 16 7.73032 16C9.60738 16 11.2943 15.7887 12.5381 15.3858C13.1569 15.1854 13.7115 14.9231 14.1252 14.5793C14.5454 14.2302 14.8747 13.7457 14.8747 13.1337C14.8747 12.4621 14.5568 11.8888 14.1174 11.4369C13.6812 10.9882 13.0917 10.6208 12.4375 10.3301C11.1273 9.74778 9.41991 9.41176 7.73032 9.41176Z" fill="#757575"/>
</svg>
