<svg width="22" height="22" viewBox="0 0 22 22" fill="none" xmlns="http://www.w3.org/2000/svg">
<path d="M11.0036 20.8383C5.57907 20.8383 1.16992 16.4291 1.16992 11.0046C1.16992 5.58005 5.57907 1.1709 11.0036 1.1709C16.4281 1.1709 20.8373 5.58005 20.8373 11.0046C20.8373 16.4291 16.419 20.8383 11.0036 20.8383ZM11.0036 2.54304C6.33832 2.54304 2.54206 6.3393 2.54206 11.0046C2.54206 15.6699 6.33832 19.4661 11.0036 19.4661C15.6689 19.4661 19.4651 15.6699 19.4651 11.0046C19.4651 6.3393 15.6689 2.54304 11.0036 2.54304Z" fill="#757575"/>
<path d="M13.1079 11.8738C12.925 11.8738 12.7512 11.8006 12.6231 11.6726L5.14037 4.17154C4.87509 3.90626 4.87509 3.46717 5.14037 3.20189C5.40565 2.93661 5.84473 2.93661 6.11001 3.20189L12.431 9.53204L12.4402 7.02559C12.4402 6.65054 12.7512 6.33952 13.1262 6.33952C13.5013 6.31208 13.8123 6.65054 13.8123 7.02559L13.8032 11.1878C13.8032 11.4622 13.6385 11.7183 13.3824 11.8189C13.2909 11.8555 13.1994 11.8738 13.1079 11.8738Z" fill="#757575"/>
<path d="M16.3746 18.9998C16.2008 18.9998 16.027 18.9357 15.8898 18.7985L9.56879 12.4684L9.55964 14.9748C9.55964 15.3499 9.24862 15.6609 8.87357 15.6609C8.49852 15.6609 8.1875 15.3499 8.1875 14.9748L8.19665 10.8126C8.19665 10.5382 8.3613 10.2821 8.61744 10.1815C8.87357 10.0717 9.16629 10.1357 9.36754 10.3278L16.8503 17.8289C17.1156 18.0941 17.1156 18.5332 16.8503 18.7985C16.7314 18.9357 16.5484 18.9998 16.3746 18.9998Z" fill="#757575"/>
</svg>
