<svg width="16" height="16" viewBox="0 0 16 16" fill="none" xmlns="http://www.w3.org/2000/svg">
<g clip-path="url(#clip0_19788_37213)">
<path d="M14.5625 14.0938V6.67016C14.5625 6.11094 14.1078 5.65626 13.5486 5.65626H10.8125V2.25126C10.8125 2.21094 10.8036 1.70423 10.363 1.40891C9.92234 1.11407 9.45031 1.29876 9.41281 1.31376L2.53391 4.14641C2.15281 4.30344 1.90625 4.67094 1.90625 5.08391V14.0938H1.4375C1.17875 14.0938 0.96875 14.3038 0.96875 14.5625C0.96875 14.8213 1.17875 15.0313 1.4375 15.0313H2.375H10.3438H14.0938H14.5625C14.8212 15.0313 15.0312 14.8213 15.0312 14.5625C15.0312 14.3038 14.8212 14.0938 14.5625 14.0938ZM2.84375 5.08391C2.84375 5.05298 2.8625 5.02532 2.89109 5.0136L9.77 2.18141C9.79578 2.1711 9.81922 2.17344 9.84125 2.18844C9.86375 2.20298 9.875 2.22407 9.875 2.25126V6.12501V14.0938H2.84375V5.08391ZM10.8125 14.0938V6.59376H13.5486C13.5908 6.59376 13.625 6.62798 13.625 6.67016V14.0938H10.8125Z" fill="#004CE8"/>
<path d="M7.53125 11.75H5.1875C4.92875 11.75 4.71875 11.96 4.71875 12.2188C4.71875 12.4775 4.92875 12.6875 5.1875 12.6875H7.53125C7.79 12.6875 8 12.4775 8 12.2188C8 11.96 7.79 11.75 7.53125 11.75Z" fill="#004CE8"/>
<path d="M7.53125 9.875H5.1875C4.92875 9.875 4.71875 10.085 4.71875 10.3438C4.71875 10.6025 4.92875 10.8125 5.1875 10.8125H7.53125C7.79 10.8125 8 10.6025 8 10.3438C8 10.085 7.79 9.875 7.53125 9.875Z" fill="#004CE8"/>
<path d="M7.53125 8H5.1875C4.92875 8 4.71875 8.21 4.71875 8.46875C4.71875 8.7275 4.92875 8.9375 5.1875 8.9375H7.53125C7.79 8.9375 8 8.7275 8 8.46875C8 8.21 7.79 8 7.53125 8Z" fill="#004CE8"/>
<path d="M7.53125 6.125H5.1875C4.92875 6.125 4.71875 6.335 4.71875 6.59375C4.71875 6.8525 4.92875 7.0625 5.1875 7.0625H7.53125C7.79 7.0625 8 6.8525 8 6.59375C8 6.335 7.79 6.125 7.53125 6.125Z" fill="#004CE8"/>
</g>
<defs>
<clipPath id="clip0_19788_37213">
<rect width="15" height="15" fill="white" transform="translate(0.5 0.5)"/>
</clipPath>
</defs>
</svg>
