<svg width="20" height="14" viewBox="0 0 20 14" fill="none" xmlns="http://www.w3.org/2000/svg">
<path d="M9.99793 9.85201C8.3128 9.85201 6.94238 8.57296 6.94238 7.00016C6.94238 5.42737 8.3128 4.14831 9.99793 4.14831C11.6831 4.14831 13.0535 5.42737 13.0535 7.00016C13.0535 8.57296 11.6831 9.85201 9.99793 9.85201ZM9.99793 5.57424C9.15536 5.57424 8.47016 6.21376 8.47016 7.00016C8.47016 7.78656 9.15536 8.42609 9.99793 8.42609C10.8405 8.42609 11.5257 7.78656 11.5257 7.00016C11.5257 6.21376 10.8405 5.57424 9.99793 5.57424ZM13.8166 13.4168C12.5684 13.4168 11.4501 13.1324 10.3692 12.8572C9.33946 12.5948 8.3678 12.3474 7.32432 12.3474C6.12425 12.3474 5.36724 12.4194 4.71259 12.5962C3.79134 12.8436 2.82273 12.6768 2.05425 12.1371C1.27738 11.5916 0.832031 10.7589 0.832031 9.85201V4.47057C0.832031 2.99973 1.82432 1.65864 3.30168 1.13319C4.32606 0.768153 5.29467 0.583496 6.18002 0.583496C7.42821 0.583496 8.54578 0.867968 9.62745 1.14317C10.6572 1.40554 11.6288 1.65294 12.6723 1.65294C13.8716 1.65294 14.6294 1.58093 15.284 1.40412C16.2068 1.15672 17.1754 1.32355 17.9431 1.86326C18.72 2.40868 19.1654 3.24142 19.1654 4.14831V9.52975C19.1654 11.0006 18.1723 12.3417 16.6949 12.8671C15.6706 13.2322 14.7027 13.4168 13.8166 13.4168ZM7.32432 10.9215C8.57252 10.9215 9.69009 11.2059 10.7718 11.4811C11.8015 11.7435 12.7731 11.9909 13.8166 11.9909C14.5148 11.9909 15.3001 11.8376 16.1511 11.5346C17.0547 11.2138 17.6376 10.4267 17.6376 9.52975V4.14831C17.6376 3.69415 17.4138 3.27636 17.0242 3.00329C16.643 2.73593 16.164 2.6518 15.7065 2.77443C14.9036 2.99046 14.0244 3.07887 12.6708 3.07887C11.4226 3.07887 10.305 2.79439 9.22335 2.51919C8.19363 2.25682 7.22196 2.00942 6.17849 2.00942C5.47953 2.00942 4.69502 2.16271 3.84405 2.46572C2.94036 2.78655 2.35752 3.57366 2.35752 4.47057V9.85201C2.35752 10.3062 2.58134 10.724 2.97092 10.997C3.3521 11.2644 3.83106 11.3485 4.28786 11.2252C5.09071 11.0092 5.97071 10.9207 7.32356 10.9207L7.32432 10.9215Z" fill="#757575"/>
</svg>
