<svg width="32" height="33" viewBox="0 0 32 33" fill="none" xmlns="http://www.w3.org/2000/svg">
<rect y="0.5" width="32" height="32" rx="4" fill="#6078EC" fill-opacity="0.1"/>
<path d="M13.6329 16.1834C13.6079 16.1834 13.5912 16.1834 13.5662 16.1834C13.5246 16.1751 13.4662 16.1751 13.4162 16.1834C10.9996 16.1084 9.17456 14.2084 9.17456 11.8667C9.17456 9.48341 11.1162 7.54175 13.4996 7.54175C15.8829 7.54175 17.8246 9.48341 17.8246 11.8667C17.8162 14.2084 15.9829 16.1084 13.6579 16.1834C13.6496 16.1834 13.6412 16.1834 13.6329 16.1834ZM13.4996 8.79175C11.8079 8.79175 10.4246 10.1751 10.4246 11.8667C10.4246 13.5334 11.7246 14.8751 13.3829 14.9334C13.4329 14.9251 13.5412 14.9251 13.6496 14.9334C15.2829 14.8584 16.5662 13.5167 16.5746 11.8667C16.5746 10.1751 15.1912 8.79175 13.4996 8.79175Z" fill="#00C247"/>
<path d="M19.783 16.2916C19.758 16.2916 19.733 16.2916 19.708 16.2833C19.3663 16.3166 19.0163 16.0749 18.983 15.7333C18.9496 15.3916 19.158 15.0833 19.4996 15.0416C19.5996 15.0333 19.708 15.0333 19.7996 15.0333C21.0163 14.9666 21.9663 13.9666 21.9663 12.7416C21.9663 11.4749 20.9413 10.4499 19.6746 10.4499C19.333 10.4583 19.0496 10.1749 19.0496 9.83325C19.0496 9.49159 19.333 9.20825 19.6746 9.20825C21.6246 9.20825 23.2163 10.7999 23.2163 12.7499C23.2163 14.6666 21.7163 16.2166 19.808 16.2916C19.7996 16.2916 19.7913 16.2916 19.783 16.2916Z" fill="#00C247"/>
<path d="M13.6413 25.2916C12.008 25.2916 10.3663 24.8749 9.12467 24.0416C7.96634 23.2749 7.33301 22.2249 7.33301 21.0833C7.33301 19.9416 7.96634 18.8833 9.12467 18.1083C11.6247 16.4499 15.6747 16.4499 18.158 18.1083C19.308 18.8749 19.9497 19.9249 19.9497 21.0666C19.9497 22.2083 19.3163 23.2666 18.158 24.0416C16.908 24.8749 15.2747 25.2916 13.6413 25.2916ZM9.81634 19.1583C9.01634 19.6916 8.58301 20.3749 8.58301 21.0916C8.58301 21.7999 9.02467 22.4833 9.81634 23.0083C11.8913 24.3999 15.3913 24.3999 17.4663 23.0083C18.2663 22.4749 18.6997 21.7916 18.6997 21.0749C18.6997 20.3666 18.258 19.6833 17.4663 19.1583C15.3913 17.7749 11.8913 17.7749 9.81634 19.1583Z" fill="#00C247"/>
<path d="M21.283 23.7917C20.9913 23.7917 20.733 23.5917 20.6746 23.2917C20.608 22.95 20.8246 22.625 21.158 22.55C21.683 22.4417 22.1663 22.2333 22.5413 21.9417C23.0163 21.5833 23.2746 21.1333 23.2746 20.6583C23.2746 20.1833 23.0163 19.7333 22.5496 19.3833C22.183 19.1 21.7246 18.9 21.183 18.775C20.8496 18.7 20.633 18.3667 20.708 18.025C20.783 17.6917 21.1163 17.475 21.458 17.55C22.1746 17.7083 22.7996 17.9917 23.308 18.3833C24.083 18.9667 24.5246 19.7917 24.5246 20.6583C24.5246 21.525 24.0746 22.35 23.2996 22.9417C22.783 23.3417 22.133 23.6333 21.4163 23.775C21.3663 23.7917 21.3246 23.7917 21.283 23.7917Z" fill="#00C247"/>
</svg>
