<svg width="21" height="20" viewBox="0 0 21 20" fill="none" xmlns="http://www.w3.org/2000/svg">
<path d="M16.4924 6H12.4924C12.1237 6 11.8257 6.298 11.8257 6.66667C11.8257 7.03533 12.1237 7.33333 12.4924 7.33333H16.2164L11.8417 11.708C11.4657 12.084 10.8537 12.084 10.477 11.708L8.78435 10.0153C7.88835 9.11933 6.43035 9.11933 5.53435 10.0153L2.68769 12.862C2.42702 13.1227 2.42702 13.544 2.68769 13.8047C2.81769 13.9347 2.98835 14 3.15902 14C3.32969 14 3.50035 13.9347 3.63035 13.8047L6.47702 10.958C6.84169 10.5933 7.47702 10.5933 7.84169 10.958L9.53435 12.6507C10.4304 13.5467 11.8884 13.5467 12.7844 12.6507L17.1597 8.276V12C17.1597 12.3687 17.4577 12.6667 17.8264 12.6667C18.195 12.6667 18.493 12.3687 18.493 12V8C18.493 6.89733 17.5957 6 16.493 6H16.4924Z" fill="#757575"/>
</svg>
