<svg width="15" height="16" viewBox="0 0 15 16" fill="none" xmlns="http://www.w3.org/2000/svg">
<path fill-rule="evenodd" clip-rule="evenodd" d="M2.25409 1.69938C2.08647 1.69938 1.91002 1.77214 1.76846 1.92812C1.62483 2.08638 1.53385 2.31453 1.53385 2.56512V13.5836C1.53385 13.8342 1.62483 14.0624 1.76846 14.2206C1.91002 14.3766 2.08647 14.4494 2.25409 14.4494H10.1172V7.65772V2.56512C10.1172 2.31453 10.0262 2.08639 9.88258 1.92812C9.74102 1.77214 9.56458 1.69938 9.39695 1.69938H2.25409ZM2.25409 15.8661H10.8255H12.4922C13.1221 15.8661 13.7262 15.6158 14.1716 15.1704C14.617 14.725 14.8672 14.1209 14.8672 13.491V7.65772C14.8672 7.26651 14.5501 6.94938 14.1589 6.94938H11.5339V2.56512C11.5339 1.98077 11.3238 1.40817 10.9316 0.976046C10.5374 0.541634 9.98708 0.282715 9.39695 0.282715H2.25409C1.66396 0.282715 1.11367 0.541634 0.719417 0.976046C0.327232 1.40818 0.117188 1.98077 0.117188 2.56512V13.5836C0.117188 14.168 0.327232 14.7406 0.719417 15.1727C1.11367 15.6071 1.66396 15.8661 2.25409 15.8661ZM11.5339 14.4494V8.36605H13.4505V13.491C13.4505 13.7452 13.3496 13.989 13.1698 14.1687C12.9901 14.3484 12.7464 14.4494 12.4922 14.4494H11.5339ZM4.15885 4.44938C3.76765 4.44938 3.45052 4.76651 3.45052 5.15772C3.45052 5.54892 3.76765 5.86605 4.15885 5.86605H7.49219C7.88339 5.86605 8.20052 5.54892 8.20052 5.15772C8.20052 4.76651 7.88339 4.44938 7.49219 4.44938H4.15885ZM3.45052 7.65772C3.45052 7.26651 3.76765 6.94938 4.15885 6.94938H7.49219C7.88339 6.94938 8.20052 7.26651 8.20052 7.65772C8.20052 8.04892 7.88339 8.36605 7.49219 8.36605H4.15885C3.76765 8.36605 3.45052 8.04892 3.45052 7.65772ZM4.15885 10.2827C3.76765 10.2827 3.45052 10.5998 3.45052 10.991C3.45052 11.3823 3.76765 11.6994 4.15885 11.6994H6.65885C7.05006 11.6994 7.36719 11.3823 7.36719 10.991C7.36719 10.5998 7.05006 10.2827 6.65885 10.2827H4.15885Z" fill="#6078EC"/>
</svg>
