<svg width="18" height="19" viewBox="0 0 18 19" fill="none" xmlns="http://www.w3.org/2000/svg">
<path fill-rule="evenodd" clip-rule="evenodd" d="M2.85876 2.04495C2.66944 2.04495 2.47016 2.12712 2.31028 2.30329C2.14806 2.48203 2.04531 2.73971 2.04531 3.02272V15.4672C2.04531 15.7502 2.14806 16.0079 2.31028 16.1866C2.47016 16.3628 2.66944 16.4449 2.85876 16.4449H11.7394V8.77436V3.02272C11.7394 2.73971 11.6367 2.48203 11.4745 2.30329C11.3146 2.12712 11.1153 2.04495 10.926 2.04495H2.85876ZM2.85876 18.0449H12.5394H14.4218C15.1332 18.0449 15.8155 17.7623 16.3185 17.2593C16.8215 16.7563 17.1041 16.074 17.1041 15.3626V8.77436C17.1041 8.33253 16.746 7.97436 16.3041 7.97436H13.3394V3.02272C13.3394 2.36275 13.1022 1.71605 12.6593 1.228C12.214 0.737372 11.5925 0.444946 10.926 0.444946H2.85876C2.19225 0.444946 1.57075 0.737372 1.12548 1.228C0.682539 1.71605 0.445312 2.36275 0.445312 3.02272V15.4672C0.445312 16.1271 0.68254 16.7738 1.12548 17.2619C1.57075 17.7525 2.19225 18.0449 2.85876 18.0449ZM13.3394 16.4449V9.57436H15.5041V15.3626C15.5041 15.6496 15.3901 15.9249 15.1871 16.1279C14.9841 16.3309 14.7088 16.4449 14.4218 16.4449H13.3394ZM5.01002 5.15083C4.56819 5.15083 4.21002 5.509 4.21002 5.95083C4.21002 6.39266 4.56819 6.75083 5.01002 6.75083H8.77472C9.21655 6.75083 9.57472 6.39266 9.57472 5.95083C9.57472 5.509 9.21655 5.15083 8.77472 5.15083H5.01002ZM4.21002 8.77436C4.21002 8.33253 4.56819 7.97436 5.01002 7.97436H8.77472C9.21655 7.97436 9.57472 8.33253 9.57472 8.77436C9.57472 9.21619 9.21655 9.57436 8.77472 9.57436H5.01002C4.56819 9.57436 4.21002 9.21619 4.21002 8.77436ZM5.01002 11.7391C4.56819 11.7391 4.21002 12.0972 4.21002 12.5391C4.21002 12.9809 4.56819 13.3391 5.01002 13.3391H7.83355C8.27537 13.3391 8.63355 12.9809 8.63355 12.5391C8.63355 12.0972 8.27537 11.7391 7.83355 11.7391H5.01002Z" fill="#6078EC"/>
</svg>
