<svg width="32" height="33" viewBox="0 0 32 33" fill="none" xmlns="http://www.w3.org/2000/svg">
<rect y="0.5" width="32" height="32" rx="4" fill="#FFB03A" fill-opacity="0.1"/>
<path d="M18.5001 25.4584H13.5001C8.97508 25.4584 7.04175 23.5251 7.04175 19.0001V14.0001C7.04175 9.47508 8.97508 7.54175 13.5001 7.54175H18.5001C23.0251 7.54175 24.9584 9.47508 24.9584 14.0001V19.0001C24.9584 23.5251 23.0251 25.4584 18.5001 25.4584ZM13.5001 8.79175C9.65841 8.79175 8.29175 10.1584 8.29175 14.0001V19.0001C8.29175 22.8417 9.65841 24.2084 13.5001 24.2084H18.5001C22.3417 24.2084 23.7084 22.8417 23.7084 19.0001V14.0001C23.7084 10.1584 22.3417 8.79175 18.5001 8.79175H13.5001Z" fill="#FFB03A"/>
<path d="M19.6667 22.5417H16.5C14.9 22.5417 14.125 21.7667 14.125 20.1667V18.6667C14.125 17.0667 14.9 16.2917 16.5 16.2917H19.6667C21.2667 16.2917 22.0417 17.0667 22.0417 18.6667V20.1667C22.0417 21.7667 21.2667 22.5417 19.6667 22.5417ZM16.5 17.5417C15.6 17.5417 15.375 17.7667 15.375 18.6667V20.1667C15.375 21.0667 15.6 21.2917 16.5 21.2917H19.6667C20.5667 21.2917 20.7917 21.0667 20.7917 20.1667V18.6667C20.7917 17.7667 20.5667 17.5417 19.6667 17.5417H16.5Z" fill="#FFB03A"/>
</svg>
