<svg width="20" height="21" viewBox="0 0 20 21" fill="none" xmlns="http://www.w3.org/2000/svg">
<path d="M9.58464 18.4901C4.8763 18.4901 1.04297 14.6567 1.04297 9.94841C1.04297 5.24007 4.8763 1.40674 9.58464 1.40674C14.293 1.40674 18.1263 5.24007 18.1263 9.94841C18.1263 14.6567 14.293 18.4901 9.58464 18.4901ZM9.58464 2.65674C5.55964 2.65674 2.29297 5.93174 2.29297 9.94841C2.29297 13.9651 5.55964 17.2401 9.58464 17.2401C13.6096 17.2401 16.8763 13.9651 16.8763 9.94841C16.8763 5.93174 13.6096 2.65674 9.58464 2.65674Z" fill="#6078EC"/>
<path d="M18.3326 19.3238C18.1742 19.3238 18.0159 19.2654 17.8909 19.1404L16.2242 17.4738C15.9826 17.2321 15.9826 16.8321 16.2242 16.5904C16.4659 16.3488 16.8659 16.3488 17.1076 16.5904L18.7742 18.2571C19.0159 18.4988 19.0159 18.8988 18.7742 19.1404C18.6492 19.2654 18.4909 19.3238 18.3326 19.3238Z" fill="#6078EC"/>
</svg>
