<svg width="78" height="23" viewBox="0 0 78 23" fill="none" xmlns="http://www.w3.org/2000/svg">
<path d="M4.992 18.234C4.2068 18.234 3.4996 18.104 2.8704 17.844C2.2464 17.5788 1.729 17.2044 1.3182 16.7208C0.9126 16.2372 0.6474 15.6626 0.5226 14.997L1.6926 14.802C1.8798 15.53 2.275 16.102 2.8782 16.518C3.4814 16.9288 4.2016 17.1342 5.0388 17.1342C5.59 17.1342 6.084 17.0484 6.5208 16.8768C6.9576 16.7 7.3008 16.4504 7.5504 16.128C7.8 15.8056 7.9248 15.4234 7.9248 14.9814C7.9248 14.6902 7.8728 14.4432 7.7688 14.2404C7.6648 14.0324 7.527 13.8608 7.3554 13.7256C7.1838 13.5904 6.9966 13.4786 6.7938 13.3902C6.591 13.2966 6.3934 13.2212 6.201 13.164L3.354 12.3138C3.0108 12.215 2.6936 12.0902 2.4024 11.9394C2.1112 11.7834 1.8564 11.5988 1.638 11.3856C1.4248 11.1672 1.2584 10.9124 1.1388 10.6212C1.0192 10.33 0.9594 9.9972 0.9594 9.6228C0.9594 8.9884 1.1258 8.4398 1.4586 7.977C1.7914 7.5142 2.2464 7.158 2.8236 6.9084C3.4008 6.6588 4.0586 6.5366 4.797 6.5418C5.5458 6.5418 6.214 6.6744 6.8016 6.9396C7.3944 7.2048 7.8832 7.5844 8.268 8.0784C8.6528 8.5672 8.9076 9.147 9.0324 9.8178L7.8312 10.0362C7.7532 9.5474 7.5738 9.1236 7.293 8.7648C7.0122 8.406 6.6534 8.1304 6.2166 7.938C5.785 7.7404 5.3092 7.639 4.7892 7.6338C4.2848 7.6338 3.835 7.7196 3.4398 7.8912C3.0498 8.0576 2.7404 8.2864 2.5116 8.5776C2.2828 8.8688 2.1684 9.2016 2.1684 9.576C2.1684 9.9556 2.2724 10.2598 2.4804 10.4886C2.6936 10.7174 2.9536 10.8968 3.2604 11.0268C3.5724 11.1568 3.874 11.2634 4.1652 11.3466L6.3648 11.994C6.5936 12.0564 6.8614 12.1474 7.1682 12.267C7.4802 12.3814 7.7818 12.5478 8.073 12.7662C8.3694 12.9794 8.6138 13.2602 8.8062 13.6086C8.9986 13.957 9.0948 14.399 9.0948 14.9346C9.0948 15.4546 8.9908 15.92 8.7828 16.3308C8.58 16.7416 8.2914 17.0874 7.917 17.3682C7.5478 17.649 7.1136 17.8622 6.6144 18.0078C6.1204 18.1586 5.5796 18.234 4.992 18.234ZM13.8015 18.234C12.9799 18.234 12.2675 18.052 11.6643 17.688C11.0663 17.324 10.6009 16.8118 10.2681 16.1514C9.93529 15.491 9.76889 14.7162 9.76889 13.827C9.76889 12.9066 9.93269 12.111 10.2603 11.4402C10.5879 10.7694 11.0481 10.252 11.6409 9.888C12.2389 9.524 12.9435 9.342 13.7547 9.342C14.5867 9.342 15.2965 9.5344 15.8841 9.9192C16.4717 10.2988 16.9163 10.8448 17.2179 11.5572C17.5195 12.2696 17.6573 13.1198 17.6313 14.1078H16.4613V13.7022C16.4405 12.6102 16.2039 11.786 15.7515 11.2296C15.3043 10.6732 14.6491 10.395 13.7859 10.395C12.8811 10.395 12.1869 10.6888 11.7033 11.2764C11.2249 11.864 10.9857 12.7012 10.9857 13.788C10.9857 14.8488 11.2249 15.673 11.7033 16.2606C12.1869 16.843 12.8707 17.1342 13.7547 17.1342C14.3579 17.1342 14.8831 16.9964 15.3303 16.7208C15.7827 16.44 16.1389 16.037 16.3989 15.5118L17.4675 15.9252C17.1347 16.6584 16.6433 17.2278 15.9933 17.6334C15.3485 18.0338 14.6179 18.234 13.8015 18.234ZM10.5801 14.1078V13.1484H17.0151V14.1078H10.5801ZM22.1625 18.234C21.3773 18.234 20.7065 18.039 20.1501 17.649C19.5937 17.2538 19.1673 16.7208 18.8709 16.05C18.5745 15.3792 18.4263 14.6226 18.4263 13.7802C18.4263 12.943 18.5719 12.189 18.8631 11.5182C19.1595 10.8474 19.5833 10.317 20.1345 9.927C20.6857 9.537 21.3461 9.342 22.1157 9.342C22.9061 9.342 23.5717 9.5344 24.1125 9.9192C24.6533 10.304 25.0615 10.8318 25.3371 11.5026C25.6179 12.1682 25.7583 12.9274 25.7583 13.7802C25.7583 14.6174 25.6205 15.374 25.3449 16.05C25.0693 16.7208 24.6637 17.2538 24.1281 17.649C23.5925 18.039 22.9373 18.234 22.1625 18.234ZM22.2795 17.1654C22.8775 17.1654 23.3715 17.0198 23.7615 16.7286C24.1515 16.4374 24.4427 16.037 24.6351 15.5274C24.8275 15.0126 24.9237 14.4302 24.9237 13.7802C24.9237 13.1198 24.8275 12.5374 24.6351 12.033C24.4427 11.5234 24.1515 11.1256 23.7615 10.8396C23.3767 10.5536 22.8905 10.4106 22.3029 10.4106C21.6997 10.4106 21.2005 10.5588 20.8053 10.8552C20.4101 11.1516 20.1163 11.5546 19.9239 12.0642C19.7367 12.5738 19.6431 13.1458 19.6431 13.7802C19.6431 14.4198 19.7393 14.997 19.9317 15.5118C20.1293 16.0214 20.4231 16.4244 20.8131 16.7208C21.2031 17.0172 21.6919 17.1654 22.2795 17.1654ZM24.7989 21.744V15.9174H24.9237V9.576H25.9533V21.744H24.7989ZM30.8949 18.2106C30.3905 18.2106 29.9485 18.1326 29.5689 17.9766C29.1945 17.8206 28.8747 17.61 28.6095 17.3448C28.3495 17.0796 28.1389 16.778 27.9777 16.44C27.8165 16.0968 27.6995 15.7354 27.6267 15.3558C27.5539 14.971 27.5175 14.5888 27.5175 14.2092V9.576H28.6719V13.8738C28.6719 14.3366 28.7161 14.7656 28.8045 15.1608C28.8929 15.556 29.0333 15.9018 29.2257 16.1982C29.4233 16.4894 29.6755 16.7156 29.9823 16.8768C30.2943 17.038 30.6713 17.1186 31.1133 17.1186C31.5189 17.1186 31.8751 17.0484 32.1819 16.908C32.4939 16.7676 32.7539 16.5674 32.9619 16.3074C33.1751 16.0422 33.3363 15.7224 33.4455 15.348C33.5547 14.9684 33.6093 14.542 33.6093 14.0688L34.4205 14.2482C34.4205 15.1114 34.2697 15.8368 33.9681 16.4244C33.6665 17.012 33.2505 17.4566 32.7201 17.7582C32.1897 18.0598 31.5813 18.2106 30.8949 18.2106ZM33.7263 18V15.9252H33.6093V9.576H34.7559V18H33.7263ZM36.624 7.977V6.69H37.7706V7.977H36.624ZM36.624 18V9.576H37.7706V18H36.624Z" fill="#6078EC"/>
<path d="M43.3365 18.2524C42.4895 18.2524 41.7575 18.0421 41.1405 17.6214C40.5291 17.2007 40.0551 16.6286 39.7186 15.905C39.3876 15.1758 39.2222 14.3568 39.2222 13.4481C39.2222 12.5338 39.3904 11.7177 39.727 10.9997C40.0635 10.2761 40.5403 9.70681 41.1573 9.29173C41.78 8.87104 42.5176 8.66069 43.3702 8.66069C44.2284 8.66069 44.9492 8.87104 45.5325 9.29173C46.1215 9.70681 46.5646 10.2761 46.8619 10.9997C47.1648 11.7233 47.3162 12.5394 47.3162 13.4481C47.3162 14.3568 47.1648 15.173 46.8619 15.8966C46.559 16.6201 46.1131 17.1951 45.5241 17.6214C44.9351 18.0421 44.2059 18.2524 43.3365 18.2524ZM43.5805 16.6622C44.1583 16.6622 44.6294 16.5248 44.994 16.2499C45.3586 15.9751 45.6251 15.5965 45.7933 15.1141C45.9616 14.6317 46.0458 14.0764 46.0458 13.4481C46.0458 12.8199 45.9588 12.2646 45.7849 11.7822C45.6166 11.2998 45.353 10.924 44.994 10.6548C44.6406 10.3855 44.1891 10.2509 43.6394 10.2509C43.0561 10.2509 42.5765 10.3939 42.2006 10.68C41.8248 10.9661 41.5444 11.3503 41.3593 11.8327C41.1798 12.3151 41.09 12.8536 41.09 13.4481C41.09 14.0483 41.1798 14.5924 41.3593 15.0804C41.5444 15.5628 41.8192 15.947 42.1838 16.2331C42.554 16.5192 43.0196 16.6622 43.5805 16.6622ZM46.0458 18V11.4625H45.8438V5.88414H47.6107V18H46.0458ZM53.9109 18.2524C53.0022 18.2524 52.2142 18.0477 51.5467 17.6382C50.8792 17.2287 50.3631 16.665 49.9985 15.947C49.6395 15.2234 49.46 14.3905 49.46 13.4481C49.46 12.5002 49.6451 11.6672 50.0154 10.9492C50.3856 10.2257 50.9044 9.66474 51.5719 9.26648C52.2394 8.86262 53.0191 8.66069 53.9109 8.66069C54.8196 8.66069 55.6077 8.86543 56.2752 9.2749C56.9427 9.68437 57.4588 10.2481 57.8233 10.9661C58.1879 11.684 58.3702 12.5114 58.3702 13.4481C58.3702 14.3961 58.1851 15.2319 57.8149 15.9554C57.4503 16.6734 56.9343 17.2371 56.2668 17.6466C55.5993 18.0505 54.814 18.2524 53.9109 18.2524ZM53.9109 16.5949C54.7804 16.5949 55.4282 16.3032 55.8545 15.7199C56.2864 15.1309 56.5024 14.3737 56.5024 13.4481C56.5024 12.5002 56.2836 11.7429 55.8461 11.1764C55.4142 10.6043 54.7691 10.3182 53.9109 10.3182C53.322 10.3182 52.8368 10.4528 52.4554 10.7221C52.0739 10.9857 51.7907 11.3531 51.6056 11.8243C51.4205 12.2898 51.3279 12.8311 51.3279 13.4481C51.3279 14.4017 51.5467 15.1646 51.9842 15.7367C52.4217 16.3088 53.0639 16.5949 53.9109 16.5949ZM64.1063 18.2524C63.1752 18.2524 62.3843 18.0449 61.7337 17.6298C61.083 17.2147 60.5838 16.6454 60.236 15.9218C59.8938 15.1982 59.72 14.3765 59.7143 13.4566C59.72 12.5198 59.8995 11.6925 60.2528 10.9745C60.6062 10.2509 61.111 9.68437 61.7673 9.2749C62.4236 8.86543 63.2117 8.66069 64.1316 8.66069C65.1244 8.66069 65.9714 8.9075 66.6726 9.40111C67.3793 9.89471 67.8449 10.5706 68.0692 11.4288L66.3192 11.9337C66.1453 11.4232 65.8592 11.0278 65.461 10.7473C65.0683 10.4612 64.6168 10.3182 64.1063 10.3182C63.5286 10.3182 63.0546 10.4556 62.6844 10.7305C62.3142 10.9997 62.0394 11.3699 61.8599 11.8411C61.6804 12.3123 61.5878 12.8508 61.5822 13.4566C61.5878 14.3933 61.801 15.1505 62.2217 15.7283C62.648 16.306 63.2762 16.5949 64.1063 16.5949C64.6729 16.5949 65.13 16.4659 65.4778 16.2079C65.8312 15.9442 66.1004 15.5684 66.2855 15.0804L68.0692 15.5011C67.772 16.3874 67.2812 17.0689 66.5968 17.5457C65.9125 18.0168 65.0823 18.2524 64.1063 18.2524ZM73.2582 18.244C72.1532 18.244 71.2529 18 70.5574 17.512C69.8618 17.024 69.4355 16.3369 69.2785 15.4506L71.079 15.173C71.1912 15.6441 71.4492 16.0171 71.8531 16.292C72.2626 16.5612 72.7702 16.6959 73.376 16.6959C73.9257 16.6959 74.3548 16.5837 74.6633 16.3593C74.9774 16.1349 75.1345 15.8264 75.1345 15.4338C75.1345 15.2038 75.0784 15.0187 74.9662 14.8785C74.8596 14.7326 74.6324 14.5952 74.2847 14.4662C73.9369 14.3372 73.4068 14.1773 72.6945 13.9866C71.9148 13.7847 71.295 13.5687 70.835 13.3388C70.3807 13.1032 70.0553 12.8311 69.859 12.5226C69.6683 12.2085 69.5729 11.8299 69.5729 11.3868C69.5729 10.8371 69.7188 10.3575 70.0105 9.948C70.3021 9.53853 70.7116 9.22161 71.2389 8.99724C71.7718 8.77288 72.3944 8.66069 73.1067 8.66069C73.8023 8.66069 74.4221 8.77007 74.9662 8.98883C75.5103 9.20759 75.9506 9.5189 76.2872 9.92276C76.6237 10.321 76.8256 10.7894 76.8929 11.3279L75.0924 11.656C75.0307 11.2185 74.826 10.8735 74.4782 10.6211C74.1304 10.3687 73.6789 10.2313 73.1236 10.2088C72.5907 10.1864 72.1588 10.2761 71.8278 10.4781C71.4969 10.6744 71.3314 10.9464 71.3314 11.2942C71.3314 11.4961 71.3931 11.6672 71.5165 11.8074C71.6455 11.9477 71.8923 12.0823 72.2569 12.2113C72.6215 12.3403 73.16 12.4946 73.8724 12.6741C74.6352 12.8704 75.241 13.0892 75.6898 13.3303C76.1385 13.5659 76.4582 13.8492 76.6489 14.1801C76.8453 14.5055 76.9434 14.9009 76.9434 15.3665C76.9434 16.264 76.6153 16.9679 75.959 17.4783C75.3083 17.9888 74.4081 18.244 73.2582 18.244Z" fill="#0D1821"/>
<g clip-path="url(#clip0_21916_11536)">
<path d="M51.9299 10.9199H49.8008C49.6538 10.9199 49.5127 10.9776 49.4087 11.0802C49.3046 11.1828 49.2462 11.322 49.2461 11.4671V17.5019C49.2462 17.647 49.3046 17.7862 49.4087 17.8888C49.5127 17.9914 49.6538 18.0491 49.8008 18.0491H57.0592C57.2063 18.0491 57.3473 17.9914 57.4513 17.8888C57.5553 17.7862 57.6137 17.647 57.6137 17.5019V12.1664C57.6137 12.0213 57.5553 11.8821 57.4513 11.7795C57.3473 11.6769 57.2063 11.6192 57.0592 11.6192H52.964C52.8522 11.6193 52.7429 11.5859 52.6506 11.5235C52.5583 11.4611 52.4873 11.3726 52.4469 11.2697C52.4066 11.1667 52.3356 11.0782 52.2433 11.0158C52.151 10.9534 52.0417 10.9199 51.9299 10.9199Z" fill="url(#paint0_linear_21916_11536)"/>
<path d="M56.8038 16.767H50.0547V12.2021H55.6722L56.8038 13.2134V16.767Z" fill="white"/>
<path d="M55.6719 13.2134V12.2021L56.8451 13.2134H55.6719Z" fill="#F0F0F0"/>
<path d="M57.5237 13.4414H49.336C48.9875 13.4414 48.7158 13.7089 48.7535 14.0152L49.2253 17.8675C49.2574 18.1307 49.5086 18.3298 49.8078 18.3298H57.0517C57.351 18.3298 57.6021 18.1307 57.6343 17.8675L58.1063 14.0152C58.1437 13.7089 57.8722 13.4414 57.5237 13.4414Z" fill="url(#paint1_linear_21916_11536)"/>
</g>
<defs>
<linearGradient id="paint0_linear_21916_11536" x1="53.3977" y1="13.9362" x2="53.299" y2="11.1184" gradientUnits="userSpaceOnUse">
<stop stop-color="#FDA529"/>
<stop offset="1" stop-color="#FDBD00"/>
</linearGradient>
<linearGradient id="paint1_linear_21916_11536" x1="55.1379" y1="19.146" x2="52.4638" y2="13.0642" gradientUnits="userSpaceOnUse">
<stop stop-color="#FDA929"/>
<stop offset="1" stop-color="#FDDB07"/>
</linearGradient>
<clipPath id="clip0_21916_11536">
<rect width="9.36" height="7.41" fill="white" transform="translate(48.75 10.9199)"/>
</clipPath>
</defs>
</svg>
