<svg width="19" height="18" viewBox="0 0 19 18" fill="none" xmlns="http://www.w3.org/2000/svg">
<g clip-path="url(#clip0_4794_19734)">
<path d="M16.9922 7.86377V14.25C16.991 15.2442 16.5955 16.1973 15.8925 16.9004C15.1895 17.6034 14.2364 17.9988 13.2422 18H5.74219C4.74799 17.9988 3.79486 17.6034 3.09185 16.9004C2.38885 16.1973 1.99338 15.2442 1.99219 14.25V3.75002C1.99338 2.75582 2.38885 1.80269 3.09185 1.09968C3.79486 0.396679 4.74799 0.00120818 5.74219 1.72865e-05H9.12844C9.81815 -0.00175791 10.5014 0.133208 11.1386 0.397112C11.7758 0.661015 12.3544 1.04862 12.8409 1.53752L15.4539 4.15202C15.9431 4.6382 16.331 5.21661 16.595 5.85375C16.8591 6.49089 16.9941 7.17408 16.9922 7.86377ZM11.7804 2.59802C11.5444 2.36939 11.2794 2.17271 10.9922 2.01302V5.25002C10.9922 5.44893 11.0712 5.63969 11.2119 5.78035C11.3525 5.921 11.5433 6.00002 11.7422 6.00002H14.9792C14.8194 5.71291 14.6225 5.44813 14.3934 5.21252L11.7804 2.59802ZM15.4922 7.86377C15.4922 7.74002 15.4682 7.62152 15.4569 7.50002H11.7422C11.1454 7.50002 10.5732 7.26296 10.1512 6.84101C9.72924 6.41905 9.49219 5.84675 9.49219 5.25002V1.53527C9.37069 1.52402 9.25144 1.50002 9.12844 1.50002H5.74219C5.14545 1.50002 4.57315 1.73707 4.1512 2.15903C3.72924 2.58098 3.49219 3.15328 3.49219 3.75002V14.25C3.49219 14.8468 3.72924 15.419 4.1512 15.841C4.57315 16.263 5.14545 16.5 5.74219 16.5H13.2422C13.8389 16.5 14.4112 16.263 14.8332 15.841C15.2551 15.419 15.4922 14.8468 15.4922 14.25V7.86377Z" fill="#6078EC"/>
<path d="M5.89062 11.7002H13.0906" stroke="#6078EC" stroke-width="1.0625" stroke-linecap="round"/>
</g>
<defs>
<clipPath id="clip0_4794_19734">
<rect width="18" height="18" fill="white" transform="translate(0.492188)"/>
</clipPath>
</defs>
</svg>
