<svg width="22" height="22" viewBox="0 0 22 22" fill="none" xmlns="http://www.w3.org/2000/svg">
<path d="M13.7502 20.8542H8.25016C3.27266 20.8542 1.146 18.7275 1.146 13.75V8.25004C1.146 3.27254 3.27266 1.14587 8.25016 1.14587H13.7502C18.7277 1.14587 20.8543 3.27254 20.8543 8.25004V13.75C20.8543 18.7275 18.7277 20.8542 13.7502 20.8542ZM8.25016 2.52087C4.02433 2.52087 2.521 4.02421 2.521 8.25004V13.75C2.521 17.9759 4.02433 19.4792 8.25016 19.4792H13.7502C17.976 19.4792 19.4793 17.9759 19.4793 13.75V8.25004C19.4793 4.02421 17.976 2.52087 13.7502 2.52087H8.25016Z" fill="#616161"/>
<path d="M14.2817 17.6458C13.9059 17.6458 13.5942 17.3341 13.5942 16.9583V13.3833C13.5942 13.0075 13.9059 12.6958 14.2817 12.6958C14.6576 12.6958 14.9692 13.0075 14.9692 13.3833V16.9583C14.9692 17.3341 14.6576 17.6458 14.2817 17.6458Z" fill="#616161"/>
<path d="M14.2817 7.51663C13.9059 7.51663 13.5942 7.20496 13.5942 6.82913V5.04163C13.5942 4.66579 13.9059 4.35413 14.2817 4.35413C14.6576 4.35413 14.9692 4.66579 14.9692 5.04163V6.82913C14.9692 7.20496 14.6576 7.51663 14.2817 7.51663Z" fill="#616161"/>
<path d="M14.2818 12.2834C12.5859 12.2834 11.2109 10.9084 11.2109 9.21256C11.2109 7.51672 12.5859 6.14172 14.2818 6.14172C15.9776 6.14172 17.3526 7.51672 17.3526 9.21256C17.3526 10.9084 15.9684 12.2834 14.2818 12.2834ZM14.2818 7.51672C13.3468 7.51672 12.5859 8.27756 12.5859 9.21256C12.5859 10.1476 13.3468 10.9084 14.2818 10.9084C15.2168 10.9084 15.9776 10.1476 15.9776 9.21256C15.9776 8.27756 15.2076 7.51672 14.2818 7.51672Z" fill="#616161"/>
<path d="M7.71826 17.6458C7.34243 17.6458 7.03076 17.3341 7.03076 16.9583V15.1708C7.03076 14.7949 7.34243 14.4833 7.71826 14.4833C8.0941 14.4833 8.40576 14.7949 8.40576 15.1708V16.9583C8.40576 17.3341 8.10326 17.6458 7.71826 17.6458Z" fill="#616161"/>
<path d="M7.71826 9.30413C7.34243 9.30413 7.03076 8.99246 7.03076 8.61663V5.04163C7.03076 4.66579 7.34243 4.35413 7.71826 4.35413C8.0941 4.35413 8.40576 4.66579 8.40576 5.04163V8.61663C8.40576 8.99246 8.10326 9.30413 7.71826 9.30413Z" fill="#616161"/>
<path d="M7.71829 15.8583C6.02246 15.8583 4.64746 14.4833 4.64746 12.7875C4.64746 11.0917 6.02246 9.71667 7.71829 9.71667C9.41413 9.71667 10.7891 11.0917 10.7891 12.7875C10.7891 14.4833 9.41413 15.8583 7.71829 15.8583ZM7.71829 11.0917C6.78329 11.0917 6.02246 11.8525 6.02246 12.7875C6.02246 13.7225 6.78329 14.4833 7.71829 14.4833C8.65329 14.4833 9.41413 13.7225 9.41413 12.7875C9.41413 11.8525 8.66246 11.0917 7.71829 11.0917Z" fill="#616161"/>
</svg>
