<svg width="63" height="37" viewBox="0 0 63 37" fill="none" xmlns="http://www.w3.org/2000/svg">
<g clip-path="url(#clip0_21687_84068)">
<path d="M63 2.59675V34.3884C63 34.9931 62.5763 36.6142 60.0265 36.9852V0C62.5763 0.396932 63 1.99579 63 2.59675Z" fill="url(#paint0_linear_21687_84068)"/>
<path d="M6.35947 7.46373L0.594692 16.4596C0.205284 17.0692 -0.00159454 17.777 -0.00159454 18.4999C-0.00159454 19.2228 0.205284 19.9307 0.594692 20.5402L6.35947 29.5361C6.70306 30.0712 7.1758 30.5116 7.73429 30.8169C8.29279 31.1222 8.91916 31.2826 9.55593 31.2834H57.7965C63 31.2834 63 34.3958 63 34.3958V2.59668C63 2.59668 63 5.70907 57.7965 5.70907H9.55593C8.91847 5.71067 8.29165 5.87221 7.73309 6.17882C7.17454 6.48543 6.70219 6.92728 6.35947 7.46373Z" fill="url(#paint1_linear_21687_84068)"/>
<path d="M17.8404 24.0444V13.9644H19.5484L24.2244 21.0694V13.9644H25.9324V24.0444H24.2244L19.5484 16.9394V24.0444H17.8404ZM31.3262 24.2544C30.5608 24.2544 29.8888 24.0888 29.3102 23.7574C28.7315 23.4261 28.2788 22.9664 27.9522 22.3784C27.6302 21.7904 27.4692 21.1138 27.4692 20.3484C27.4692 19.5224 27.6278 18.8061 27.9452 18.1994C28.2625 17.5881 28.7035 17.1144 29.2682 16.7784C29.8328 16.4424 30.4862 16.2744 31.2282 16.2744C32.0122 16.2744 32.6772 16.4588 33.2232 16.8274C33.7738 17.1914 34.1822 17.7071 34.4482 18.3744C34.7142 19.0418 34.8145 19.8281 34.7492 20.7334H33.0762V20.1174C33.0715 19.2961 32.9268 18.6964 32.6422 18.3184C32.3575 17.9404 31.9095 17.7514 31.2982 17.7514C30.6075 17.7514 30.0942 17.9661 29.7582 18.3954C29.4222 18.8201 29.2542 19.4431 29.2542 20.2644C29.2542 21.0298 29.4222 21.6224 29.7582 22.0424C30.0942 22.4624 30.5842 22.6724 31.2282 22.6724C31.6435 22.6724 32.0005 22.5814 32.2992 22.3994C32.6025 22.2128 32.8358 21.9444 32.9992 21.5944L34.6652 22.0984C34.3758 22.7798 33.9278 23.3094 33.3212 23.6874C32.7192 24.0654 32.0542 24.2544 31.3262 24.2544ZM28.7222 20.7334V19.4594H33.9232V20.7334H28.7222ZM37.6476 24.0444L35.3376 16.4704L36.9896 16.4844L38.4666 21.3354L39.9646 16.4844H41.3856L42.8766 21.3354L44.3606 16.4844H46.0126L43.7026 24.0444H42.3866L40.6716 18.8434L38.9636 24.0444H37.6476Z" fill="white"/>
</g>
<defs>
<linearGradient id="paint0_linear_21687_84068" x1="62.8513" y1="18.5" x2="60.2347" y2="18.5" gradientUnits="userSpaceOnUse">
<stop stop-color="#810000"/>
<stop offset="0.04" stop-color="#880000"/>
<stop offset="0.19" stop-color="#9C0000"/>
<stop offset="0.34" stop-color="#A80000"/>
<stop offset="0.48" stop-color="#AC0000"/>
<stop offset="0.63" stop-color="#A70000"/>
<stop offset="0.81" stop-color="#990000"/>
<stop offset="1" stop-color="#810000"/>
</linearGradient>
<linearGradient id="paint1_linear_21687_84068" x1="64.011" y1="18.4999" x2="1.84725" y2="18.4999" gradientUnits="userSpaceOnUse">
<stop stop-color="#B90000"/>
<stop offset="0.02" stop-color="#C90B00"/>
<stop offset="0.07" stop-color="#E11C00"/>
<stop offset="0.11" stop-color="#F22800"/>
<stop offset="0.16" stop-color="#FC2F00"/>
<stop offset="0.23" stop-color="#FF3100"/>
<stop offset="0.31" stop-color="#F52A00"/>
<stop offset="0.59" stop-color="#D41300"/>
<stop offset="0.83" stop-color="#C00500"/>
<stop offset="0.99" stop-color="#B90000"/>
</linearGradient>
<clipPath id="clip0_21687_84068">
<rect width="63" height="37" fill="white" transform="matrix(-1 0 0 1 63 0)"/>
</clipPath>
</defs>
</svg>
