<svg width="209" height="40" viewBox="0 0 209 40" fill="none" xmlns="http://www.w3.org/2000/svg">
<g clip-path="url(#clip0_4272_30043)">
<path d="M2.13208 20.6983C2.71715 21.7226 3.47809 22.4856 4.41491 22.9873C5.35174 23.4889 6.41742 23.7394 7.61196 23.7386C8.32539 23.7438 9.03469 23.6288 9.71066 23.3983C10.3318 23.187 10.9092 22.8623 11.4142 22.4403C11.897 22.0329 12.2886 21.5266 12.5631 20.9549C12.8554 20.3428 13.0029 19.6705 12.9938 18.9911C12.9938 18.1472 12.8187 17.4528 12.4684 16.9076C12.1125 16.3533 11.6331 15.8908 11.0685 15.5571C10.4423 15.1865 9.77928 14.8833 9.09041 14.6523C8.35603 14.4008 7.60047 14.1503 6.82373 13.9009C6.05632 13.6539 5.30162 13.3683 4.56244 13.0452C3.84211 12.7358 3.17371 12.3154 2.58111 11.799C1.98145 11.2657 1.5038 10.6071 1.18126 9.86887C0.824476 9.09464 0.646085 8.13809 0.646085 6.99922C0.646085 5.92922 0.854627 4.9781 1.27171 4.14588C1.67395 3.33406 2.25083 2.62333 2.96015 2.06568C3.69423 1.49462 4.52609 1.06483 5.41419 0.797776C6.35695 0.510558 7.33685 0.366892 8.32157 0.371515C9.56799 0.359673 10.8044 0.597698 11.959 1.0718C13.0746 1.53866 14.0387 2.31869 14.8513 3.41188L12.9217 4.81246C12.4127 4.06415 11.7342 3.4494 10.9425 3.01933C10.1866 2.62062 9.28926 2.42126 8.2505 2.42126C7.55407 2.41799 6.86075 2.51539 6.19165 2.71051C5.57418 2.88661 4.9944 3.17677 4.48168 3.5663C3.9944 3.94482 3.59615 4.42757 3.31549 4.97992C3.00879 5.60702 2.85764 6.30002 2.87508 6.99922C2.87508 8.20478 3.17981 9.13378 3.78929 9.78622C4.43215 10.458 5.21126 10.9814 6.0732 11.3205C7.04168 11.7151 8.03442 12.046 9.04519 12.3112C10.0766 12.5802 11.0752 12.9642 12.0226 13.4562C12.9304 13.9295 13.7136 14.6142 14.3075 15.4537C14.9149 16.3099 15.2189 17.489 15.2196 18.9911C15.2196 20.0835 15.0168 21.0513 14.6112 21.8944C14.2223 22.7161 13.6643 23.4445 12.9745 24.0312C12.2702 24.6199 11.4605 25.0666 10.5893 25.3469C9.68243 25.6425 8.73505 25.7919 7.78209 25.7895C6.28695 25.8053 4.80356 25.5214 3.41779 24.9544C2.08685 24.3947 0.947591 23.4545 0 22.1336L2.13208 20.6983Z" fill="#B2B3B3"/>
<path d="M21.6523 0.986328H23.8856V25.1744H21.6523V0.986328Z" fill="#B2B3B3"/>
<path d="M31.8027 0.986328H34.035V23.1247H45.1993V25.1744H31.8027V0.986328Z" fill="#B2B3B3"/>
<path d="M43.5762 0.986328H45.9796L53.6939 22.2015L61.4738 0.986328H63.8428L54.7405 25.1744H52.5072L43.5762 0.986328Z" fill="#B2B3B3"/>
<path d="M68.377 0.986328H83.0215V3.03608H70.607V11.6461H82.2452V13.7013H70.607V23.1301H83.5599V25.1799H68.377V0.986328Z" fill="#B2B3B3"/>
<path d="M89.7891 0.986328H96.0819C96.3978 0.986328 96.826 0.997565 97.3666 1.02004C97.9573 1.04914 98.5454 1.11779 99.1271 1.22556C99.7848 1.34649 100.43 1.5285 101.055 1.76926C101.705 2.01826 102.302 2.38904 102.816 2.86209C103.358 3.37604 103.794 3.99229 104.1 4.67588C104.439 5.40081 104.608 6.28885 104.609 7.34C104.609 8.4999 104.411 9.45608 104.016 10.2086C103.656 10.919 103.148 11.5428 102.528 12.0376C101.934 12.4999 101.265 12.8529 100.55 13.0804C99.8752 13.2971 99.184 13.4565 98.4832 13.5567L105.453 25.1734H102.914L96.1821 13.7013H92.0224V25.1744H89.7891V0.986328ZM92.0224 11.6428H96.7603C97.9319 11.6428 98.8845 11.4946 99.6182 11.1981C100.352 10.9016 100.922 10.5399 101.328 10.1129C101.71 9.71852 101.992 9.23801 102.153 8.71122C102.293 8.26947 102.368 7.80925 102.375 7.34544C102.367 6.88195 102.292 6.42209 102.152 5.98075C101.992 5.45232 101.709 4.96999 101.328 4.57366C100.921 4.1387 100.351 3.77442 99.6182 3.48082C98.8852 3.18723 97.9326 3.03898 96.7603 3.03608H92.0224V11.6428Z" fill="#B2B3B3"/>
<path d="M127.75 1.33424C130.127 2.61447 131.581 4.8556 132.113 8.05763H128.859C128.47 6.26705 127.667 4.96217 126.448 4.14299C125.23 3.32382 123.693 2.91532 121.837 2.91749C119.639 2.91749 117.786 3.7682 116.281 5.46962C114.776 7.17104 114.024 9.70649 114.025 13.076C114.025 15.9917 114.646 18.3633 115.887 20.1908C117.128 22.0184 119.151 22.9362 121.956 22.9441C124.105 22.9441 125.884 22.3015 127.291 21.0162C128.699 19.7309 129.42 17.6543 129.454 14.7865H121.856V12.0277H132.511V25.1396H130.401L129.608 21.9861C128.514 23.2185 127.545 24.0747 126.7 24.5546C125.28 25.3774 123.477 25.7888 121.289 25.7888C118.462 25.7888 116.029 24.8489 113.992 22.9691C111.773 20.6124 110.662 17.3763 110.66 13.2608C110.66 9.15699 111.746 5.89479 113.916 3.47424C115.975 1.15808 118.643 0 121.92 0C124.167 0 126.111 0.444747 127.75 1.33424Z" fill="#6B6C6C"/>
<path d="M139.662 0.634766H150.692C152.508 0.634766 154.006 0.907341 155.186 1.45249C157.425 2.49784 158.544 4.42725 158.545 7.24072C158.545 8.70871 158.242 9.91029 157.645 10.8444C157.047 11.7784 156.203 12.5287 155.125 13.0975C156.071 13.4857 156.786 13.9967 157.264 14.6307C157.742 15.2646 158.01 16.2933 158.065 17.7167L158.18 21.0029C158.213 21.938 158.288 22.634 158.413 23.0885C158.609 23.8671 158.961 24.3676 159.469 24.5902V25.1404H155.438C155.312 24.882 155.223 24.6066 155.175 24.3227C155.107 23.9899 155.052 23.344 155.009 22.3893L154.811 18.3018C154.739 16.6996 154.165 15.626 153.088 15.0809C152.477 14.7822 151.519 14.6321 150.215 14.6307H142.944V25.1404H139.662V0.634766ZM150.339 11.8611C151.84 11.8611 153.024 11.5501 153.892 10.9281C154.76 10.3061 155.197 9.18245 155.204 7.55715C155.204 5.80934 154.593 4.61936 153.373 3.98722C152.719 3.6523 151.847 3.48557 150.755 3.48702H142.947V11.86L150.339 11.8611Z" fill="#6B6C6C"/>
<path d="M165.365 0.634766H182.973V3.63816H168.57V11.0771H181.883V13.9195H168.57V22.2262H183.222V25.1448H165.365V0.634766Z" fill="#6B6C6C"/>
<path d="M187.096 0.634766H190.928L197.905 12.4135L204.88 0.634766H208.749L199.558 15.2646V25.1404H196.27V15.2646L187.096 0.634766Z" fill="#6B6C6C"/>
<path d="M89.8203 32.6602H91.2912V33.231H90.4718V39.3738H91.2912V39.9425H89.8203V32.6602Z" fill="#676867"/>
<path d="M92.123 34.3518C92.3147 34.3156 92.4425 34.1739 92.5064 33.9267C92.54 33.8021 92.552 33.6726 92.5419 33.5439H92.123V32.7012H92.9403V33.4787C92.9457 33.7627 92.8813 34.0436 92.753 34.2964C92.6909 34.4139 92.6008 34.514 92.4908 34.5875C92.3808 34.6609 92.2544 34.7055 92.123 34.7172V34.3518ZM93.4152 34.3518C93.6069 34.3156 93.7332 34.1739 93.7942 33.9267C93.8282 33.8021 93.8413 33.6728 93.833 33.5439H93.4152V32.7012H94.2347V33.4787C94.2403 33.7639 94.1755 34.046 94.0462 34.2997C93.9857 34.4183 93.8958 34.5192 93.7852 34.5924C93.6746 34.6655 93.5471 34.7086 93.4152 34.7172V34.3518Z" fill="#676867"/>
<path d="M99.4405 32.7012V33.3764H97.5431V38.3861H96.7721V33.3764H94.877V32.7012H99.4405Z" fill="#676867"/>
<path d="M100.529 32.7012H104.613V33.3971H101.274V35.1239H104.363V35.7763H101.272V37.7021H104.666V38.3861H100.529V32.7012Z" fill="#676867"/>
<path d="M109.982 33.113C110.347 33.4488 110.578 33.9093 110.628 34.4059H109.885C109.819 34.0687 109.645 33.7629 109.389 33.536C109.143 33.3229 108.797 33.216 108.35 33.2152C108.101 33.2072 107.854 33.2562 107.626 33.3584C107.398 33.4607 107.196 33.6136 107.036 33.8057C106.701 34.1986 106.533 34.8021 106.533 35.6162C106.533 36.2817 106.684 36.8214 106.987 37.2354C107.289 37.6497 107.741 37.8573 108.34 37.8573C108.892 37.8573 109.313 37.6399 109.6 37.2049C109.772 36.9286 109.888 36.6213 109.943 36.3002H110.687C110.637 36.8598 110.408 37.388 110.035 37.8051C109.593 38.2923 108.996 38.5362 108.246 38.537C107.648 38.5539 107.065 38.3391 106.619 37.9367C106.041 37.4061 105.752 36.5894 105.752 35.4868C105.752 34.6473 105.967 33.9587 106.398 33.4208C106.868 32.8408 107.514 32.5508 108.336 32.5508C109.048 32.5472 109.597 32.7346 109.982 33.113Z" fill="#676867"/>
<path d="M112 32.7012H112.77V35.05H115.662V32.7012H116.433V38.3861H115.662V35.7252H112.77V38.3861H112V32.7012Z" fill="#676867"/>
<path d="M117.963 32.7012H118.859L121.667 37.2987V32.7012H122.394V38.3861H121.539L118.69 33.7994V38.3861H117.963V32.7012Z" fill="#676867"/>
<path d="M128.577 33.5121C128.95 34.0166 129.138 34.6582 129.138 35.4422C129.138 36.2911 128.925 36.9968 128.499 37.5594C127.996 38.2198 127.282 38.5496 126.356 38.5489C125.494 38.5489 124.812 38.2589 124.31 37.679C123.867 37.1215 123.646 36.4169 123.646 35.5651C123.646 34.7974 123.835 34.1402 124.213 33.5936C124.699 32.8912 125.417 32.5403 126.367 32.541C127.363 32.5439 128.1 32.8676 128.577 33.5121ZM127.905 37.1353C128.21 36.6303 128.367 36.0478 128.355 35.4563C128.355 34.7887 128.182 34.2504 127.836 33.8415C127.49 33.4327 127.017 33.2293 126.417 33.2315C126.15 33.2225 125.885 33.272 125.639 33.3766C125.392 33.4811 125.172 33.6383 124.991 33.8372C124.624 34.2395 124.44 34.8365 124.44 35.6238C124.422 36.1928 124.588 36.7522 124.914 37.2168C125.228 37.6518 125.74 37.8693 126.448 37.8693C127.12 37.8664 127.606 37.6217 127.905 37.1353Z" fill="#676867"/>
<path d="M130.357 32.7012H131.12V37.7032H133.943V38.3861H130.357V32.7012Z" fill="#676867"/>
<path d="M139.671 33.5121C140.044 34.0166 140.231 34.6582 140.231 35.4422C140.231 36.2911 140.018 36.9968 139.591 37.5594C139.089 38.2194 138.378 38.5489 137.449 38.5489C136.588 38.5489 135.906 38.2589 135.404 37.679C134.961 37.1215 134.74 36.4169 134.74 35.5651C134.74 34.7974 134.929 34.1402 135.307 33.5936C135.793 32.8912 136.511 32.5403 137.46 32.541C138.457 32.5439 139.194 32.8676 139.671 33.5121ZM138.999 37.1353C139.304 36.6303 139.46 36.0478 139.449 35.4563C139.449 34.7887 139.276 34.2504 138.93 33.8415C138.584 33.4327 138.11 33.2293 137.509 33.2315C137.242 33.2224 136.976 33.2718 136.73 33.3764C136.484 33.4809 136.263 33.6382 136.083 33.8372C135.716 34.2395 135.532 34.8365 135.532 35.6238C135.513 36.1928 135.68 36.7522 136.005 37.2168C136.32 37.6518 136.831 37.8693 137.54 37.8693C138.213 37.8664 138.699 37.6217 138.999 37.1353Z" fill="#676867"/>
<path d="M145.2 32.8615C145.751 33.1587 146.088 33.6785 146.211 34.4208H145.457C145.369 34.0065 145.181 33.7031 144.898 33.5139C144.578 33.3147 144.206 33.2163 143.83 33.2312C143.585 33.2273 143.342 33.2783 143.118 33.3806C142.895 33.4829 142.696 33.6339 142.538 33.8227C142.188 34.2149 142.014 34.8025 142.014 35.5854C142.014 36.2618 142.158 36.812 142.445 37.2361C142.73 37.6613 143.199 37.8722 143.852 37.8722C144.306 37.8883 144.748 37.7288 145.089 37.4264C145.412 37.1273 145.582 36.6467 145.59 35.9801H143.829V35.3407H146.299V38.3855H145.809L145.624 37.6536C145.432 37.8866 145.205 38.0877 144.951 38.2495C144.564 38.4546 144.131 38.5536 143.694 38.5366C143.068 38.5469 142.462 38.3132 142.003 37.8842C141.487 37.3369 141.23 36.5862 141.23 35.6322C141.231 34.6782 141.482 33.9213 141.984 33.3617C142.216 33.0982 142.503 32.8895 142.824 32.7503C143.144 32.611 143.492 32.5447 143.841 32.5559C144.312 32.542 144.779 32.647 145.2 32.8615Z" fill="#676867"/>
<path d="M148.041 32.7012H148.814V38.3861H148.043L148.041 32.7012Z" fill="#676867"/>
<path d="M150.436 32.7012H154.522V33.3971H151.184V35.1239H154.272V35.7763H151.184V37.7021H154.582V38.3861H150.442L150.436 32.7012Z" fill="#676867"/>
<path d="M156.408 36.5495C156.41 36.8257 156.485 37.0964 156.623 37.3346C156.868 37.7119 157.296 37.8989 157.915 37.8989C158.172 37.903 158.427 37.8614 158.669 37.7761C159.1 37.6162 159.324 37.3313 159.324 36.9181C159.324 36.6071 159.231 36.3875 159.046 36.2559C158.773 36.0929 158.474 35.9788 158.163 35.9188L157.424 35.7459C156.943 35.6314 156.602 35.5063 156.4 35.3707C156.055 35.1337 155.88 34.7781 155.88 34.3062C155.873 34.0719 155.914 33.8387 156.003 33.6218C156.091 33.405 156.223 33.2094 156.392 33.0481C156.732 32.7204 157.214 32.5569 157.838 32.5576C158.359 32.5427 158.871 32.695 159.3 32.9926C159.703 33.2818 159.903 33.7396 159.903 34.3725H159.188C159.17 34.1224 159.089 33.8812 158.951 33.6722C158.73 33.3754 158.35 33.2275 157.817 33.2275C157.387 33.2275 157.078 33.3232 156.888 33.5124C156.799 33.5982 156.727 33.7016 156.678 33.8162C156.63 33.9308 156.605 34.0542 156.605 34.179C156.597 34.3025 156.625 34.4256 156.684 34.534C156.743 34.6424 156.831 34.7316 156.939 34.7912C157.085 34.8727 157.415 34.976 157.931 35.1L158.694 35.2816C159 35.3424 159.291 35.4644 159.549 35.6404C159.895 35.9079 160.069 36.2929 160.069 36.7985C160.069 37.427 159.848 37.8772 159.406 38.1491C158.937 38.4251 158.402 38.5637 157.859 38.5492C157.179 38.5492 156.644 38.3698 156.258 38.0055C155.873 37.6412 155.682 37.1606 155.69 36.5462L156.408 36.5495Z" fill="#676867"/>
<path d="M161.156 34.3518C161.348 34.3156 161.476 34.1739 161.54 33.9267C161.573 33.8021 161.585 33.6726 161.575 33.5439H161.156V32.7012H161.974V33.4787C161.978 33.7626 161.914 34.0433 161.786 34.2964C161.724 34.4139 161.634 34.5139 161.524 34.5873C161.414 34.6608 161.288 34.7054 161.156 34.7172V34.3518ZM162.448 34.3518C162.64 34.3156 162.767 34.1739 162.829 33.9267C162.862 33.8021 162.875 33.6728 162.867 33.5439H162.448V32.7012H163.268V33.4787C163.274 33.7638 163.209 34.0459 163.081 34.2997C163.02 34.4185 162.93 34.5194 162.819 34.5926C162.708 34.6658 162.581 34.7087 162.448 34.7172V34.3518Z" fill="#676867"/>
<path d="M164.438 39.1941C164.613 39.1647 164.737 39.0386 164.808 38.8178C164.845 38.7093 164.864 38.5955 164.866 38.4808C164.867 38.4641 164.867 38.4474 164.866 38.4307C164.864 38.4146 164.861 38.3986 164.856 38.3829H164.44V37.5391H165.259V38.3209C165.265 38.6015 165.202 38.8792 165.075 39.1288C165.011 39.247 164.92 39.3482 164.809 39.4238C164.699 39.4994 164.572 39.5474 164.44 39.5638L164.438 39.1941Z" fill="#676867"/>
<path d="M166.582 34.3518C166.774 34.3156 166.901 34.1739 166.965 33.9267C166.999 33.8021 167.011 33.6726 167.001 33.5439H166.582V32.7012H167.4V33.4787C167.405 33.7628 167.341 34.0437 167.212 34.2964C167.15 34.4141 167.06 34.5142 166.95 34.5877C166.84 34.6612 166.713 34.7057 166.582 34.7172V34.3518ZM167.874 34.3518C168.066 34.3156 168.192 34.1739 168.253 33.9267C168.287 33.8021 168.3 33.6728 168.293 33.5439H167.874V32.7012H168.694V33.4787C168.699 33.7637 168.635 34.0457 168.506 34.2997C168.445 34.4183 168.355 34.5191 168.245 34.5922C168.134 34.6654 168.006 34.7084 167.874 34.7172V34.3518Z" fill="#676867"/>
<path d="M169.877 32.7012H172.397C172.895 32.7012 173.297 32.8433 173.604 33.1274C173.91 33.4116 174.063 33.8125 174.061 34.3301C174.069 34.7533 173.924 35.1648 173.653 35.4882C173.379 35.8144 172.962 35.9808 172.399 35.9808H170.641V38.3861H169.88L169.877 32.7012ZM172.833 33.483C172.614 33.3934 172.379 33.3526 172.144 33.3634H170.636V35.3305H172.144C172.435 35.3442 172.723 35.2684 172.971 35.113C173.186 34.9651 173.294 34.7063 173.294 34.3355C173.288 33.9147 173.136 33.632 172.833 33.483Z" fill="#676867"/>
<path d="M175.597 34.2383L176.692 37.6092L177.834 34.2383H178.587L177.044 38.3845H176.31L174.795 34.2405L175.597 34.2383Z" fill="#676867"/>
<path d="M179.634 33.084H180.33V34.2399H180.986V34.8086H180.33V37.5162C180.323 37.574 180.334 37.6325 180.36 37.6843C180.386 37.7362 180.427 37.7791 180.477 37.8076C180.562 37.8418 180.653 37.8563 180.745 37.8501C180.777 37.8501 180.814 37.8501 180.852 37.8501C180.891 37.8501 180.935 37.8435 180.987 37.8381V38.3861C180.906 38.4097 180.824 38.4264 180.741 38.4362C180.648 38.4464 180.555 38.4515 180.462 38.4514C180.139 38.4514 179.923 38.3677 179.806 38.2024C179.684 38.0079 179.624 37.78 179.635 37.5499V34.8086H179.08V34.2399H179.635L179.634 33.084Z" fill="#676867"/>
<path d="M184.576 32.7012H185.337V37.7032H188.162V38.3861H184.576V32.7012Z" fill="#676867"/>
<path d="M189.303 33.084H189.999V34.2399H190.655V34.8086H189.999V37.5162C189.993 37.574 190.003 37.6325 190.029 37.6843C190.055 37.7362 190.096 37.7791 190.146 37.8076C190.231 37.8418 190.322 37.8563 190.414 37.8501C190.445 37.8501 190.483 37.8501 190.522 37.8501C190.56 37.8501 190.604 37.8435 190.656 37.8381V38.3861C190.575 38.4095 190.493 38.4262 190.41 38.4362C190.317 38.4464 190.224 38.4515 190.131 38.4514C189.808 38.4514 189.592 38.3677 189.475 38.2024C189.353 38.0079 189.293 37.78 189.304 37.5499V34.8086H188.748V34.2399H189.303V33.084Z" fill="#676867"/>
<path d="M193.908 34.3673C194.067 34.4799 194.207 34.6171 194.323 34.774V32.6797H194.986V38.3853H194.365V37.809C194.228 38.0415 194.031 38.2324 193.796 38.3614C193.562 38.4784 193.304 38.5369 193.042 38.5321C192.587 38.5321 192.194 38.3374 191.858 37.9503C191.522 37.5632 191.358 37.0456 191.358 36.4008C191.345 35.8425 191.504 35.2939 191.815 34.8317C192.118 34.3894 192.553 34.1683 193.118 34.1683C193.395 34.1574 193.669 34.2265 193.908 34.3673ZM192.367 37.474C192.554 37.7734 192.851 37.9228 193.26 37.922C193.414 37.9234 193.566 37.8862 193.703 37.814C193.84 37.7417 193.957 37.6365 194.044 37.5077C194.248 37.2308 194.35 36.8321 194.35 36.3116C194.35 35.7911 194.244 35.4036 194.034 35.1492C193.941 35.0305 193.822 34.9349 193.686 34.8697C193.551 34.8045 193.402 34.7714 193.252 34.7729C193.091 34.7687 192.93 34.8029 192.784 34.8728C192.638 34.9427 192.51 35.0463 192.411 35.1753C192.196 35.4428 192.088 35.8375 192.088 36.3584C192.075 36.7494 192.171 37.1363 192.367 37.474Z" fill="#676867"/>
<path d="M198.147 32.6074C197.846 33.1682 197.585 33.7495 197.364 34.3473C197.173 34.9814 197.081 35.6418 197.092 36.3046C197.085 37.0003 197.189 37.6925 197.402 38.3543C197.612 38.9225 197.864 39.4739 198.156 40.0039H197.692C197.318 39.4153 197.086 39.0398 196.998 38.8774C196.885 38.6647 196.788 38.4441 196.706 38.2173C196.56 37.8229 196.46 37.4128 196.408 36.9951C196.381 36.7816 196.367 36.5666 196.366 36.3513C196.354 35.6554 196.475 34.9636 196.721 34.3136C196.872 33.9337 197.186 33.3661 197.664 32.6107L198.147 32.6074Z" fill="#676867"/>
<path d="M199.426 37.5391H200.226V38.3851H199.426V37.5391Z" fill="#676867"/>
<path d="M201.518 40.0007C201.923 39.2032 202.184 38.6204 202.302 38.2521C202.673 36.9443 202.658 35.5555 202.26 34.2559C202.048 33.6887 201.796 33.1377 201.506 32.6074H201.97C202.363 33.2414 202.6 33.6339 202.684 33.7818C202.788 33.9793 202.878 34.1843 202.953 34.3951C203.072 34.704 203.16 35.0242 203.216 35.3509C203.382 36.3425 203.285 37.3607 202.935 38.3021C202.783 38.6871 202.47 39.2532 201.995 40.0007H201.518Z" fill="#676867"/>
<path d="M204.469 34.3518C204.66 34.3156 204.788 34.1739 204.852 33.9267C204.886 33.8021 204.898 33.6726 204.888 33.5439H204.469V32.7012H205.286V33.4787C205.291 33.7627 205.227 34.0436 205.099 34.2964C205.037 34.4139 204.947 34.514 204.837 34.5875C204.727 34.6609 204.6 34.7055 204.469 34.7172V34.3518ZM205.761 34.3518C205.953 34.3156 206.079 34.1739 206.14 33.9267C206.174 33.8021 206.187 33.6728 206.179 33.5439H205.761V32.7012H206.58V33.4787C206.586 33.7639 206.521 34.046 206.392 34.2997C206.331 34.4183 206.241 34.5192 206.131 34.5924C206.02 34.6655 205.893 34.7086 205.761 34.7172V34.3518Z" fill="#676867"/>
<path d="M207.277 39.3738H208.094V33.231H207.277V32.6602H208.749V39.9457H207.277V39.3738Z" fill="#676867"/>
</g>
<defs>
<clipPath id="clip0_4272_30043">
<rect width="208.75" height="40" fill="white"/>
</clipPath>
</defs>
</svg>
