<svg width="15" height="15" viewBox="0 0 15 15" fill="none" xmlns="http://www.w3.org/2000/svg">
<path d="M3.28115 6.09377H11.7186C11.8113 6.09375 11.902 6.06624 11.979 6.01474C12.0561 5.96323 12.1162 5.89003 12.1516 5.80439C12.1871 5.71875 12.1964 5.62451 12.1783 5.5336C12.1602 5.44268 12.1156 5.35917 12.0501 5.29361L7.83131 1.07486C7.7878 1.03131 7.73614 0.996769 7.67927 0.9732C7.62241 0.949631 7.56146 0.9375 7.4999 0.9375C7.43834 0.9375 7.37739 0.949631 7.32053 0.9732C7.26366 0.996769 7.212 1.03131 7.16849 1.07486L2.94974 5.29361C2.88421 5.35917 2.83958 5.44268 2.8215 5.5336C2.80342 5.62451 2.81271 5.71875 2.84818 5.80439C2.88365 5.89003 2.94371 5.96323 3.02078 6.01474C3.09785 6.06624 3.18845 6.09375 3.28115 6.09377Z" fill="#212121"/>
<path d="M11.7186 8.90625H3.28115C3.18845 8.90627 3.09785 8.93377 3.02078 8.98528C2.94371 9.03679 2.88365 9.10999 2.84818 9.19563C2.81271 9.28127 2.80342 9.37551 2.8215 9.46642C2.83958 9.55734 2.88421 9.64085 2.94974 9.70641L7.16849 13.9252C7.212 13.9687 7.26367 14.0032 7.32053 14.0268C7.3774 14.0504 7.43835 14.0625 7.4999 14.0625C7.56145 14.0625 7.62241 14.0504 7.67927 14.0268C7.73613 14.0032 7.7878 13.9687 7.83131 13.9252L12.0501 9.70641C12.1156 9.64085 12.1602 9.55734 12.1783 9.46642C12.1964 9.37551 12.1871 9.28127 12.1516 9.19563C12.1162 9.10999 12.0561 9.03679 11.979 8.98528C11.902 8.93377 11.8113 8.90627 11.7186 8.90625Z" fill="#212121"/>
</svg>
