<svg width="14" height="15" viewBox="0 0 14 15" fill="none" xmlns="http://www.w3.org/2000/svg">
<g id="vuesax/outline/story">
<g id="story">
<path id="Vector" d="M7.00376 11.799C5.95959 11.799 4.91542 11.4023 4.11625 10.6032C2.52375 9.01068 2.52375 6.42066 4.11625 4.82816C5.70875 3.23566 8.29876 3.23566 9.89126 4.82816C11.4838 6.42066 11.4838 9.01068 9.89126 10.6032C9.0921 11.4023 8.04792 11.799 7.00376 11.799ZM7.00376 4.50734C6.18126 4.50734 5.35875 4.82233 4.73458 5.4465C3.48625 6.70066 3.48625 8.73068 4.73458 9.98485C5.98875 11.239 8.0246 11.2332 9.27293 9.98485C10.5213 8.73068 10.5213 6.70066 9.27293 5.4465C8.64877 4.82233 7.82626 4.50734 7.00376 4.50734Z" fill="#6078EC"/>
<path id="Vector_2" d="M4.81163 13.5608C4.75913 13.5608 4.70079 13.5492 4.64829 13.5317C3.33579 13.0067 2.27412 12.0792 1.56245 10.8542C0.874121 9.65834 0.599956 8.30502 0.78079 6.92835C0.809956 6.68918 1.03162 6.52 1.27079 6.54917C1.50995 6.57833 1.67912 6.80002 1.64995 7.03918C1.49828 8.21752 1.73163 9.38417 2.3208 10.4108C2.92747 11.4608 3.84329 12.26 4.96912 12.7092C5.19079 12.8025 5.30163 13.0533 5.21413 13.2808C5.14996 13.4558 4.98079 13.5608 4.81163 13.5608Z" fill="#6078EC"/>
<path id="Vector_3" d="M3.4152 3.55063C3.28687 3.55063 3.15854 3.49231 3.07104 3.38147C2.91937 3.18897 2.95437 2.91482 3.14687 2.76898C4.26104 1.89982 5.59103 1.43896 7.0027 1.43896C8.37937 1.43896 9.69187 1.88231 10.7944 2.72231C10.9869 2.86814 11.0219 3.1423 10.876 3.3348C10.7302 3.5273 10.456 3.56231 10.2635 3.41647C9.31853 2.69314 8.1927 2.31396 7.0027 2.31396C5.78937 2.31396 4.6402 2.71064 3.68353 3.45731C3.60186 3.52148 3.50854 3.55063 3.4152 3.55063Z" fill="#6078EC"/>
<path id="Vector_4" d="M9.18905 13.5609C9.01405 13.5609 8.85071 13.4558 8.78071 13.2867C8.69321 13.065 8.79821 12.8084 9.02571 12.715C10.1515 12.26 11.0674 11.4667 11.6741 10.4167C12.2691 9.39002 12.5024 8.22334 12.3449 7.04501C12.3157 6.80584 12.4849 6.58419 12.724 6.55503C12.9574 6.52586 13.1849 6.69504 13.214 6.93421C13.389 8.30504 13.1207 9.6642 12.4324 10.86C11.7265 12.085 10.659 13.0067 9.34654 13.5375C9.29987 13.5492 9.24738 13.5609 9.18905 13.5609Z" fill="#6078EC"/>
</g>
</g>
</svg>
