<svg width="21" height="20" viewBox="0 0 21 20" fill="none" xmlns="http://www.w3.org/2000/svg">
<path fill-rule="evenodd" clip-rule="evenodd" d="M10.1146 3.20915C13.89 3.20915 16.9062 6.22535 16.9062 10.0008C16.9062 10.8335 16.7546 11.6603 16.4569 12.4044C16.3877 12.5774 16.3895 12.7707 16.4618 12.9424L17.3811 15.1258H14.7812C14.6204 15.1258 14.4644 15.1806 14.3388 15.281C13.2019 16.1905 11.6885 16.7925 10.1146 16.7925C6.33912 16.7925 3.32292 13.7763 3.32292 10.0008C3.32292 6.22535 6.33912 3.20915 10.1146 3.20915ZM18.3229 10.0008C18.3229 5.44295 14.6724 1.79248 10.1146 1.79248C5.55671 1.79248 1.90625 5.44295 1.90625 10.0008C1.90625 14.5587 5.55671 18.2091 10.1146 18.2091C11.9478 18.2091 13.6848 17.5466 15.0234 16.5425H18.1969C18.8227 16.5425 19.2462 15.9047 19.0033 15.3279L17.8769 12.6526C18.1756 11.8077 18.3229 10.9018 18.3229 10.0008ZM6.78126 9.45916C6.25199 9.45916 5.82293 9.88822 5.82293 10.4175C5.82293 10.9468 6.25199 11.3758 6.78126 11.3758C7.31054 11.3758 7.7396 10.9468 7.7396 10.4175C7.7396 9.88822 7.31054 9.45916 6.78126 9.45916ZM10.1146 9.45916C9.58532 9.45916 9.15626 9.88822 9.15626 10.4175C9.15626 10.9468 9.58532 11.3758 10.1146 11.3758C10.6439 11.3758 11.0729 10.9468 11.0729 10.4175C11.0729 9.88822 10.6439 9.45916 10.1146 9.45916ZM13.4479 9.45916C12.9187 9.45916 12.4896 9.88822 12.4896 10.4175C12.4896 10.9468 12.9187 11.3758 13.4479 11.3758C13.9772 11.3758 14.4063 10.9468 14.4063 10.4175C14.4063 9.88822 13.9772 9.45916 13.4479 9.45916Z" fill="#757575"/>
</svg>
