<svg width="17" height="16" viewBox="0 0 17 16" fill="none" xmlns="http://www.w3.org/2000/svg">
<g clip-path="url(#clip0_4770_6316)">
<path d="M15.7869 4.55706L14.3323 3.10172L14.9636 2.47039C15.0273 2.40889 15.0781 2.33533 15.113 2.25399C15.1479 2.17266 15.1663 2.08518 15.1671 1.99666C15.1679 1.90814 15.151 1.82035 15.1175 1.73842C15.084 1.65649 15.0344 1.58206 14.9719 1.51946C14.9093 1.45686 14.8348 1.40736 14.7529 1.37384C14.671 1.34032 14.5832 1.32345 14.4947 1.32422C14.4061 1.32499 14.3187 1.34338 14.2373 1.37832C14.156 1.41326 14.0824 1.46405 14.0209 1.52772L13.3896 2.15906L11.9343 0.70439C11.4755 0.267272 10.8662 0.0234375 10.2326 0.0234375C9.59896 0.0234375 8.98963 0.267272 8.53092 0.70439C8.3073 0.927834 8.12989 1.19316 8.00886 1.4852C7.88782 1.77723 7.82552 2.09026 7.82552 2.40639C7.82552 2.72252 7.88782 3.03555 8.00886 3.32758C8.12989 3.61962 8.3073 3.88495 8.53092 4.10839L9.98559 5.56306L6.05626 9.49239L4.60092 8.03772C4.14222 7.6006 3.53289 7.35677 2.89926 7.35677C2.26563 7.35677 1.6563 7.6006 1.19759 8.03772C0.973962 8.26117 0.79656 8.52649 0.675523 8.81853C0.554486 9.11057 0.492188 9.4236 0.492188 9.73972C0.492188 10.0559 0.554486 10.3689 0.675523 10.6609C0.79656 10.953 0.973962 11.2183 1.19759 11.4417L2.65226 12.8964L2.02092 13.5277C1.95725 13.5892 1.90646 13.6628 1.87152 13.7441C1.83658 13.8255 1.81819 13.9129 1.81742 14.0015C1.81665 14.09 1.83352 14.1778 1.86704 14.2597C1.90056 14.3416 1.95006 14.4161 2.01266 14.4787C2.07526 14.5412 2.14969 14.5908 2.23162 14.6243C2.31355 14.6578 2.40134 14.6747 2.48986 14.6739C2.57838 14.6731 2.66586 14.6547 2.74719 14.6198C2.82853 14.5849 2.90209 14.5341 2.96359 14.4704L3.59492 13.8391L5.05026 15.2937C5.27369 15.5173 5.53897 15.6946 5.83095 15.8155C6.12292 15.9365 6.43588 15.9988 6.75192 15.9988C7.06797 15.9988 7.38092 15.9365 7.6729 15.8155C7.96488 15.6946 8.23016 15.5173 8.45359 15.2937C8.6772 15.0703 8.85459 14.8051 8.97561 14.5131C9.09664 14.2211 9.15894 13.9081 9.15894 13.5921C9.15894 13.276 9.09664 12.963 8.97561 12.671C8.85459 12.379 8.6772 12.1138 8.45359 11.8904L6.99892 10.4357L10.9323 6.50572L12.3869 7.96039C12.6104 8.18392 12.8756 8.36124 13.1676 8.48221C13.4596 8.60319 13.7725 8.66546 14.0886 8.66546C14.4046 8.66546 14.7176 8.60319 15.0096 8.48221C15.3015 8.36124 15.5668 8.18392 15.7903 7.96039C16.0139 7.737 16.1913 7.47174 16.3123 7.17975C16.4333 6.88777 16.4956 6.5748 16.4956 6.25872C16.4956 5.94265 16.4333 5.62968 16.3123 5.33769C16.1913 5.04571 16.0139 4.78044 15.7903 4.55706H15.7869ZM7.82559 13.5924C7.82588 13.7334 7.79822 13.873 7.74421 14.0032C7.6902 14.1334 7.61091 14.2517 7.51092 14.3511C7.30658 14.5465 7.0347 14.6556 6.75192 14.6556C6.46914 14.6556 6.19726 14.5465 5.99292 14.3511L2.14026 10.4984C1.93896 10.2971 1.82587 10.0241 1.82587 9.73939C1.82587 9.45471 1.93896 9.18169 2.14026 8.98039C2.34156 8.77909 2.61458 8.666 2.89926 8.666C3.18394 8.666 3.45696 8.77909 3.65826 8.98039L7.51092 12.8331C7.61099 12.9325 7.69032 13.0509 7.74433 13.1812C7.79835 13.3115 7.82597 13.4513 7.82559 13.5924ZM14.8443 7.01772C14.6399 7.2132 14.368 7.3223 14.0853 7.3223C13.8025 7.3223 13.5306 7.2132 13.3263 7.01772L9.47359 3.16506C9.37392 3.06538 9.29485 2.94705 9.24091 2.81682C9.18697 2.6866 9.1592 2.54702 9.1592 2.40606C9.1592 2.12138 9.27229 1.84836 9.47359 1.64706C9.67489 1.44576 9.94791 1.33267 10.2326 1.33267C10.5173 1.33267 10.7903 1.44576 10.9916 1.64706L14.8443 5.49972C14.944 5.59935 15.0232 5.71766 15.0772 5.8479C15.1312 5.97813 15.1589 6.11774 15.1589 6.25872C15.1589 6.39971 15.1312 6.53931 15.0772 6.66955C15.0232 6.79978 14.944 6.9181 14.8443 7.01772Z" fill="#757575"/>
</g>
<defs>
<clipPath id="clip0_4770_6316">
<rect width="16" height="16" fill="white" transform="translate(0.492188)"/>
</clipPath>
</defs>
</svg>
