<svg width="17" height="17" viewBox="0 0 17 17" fill="none" xmlns="http://www.w3.org/2000/svg">
<path d="M15.7869 4.6176L14.3323 3.16227L14.9636 2.53094C15.0273 2.46944 15.0781 2.39588 15.113 2.31454C15.1479 2.2332 15.1663 2.14572 15.1671 2.0572C15.1679 1.96868 15.151 1.8809 15.1175 1.79897C15.084 1.71704 15.0344 1.6426 14.9719 1.58001C14.9093 1.51741 14.8348 1.46791 14.7529 1.43439C14.671 1.40087 14.5832 1.384 14.4947 1.38477C14.4061 1.38554 14.3187 1.40393 14.2373 1.43887C14.156 1.47381 14.0824 1.5246 14.0209 1.58827L13.3896 2.2196L11.9343 0.764937C11.4755 0.327818 10.8662 0.0839844 10.2326 0.0839844C9.59896 0.0839844 8.98963 0.327818 8.53092 0.764937C8.3073 0.98838 8.12989 1.2537 8.00886 1.54574C7.88782 1.83778 7.82552 2.15081 7.82552 2.46694C7.82552 2.78306 7.88782 3.09609 8.00886 3.38813C8.12989 3.68017 8.3073 3.94549 8.53092 4.16894L9.98559 5.6236L6.05626 9.55294L4.60092 8.09827C4.14222 7.66115 3.53289 7.41732 2.89926 7.41732C2.26563 7.41732 1.6563 7.66115 1.19759 8.09827C0.973962 8.32171 0.79656 8.58704 0.675523 8.87908C0.554486 9.17111 0.492188 9.48414 0.492188 9.80027C0.492188 10.1164 0.554486 10.4294 0.675523 10.7215C0.79656 11.0135 0.973962 11.2788 1.19759 11.5023L2.65226 12.9569L2.02092 13.5883C1.95725 13.6498 1.90646 13.7233 1.87152 13.8047C1.83658 13.886 1.81819 13.9735 1.81742 14.062C1.81665 14.1505 1.83352 14.2383 1.86704 14.3202C1.90056 14.4022 1.95006 14.4766 2.01266 14.5392C2.07526 14.6018 2.14969 14.6513 2.23162 14.6848C2.31355 14.7183 2.40134 14.7352 2.48986 14.7344C2.57838 14.7337 2.66586 14.7153 2.74719 14.6803C2.82853 14.6454 2.90209 14.5946 2.96359 14.5309L3.59492 13.8996L5.05026 15.3543C5.27369 15.5778 5.53897 15.7551 5.83095 15.8761C6.12292 15.9971 6.43588 16.0593 6.75192 16.0593C7.06797 16.0593 7.38092 15.9971 7.6729 15.8761C7.96488 15.7551 8.23016 15.5778 8.45359 15.3543C8.6772 15.1309 8.85459 14.8656 8.97561 14.5736C9.09664 14.2816 9.15894 13.9687 9.15894 13.6526C9.15894 13.3365 9.09664 13.0236 8.97561 12.7316C8.85459 12.4396 8.6772 12.1743 8.45359 11.9509L6.99892 10.4963L10.9323 6.56627L12.3869 8.02094C12.6104 8.24446 12.8756 8.42178 13.1676 8.54276C13.4596 8.66374 13.7725 8.72601 14.0886 8.72601C14.4046 8.72601 14.7176 8.66374 15.0096 8.54276C15.3015 8.42178 15.5668 8.24446 15.7903 8.02094C16.0139 7.79755 16.1913 7.53228 16.3123 7.2403C16.4333 6.94832 16.4956 6.63534 16.4956 6.31927C16.4956 6.0032 16.4333 5.69022 16.3123 5.39824C16.1913 5.10626 16.0139 4.84099 15.7903 4.6176H15.7869ZM7.82559 13.6529C7.82588 13.7939 7.79822 13.9335 7.74421 14.0638C7.6902 14.194 7.61091 14.3122 7.51092 14.4116C7.30658 14.6071 7.0347 14.7162 6.75192 14.7162C6.46914 14.7162 6.19726 14.6071 5.99292 14.4116L2.14026 10.5589C1.93896 10.3576 1.82587 10.0846 1.82587 9.79994C1.82587 9.51526 1.93896 9.24224 2.14026 9.04094C2.34156 8.83964 2.61458 8.72655 2.89926 8.72655C3.18394 8.72655 3.45696 8.83964 3.65826 9.04094L7.51092 12.8936C7.61099 12.9931 7.69032 13.1114 7.74433 13.2417C7.79835 13.3721 7.82597 13.5118 7.82559 13.6529ZM14.8443 7.07827C14.6399 7.27374 14.368 7.38284 14.0853 7.38284C13.8025 7.38284 13.5306 7.27374 13.3263 7.07827L9.47359 3.2256C9.37392 3.12593 9.29485 3.0076 9.24091 2.87737C9.18697 2.74714 9.1592 2.60756 9.1592 2.4666C9.1592 2.18192 9.27229 1.9089 9.47359 1.7076C9.67489 1.5063 9.94791 1.39322 10.2326 1.39322C10.5173 1.39322 10.7903 1.5063 10.9916 1.7076L14.8443 5.56027C14.944 5.6599 15.0232 5.77821 15.0772 5.90844C15.1312 6.03868 15.1589 6.17828 15.1589 6.31927C15.1589 6.46026 15.1312 6.59986 15.0772 6.73009C15.0232 6.86033 14.944 6.97864 14.8443 7.07827Z" fill="#6078EC"/>
</svg>
