<svg width="20" height="20" viewBox="0 0 20 20" fill="none" xmlns="http://www.w3.org/2000/svg">
<path d="M17.4991 5.60839C17.4824 5.60839 17.4574 5.60839 17.4324 5.60839C13.0241 5.16673 8.62408 5.00006 4.26574 5.44173L2.56574 5.60839C2.21574 5.64173 1.90741 5.39173 1.87408 5.04173C1.84074 4.69173 2.09074 4.39173 2.43241 4.35839L4.13241 4.19173C8.56574 3.74173 13.0574 3.91673 17.5574 4.35839C17.8991 4.39173 18.1491 4.70006 18.1157 5.04173C18.0907 5.36673 17.8157 5.60839 17.4991 5.60839Z" fill="#424242"/>
<path d="M7.08265 4.7665C7.04932 4.7665 7.01598 4.7665 6.97432 4.75817C6.64098 4.69984 6.40765 4.37484 6.46598 4.0415L6.64932 2.94984C6.78265 2.14984 6.96598 1.0415 8.90765 1.0415H11.091C13.041 1.0415 13.2243 2.1915 13.3493 2.95817L13.5326 4.0415C13.591 4.38317 13.3576 4.70817 13.0243 4.75817C12.6826 4.8165 12.3576 4.58317 12.3076 4.24984L12.1243 3.1665C12.0076 2.4415 11.9826 2.29984 11.0993 2.29984H8.91598C8.03265 2.29984 8.01598 2.4165 7.89098 3.15817L7.69932 4.2415C7.64932 4.54984 7.38265 4.7665 7.08265 4.7665Z" fill="#424242"/>
<path d="M12.674 18.9582H7.32402C4.41569 18.9582 4.29902 17.3498 4.20735 16.0498L3.66569 7.65815C3.64069 7.31649 3.90735 7.01649 4.24902 6.99149C4.59902 6.97482 4.89069 7.23315 4.91569 7.57482L5.45735 15.9665C5.54902 17.2332 5.58235 17.7082 7.32402 17.7082H12.674C14.424 17.7082 14.4574 17.2332 14.5407 15.9665L15.0824 7.57482C15.1074 7.23315 15.4074 6.97482 15.749 6.99149C16.0907 7.01649 16.3574 7.30815 16.3324 7.65815L15.7907 16.0498C15.699 17.3498 15.5824 18.9582 12.674 18.9582Z" fill="#424242"/>
<path d="M11.3844 14.375H8.60938C8.26771 14.375 7.98438 14.0917 7.98438 13.75C7.98438 13.4083 8.26771 13.125 8.60938 13.125H11.3844C11.726 13.125 12.0094 13.4083 12.0094 13.75C12.0094 14.0917 11.726 14.375 11.3844 14.375Z" fill="#424242"/>
<path d="M12.0846 11.0415H7.91797C7.5763 11.0415 7.29297 10.7582 7.29297 10.4165C7.29297 10.0748 7.5763 9.7915 7.91797 9.7915H12.0846C12.4263 9.7915 12.7096 10.0748 12.7096 10.4165C12.7096 10.7582 12.4263 11.0415 12.0846 11.0415Z" fill="#424242"/>
</svg>
