<svg width="16" height="17" viewBox="0 0 16 17" fill="none" xmlns="http://www.w3.org/2000/svg">
<path d="M4.78117 15.6667C3.1945 15.6667 1.89453 14.5134 1.89453 13.0934V11.7334C1.89453 11.4601 2.1212 11.2334 2.39453 11.2334C2.66786 11.2334 2.89453 11.4601 2.89453 11.7334C2.89453 12.5667 3.70117 13.1934 4.78117 13.1934C5.86117 13.1934 6.66785 12.5667 6.66785 11.7334C6.66785 11.4601 6.89451 11.2334 7.16785 11.2334C7.44118 11.2334 7.66785 11.4601 7.66785 11.7334V13.0934C7.66785 14.5134 6.3745 15.6667 4.78117 15.6667ZM3.06783 13.7467C3.36116 14.2934 4.02117 14.6667 4.78117 14.6667C5.54117 14.6667 6.20117 14.2867 6.49451 13.7467C6.02117 14.0334 5.4345 14.2001 4.78117 14.2001C4.12784 14.2001 3.54116 14.0334 3.06783 13.7467Z" fill="#292D32"/>
<path d="M4.78117 12.3668C3.68784 12.3668 2.70786 11.8668 2.22119 11.0734C2.00786 10.7268 1.89453 10.3201 1.89453 9.90678C1.89453 9.20678 2.20119 8.55344 2.76119 8.06678C3.84119 7.12011 5.70118 7.12014 6.78784 8.06014C7.34784 8.55348 7.66117 9.20678 7.66117 9.90678C7.66117 10.3201 7.54785 10.7268 7.33451 11.0734C6.85451 11.8668 5.8745 12.3668 4.78117 12.3668ZM4.78117 8.33346C4.26117 8.33346 3.78118 8.50678 3.42118 8.82011C3.08118 9.11345 2.89453 9.50012 2.89453 9.90678C2.89453 10.1401 2.9545 10.3535 3.0745 10.5535C3.38117 11.0601 4.0345 11.3735 4.78117 11.3735C5.52784 11.3735 6.18116 11.0601 6.48116 10.5601C6.60116 10.3668 6.66117 10.1468 6.66117 9.91346C6.66117 9.50679 6.47452 9.12011 6.13452 8.82011C5.78119 8.50678 5.30117 8.33346 4.78117 8.33346Z" fill="#292D32"/>
<path d="M4.78117 14.2002C3.1345 14.2002 1.89453 13.1402 1.89453 11.7402V9.90682C1.89453 8.48682 3.18784 7.3335 4.78117 7.3335C5.5345 7.3335 6.25452 7.59351 6.79452 8.06018C7.35452 8.55351 7.66785 9.20682 7.66785 9.90682V11.7402C7.66785 13.1402 6.42784 14.2002 4.78117 14.2002ZM4.78117 8.3335C3.74117 8.3335 2.89453 9.04015 2.89453 9.90682V11.7402C2.89453 12.5735 3.70117 13.2002 4.78117 13.2002C5.86117 13.2002 6.66785 12.5735 6.66785 11.7402V9.90682C6.66785 9.50015 6.48119 9.11348 6.14119 8.81348C5.78119 8.50681 5.30117 8.3335 4.78117 8.3335Z" fill="#292D32"/>
<path d="M12.6946 10.3666C11.6879 10.3666 10.8346 9.61995 10.7546 8.65995C10.7012 8.10662 10.9012 7.56663 11.3012 7.1733C11.6346 6.82663 12.1079 6.6333 12.6079 6.6333H14.0012C14.6612 6.6533 15.1679 7.17327 15.1679 7.81327V9.18665C15.1679 9.82665 14.6613 10.3466 14.0213 10.3666H12.6946ZM13.9812 7.6333H12.6146C12.3812 7.6333 12.1679 7.71996 12.0146 7.87996C11.8213 8.06663 11.7279 8.31995 11.7546 8.57328C11.7879 9.01328 12.2146 9.36662 12.6946 9.36662H14.0012C14.0879 9.36662 14.1679 9.28665 14.1679 9.18665V7.81327C14.1679 7.71327 14.0879 7.63997 13.9812 7.6333Z" fill="#292D32"/>
<path d="M10.6681 14.6668H9.00146C8.72813 14.6668 8.50146 14.4402 8.50146 14.1668C8.50146 13.8935 8.72813 13.6668 9.00146 13.6668H10.6681C12.3881 13.6668 13.5015 12.5535 13.5015 10.8335V10.3668H12.6948C11.6881 10.3668 10.8348 9.62016 10.7548 8.66016C10.7015 8.10682 10.9015 7.56684 11.3015 7.1735C11.6348 6.82684 12.1081 6.6335 12.6081 6.6335H13.4948V6.16683C13.4948 4.60683 12.5815 3.53348 11.1015 3.36015C10.9415 3.33348 10.8015 3.3335 10.6615 3.3335H4.66146C4.50146 3.3335 4.34812 3.34682 4.19478 3.36682C2.72812 3.55349 1.82812 4.62016 1.82812 6.16683V7.50016C1.82812 7.7735 1.60146 8.00016 1.32812 8.00016C1.05479 8.00016 0.828125 7.7735 0.828125 7.50016V6.16683C0.828125 4.1135 2.09482 2.62683 4.06148 2.38017C4.24148 2.3535 4.44813 2.3335 4.66146 2.3335H10.6615C10.8215 2.3335 11.0281 2.34016 11.2415 2.37349C13.2081 2.60016 14.4948 4.0935 14.4948 6.16683V7.1335C14.4948 7.40684 14.2681 7.6335 13.9948 7.6335H12.6081C12.3748 7.6335 12.1615 7.72017 12.0081 7.88017C11.8148 8.06683 11.7215 8.32015 11.7481 8.57349C11.7815 9.01349 12.2082 9.36682 12.6882 9.36682H14.0015C14.2748 9.36682 14.5015 9.59349 14.5015 9.86682V10.8335C14.5015 13.1268 12.9615 14.6668 10.6681 14.6668Z" fill="#292D32"/>
</svg>
