<svg width="36" height="36" viewBox="0 0 36 36" fill="none" xmlns="http://www.w3.org/2000/svg">
<rect width="36" height="36" rx="6" fill="#6078EC" fill-opacity="0.1"/>
<path d="M20.1263 26.6832C19.8513 26.6832 19.593 26.4998 19.518 26.2165C19.4263 25.8832 19.6263 25.5415 19.968 25.4498C23.3513 24.5582 25.7096 21.4915 25.7096 17.9915C25.7096 13.7415 22.2513 10.2832 18.0013 10.2832C14.393 10.2832 12.0263 12.3915 10.918 13.6665H13.368C13.7096 13.6665 13.993 13.9498 13.993 14.2915C13.993 14.6332 13.718 14.9248 13.368 14.9248H9.6763C9.63464 14.9248 9.55964 14.9165 9.5013 14.8998C9.4263 14.8748 9.35964 14.8415 9.3013 14.7998C9.2263 14.7498 9.16797 14.6832 9.1263 14.6082C9.08464 14.5332 9.0513 14.4415 9.04297 14.3498C9.04297 14.3248 9.04297 14.3082 9.04297 14.2832V10.4998C9.04297 10.1582 9.3263 9.87484 9.66797 9.87484C10.0096 9.87484 10.293 10.1582 10.293 10.4998V12.4915C11.6513 11.0332 14.2096 9.0415 18.0013 9.0415C22.943 9.0415 26.9596 13.0582 26.9596 17.9998C26.9596 22.0665 24.218 25.6332 20.2846 26.6665C20.2346 26.6748 20.1763 26.6832 20.1263 26.6832Z" fill="#6078EC"/>
<path d="M17.4096 26.9417C17.393 26.9417 17.3763 26.9333 17.368 26.9333C16.468 26.875 15.5846 26.675 14.7513 26.35C14.5096 26.2583 14.343 26.0167 14.3513 25.7583C14.3513 25.6833 14.368 25.6083 14.393 25.5417C14.518 25.225 14.893 25.0667 15.2013 25.1833C15.9263 25.4667 16.6846 25.6333 17.4513 25.6917C17.7763 25.7083 18.0346 25.9917 18.0346 26.325L18.0263 26.3583C18.0096 26.6833 17.7346 26.9417 17.4096 26.9417ZM12.818 25.15C12.6763 25.15 12.543 25.1 12.4263 25.0167C11.7263 24.45 11.1096 23.7917 10.6096 23.0583C10.5346 22.95 10.493 22.8333 10.493 22.7083C10.493 22.5 10.593 22.3083 10.768 22.1917C11.043 22 11.443 22.075 11.6346 22.3417C11.6346 22.35 11.6346 22.35 11.6346 22.35C11.643 22.3583 11.6513 22.375 11.6596 22.3833C12.093 23.0083 12.618 23.5667 13.2096 24.0333C13.3513 24.15 13.443 24.325 13.443 24.5167C13.443 24.6583 13.4013 24.8 13.3096 24.9167C13.1846 25.0667 13.0096 25.15 12.818 25.15ZM10.0346 21.0833C9.75964 21.0833 9.51797 20.9083 9.44297 20.65C9.1763 19.7917 9.04297 18.9 9.04297 18V17.9917C9.0513 17.65 9.3263 17.375 9.66797 17.375C10.0096 17.375 10.293 17.6583 10.293 18C10.293 18.7833 10.4096 19.55 10.6346 20.275C10.6513 20.3417 10.6596 20.4 10.6596 20.4667C10.6596 20.7333 10.4846 20.975 10.218 21.0583C10.1596 21.075 10.1013 21.0833 10.0346 21.0833Z" fill="#6078EC"/>
</svg>
