<svg width="20" height="20" viewBox="0 0 20 20" fill="none" xmlns="http://www.w3.org/2000/svg">
<path d="M9.9974 18.9584C5.05573 18.9584 1.03906 14.9417 1.03906 10C1.03906 5.05835 5.05573 1.04169 9.9974 1.04169C14.9391 1.04169 18.9557 5.05835 18.9557 10C18.9557 14.9417 14.9391 18.9584 9.9974 18.9584ZM9.9974 2.29169C5.7474 2.29169 2.28906 5.75002 2.28906 10C2.28906 14.25 5.7474 17.7084 9.9974 17.7084C14.2474 17.7084 17.7057 14.25 17.7057 10C17.7057 5.75002 14.2474 2.29169 9.9974 2.29169Z" fill="#9E9E9E"/>
<path d="M10.0021 12.5083C9.84375 12.5083 9.68542 12.45 9.56042 12.325L6.61875 9.38331C6.37708 9.14164 6.37708 8.74164 6.61875 8.49998C6.86042 8.25831 7.26042 8.25831 7.50208 8.49998L10.0021 11L12.5021 8.49998C12.7438 8.25831 13.1437 8.25831 13.3854 8.49998C13.6271 8.74164 13.6271 9.14164 13.3854 9.38331L10.4437 12.325C10.3187 12.45 10.1604 12.5083 10.0021 12.5083Z" fill="#9E9E9E"/>
</svg>
