<svg width="33" height="32" viewBox="0 0 33 32" fill="none" xmlns="http://www.w3.org/2000/svg">
<rect x="0.328125" width="32" height="32" rx="6" fill="#6078EC" fill-opacity="0.1"/>
<g clip-path="url(#clip0_19547_10259)">
<path opacity="0.4" d="M19.4066 21.1801C19.2946 21.1801 19.1813 21.152 19.0773 21.0927L12.8912 17.566C12.5719 17.384 12.46 16.9767 12.642 16.6566C12.8232 16.3367 13.2312 16.224 13.5513 16.4073L19.7373 19.934C20.0566 20.116 20.1686 20.5233 19.9866 20.8434C19.8633 21.0593 19.6379 21.1801 19.4066 21.1801Z" fill="#6078EC"/>
<path opacity="0.4" d="M13.222 15.6802C12.99 15.6802 12.7646 15.5595 12.6419 15.3435C12.4599 15.0242 12.572 14.6168 12.8913 14.4341L19.0772 10.9075C19.3966 10.7241 19.8039 10.8362 19.9867 11.1567C20.1687 11.4761 20.0566 11.8834 19.7373 12.0662L13.5512 15.5928C13.4472 15.6521 13.334 15.6802 13.222 15.6802Z" fill="#6078EC"/>
<path d="M22.9922 10.6664C22.9922 11.771 22.0968 12.6665 20.9922 12.6665C19.8876 12.6665 18.9922 11.771 18.9922 10.6664C18.9922 9.56197 19.8876 8.6665 20.9922 8.6665C22.0968 8.6665 22.9922 9.56197 22.9922 10.6664Z" fill="#6078EC"/>
<path d="M20.9869 13.3334C19.5162 13.3334 18.3203 12.1373 18.3203 10.6666C18.3203 9.19604 19.5162 8 20.9869 8C22.4576 8 23.6536 9.19604 23.6536 10.6666C23.6536 12.1373 22.4576 13.3334 20.9869 13.3334ZM20.9869 9C20.0676 9 19.3203 9.74805 19.3203 10.6666C19.3203 11.5853 20.0676 12.3334 20.9869 12.3334C21.9062 12.3334 22.6536 11.5853 22.6536 10.6666C22.6536 9.74805 21.9062 9 20.9869 9Z" fill="#6078EC"/>
<path d="M23.1536 21.3333C23.1536 22.5298 22.1836 23.4999 20.9869 23.4999C19.7903 23.4999 18.8203 22.5298 18.8203 21.3333C18.8203 20.1366 19.7903 19.1665 20.9869 19.1665C22.1836 19.1665 23.1536 20.1366 23.1536 21.3333Z" fill="#6078EC"/>
<path d="M20.9869 23.9999C19.5162 23.9999 18.3203 22.8038 18.3203 21.3333C18.3203 19.8625 19.5162 18.6665 20.9869 18.6665C22.4576 18.6665 23.6536 19.8625 23.6536 21.3333C23.6536 22.8038 22.4576 23.9999 20.9869 23.9999ZM20.9869 19.6665C20.0676 19.6665 19.3203 20.4146 19.3203 21.3333C19.3203 22.2518 20.0676 22.9999 20.9869 22.9999C21.9062 22.9999 22.6536 22.2518 22.6536 21.3333C22.6536 20.4146 21.9062 19.6665 20.9869 19.6665Z" fill="#6078EC"/>
<path d="M13.8177 16.0001C13.8177 17.1968 12.8477 18.1667 11.651 18.1667C10.4545 18.1667 9.48438 17.1968 9.48438 16.0001C9.48438 14.8035 10.4545 13.8335 11.651 13.8335C12.8477 13.8335 13.8177 14.8035 13.8177 16.0001Z" fill="#B0BCF1"/>
<path d="M11.651 18.6667C10.1804 18.6667 8.98438 17.4708 8.98438 16.0001C8.98438 14.5294 10.1804 13.3335 11.651 13.3335C13.1217 13.3335 14.3177 14.5294 14.3177 16.0001C14.3177 17.4708 13.1217 18.6667 11.651 18.6667ZM11.651 14.3335C10.7317 14.3335 9.98438 15.0814 9.98438 16.0001C9.98438 16.9188 10.7317 17.6667 11.651 17.6667C12.5704 17.6667 13.3177 16.9188 13.3177 16.0001C13.3177 15.0814 12.5704 14.3335 11.651 14.3335Z" fill="#B0BCF1"/>
</g>
<defs>
<clipPath id="clip0_19547_10259">
<rect width="16" height="16" fill="white" transform="translate(8.32812 8)"/>
</clipPath>
</defs>
</svg>
