<svg width="24" height="25" viewBox="0 0 24 25" fill="none" xmlns="http://www.w3.org/2000/svg">
<g id="vuesax/outline/calendar">
<g id="calendar">
<path id="Vector" d="M8 6.51904C7.59 6.51904 7.25 6.17904 7.25 5.76904V2.76904C7.25 2.35904 7.59 2.01904 8 2.01904C8.41 2.01904 8.75 2.35904 8.75 2.76904V5.76904C8.75 6.17904 8.41 6.51904 8 6.51904Z" fill="#9E9E9E"/>
<path id="Vector_2" d="M16 6.51904C15.59 6.51904 15.25 6.17904 15.25 5.76904V2.76904C15.25 2.35904 15.59 2.01904 16 2.01904C16.41 2.01904 16.75 2.35904 16.75 2.76904V5.76904C16.75 6.17904 16.41 6.51904 16 6.51904Z" fill="#9E9E9E"/>
<path id="Vector_3" d="M8.5 15.2689C8.37 15.2689 8.24 15.2389 8.12 15.1889C7.99 15.1389 7.89 15.0689 7.79 14.9789C7.61 14.7889 7.5 14.5389 7.5 14.2689C7.5 14.1389 7.53 14.0089 7.58 13.8889C7.63 13.7689 7.7 13.6589 7.79 13.5589C7.89 13.4689 7.99 13.3989 8.12 13.3489C8.48 13.1989 8.93 13.2789 9.21 13.5589C9.39 13.7489 9.5 14.0089 9.5 14.2689C9.5 14.3289 9.49 14.3989 9.48 14.4689C9.47 14.5289 9.45 14.5889 9.42 14.6489C9.4 14.7089 9.37 14.7689 9.33 14.8289C9.3 14.8789 9.25 14.9289 9.21 14.9789C9.02 15.1589 8.76 15.2689 8.5 15.2689Z" fill="#9E9E9E"/>
<path id="Vector_4" d="M12 15.2689C11.87 15.2689 11.74 15.2389 11.62 15.1889C11.49 15.1389 11.39 15.0689 11.29 14.9789C11.11 14.7889 11 14.5389 11 14.2689C11 14.1389 11.03 14.0089 11.08 13.8889C11.13 13.7689 11.2 13.6589 11.29 13.5589C11.39 13.4689 11.49 13.3989 11.62 13.3489C11.98 13.1889 12.43 13.2789 12.71 13.5589C12.89 13.7489 13 14.0089 13 14.2689C13 14.3289 12.99 14.3989 12.98 14.4689C12.97 14.5289 12.95 14.5889 12.92 14.6489C12.9 14.7089 12.87 14.7689 12.83 14.8289C12.8 14.8789 12.75 14.9289 12.71 14.9789C12.52 15.1589 12.26 15.2689 12 15.2689Z" fill="#9E9E9E"/>
<path id="Vector_5" d="M15.5 15.2689C15.37 15.2689 15.24 15.2389 15.12 15.1889C14.99 15.1389 14.89 15.0689 14.79 14.9789C14.75 14.9289 14.71 14.8789 14.67 14.8289C14.63 14.7689 14.6 14.7089 14.58 14.6489C14.55 14.5889 14.53 14.5289 14.52 14.4689C14.51 14.3989 14.5 14.3289 14.5 14.2689C14.5 14.0089 14.61 13.7489 14.79 13.5589C14.89 13.4689 14.99 13.3989 15.12 13.3489C15.49 13.1889 15.93 13.2789 16.21 13.5589C16.39 13.7489 16.5 14.0089 16.5 14.2689C16.5 14.3289 16.49 14.3989 16.48 14.4689C16.47 14.5289 16.45 14.5889 16.42 14.6489C16.4 14.7089 16.37 14.7689 16.33 14.8289C16.3 14.8789 16.25 14.9289 16.21 14.9789C16.02 15.1589 15.76 15.2689 15.5 15.2689Z" fill="#9E9E9E"/>
<path id="Vector_6" d="M8.5 18.7692C8.37 18.7692 8.24 18.7392 8.12 18.6892C8 18.6392 7.89 18.5692 7.79 18.4792C7.61 18.2892 7.5 18.0292 7.5 17.7692C7.5 17.6392 7.53 17.5092 7.58 17.3892C7.63 17.2592 7.7 17.1492 7.79 17.0592C8.16 16.6892 8.84 16.6892 9.21 17.0592C9.39 17.2492 9.5 17.5092 9.5 17.7692C9.5 18.0292 9.39 18.2892 9.21 18.4792C9.02 18.6592 8.76 18.7692 8.5 18.7692Z" fill="#9E9E9E"/>
<path id="Vector_7" d="M12 18.7692C11.74 18.7692 11.48 18.6592 11.29 18.4792C11.11 18.2892 11 18.0292 11 17.7692C11 17.6392 11.03 17.5092 11.08 17.3892C11.13 17.2592 11.2 17.1492 11.29 17.0592C11.66 16.6892 12.34 16.6892 12.71 17.0592C12.8 17.1492 12.87 17.2592 12.92 17.3892C12.97 17.5092 13 17.6392 13 17.7692C13 18.0292 12.89 18.2892 12.71 18.4792C12.52 18.6592 12.26 18.7692 12 18.7692Z" fill="#9E9E9E"/>
<path id="Vector_8" d="M15.5 18.7694C15.24 18.7694 14.98 18.6594 14.79 18.4794C14.7 18.3894 14.63 18.2794 14.58 18.1494C14.53 18.0294 14.5 17.8994 14.5 17.7694C14.5 17.6394 14.53 17.5094 14.58 17.3894C14.63 17.2594 14.7 17.1495 14.79 17.0595C15.02 16.8295 15.37 16.7194 15.69 16.7894C15.76 16.7994 15.82 16.8194 15.88 16.8494C15.94 16.8694 16 16.8995 16.06 16.9395C16.11 16.9695 16.16 17.0195 16.21 17.0595C16.39 17.2495 16.5 17.5094 16.5 17.7694C16.5 18.0294 16.39 18.2894 16.21 18.4794C16.02 18.6594 15.76 18.7694 15.5 18.7694Z" fill="#9E9E9E"/>
<path id="Vector_9" d="M20.5 10.6089H3.5C3.09 10.6089 2.75 10.2689 2.75 9.85889C2.75 9.44889 3.09 9.10889 3.5 9.10889H20.5C20.91 9.10889 21.25 9.44889 21.25 9.85889C21.25 10.2689 20.91 10.6089 20.5 10.6089Z" fill="#9E9E9E"/>
<path id="Vector_10" d="M16 23.519H8C4.35 23.519 2.25 21.419 2.25 17.769V9.26904C2.25 5.61904 4.35 3.51904 8 3.51904H16C19.65 3.51904 21.75 5.61904 21.75 9.26904V17.769C21.75 21.419 19.65 23.519 16 23.519ZM8 5.01904C5.14 5.01904 3.75 6.40904 3.75 9.26904V17.769C3.75 20.629 5.14 22.019 8 22.019H16C18.86 22.019 20.25 20.629 20.25 17.769V9.26904C20.25 6.40904 18.86 5.01904 16 5.01904H8Z" fill="#9E9E9E"/>
</g>
</g>
</svg>
