<svg width="21" height="20" viewBox="0 0 21 20" fill="none" xmlns="http://www.w3.org/2000/svg">
<g clip-path="url(#clip0_4794_6367)">
<path d="M15.1589 3.33333H14.4922V2.66667C14.4922 2.48986 14.422 2.32029 14.2969 2.19526C14.1719 2.07024 14.0023 2 13.8255 2C13.6487 2 13.4791 2.07024 13.3541 2.19526C13.2291 2.32029 13.1589 2.48986 13.1589 2.66667V3.33333H7.82552V2.66667C7.82552 2.48986 7.75528 2.32029 7.63026 2.19526C7.50523 2.07024 7.33567 2 7.15885 2C6.98204 2 6.81247 2.07024 6.68745 2.19526C6.56243 2.32029 6.49219 2.48986 6.49219 2.66667V3.33333H5.82552C4.94179 3.33439 4.09456 3.68592 3.46967 4.31081C2.84478 4.93571 2.49325 5.78294 2.49219 6.66667L2.49219 14.6667C2.49325 15.5504 2.84478 16.3976 3.46967 17.0225C4.09456 17.6474 4.94179 17.9989 5.82552 18H15.1589C16.0426 17.9989 16.8898 17.6474 17.5147 17.0225C18.1396 16.3976 18.4911 15.5504 18.4922 14.6667V6.66667C18.4911 5.78294 18.1396 4.93571 17.5147 4.31081C16.8898 3.68592 16.0426 3.33439 15.1589 3.33333ZM3.82552 6.66667C3.82552 6.13623 4.03623 5.62753 4.41131 5.25245C4.78638 4.87738 5.29509 4.66667 5.82552 4.66667H15.1589C15.6893 4.66667 16.198 4.87738 16.5731 5.25245C16.9481 5.62753 17.1589 6.13623 17.1589 6.66667V7.33333H3.82552V6.66667ZM15.1589 16.6667H5.82552C5.29509 16.6667 4.78638 16.456 4.41131 16.0809C4.03623 15.7058 3.82552 15.1971 3.82552 14.6667V8.66667H17.1589V14.6667C17.1589 15.1971 16.9481 15.7058 16.5731 16.0809C16.198 16.456 15.6893 16.6667 15.1589 16.6667Z" fill="#6078EC"/>
<path d="M10.4922 13C11.0445 13 11.4922 12.5523 11.4922 12C11.4922 11.4477 11.0445 11 10.4922 11C9.9399 11 9.49219 11.4477 9.49219 12C9.49219 12.5523 9.9399 13 10.4922 13Z" fill="#6078EC"/>
<path d="M7.15625 13C7.70853 13 8.15625 12.5523 8.15625 12C8.15625 11.4477 7.70853 11 7.15625 11C6.60397 11 6.15625 11.4477 6.15625 12C6.15625 12.5523 6.60397 13 7.15625 13Z" fill="#6078EC"/>
<path d="M13.8281 13C14.3804 13 14.8281 12.5523 14.8281 12C14.8281 11.4477 14.3804 11 13.8281 11C13.2758 11 12.8281 11.4477 12.8281 12C12.8281 12.5523 13.2758 13 13.8281 13Z" fill="#6078EC"/>
</g>
<defs>
<clipPath id="clip0_4794_6367">
<rect width="16" height="16" fill="white" transform="translate(2.49219 2)"/>
</clipPath>
</defs>
</svg>
