<svg width="19" height="20" viewBox="0 0 19 20" fill="none" xmlns="http://www.w3.org/2000/svg">
<g clip-path="url(#clip0_4770_6294)">
<path d="M6.49219 10.6667C5.89884 10.6667 5.31882 10.4907 4.82548 10.1611C4.33213 9.83143 3.94761 9.3629 3.72055 8.81472C3.49349 8.26654 3.43408 7.66334 3.54983 7.0814C3.66559 6.49945 3.95131 5.96491 4.37087 5.54535C4.79042 5.12579 5.32497 4.84007 5.90692 4.72431C6.48886 4.60856 7.09206 4.66797 7.64024 4.89503C8.18842 5.12209 8.65695 5.50661 8.9866 5.99996C9.31624 6.4933 9.49219 7.07332 9.49219 7.66667C9.49131 8.46205 9.17495 9.2246 8.61253 9.78701C8.05012 10.3494 7.28757 10.6658 6.49219 10.6667ZM6.49219 6C6.16255 6 5.84032 6.09775 5.56624 6.28089C5.29216 6.46402 5.07853 6.72432 4.95239 7.02886C4.82624 7.33341 4.79324 7.66852 4.85755 7.99182C4.92185 8.31512 5.08059 8.61209 5.31368 8.84518C5.54676 9.07827 5.84374 9.237 6.16704 9.30131C6.49034 9.36562 6.82545 9.33261 7.12999 9.20647C7.43454 9.08032 7.69483 8.8667 7.87797 8.59262C8.06111 8.31854 8.15885 7.9963 8.15885 7.66667C8.15885 7.22464 7.98326 6.80072 7.6707 6.48816C7.35814 6.1756 6.93422 6 6.49219 6ZM11.4922 17.3333V17C11.4922 15.6739 10.9654 14.4021 10.0277 13.4645C9.09004 12.5268 7.81827 12 6.49219 12C5.16611 12 3.89434 12.5268 2.95665 13.4645C2.01897 14.4021 1.49219 15.6739 1.49219 17L1.49219 17.3333C1.49219 17.5101 1.56243 17.6797 1.68745 17.8047C1.81247 17.9298 1.98204 18 2.15885 18C2.33567 18 2.50523 17.9298 2.63026 17.8047C2.75528 17.6797 2.82552 17.5101 2.82552 17.3333V17C2.82552 16.0275 3.21183 15.0949 3.89946 14.4073C4.5871 13.7196 5.51973 13.3333 6.49219 13.3333C7.46465 13.3333 8.39728 13.7196 9.08491 14.4073C9.77255 15.0949 10.1589 16.0275 10.1589 17V17.3333C10.1589 17.5101 10.2291 17.6797 10.3541 17.8047C10.4791 17.9298 10.6487 18 10.8255 18C11.0023 18 11.1719 17.9298 11.2969 17.8047C11.4219 17.6797 11.4922 17.5101 11.4922 17.3333ZM17.4922 14C17.4922 13.0991 17.2314 12.2175 16.7413 11.4616C16.2513 10.7056 15.5529 10.1077 14.7305 9.73998C13.9081 9.37223 12.9968 9.25039 12.1067 9.38916C11.2166 9.52793 10.3856 9.92137 9.71419 10.522C9.64803 10.5801 9.59405 10.6508 9.55536 10.7299C9.51667 10.809 9.49404 10.895 9.48877 10.9829C9.48351 11.0708 9.49571 11.1589 9.52468 11.2421C9.55365 11.3253 9.59882 11.4019 9.65756 11.4675C9.7163 11.5331 9.78747 11.5864 9.86694 11.6244C9.94641 11.6623 10.0326 11.6842 10.1206 11.6886C10.2085 11.6931 10.2965 11.68 10.3794 11.6503C10.4623 11.6206 10.5385 11.5747 10.6035 11.5153C11.0832 11.0864 11.6767 10.8055 12.3125 10.7064C12.9482 10.6074 13.5991 10.6945 14.1865 10.9572C14.7738 11.2199 15.2726 11.647 15.6226 12.1869C15.9726 12.7269 16.1588 13.3566 16.1589 14C16.1589 14.1768 16.2291 14.3464 16.3541 14.4714C16.4791 14.5964 16.6487 14.6667 16.8255 14.6667C17.0023 14.6667 17.1719 14.5964 17.2969 14.4714C17.422 14.3464 17.4922 14.1768 17.4922 14ZM13.1589 8C12.5655 8 11.9855 7.82405 11.4921 7.49441C10.9988 7.16477 10.6143 6.69623 10.3872 6.14805C10.1602 5.59987 10.1007 4.99667 10.2165 4.41473C10.3323 3.83279 10.618 3.29824 11.0375 2.87868C11.4571 2.45912 11.9916 2.1734 12.5736 2.05765C13.1555 1.94189 13.7587 2.0013 14.3069 2.22836C14.8551 2.45543 15.3236 2.83994 15.6533 3.33329C15.9829 3.82664 16.1589 4.40666 16.1589 5C16.158 5.79538 15.8416 6.55793 15.2792 7.12035C14.7168 7.68277 13.9542 7.99912 13.1589 8ZM13.1589 3.33333C12.8292 3.33333 12.507 3.43108 12.2329 3.61422C11.9588 3.79735 11.7452 4.05765 11.6191 4.3622C11.4929 4.66674 11.4599 5.00185 11.5242 5.32515C11.5885 5.64845 11.7473 5.94543 11.9803 6.17851C12.2134 6.4116 12.5104 6.57033 12.8337 6.63464C13.157 6.69895 13.4921 6.66595 13.7967 6.5398C14.1012 6.41365 14.3615 6.20003 14.5446 5.92595C14.7278 5.65187 14.8255 5.32964 14.8255 5C14.8255 4.55797 14.6499 4.13405 14.3374 3.82149C14.0248 3.50893 13.6009 3.33333 13.1589 3.33333Z" fill="#757575"/>
</g>
<defs>
<clipPath id="clip0_4770_6294">
<rect width="16" height="16" fill="white" transform="translate(1.49219 2)"/>
</clipPath>
</defs>
</svg>
