<svg width="17" height="16" viewBox="0 0 17 16" fill="none" xmlns="http://www.w3.org/2000/svg">
<g clip-path="url(#clip0_4794_6719)">
<path d="M5.49219 8.66667C4.89884 8.66667 4.31882 8.49072 3.82548 8.16108C3.33213 7.83143 2.94761 7.3629 2.72055 6.81472C2.49349 6.26654 2.43408 5.66334 2.54983 5.0814C2.66559 4.49945 2.95131 3.96491 3.37087 3.54535C3.79042 3.12579 4.32497 2.84007 4.90692 2.72431C5.48886 2.60856 6.09206 2.66797 6.64024 2.89503C7.18842 3.12209 7.65695 3.50661 7.9866 3.99996C8.31624 4.4933 8.49219 5.07332 8.49219 5.66667C8.49131 6.46205 8.17495 7.2246 7.61253 7.78701C7.05012 8.34943 6.28757 8.66579 5.49219 8.66667ZM5.49219 4C5.16255 4 4.84032 4.09775 4.56624 4.28089C4.29216 4.46402 4.07853 4.72432 3.95239 5.02886C3.82624 5.33341 3.79324 5.66852 3.85755 5.99182C3.92185 6.31512 4.08059 6.61209 4.31368 6.84518C4.54676 7.07827 4.84374 7.237 5.16704 7.30131C5.49034 7.36562 5.82545 7.33261 6.12999 7.20647C6.43454 7.08032 6.69483 6.8667 6.87797 6.59262C7.06111 6.31854 7.15885 5.9963 7.15885 5.66667C7.15885 5.22464 6.98326 4.80072 6.6707 4.48816C6.35814 4.1756 5.93422 4 5.49219 4ZM10.4922 15.3333V15C10.4922 13.6739 9.9654 12.4021 9.02772 11.4645C8.09004 10.5268 6.81827 10 5.49219 10C4.16611 10 2.89434 10.5268 1.95665 11.4645C1.01897 12.4021 0.492188 13.6739 0.492188 15L0.492188 15.3333C0.492188 15.5101 0.562425 15.6797 0.68745 15.8047C0.812474 15.9298 0.982043 16 1.15885 16C1.33567 16 1.50523 15.9298 1.63026 15.8047C1.75528 15.6797 1.82552 15.5101 1.82552 15.3333V15C1.82552 14.0275 2.21183 13.0949 2.89946 12.4073C3.5871 11.7196 4.51973 11.3333 5.49219 11.3333C6.46465 11.3333 7.39728 11.7196 8.08491 12.4073C8.77255 13.0949 9.15885 14.0275 9.15885 15V15.3333C9.15885 15.5101 9.22909 15.6797 9.35412 15.8047C9.47914 15.9298 9.64871 16 9.82552 16C10.0023 16 10.1719 15.9298 10.2969 15.8047C10.4219 15.6797 10.4922 15.5101 10.4922 15.3333ZM16.4922 12C16.4922 11.0991 16.2314 10.2175 15.7413 9.46158C15.2513 8.70565 14.5529 8.10772 13.7305 7.73998C12.9081 7.37223 11.9968 7.25039 11.1067 7.38916C10.2166 7.52793 9.38562 7.92137 8.71419 8.522C8.64803 8.58013 8.59405 8.6508 8.55536 8.72991C8.51667 8.80903 8.49404 8.89502 8.48877 8.98293C8.48351 9.07085 8.49571 9.15893 8.52468 9.24209C8.55365 9.32526 8.59882 9.40186 8.65756 9.46748C8.7163 9.53309 8.78747 9.58642 8.86694 9.62437C8.94641 9.66232 9.03261 9.68416 9.12056 9.68861C9.20852 9.69306 9.29649 9.68004 9.37938 9.6503C9.46227 9.62055 9.53846 9.57469 9.60352 9.51534C10.0832 9.08641 10.6767 8.80548 11.3125 8.70644C11.9482 8.6074 12.5991 8.69449 13.1865 8.9572C13.7738 9.21991 14.2726 9.647 14.6226 10.1869C14.9726 10.7269 15.1588 11.3566 15.1589 12C15.1589 12.1768 15.2291 12.3464 15.3541 12.4714C15.4791 12.5964 15.6487 12.6667 15.8255 12.6667C16.0023 12.6667 16.1719 12.5964 16.2969 12.4714C16.422 12.3464 16.4922 12.1768 16.4922 12ZM12.1589 6C11.5655 6 10.9855 5.82405 10.4921 5.49441C9.9988 5.16477 9.61428 4.69623 9.38722 4.14805C9.16015 3.59987 9.10074 2.99667 9.2165 2.41473C9.33225 1.83279 9.61798 1.29824 10.0375 0.878681C10.4571 0.459123 10.9916 0.173401 11.5736 0.0576455C12.1555 -0.0581102 12.7587 0.00129986 13.3069 0.228363C13.8551 0.455426 14.3236 0.839943 14.6533 1.33329C14.9829 1.82664 15.1589 2.40666 15.1589 3C15.158 3.79538 14.8416 4.55793 14.2792 5.12035C13.7168 5.68277 12.9542 5.99912 12.1589 6ZM12.1589 1.33333C11.8292 1.33333 11.507 1.43108 11.2329 1.61422C10.9588 1.79735 10.7452 2.05765 10.6191 2.3622C10.4929 2.66674 10.4599 3.00185 10.5242 3.32515C10.5885 3.64845 10.7473 3.94543 10.9803 4.17851C11.2134 4.4116 11.5104 4.57033 11.8337 4.63464C12.157 4.69895 12.4921 4.66595 12.7967 4.5398C13.1012 4.41365 13.3615 4.20003 13.5446 3.92595C13.7278 3.65187 13.8255 3.32964 13.8255 3C13.8255 2.55797 13.6499 2.13405 13.3374 1.82149C13.0248 1.50893 12.6009 1.33333 12.1589 1.33333Z" fill="#6078EC"/>
</g>
<defs>
<clipPath id="clip0_4794_6719">
<rect width="16" height="16" fill="white" transform="translate(0.492188)"/>
</clipPath>
</defs>
</svg>
