<svg width="33" height="32" viewBox="0 0 33 32" fill="none" xmlns="http://www.w3.org/2000/svg">
<rect x="0.328125" width="32" height="32" rx="6" fill="#6078EC" fill-opacity="0.1"/>
<path opacity="0.4" d="M18.6641 16.7665H17.2174C16.0307 16.7665 15.0641 15.8065 15.0641 14.6132V13.1665C15.0641 12.8932 14.8441 12.6665 14.5641 12.6665H12.4507C10.9107 12.6665 9.66406 13.6665 9.66406 15.4532V19.8798C9.66406 21.6665 10.9107 22.6665 12.4507 22.6665H16.3774C17.9174 22.6665 19.1641 21.6665 19.1641 19.8798V17.2665C19.1641 16.9865 18.9374 16.7665 18.6641 16.7665Z" fill="#6078EC"/>
<path d="M20.2067 9.3335H18.8933H18.1667H16.28C14.7733 9.3335 13.5533 10.2935 13.5 12.0068C13.54 12.0068 13.5733 12.0002 13.6133 12.0002H15.5H16.2267H17.54C19.08 12.0002 20.3267 13.0002 20.3267 14.7868V16.1002V17.9068V19.2202C20.3267 19.2602 20.32 19.2935 20.32 19.3268C21.8067 19.2802 22.9933 18.2935 22.9933 16.5535V15.2402V13.4335V12.1202C22.9933 10.3335 21.7467 9.3335 20.2067 9.3335Z" fill="#6078EC"/>
<path d="M16.3178 12.7665C16.1111 12.5598 15.7578 12.6998 15.7578 12.9865V14.7332C15.7578 15.4665 16.3778 16.0665 17.1378 16.0665C17.6111 16.0732 18.2711 16.0732 18.8378 16.0732C19.1245 16.0732 19.2711 15.7398 19.0711 15.5398C18.3445 14.8132 17.0511 13.5132 16.3178 12.7665Z" fill="#6078EC"/>
</svg>
