<svg width="25" height="25" viewBox="0 0 25 25" fill="none" xmlns="http://www.w3.org/2000/svg">
<g id="vuesax/outline/arrow-right">
<g id="arrow-right">
<path id="Vector" d="M3.51016 9.24799C3.51016 9.05799 3.58016 8.86799 3.73016 8.71799C4.02016 8.42799 4.50016 8.42799 4.79016 8.71799L11.3102 15.238C11.7902 15.718 12.5702 15.718 13.0502 15.238L19.5702 8.71799C19.8602 8.42799 20.3402 8.42799 20.6302 8.71799C20.9202 9.00799 20.9202 9.48799 20.6302 9.77799L14.1102 16.298C13.6002 16.808 12.9102 17.098 12.1802 17.098C11.4502 17.098 10.7602 16.818 10.2502 16.298L3.73016 9.77799C3.59016 9.62799 3.51016 9.43799 3.51016 9.24799Z" fill="#292D32"/>
</g>
</g>
</svg>
