<svg width="18" height="16" viewBox="0 0 18 16" fill="none" xmlns="http://www.w3.org/2000/svg">
<path fill-rule="evenodd" clip-rule="evenodd" d="M13.8744 3.77559C13.8744 3.30136 13.8749 2.95994 13.8978 2.69314C13.9212 2.42064 13.9622 2.32068 13.9817 2.28817C13.9868 2.27978 13.9888 2.27834 13.9914 2.27642L13.9918 2.27612C13.9972 2.27216 14.0201 2.25677 14.078 2.23888C14.2079 2.19879 14.4337 2.16911 14.8327 2.16911C15.2317 2.16911 15.4574 2.19879 15.5873 2.23888C15.6453 2.25677 15.6682 2.27216 15.6736 2.27612L15.674 2.27642C15.6766 2.27834 15.6786 2.27978 15.6836 2.28817C15.7031 2.32068 15.7442 2.42064 15.7676 2.69314C15.7904 2.95994 15.791 3.30136 15.791 3.77559V3.78648V3.79743V3.80846V3.81957V3.83074V3.84198V3.85329V3.86468V3.87613V3.88765V3.89924V3.9109V3.92263V3.93443V3.9463V3.95823V3.97023V3.9823V3.99444V4.00664V4.01891V4.03124V4.04364V4.05611V4.06864V4.08124V4.0939V4.10662V4.11941V4.13227V4.14519V4.15817V4.17121V4.18432V4.19749V4.21072V4.22401V4.23737V4.25078V4.26426V4.2778V4.2914V4.30505V4.31877V4.33255V4.34639V4.36029V4.37424V4.38826V4.40233V4.41646V4.43065V4.44489V4.4592V4.47356V4.48797V4.50245V4.51697V4.53156V4.5462V4.56089V4.57564V4.59045V4.60531V4.62022V4.63519V4.65021V4.66528V4.6804V4.69558V4.71081V4.7261V4.74143V4.75682V4.77226V4.78774V4.80328V4.81887V4.83451V4.8502V4.86594V4.88173V4.89757V4.91345V4.92939V4.94537V4.9614V4.97748V4.99361V5.00978V5.026V5.04226V5.05857V5.07493V5.09133V5.10778V5.12428V5.14081V5.1574V5.17402V5.1907V5.20741V5.22417V5.24097V5.25781V5.2747V5.29163V5.3086V5.32561V5.34266V5.35976V5.37689V5.39407V5.41128V5.42854V5.44584V5.46317V5.48054V5.49796V5.51541V5.5329V5.55043V5.56799V5.5856V5.60324V5.62091V5.63863V5.65638V5.67416V5.69198V5.70984V5.72773V5.74566V5.76362V5.78162V5.79965V5.81771V5.83581V5.85394V5.87211V5.8903V5.90853V5.92679V5.94508V5.96341V5.98176V6.00015V6.01857V6.03701V6.05549V6.074V6.09254V6.1111V6.1297V6.14832V6.16697V6.18565V6.20436V6.2231V6.24186V6.26065V6.27947V6.29831V6.31718V6.33608V6.355V6.37394V6.39292V6.41191V6.43093V6.44998V6.46905V6.48814V6.50726V6.52639V6.54556V6.56474V6.58395V6.60318V6.62243V6.6417V6.66099V6.6803V6.69964V6.71899V6.73837V6.75776V6.77717V6.79661V6.81606V6.83553V6.85502V6.87452V6.89405V6.91359V6.93315V6.95272V6.97231V6.99192V7.01155V7.03119V7.05084V7.07051V7.0902V7.1099V7.12962V7.14934V7.16909V7.18884V7.20861V7.2284V7.24819V7.268V7.28782V7.30765V7.32749V7.34735V7.36721V7.38709V7.40697V7.42687V7.44678V7.46669V7.48662V7.50655V7.52649V7.54645V7.5664V7.58637V7.60635V7.62633V7.64632V7.66632V7.68632V7.70633V7.72634V7.74636V7.76639V7.78642V7.80645V7.82649V7.84654V7.86659V7.88664V7.90669V7.92675V7.94681V7.96688V7.98694V8.00701V8.02708V8.04715V8.06722V8.08729V8.10737V8.12744V8.14751V8.16759V8.18766V8.20773V8.2278V8.24787V8.26794V8.28801V8.30807V8.32813V8.34819V8.36824V8.3883V8.40835V8.42839V8.44843V8.46846V8.4885V8.50852V8.52854V8.54856V8.56856V8.58857V8.60856V8.62855V8.64853V8.66851V8.68848V8.70844V8.72839V8.74833V8.76826V8.78819V8.8081V8.82801V8.84791V8.86779V8.88767V8.90753V8.92739V8.94723V8.96706V8.98688V9.00669V9.02649V9.04627V9.06604V9.08579V9.10554V9.12527V9.14498V9.16468V9.18437V9.20404V9.22369V9.24333V9.26296V9.28257V9.30216V9.32173V9.34129V9.36084V9.38036V9.39987V9.41935V9.43882V9.45828V9.47771V9.49712V9.51651V9.53589V9.55524V9.57458V9.59389V9.61318V9.63245V9.65171V9.67093V9.69014V9.70933V9.72849V9.74763V9.76674V9.78583V9.8049V9.82395V9.84297V9.86196V9.88094V9.89988V9.91881V9.9377V9.95657V9.97541V9.99423V10.013V10.0318V10.0505V10.0692V10.0879V10.1066V10.1252V10.1438V10.1623V10.1809V10.1994V10.2179V10.2363V10.2547V10.2731V10.2915V10.3098V10.3281V10.3464V10.3646V10.3828V10.4009V10.4191V10.4372V10.4552V10.4733V10.4913V10.5092V10.5271V10.545V10.5629V10.5807V10.5985V10.6163V10.634V10.6516V10.6693V10.6869V10.7045V10.722V10.7395V10.7569V10.7743V10.7917V10.809V10.8263V10.8436V10.8608V10.878V10.8951V10.9122V10.9293V10.9463V10.9633V10.9802V10.9971V11.0139V11.0307V11.0475V11.0642V11.0809V11.0975V11.1141V11.1306V11.1471V11.1635V11.18V11.1963V11.2126V11.2289V11.2451V11.2613V11.2774V11.2935V11.3095V11.3255V11.3414V11.3573V11.3732V11.3889V11.4047V11.4204V11.436V11.4516V11.4671V11.4826V11.4981V11.5134V11.5288V11.5441V11.5593V11.5745V11.5896V11.6047V11.6197V11.6347V11.6496V11.6644V11.6792V11.694V11.7087V11.7233V11.7379V11.7524V11.7669V11.7813V11.7957V11.81V11.8242V11.8384V11.8526V11.8666V11.8806V11.8946V11.9085V11.9223V11.9361V11.9498V11.9635V11.9771V11.9906V12.0041V12.0175V12.0309V12.0442V12.0574V12.0706V12.0837V12.0967V12.1097V12.1226V12.1355V12.1483V12.161V12.1736V12.1862V12.1988V12.2112V12.2236V12.236V12.2482V12.2604V12.2726V12.2846V12.2967V12.3086V12.3204V12.3322V12.344V12.3556V12.3672V12.3788V12.3902V12.4016V12.4129V12.4241V12.4353V12.4464V12.4574V12.4684V12.4793C15.791 13.0394 15.7592 13.4189 15.7068 13.6763C15.6542 13.9349 15.5929 14.0079 15.5825 14.019C15.5787 14.0229 15.5753 14.0261 15.5645 14.0312C15.5504 14.0378 15.5194 14.0495 15.459 14.0599C15.3209 14.0836 15.1399 14.0858 14.8327 14.0858C14.5207 14.0858 14.3374 14.0836 14.1983 14.0598C14.1374 14.0494 14.1069 14.0378 14.0935 14.0314C14.0834 14.0267 14.081 14.0242 14.0781 14.0211C14.069 14.0113 14.0084 13.9393 13.9566 13.6792C13.9051 13.4208 13.8744 13.0404 13.8744 12.4793V3.77559ZM14.8327 0.752441C14.0274 0.752441 13.2 0.837559 12.767 1.5593C12.5781 1.87402 12.515 2.23702 12.4863 2.57216C12.4577 2.90641 12.4577 3.30804 12.4577 3.74945V3.74946V3.77559V12.4793C12.4577 13.0756 12.489 13.5633 12.5672 13.9559C12.6451 14.3469 12.7818 14.7088 13.0431 14.9884C13.3175 15.282 13.6522 15.4035 13.9591 15.4561C14.2306 15.5026 14.5338 15.5025 14.7991 15.5024L14.8327 15.5024L14.8657 15.5024C15.127 15.5025 15.4282 15.5026 15.6991 15.456C16.0051 15.4034 16.3388 15.2821 16.6135 14.9906C16.8757 14.7123 17.0151 14.3512 17.095 13.9588C17.1751 13.5652 17.2077 13.0766 17.2077 12.4793V12.4684V12.4574V12.4464V12.4353V12.4241V12.4129V12.4016V12.3902V12.3788V12.3672V12.3556V12.344V12.3322V12.3204V12.3086V12.2967V12.2846V12.2726V12.2604V12.2482V12.236V12.2236V12.2112V12.1988V12.1862V12.1736V12.161V12.1483V12.1355V12.1226V12.1097V12.0967V12.0837V12.0706V12.0574V12.0442V12.0309V12.0175V12.0041V11.9906V11.9771V11.9635V11.9498V11.9361V11.9223V11.9085V11.8946V11.8806V11.8666V11.8526V11.8384V11.8242V11.81V11.7957V11.7813V11.7669V11.7524V11.7379V11.7233V11.7087V11.694V11.6792V11.6644V11.6496V11.6347V11.6197V11.6047V11.5896V11.5745V11.5593V11.5441V11.5288V11.5134V11.4981V11.4826V11.4671V11.4516V11.436V11.4204V11.4047V11.3889V11.3732V11.3573V11.3414V11.3255V11.3095V11.2935V11.2774V11.2613V11.2451V11.2289V11.2126V11.1963V11.18V11.1635V11.1471V11.1306V11.1141V11.0975V11.0809V11.0642V11.0475V11.0307V11.0139V10.9971V10.9802V10.9633V10.9463V10.9293V10.9122V10.8951V10.878V10.8608V10.8436V10.8263V10.809V10.7917V10.7743V10.7569V10.7395V10.722V10.7045V10.6869V10.6693V10.6516V10.634V10.6163V10.5985V10.5807V10.5629V10.545V10.5271V10.5092V10.4913V10.4733V10.4552V10.4372V10.4191V10.4009V10.3828V10.3646V10.3464V10.3281V10.3098V10.2915V10.2731V10.2547V10.2363V10.2179V10.1994V10.1809V10.1623V10.1438V10.1252V10.1066V10.0879V10.0692V10.0505V10.0318V10.013V9.99423V9.97541V9.95657V9.9377V9.91881V9.89988V9.88094V9.86196V9.84297V9.82395V9.8049V9.78583V9.76674V9.74763V9.72849V9.70933V9.69014V9.67093V9.65171V9.63245V9.61318V9.59389V9.57458V9.55524V9.53589V9.51651V9.49712V9.47771V9.45828V9.43882V9.41935V9.39987V9.38036V9.36084V9.34129V9.32173V9.30216V9.28257V9.26296V9.24333V9.22369V9.20404V9.18437V9.16468V9.14498V9.12527V9.10554V9.08579V9.06604V9.04627V9.02649V9.00669V8.98688V8.96706V8.94723V8.92739V8.90753V8.88767V8.86779V8.84791V8.82801V8.8081V8.78819V8.76826V8.74833V8.72839V8.70844V8.68848V8.66851V8.64853V8.62855V8.60856V8.58857V8.56856V8.54856V8.52854V8.50852V8.4885V8.46846V8.44843V8.42839V8.40835V8.3883V8.36824V8.34819V8.32813V8.30807V8.28801V8.26794V8.24787V8.2278V8.20773V8.18766V8.16759V8.14751V8.12744V8.10737V8.08729V8.06722V8.04715V8.02708V8.00701V7.98694V7.96688V7.94681V7.92675V7.90669V7.88664V7.86659V7.84654V7.82649V7.80645V7.78642V7.76639V7.74636V7.72634V7.70633V7.68632V7.66632V7.64632V7.62633V7.60635V7.58637V7.5664V7.54645V7.52649V7.50655V7.48662V7.46669V7.44678V7.42687V7.40697V7.38709V7.36721V7.34735V7.32749V7.30765V7.28782V7.268V7.24819V7.2284V7.20861V7.18884V7.16909V7.14934V7.12962V7.1099V7.0902V7.07051V7.05084V7.03119V7.01155V6.99192V6.97231V6.95272V6.93315V6.91359V6.89405V6.87452V6.85502V6.83553V6.81606V6.79661V6.77717V6.75776V6.73837V6.71899V6.69964V6.6803V6.66099V6.6417V6.62243V6.60318V6.58395V6.56474V6.54556V6.52639V6.50726V6.48814V6.46905V6.44998V6.43093V6.41191V6.39292V6.37394V6.355V6.33608V6.31718V6.29831V6.27947V6.26065V6.24186V6.2231V6.20436V6.18565V6.16697V6.14832V6.1297V6.1111V6.09254V6.074V6.05549V6.03701V6.01857V6.00015V5.98176V5.96341V5.94508V5.92679V5.90853V5.8903V5.87211V5.85394V5.83581V5.81771V5.79965V5.78162V5.76362V5.74566V5.72773V5.70984V5.69198V5.67416V5.65638V5.63863V5.62091V5.60324V5.5856V5.56799V5.55043V5.5329V5.51541V5.49796V5.48054V5.46317V5.44584V5.42854V5.41128V5.39407V5.37689V5.35976V5.34266V5.32561V5.3086V5.29163V5.2747V5.25781V5.24097V5.22417V5.20741V5.1907V5.17402V5.1574V5.14081V5.12428V5.10778V5.09133V5.07493V5.05857V5.04226V5.026V5.00978V4.99361V4.97748V4.9614V4.94537V4.92939V4.91345V4.89757V4.88173V4.86594V4.8502V4.83451V4.81887V4.80328V4.78774V4.77226V4.75682V4.74143V4.7261V4.71081V4.69558V4.6804V4.66528V4.65021V4.63519V4.62022V4.60531V4.59045V4.57564V4.56089V4.5462V4.53156V4.51697V4.50245V4.48797V4.47356V4.4592V4.44489V4.43065V4.41646V4.40233V4.38826V4.37424V4.36029V4.34639V4.33255V4.31877V4.30505V4.2914V4.2778V4.26426V4.25078V4.23737V4.22401V4.21072V4.19749V4.18432V4.17121V4.15817V4.14519V4.13227V4.11941V4.10662V4.0939V4.08124V4.06864V4.05611V4.04364V4.03124V4.01891V4.00664V3.99444V3.9823V3.97023V3.95823V3.9463V3.93443V3.92263V3.9109V3.89924V3.88765V3.87613V3.86468V3.85329V3.84198V3.83074V3.81957V3.80846V3.79743V3.78648V3.77559L17.2077 3.74945C17.2077 3.30804 17.2077 2.90641 17.1791 2.57216C17.1503 2.23702 17.0872 1.87402 16.8984 1.5593C16.4654 0.837559 15.6379 0.752441 14.8327 0.752441ZM8.06518 6.04408C8.04434 6.23194 8.0435 6.45069 8.0435 6.73855L8.0435 9.79411L8.04351 12.8497C8.04351 12.8565 8.04341 12.8633 8.04321 12.8701C8.02256 13.5864 8.15294 13.8285 8.23042 13.9115C8.29738 13.9832 8.46567 14.0858 8.99912 14.0858C9.52062 14.0858 9.69411 13.9844 9.76544 13.9088C9.84471 13.8248 9.97788 13.5822 9.9551 12.8724C9.95486 12.8648 9.95474 12.8572 9.95474 12.8497V9.79411L9.95474 6.73855C9.95474 6.45069 9.9539 6.23194 9.93306 6.04408C9.91252 5.85893 9.8777 5.7642 9.84743 5.71366L9.84641 5.71194C9.82689 5.67884 9.72286 5.50244 8.99912 5.50244C8.27537 5.50244 8.17135 5.67884 8.15182 5.71194L8.15081 5.71366C8.12053 5.7642 8.08571 5.85893 8.06518 6.04408ZM6.9355 4.98567C7.33464 4.31934 8.07252 4.08577 8.99912 4.08577C9.92571 4.08577 10.6636 4.31934 11.0627 4.98567C11.2405 5.28235 11.3096 5.60429 11.3411 5.88789C11.3714 6.1616 11.3714 6.45544 11.3714 6.71796L11.3714 6.73855V9.79411V12.8386C11.3961 13.6518 11.2712 14.377 10.796 14.8808C10.3106 15.3955 9.62764 15.5024 8.99912 15.5024C8.36449 15.5024 7.67879 15.3967 7.19479 14.8781C6.72334 14.373 6.60476 13.647 6.62684 12.8397L6.62684 9.79411L6.62683 6.73855L6.62683 6.71796C6.62681 6.45543 6.62679 6.1616 6.65715 5.88789C6.68861 5.60429 6.75778 5.28235 6.9355 4.98567ZM2.23025 10.2271C2.20841 10.4469 2.20768 10.7123 2.20768 11.0673V13.3727C2.20768 13.7731 2.3045 13.8827 2.35143 13.9224C2.42777 13.987 2.63439 14.0858 3.16602 14.0858C3.68577 14.0858 3.89556 13.988 3.97605 13.9205C4.02673 13.878 4.12435 13.7662 4.12435 13.3727V13.3668V13.3608V13.3549V13.349V13.3432V13.3373V13.3314V13.3256V13.3198V13.3139V13.3081V13.3023V13.2966V13.2908V13.285V13.2793V13.2735V13.2678V13.2621V13.2564V13.2507V13.245V13.2393V13.2337V13.228V13.2224V13.2168V13.2111V13.2055V13.2V13.1944V13.1888V13.1832V13.1777V13.1722V13.1666V13.1611V13.1556V13.1501V13.1446V13.1391V13.1337V13.1282V13.1228V13.1174V13.1119V13.1065V13.1011V13.0957V13.0904V13.085V13.0796V13.0743V13.0689V13.0636V13.0583V13.053V13.0477V13.0424V13.0371V13.0318V13.0266V13.0213V13.0161V13.0109V13.0056V13.0004V12.9952V12.99V12.9848V12.9797V12.9745V12.9694V12.9642V12.9591V12.9539V12.9488V12.9437V12.9386V12.9335V12.9284V12.9234V12.9183V12.9133V12.9082V12.9032V12.8981V12.8931V12.8881V12.8831V12.8781V12.8731V12.8682V12.8632V12.8582V12.8533V12.8483V12.8434V12.8385V12.8336V12.8287V12.8238V12.8189V12.814V12.8091V12.8042V12.7994V12.7945V12.7897V12.7849V12.78V12.7752V12.7704V12.7656V12.7608V12.756V12.7512V12.7465V12.7417V12.7369V12.7322V12.7274V12.7227V12.718V12.7133V12.7085V12.7038V12.6991V12.6945V12.6898V12.6851V12.6804V12.6758V12.6711V12.6665V12.6618V12.6572V12.6526V12.6479V12.6433V12.6387V12.6341V12.6295V12.6249V12.6203V12.6158V12.6112V12.6066V12.6021V12.5975V12.593V12.5885V12.5839V12.5794V12.5749V12.5704V12.5659V12.5614V12.5569V12.5524V12.5479V12.5434V12.539V12.5345V12.5301V12.5256V12.5212V12.5167V12.5123V12.5079V12.5034V12.499V12.4946V12.4902V12.4858V12.4814V12.477V12.4726V12.4683V12.4639V12.4595V12.4552V12.4508V12.4464V12.4421V12.4378V12.4334V12.4291V12.4248V12.4204V12.4161V12.4118V12.4075V12.4032V12.3989V12.3946V12.3903V12.386V12.3817V12.3775V12.3732V12.3689V12.3647V12.3604V12.3562V12.3519V12.3477V12.3434V12.3392V12.3349V12.3307V12.3265V12.3223V12.3181V12.3138V12.3096V12.3054V12.3012V12.297V12.2928V12.2886V12.2845V12.2803V12.2761V12.2719V12.2677V12.2636V12.2594V12.2552V12.2511V12.2469V12.2428V12.2386V12.2345V12.2303V12.2262V12.2221V12.2179V12.2138V12.2097V12.2056V12.2014V12.1973V12.1932V12.1891V12.185V12.1809V12.1768V12.1727V12.1686V12.1645V12.1604V12.1563V12.1522V12.1481V12.144V12.1399V12.1359V12.1318V12.1277V12.1236V12.1196V12.1155V12.1114V12.1073V12.1033V12.0992V12.0952V12.0911V12.087V12.083V12.0789V12.0749V12.0708V12.0668V12.0627V12.0587V12.0547V12.0506V12.0466V12.0425V12.0385V12.0345V12.0304V12.0264V12.0224V12.0183V12.0143V12.0103V12.0063V12.0022V11.9982V11.9942V11.9901V11.9861V11.9821V11.9781V11.9741V11.97V11.966V11.962V11.958V11.954V11.95V11.9459V11.9419V11.9379V11.9339V11.9299V11.9259V11.9218V11.9178V11.9138V11.9098V11.9058V11.9018V11.8978V11.8937V11.8897V11.8857V11.8817V11.8777V11.8737V11.8697V11.8656V11.8616V11.8576V11.8536V11.8496V11.8456V11.8415V11.8375V11.8335V11.8295V11.8255V11.8214V11.8174V11.8134V11.8094V11.8054V11.8013V11.7973V11.7933V11.7893V11.7852V11.7812V11.7772V11.7731V11.7691V11.7651V11.761V11.757V11.7529V11.7489V11.7449V11.7408V11.7368V11.7327V11.7287V11.7246V11.7206V11.7165V11.7125V11.7084V11.7044V11.7003V11.6962V11.6922V11.6881V11.684V11.68V11.6759V11.6718V11.6678V11.6637V11.6596V11.6555V11.6514V11.6473V11.6432V11.6392V11.6351V11.631V11.6269V11.6228V11.6187V11.6145V11.6104V11.6063V11.6022V11.5981V11.594V11.5898V11.5857V11.5816V11.5774V11.5733V11.5692V11.565V11.5609V11.5567V11.5526V11.5484V11.5443V11.5401V11.5359V11.5318V11.5276V11.5234V11.5192V11.5151V11.5109V11.5067V11.5025V11.4983V11.4941V11.4899V11.4857V11.4815V11.4772V11.473V11.4688V11.4646V11.4603V11.4561V11.4518V11.4476V11.4433V11.4391V11.4348V11.4306V11.4263V11.422V11.4178V11.4135V11.4092V11.4049V11.4006V11.3963V11.392V11.3877V11.3834V11.3791V11.3747V11.3704V11.3661V11.3617V11.3574V11.353V11.3487V11.3443V11.34V11.3356V11.3312V11.3268V11.3225V11.3181V11.3137V11.3093V11.3049V11.3005V11.296V11.2916V11.2872V11.2828V11.2783V11.2739V11.2694V11.265V11.2605V11.256V11.2516V11.2471V11.2426V11.2381V11.2336V11.2291V11.2246V11.2201V11.2155V11.211V11.2065V11.2019V11.1974V11.1928V11.1883V11.1837V11.1791V11.1745V11.1699V11.1654V11.1608V11.1561V11.1515V11.1469V11.1423V11.1376V11.133V11.1284V11.1237V11.119V11.1144V11.1097V11.105V11.1003V11.0956V11.0909V11.0862V11.0815V11.0798L4.11858 10.9113V10.9113C4.10937 10.637 4.10217 10.4225 4.0817 10.2332C4.05713 10.006 4.02012 9.90012 3.99067 9.84849L3.99011 9.8473C3.98261 9.83051 3.91046 9.66911 3.16602 9.66911C2.41831 9.66911 2.33125 9.8323 2.31927 9.85476L2.31835 9.85644C2.28962 9.90533 2.25206 10.0077 2.23025 10.2271ZM1.09701 9.1386C1.50556 8.4435 2.27035 8.25244 3.16602 8.25244C4.06332 8.25244 4.82081 8.44463 5.22121 9.14655C5.39395 9.44938 5.45804 9.78399 5.49015 10.0809C5.51684 10.3276 5.52606 10.6068 5.53512 10.8813C5.5369 10.9351 5.53867 10.9888 5.54057 11.042L5.54081 11.0501L5.54102 11.0673V11.072V11.0767V11.0815V11.0862V11.0909V11.0956V11.1003V11.105V11.1097V11.1144V11.119V11.1237V11.1284V11.133V11.1376V11.1423V11.1469V11.1515V11.1561V11.1608V11.1654V11.1699V11.1745V11.1791V11.1837V11.1883V11.1928V11.1974V11.2019V11.2065V11.211V11.2155V11.2201V11.2246V11.2291V11.2336V11.2381V11.2426V11.2471V11.2516V11.256V11.2605V11.265V11.2694V11.2739V11.2783V11.2828V11.2872V11.2916V11.296V11.3005V11.3049V11.3093V11.3137V11.3181V11.3225V11.3268V11.3312V11.3356V11.34V11.3443V11.3487V11.353V11.3574V11.3617V11.3661V11.3704V11.3747V11.3791V11.3834V11.3877V11.392V11.3963V11.4006V11.4049V11.4092V11.4135V11.4178V11.422V11.4263V11.4306V11.4348V11.4391V11.4433V11.4476V11.4518V11.4561V11.4603V11.4646V11.4688V11.473V11.4772V11.4815V11.4857V11.4899V11.4941V11.4983V11.5025V11.5067V11.5109V11.5151V11.5192V11.5234V11.5276V11.5318V11.5359V11.5401V11.5443V11.5484V11.5526V11.5567V11.5609V11.565V11.5692V11.5733V11.5774V11.5816V11.5857V11.5898V11.594V11.5981V11.6022V11.6063V11.6104V11.6145V11.6187V11.6228V11.6269V11.631V11.6351V11.6392V11.6432V11.6473V11.6514V11.6555V11.6596V11.6637V11.6678V11.6718V11.6759V11.68V11.684V11.6881V11.6922V11.6962V11.7003V11.7044V11.7084V11.7125V11.7165V11.7206V11.7246V11.7287V11.7327V11.7368V11.7408V11.7449V11.7489V11.7529V11.757V11.761V11.7651V11.7691V11.7731V11.7772V11.7812V11.7852V11.7893V11.7933V11.7973V11.8013V11.8054V11.8094V11.8134V11.8174V11.8214V11.8255V11.8295V11.8335V11.8375V11.8415V11.8456V11.8496V11.8536V11.8576V11.8616V11.8656V11.8697V11.8737V11.8777V11.8817V11.8857V11.8897V11.8937V11.8978V11.9018V11.9058V11.9098V11.9138V11.9178V11.9218V11.9259V11.9299V11.9339V11.9379V11.9419V11.9459V11.95V11.954V11.958V11.962V11.966V11.97V11.9741V11.9781V11.9821V11.9861V11.9901V11.9942V11.9982V12.0022V12.0063V12.0103V12.0143V12.0183V12.0224V12.0264V12.0304V12.0345V12.0385V12.0425V12.0466V12.0506V12.0547V12.0587V12.0627V12.0668V12.0708V12.0749V12.0789V12.083V12.087V12.0911V12.0952V12.0992V12.1033V12.1073V12.1114V12.1155V12.1196V12.1236V12.1277V12.1318V12.1359V12.1399V12.144V12.1481V12.1522V12.1563V12.1604V12.1645V12.1686V12.1727V12.1768V12.1809V12.185V12.1891V12.1932V12.1973V12.2014V12.2056V12.2097V12.2138V12.2179V12.2221V12.2262V12.2303V12.2345V12.2386V12.2428V12.2469V12.2511V12.2552V12.2594V12.2636V12.2677V12.2719V12.2761V12.2803V12.2845V12.2886V12.2928V12.297V12.3012V12.3054V12.3096V12.3138V12.3181V12.3223V12.3265V12.3307V12.3349V12.3392V12.3434V12.3477V12.3519V12.3562V12.3604V12.3647V12.3689V12.3732V12.3775V12.3817V12.386V12.3903V12.3946V12.3989V12.4032V12.4075V12.4118V12.4161V12.4204V12.4248V12.4291V12.4334V12.4378V12.4421V12.4464V12.4508V12.4552V12.4595V12.4639V12.4683V12.4726V12.477V12.4814V12.4858V12.4902V12.4946V12.499V12.5034V12.5079V12.5123V12.5167V12.5212V12.5256V12.5301V12.5345V12.539V12.5434V12.5479V12.5524V12.5569V12.5614V12.5659V12.5704V12.5749V12.5794V12.5839V12.5885V12.593V12.5975V12.6021V12.6066V12.6112V12.6158V12.6203V12.6249V12.6295V12.6341V12.6387V12.6433V12.6479V12.6526V12.6572V12.6618V12.6665V12.6711V12.6758V12.6804V12.6851V12.6898V12.6945V12.6991V12.7038V12.7085V12.7133V12.718V12.7227V12.7274V12.7322V12.7369V12.7417V12.7465V12.7512V12.756V12.7608V12.7656V12.7704V12.7752V12.78V12.7849V12.7897V12.7945V12.7994V12.8042V12.8091V12.814V12.8189V12.8238V12.8287V12.8336V12.8385V12.8434V12.8483V12.8533V12.8582V12.8632V12.8682V12.8731V12.8781V12.8831V12.8881V12.8931V12.8981V12.9032V12.9082V12.9133V12.9183V12.9234V12.9284V12.9335V12.9386V12.9437V12.9488V12.9539V12.9591V12.9642V12.9694V12.9745V12.9797V12.9848V12.99V12.9952V13.0004V13.0056V13.0109V13.0161V13.0213V13.0266V13.0318V13.0371V13.0424V13.0477V13.053V13.0583V13.0636V13.0689V13.0743V13.0796V13.085V13.0904V13.0957V13.1011V13.1065V13.1119V13.1174V13.1228V13.1282V13.1337V13.1391V13.1446V13.1501V13.1556V13.1611V13.1666V13.1722V13.1777V13.1832V13.1888V13.1944V13.2V13.2055V13.2111V13.2168V13.2224V13.228V13.2337V13.2393V13.245V13.2507V13.2564V13.2621V13.2678V13.2735V13.2793V13.285V13.2908V13.2966V13.3023V13.3081V13.3139V13.3198V13.3256V13.3314V13.3373V13.3432V13.349V13.3549V13.3608V13.3668V13.3727C5.54102 13.9919 5.38126 14.5908 4.88658 15.0058C4.42171 15.3958 3.79817 15.5024 3.16602 15.5024C2.52767 15.5024 1.90096 15.3969 1.43646 15.004C0.942549 14.5861 0.791016 13.985 0.791016 13.3727V11.0673V11.0444V11.0444C0.791001 10.718 0.790985 10.3843 0.82053 10.087C0.850805 9.78236 0.917413 9.44418 1.09701 9.1386Z" fill="#6078EC"/>
</svg>
