<svg width="20" height="20" viewBox="0 0 20 20" fill="none" xmlns="http://www.w3.org/2000/svg">
<g id="vuesax/outline/document-download">
<g id="document-download">
<path id="Vector" d="M7.5 14.7915C7.41667 14.7915 7.34167 14.7748 7.25833 14.7415C7.025 14.6498 6.875 14.4165 6.875 14.1665V9.1665C6.875 8.82484 7.15833 8.5415 7.5 8.5415C7.84167 8.5415 8.125 8.82484 8.125 9.1665V12.6582L8.725 12.0582C8.96667 11.8165 9.36667 11.8165 9.60833 12.0582C9.85 12.2998 9.85 12.6998 9.60833 12.9415L7.94167 14.6082C7.825 14.7248 7.65833 14.7915 7.5 14.7915Z" fill="#6078EC"/>
<path id="Vector_2" d="M7.50052 14.7915C7.34219 14.7915 7.18385 14.7332 7.05885 14.6082L5.39219 12.9415C5.15052 12.6999 5.15052 12.2999 5.39219 12.0582C5.63385 11.8165 6.03385 11.8165 6.27552 12.0582L7.94219 13.7249C8.18385 13.9665 8.18385 14.3665 7.94219 14.6082C7.81719 14.7332 7.65885 14.7915 7.50052 14.7915Z" fill="#6078EC"/>
<path id="Vector_3" d="M12.5013 18.9582H7.5013C2.9763 18.9582 1.04297 17.0248 1.04297 12.4998V7.49984C1.04297 2.97484 2.9763 1.0415 7.5013 1.0415H11.668C12.0096 1.0415 12.293 1.32484 12.293 1.6665C12.293 2.00817 12.0096 2.2915 11.668 2.2915H7.5013C3.65964 2.2915 2.29297 3.65817 2.29297 7.49984V12.4998C2.29297 16.3415 3.65964 17.7082 7.5013 17.7082H12.5013C16.343 17.7082 17.7096 16.3415 17.7096 12.4998V8.33317C17.7096 7.9915 17.993 7.70817 18.3346 7.70817C18.6763 7.70817 18.9596 7.9915 18.9596 8.33317V12.4998C18.9596 17.0248 17.0263 18.9582 12.5013 18.9582Z" fill="#6078EC"/>
<path id="Vector_4" d="M18.3346 8.95841H15.0013C12.1513 8.95841 11.043 7.85007 11.043 5.00007V1.66674C11.043 1.41674 11.193 1.18341 11.4263 1.09174C11.6596 0.991739 11.9263 1.05007 12.1096 1.22507L18.7763 7.89174C18.9513 8.06674 19.0096 8.34174 18.9096 8.57507C18.8096 8.8084 18.5846 8.95841 18.3346 8.95841ZM12.293 3.17507V5.00007C12.293 7.15007 12.8513 7.70841 15.0013 7.70841H16.8263L12.293 3.17507Z" fill="#6078EC"/>
</g>
</g>
</svg>
