<svg width="153" height="153" viewBox="0 0 153 153" fill="none" xmlns="http://www.w3.org/2000/svg">
<g filter="url(#filter0_d_1_14802)">
<circle cx="76.5" cy="73.5" r="55.5" fill="#5DB887"/>
</g>
<path d="M76.4999 49.5391C63.2975 49.5391 52.5391 60.2975 52.5391 73.4999C52.5391 86.7023 63.2975 97.4607 76.4999 97.4607C89.7023 97.4607 100.461 86.7023 100.461 73.4999C100.461 60.2975 89.7023 49.5391 76.4999 49.5391ZM87.9532 67.9889L74.3674 81.5747C74.0304 81.9112 73.5737 82.1003 73.0975 82.1003C72.6212 82.1003 72.1645 81.9112 71.8275 81.5747L65.0466 74.7938C64.7124 74.4556 64.525 73.9993 64.525 73.5239C64.525 73.0484 64.7124 72.5921 65.0466 72.2539C65.7415 71.5591 66.8916 71.5591 67.5865 72.2539L73.0975 77.7649L85.4133 65.4491C86.1082 64.7542 87.2583 64.7542 87.9532 65.4491C88.6481 66.1439 88.6481 67.2701 87.9532 67.9889Z" fill="white"/>
<defs>
<filter id="filter0_d_1_14802" x="0" y="0" width="153" height="153" filterUnits="userSpaceOnUse" color-interpolation-filters="sRGB">
<feFlood flood-opacity="0" result="BackgroundImageFix"/>
<feColorMatrix in="SourceAlpha" type="matrix" values="0 0 0 0 0 0 0 0 0 0 0 0 0 0 0 0 0 0 127 0" result="hardAlpha"/>
<feMorphology radius="1" operator="dilate" in="SourceAlpha" result="effect1_dropShadow_1_14802"/>
<feOffset dy="3"/>
<feGaussianBlur stdDeviation="10"/>
<feColorMatrix type="matrix" values="0 0 0 0 0.121569 0 0 0 0 0.392157 0 0 0 0 1 0 0 0 0.1 0"/>
<feBlend mode="normal" in2="BackgroundImageFix" result="effect1_dropShadow_1_14802"/>
<feBlend mode="normal" in="SourceGraphic" in2="effect1_dropShadow_1_14802" result="shape"/>
</filter>
</defs>
</svg>
