<svg width="20" height="10" viewBox="0 0 20 10" fill="none" xmlns="http://www.w3.org/2000/svg">
<path d="M3.49818 9.18782C3.11783 9.18782 2.73749 9.04746 2.43722 8.74668L0.435396 6.74148C-0.145132 6.15997 -0.145132 5.19747 0.435396 4.61596C1.01592 4.03446 1.9768 4.03446 2.55732 4.61596L3.49818 5.55841L8.44267 0.605565C9.0232 0.0240566 9.98408 0.0240566 10.5646 0.605565C11.1451 1.18707 11.1451 2.14957 10.5646 2.73108L4.55914 8.74668C4.25887 9.04746 3.87853 9.18782 3.49818 9.18782Z" fill="#9E9E9E"/>
<path d="M12.4982 9.18782C12.1178 9.18782 11.7375 9.04746 11.4372 8.74668L9.4354 6.74148C8.85487 6.15997 8.85487 5.19747 9.4354 4.61596C10.0159 4.03446 10.9768 4.03446 11.5573 4.61596L12.4982 5.55841L17.4427 0.605565C18.0232 0.0240566 18.9841 0.0240566 19.5646 0.605565C20.1451 1.18707 20.1451 2.14957 19.5646 2.73108L13.5591 8.74668C13.2589 9.04746 12.8785 9.18782 12.4982 9.18782Z" fill="#9E9E9E"/>
</svg>
