<svg width="584" height="430" viewBox="0 0 584 430" fill="none" xmlns="http://www.w3.org/2000/svg">
<path d="M216.703 298.756H199.45V329.019H157.655V298.756H95.1719V267.744L160.339 172.688H199.464V267.206H216.716V298.756H216.703ZM157.655 267.206V249.022C157.655 245.595 157.773 240.987 158.023 235.17C158.273 229.367 158.471 226.308 158.615 226.032H157.431C154.996 231.52 152.246 236.654 149.18 241.433L131.822 267.206H157.655Z" fill="#6078EC"/>
<path d="M340.919 251.07C340.919 278.734 336.273 298.992 326.982 311.859C317.692 324.726 303.479 331.159 284.331 331.159C265.184 331.159 251.498 324.437 241.996 311.006C232.495 297.574 227.744 277.591 227.744 251.07C227.744 224.549 232.39 202.885 241.68 189.9C250.971 176.929 265.184 170.443 284.331 170.443C303.479 170.443 317.073 177.191 326.614 190.701C336.155 204.211 340.919 224.326 340.919 251.057V251.07ZM269.856 251.07C269.856 268.755 270.961 280.9 273.185 287.53C275.396 294.161 279.12 297.469 284.331 297.469C289.543 297.469 293.346 294.043 295.53 287.202C297.715 280.362 298.794 268.309 298.794 251.057C298.794 233.805 297.689 221.595 295.478 214.649C293.267 207.704 289.543 204.225 284.331 204.225C279.12 204.225 275.396 207.573 273.185 214.282C270.974 220.978 269.856 233.24 269.856 251.07Z" fill="#6078EC"/>
<path d="M473.926 298.756H456.673V329.019H414.877V298.756H352.395V267.744L417.562 172.688H456.686V267.206H473.939V298.756H473.926ZM414.877 267.206V249.022C414.877 245.595 414.996 240.987 415.259 235.17C415.509 229.367 415.707 226.308 415.851 226.032H414.667C412.232 231.52 409.482 236.654 406.416 241.433L389.058 267.206H414.891H414.877Z" fill="#6078EC"/>
<path d="M31.5723 207.247H94.9106" stroke="#9E9E9E" stroke-width="1.57438" stroke-linecap="round" stroke-linejoin="round"/>
<path d="M110.121 207.247H123.636" stroke="#9E9E9E" stroke-width="1.57438" stroke-linecap="round" stroke-linejoin="round"/>
<path d="M20.0957 189.457H133.494" stroke="#9E9E9E" stroke-width="1.57438" stroke-linecap="round" stroke-linejoin="round"/>
<path d="M10.7522 189.457H1.42188" stroke="#9E9E9E" stroke-width="1.57438" stroke-linecap="round" stroke-linejoin="round"/>
<path d="M20.0957 172.559H57.746" stroke="#9E9E9E" stroke-width="1.57438" stroke-linecap="round" stroke-linejoin="round"/>
<path d="M67.8281 172.559H146.892" stroke="#9E9E9E" stroke-width="1.57438" stroke-linecap="round" stroke-linejoin="round"/>
<path d="M479.336 348.375H547.135" stroke="#9E9E9E" stroke-width="1.57438" stroke-linecap="round" stroke-linejoin="round"/>
<path d="M558.15 348.375H567.954" stroke="#9E9E9E" stroke-width="1.57438" stroke-linecap="round" stroke-linejoin="round"/>
<path d="M492.879 330.584H581.721" stroke="#9E9E9E" stroke-width="1.57438" stroke-linecap="round" stroke-linejoin="round"/>
<path d="M486.113 330.584H479.336" stroke="#9E9E9E" stroke-width="1.57438" stroke-linecap="round" stroke-linejoin="round"/>
<path d="M479.336 313.687H520.184" stroke="#9E9E9E" stroke-width="1.57438" stroke-linecap="round" stroke-linejoin="round"/>
<path d="M527.488 313.687H558.151" stroke="#9E9E9E" stroke-width="1.57438" stroke-linecap="round" stroke-linejoin="round"/>
<path d="M508.918 203.4V188.905" stroke="#9E9E9E" stroke-width="1.57438" stroke-linecap="round" stroke-linejoin="round"/>
<path d="M498.786 207.588L488.508 197.334" stroke="#9E9E9E" stroke-width="1.57438" stroke-linecap="round" stroke-linejoin="round"/>
<path d="M494.587 217.698H480.059" stroke="#9E9E9E" stroke-width="1.57438" stroke-linecap="round" stroke-linejoin="round"/>
<path d="M498.786 227.821L488.508 238.062" stroke="#9E9E9E" stroke-width="1.57438" stroke-linecap="round" stroke-linejoin="round"/>
<path d="M508.918 232.009V246.504" stroke="#9E9E9E" stroke-width="1.57438" stroke-linecap="round" stroke-linejoin="round"/>
<path d="M519.064 227.821L529.342 238.062" stroke="#9E9E9E" stroke-width="1.57438" stroke-linecap="round" stroke-linejoin="round"/>
<path d="M523.262 217.698H537.79" stroke="#9E9E9E" stroke-width="1.57438" stroke-linecap="round" stroke-linejoin="round"/>
<path d="M519.064 207.588L529.342 197.334" stroke="#9E9E9E" stroke-width="1.57438" stroke-linecap="round" stroke-linejoin="round"/>
<path d="M53.2949 275.559V265.082" stroke="#9E9E9E" stroke-width="1.57438" stroke-linecap="round" stroke-linejoin="round"/>
<path d="M45.9666 278.592L38.5312 271.187" stroke="#9E9E9E" stroke-width="1.57438" stroke-linecap="round" stroke-linejoin="round"/>
<path d="M42.9254 285.905H32.4238" stroke="#9E9E9E" stroke-width="1.57438" stroke-linecap="round" stroke-linejoin="round"/>
<path d="M45.9666 293.218L38.5312 300.623" stroke="#9E9E9E" stroke-width="1.57438" stroke-linecap="round" stroke-linejoin="round"/>
<path d="M53.2949 296.251V306.728" stroke="#9E9E9E" stroke-width="1.57438" stroke-linecap="round" stroke-linejoin="round"/>
<path d="M60.623 293.218L68.0452 300.623" stroke="#9E9E9E" stroke-width="1.57438" stroke-linecap="round" stroke-linejoin="round"/>
<path d="M63.6523 285.905H74.1539" stroke="#9E9E9E" stroke-width="1.57438" stroke-linecap="round" stroke-linejoin="round"/>
<path d="M60.623 278.592L68.0452 271.187" stroke="#9E9E9E" stroke-width="1.57438" stroke-linecap="round" stroke-linejoin="round"/>
<path d="M337.445 59.1741V48.6968" stroke="#9E9E9E" stroke-width="1.57438" stroke-linecap="round" stroke-linejoin="round"/>
<path d="M330.116 62.207L322.693 54.7889" stroke="#9E9E9E" stroke-width="1.57438" stroke-linecap="round" stroke-linejoin="round"/>
<path d="M327.076 69.52H316.574" stroke="#9E9E9E" stroke-width="1.57438" stroke-linecap="round" stroke-linejoin="round"/>
<path d="M330.116 76.8331L322.693 84.2381" stroke="#9E9E9E" stroke-width="1.57438" stroke-linecap="round" stroke-linejoin="round"/>
<path d="M337.445 79.8528V90.3301" stroke="#9E9E9E" stroke-width="1.57438" stroke-linecap="round" stroke-linejoin="round"/>
<path d="M344.773 76.8331L352.196 84.2381" stroke="#9E9E9E" stroke-width="1.57438" stroke-linecap="round" stroke-linejoin="round"/>
<path d="M347.803 69.52H358.304" stroke="#9E9E9E" stroke-width="1.57438" stroke-linecap="round" stroke-linejoin="round"/>
<path d="M344.773 62.207L352.196 54.7889" stroke="#9E9E9E" stroke-width="1.57438" stroke-linecap="round" stroke-linejoin="round"/>
<path d="M465.688 350.173H105.424V406.761H465.688V350.173Z" stroke="#9E9E9E" stroke-width="1.76389" stroke-linecap="round" stroke-linejoin="round"/>
<path d="M133.494 147.062V101.739H369.713V202.468" stroke="#9E9E9E" stroke-width="1.57438" stroke-linecap="round" stroke-linejoin="round"/>
<path d="M286.451 69.52V126.278H443.093V152.104" stroke="#9E9E9E" stroke-width="1.57438" stroke-linecap="round" stroke-linejoin="round"/>
<path d="M139.14 152.695C139.14 155.806 136.613 158.314 133.507 158.314C130.402 158.314 127.875 155.793 127.875 152.695C127.875 149.596 130.402 147.075 133.507 147.075C136.613 147.075 139.14 149.596 139.14 152.695Z" stroke="#9E9E9E" stroke-width="1.57438" stroke-linecap="round" stroke-linejoin="round"/>
<path d="M286.453 69.5069C289.563 69.5069 292.085 66.991 292.085 63.8875C292.085 60.784 289.563 58.2681 286.453 58.2681C283.342 58.2681 280.82 60.784 280.82 63.8875C280.82 66.991 283.342 69.5069 286.453 69.5069Z" stroke="#9E9E9E" stroke-width="1.57438" stroke-linecap="round" stroke-linejoin="round"/>
<path d="M448.724 158.314C448.724 161.426 446.197 163.933 443.091 163.933C439.986 163.933 437.459 161.412 437.459 158.314C437.459 155.215 439.986 152.695 443.091 152.695C446.197 152.695 448.724 155.215 448.724 158.314Z" stroke="#9E9E9E" stroke-width="1.57438" stroke-linecap="round" stroke-linejoin="round"/>
<path d="M375.347 209.02C375.347 212.131 372.82 214.639 369.714 214.639C366.609 214.639 364.082 212.118 364.082 209.02C364.082 205.921 366.609 203.4 369.714 203.4C372.82 203.4 375.347 205.921 375.347 209.02Z" stroke="#9E9E9E" stroke-width="1.57438" stroke-linecap="round" stroke-linejoin="round"/>
<path d="M96.7626 321.643L83.4316 334.943" stroke="#9E9E9E" stroke-width="1.57438" stroke-linecap="round" stroke-linejoin="round"/>
<path d="M83.4316 321.643L96.7626 334.943" stroke="#9E9E9E" stroke-width="1.57438" stroke-linecap="round" stroke-linejoin="round"/>
<path d="M103.438 128.432L90.0938 141.732" stroke="#9E9E9E" stroke-width="1.57438" stroke-linecap="round" stroke-linejoin="round"/>
<path d="M90.0938 128.432L103.438 141.732" stroke="#9E9E9E" stroke-width="1.57438" stroke-linecap="round" stroke-linejoin="round"/>
<path d="M536.001 279.249L522.67 292.562" stroke="#9E9E9E" stroke-width="1.57438" stroke-linecap="round" stroke-linejoin="round"/>
<path d="M522.67 279.249L536.001 292.562" stroke="#9E9E9E" stroke-width="1.57438" stroke-linecap="round" stroke-linejoin="round"/>
<path d="M157.523 52.4912C153.272 52.4912 149.377 54.0142 146.35 56.5482C143.258 47.2788 134.52 40.5829 124.189 40.5829C112.622 40.5829 103.054 48.9725 101.173 59.9749C99.9487 59.6205 98.6722 59.4235 97.343 59.4235C89.6577 59.4235 83.4199 65.6468 83.4199 73.3144C83.4199 80.3649 88.697 86.1812 95.527 87.074V87.2053H157.523C167.13 87.2053 174.92 79.4327 174.92 69.8482C174.92 60.2638 167.13 52.4912 157.523 52.4912Z" stroke="#9E9E9E" stroke-width="1.64727" stroke-linecap="round" stroke-linejoin="round"/>
<path d="M480.126 140.786C483.218 140.786 486.048 141.889 488.245 143.727C490.482 136.992 496.839 132.134 504.353 132.134C512.749 132.134 519.71 138.226 521.066 146.222C521.948 145.972 522.882 145.828 523.856 145.828C529.436 145.828 533.976 150.344 533.976 155.924C533.976 161.045 530.146 165.273 525.172 165.916V166.008H480.139C473.164 166.008 467.492 160.362 467.492 153.39C467.492 146.419 473.151 140.773 480.139 140.773L480.126 140.786Z" stroke="#9E9E9E" stroke-width="1.57438" stroke-linecap="round" stroke-linejoin="round"/>
<path d="M542.212 379.347C539.62 379.347 537.251 380.279 535.409 381.815C533.527 376.17 528.197 372.086 521.907 372.086C514.866 372.086 509.023 377.194 507.892 383.903C507.155 383.693 506.365 383.575 505.562 383.575C500.877 383.575 497.074 387.369 497.074 392.043C497.074 396.336 500.285 399.881 504.457 400.42V400.498H542.226C548.082 400.498 552.832 395.759 552.832 389.916C552.832 384.073 548.082 379.334 542.226 379.334L542.212 379.347Z" stroke="#9E9E9E" stroke-width="1.57438" stroke-linecap="round" stroke-linejoin="round"/>
<path d="M29.5978 357.027C32.6903 357.027 35.5197 358.13 37.7174 359.968C39.9546 353.233 46.3108 348.375 53.825 348.375C62.221 348.375 69.1826 354.467 70.538 362.462C71.4198 362.213 72.3541 362.069 73.3279 362.069C78.9077 362.069 83.4478 366.585 83.4478 372.165C83.4478 377.286 79.6183 381.513 74.6439 382.157V382.248H29.5978C22.6231 382.248 16.9512 376.603 16.9512 369.631C16.9512 362.659 22.6099 357.014 29.5978 357.014V357.027Z" stroke="#9E9E9E" stroke-width="1.57438" stroke-linecap="round" stroke-linejoin="round"/>
<path d="M174.936 44.1541C174.936 44.1541 254.474 -20.5343 362.542 9.26933C476.059 40.5829 498.786 121.342 498.786 121.342" stroke="#9E9E9E" stroke-width="1.57438" stroke-linecap="round" stroke-linejoin="round"/>
<path d="M54.8388 232.206C24.0053 236.972 8.503 302.264 43.1923 328.182" stroke="#9E9E9E" stroke-width="1.47234" stroke-linecap="round" stroke-linejoin="round"/>
<path d="M443.092 420.586C443.092 420.586 495.915 443.628 519.064 411.488" stroke="#9E9E9E" stroke-width="1.57438" stroke-linecap="round" stroke-linejoin="round"/>
<path d="M191.805 158.314V125.031" stroke="#9E9E9E" stroke-width="1.57438" stroke-linecap="round" stroke-linejoin="round"/>
<path d="M183.752 158.314V141.732" stroke="#9E9E9E" stroke-width="1.57438" stroke-linecap="round" stroke-linejoin="round"/>
<path d="M314.402 166.008V141.679" stroke="#9E9E9E" stroke-width="1.57438" stroke-linecap="round" stroke-linejoin="round"/>
<path d="M305.242 163.933V153.85" stroke="#9E9E9E" stroke-width="1.57438" stroke-linecap="round" stroke-linejoin="round"/>
<path d="M297.137 163.933V147.062" stroke="#9E9E9E" stroke-width="1.57438" stroke-linecap="round" stroke-linejoin="round"/>
<path d="M199.543 158.314V141.679" stroke="#9E9E9E" stroke-width="1.57438" stroke-linecap="round" stroke-linejoin="round"/>
<path d="M420.631 162.949V155.504" stroke="#9E9E9E" stroke-width="1.57438" stroke-linecap="round" stroke-linejoin="round"/>
<path d="M412.574 162.949V144.817" stroke="#9E9E9E" stroke-width="1.57438" stroke-linecap="round" stroke-linejoin="round"/>
<path d="M428.367 162.949V149.99" stroke="#9E9E9E" stroke-width="1.57438" stroke-linecap="round" stroke-linejoin="round"/>
<path d="M216.338 394.402V364.501H235.441V368.592H220.677V376.981H232.949V381.072H220.677V390.312H235.441V394.402H216.338ZM242.504 394.402V364.501H254.589C254.88 364.501 255.24 364.515 255.669 364.543C256.098 364.557 256.506 364.598 256.894 364.668C258.555 364.931 259.94 365.498 261.047 366.37C262.168 367.242 263.006 368.343 263.559 369.672C264.113 371.001 264.39 372.468 264.39 374.074C264.39 376.455 263.781 378.511 262.563 380.241C261.345 381.957 259.517 383.03 257.081 383.459L255.316 383.667H246.844V394.402H242.504ZM259.988 394.402L254.091 382.234L258.472 381.113L264.951 394.402H259.988ZM246.844 379.556H254.423C254.7 379.556 255.004 379.542 255.337 379.514C255.683 379.487 256.008 379.438 256.313 379.369C257.199 379.161 257.912 378.781 258.451 378.227C258.991 377.659 259.379 377.009 259.614 376.275C259.85 375.541 259.967 374.808 259.967 374.074C259.967 373.34 259.85 372.613 259.614 371.894C259.379 371.16 258.991 370.516 258.451 369.962C257.912 369.395 257.199 369.007 256.313 368.8C256.008 368.717 255.683 368.661 255.337 368.634C255.004 368.606 254.7 368.592 254.423 368.592H246.844V379.556ZM271.591 394.402V364.501H283.676C283.967 364.501 284.326 364.515 284.756 364.543C285.185 364.557 285.593 364.598 285.981 364.668C287.642 364.931 289.026 365.498 290.134 366.37C291.255 367.242 292.092 368.343 292.646 369.672C293.2 371.001 293.477 372.468 293.477 374.074C293.477 376.455 292.868 378.511 291.649 380.241C290.431 381.957 288.604 383.03 286.168 383.459L284.403 383.667H275.931V394.402H271.591ZM289.075 394.402L283.177 382.234L287.559 381.113L294.037 394.402H289.075ZM275.931 379.556H283.51C283.787 379.556 284.091 379.542 284.423 379.514C284.769 379.487 285.095 379.438 285.399 379.369C286.285 379.161 286.998 378.781 287.538 378.227C288.078 377.659 288.466 377.009 288.701 376.275C288.936 375.541 289.054 374.808 289.054 374.074C289.054 373.34 288.936 372.613 288.701 371.894C288.466 371.16 288.078 370.516 287.538 369.962C286.998 369.395 286.285 369.007 285.399 368.8C285.095 368.717 284.769 368.661 284.423 368.634C284.091 368.606 283.787 368.592 283.51 368.592H275.931V379.556ZM313.157 395.025C310.167 395.025 307.62 394.375 305.516 393.073C303.411 391.758 301.799 389.931 300.677 387.592C299.57 385.252 299.016 382.539 299.016 379.452C299.016 376.365 299.57 373.652 300.677 371.312C301.799 368.973 303.411 367.152 305.516 365.851C307.62 364.536 310.167 363.878 313.157 363.878C316.133 363.878 318.673 364.536 320.778 365.851C322.896 367.152 324.508 368.973 325.616 371.312C326.723 373.652 327.277 376.365 327.277 379.452C327.277 382.539 326.723 385.252 325.616 387.592C324.508 389.931 322.896 391.758 320.778 393.073C318.673 394.375 316.133 395.025 313.157 395.025ZM313.157 390.893C315.275 390.921 317.033 390.457 318.431 389.502C319.843 388.533 320.902 387.19 321.608 385.474C322.314 383.743 322.667 381.736 322.667 379.452C322.667 377.168 322.314 375.174 321.608 373.472C320.902 371.755 319.843 370.419 318.431 369.464C317.033 368.509 315.275 368.024 313.157 368.011C311.039 367.983 309.274 368.447 307.862 369.402C306.464 370.357 305.412 371.7 304.706 373.43C304 375.161 303.64 377.168 303.626 379.452C303.612 381.736 303.958 383.736 304.664 385.453C305.37 387.156 306.429 388.484 307.841 389.44C309.267 390.395 311.039 390.879 313.157 390.893ZM333.495 394.402V364.501H345.58C345.871 364.501 346.231 364.515 346.66 364.543C347.089 364.557 347.497 364.598 347.885 364.668C349.546 364.931 350.931 365.498 352.038 366.37C353.159 367.242 353.997 368.343 354.551 369.672C355.104 371.001 355.381 372.468 355.381 374.074C355.381 376.455 354.772 378.511 353.554 380.241C352.336 381.957 350.508 383.03 348.072 383.459L346.307 383.667H337.835V394.402H333.495ZM350.979 394.402L345.082 382.234L349.463 381.113L355.942 394.402H350.979ZM337.835 379.556H345.414C345.691 379.556 345.996 379.542 346.328 379.514C346.674 379.487 346.999 379.438 347.304 379.369C348.19 379.161 348.903 378.781 349.442 378.227C349.982 377.659 350.37 377.009 350.605 376.275C350.841 375.541 350.958 374.808 350.958 374.074C350.958 373.34 350.841 372.613 350.605 371.894C350.37 371.16 349.982 370.516 349.442 369.962C348.903 369.395 348.19 369.007 347.304 368.8C346.999 368.717 346.674 368.661 346.328 368.634C345.996 368.606 345.691 368.592 345.414 368.592H337.835V379.556Z" fill="#424242"/>
</svg>
