<svg width="46" height="47" viewBox="0 0 46 47" fill="none" xmlns="http://www.w3.org/2000/svg">
<g id="fi_732220" clip-path="url(#clip0_21900_62225)">
<path id="Vector" d="M44.2327 39.0716H24.4046C23.6228 39.0716 22.9883 38.4371 22.9883 37.6553C22.9883 36.8735 22.9883 10.1112 22.9883 9.32938C22.9883 8.54759 23.6228 7.91309 24.4046 7.91309H44.2327C45.0145 7.91309 45.649 8.54759 45.649 9.32938V37.6553C45.649 38.4371 45.0145 39.0716 44.2327 39.0716Z" fill="#ECEFF1"/>
<g id="Group">
<path id="Vector_2" d="M30.0737 16.4107H24.4085C23.6267 16.4107 22.9922 15.7762 22.9922 14.9944C22.9922 14.2126 23.6267 13.5781 24.4085 13.5781H30.0737C30.8555 13.5781 31.49 14.2126 31.49 14.9944C31.49 15.7762 30.8555 16.4107 30.0737 16.4107Z" fill="#388E3C"/>
<path id="Vector_3" d="M30.0737 22.0758H24.4085C23.6267 22.0758 22.9922 21.4413 22.9922 20.6595C22.9922 19.8777 23.6267 19.2432 24.4085 19.2432H30.0737C30.8555 19.2432 31.49 19.8777 31.49 20.6595C31.49 21.4413 30.8555 22.0758 30.0737 22.0758Z" fill="#388E3C"/>
<path id="Vector_4" d="M30.0737 27.7413H24.4085C23.6267 27.7413 22.9922 27.1068 22.9922 26.325C22.9922 25.5432 23.6267 24.9087 24.4085 24.9087H30.0737C30.8555 24.9087 31.49 25.5432 31.49 26.325C31.49 27.1068 30.8555 27.7413 30.0737 27.7413Z" fill="#388E3C"/>
<path id="Vector_5" d="M30.0737 33.4063H24.4085C23.6267 33.4063 22.9922 32.7718 22.9922 31.99C22.9922 31.2082 23.6267 30.5737 24.4085 30.5737H30.0737C30.8555 30.5737 31.49 31.2082 31.49 31.99C31.49 32.7718 30.8555 33.4063 30.0737 33.4063Z" fill="#388E3C"/>
<path id="Vector_6" d="M38.5731 16.4107H35.7405C34.9587 16.4107 34.3242 15.7762 34.3242 14.9944C34.3242 14.2126 34.9587 13.5781 35.7405 13.5781H38.5731C39.3549 13.5781 39.9894 14.2126 39.9894 14.9944C39.9894 15.7762 39.3549 16.4107 38.5731 16.4107Z" fill="#388E3C"/>
<path id="Vector_7" d="M38.5731 22.0758H35.7405C34.9587 22.0758 34.3242 21.4413 34.3242 20.6595C34.3242 19.8777 34.9587 19.2432 35.7405 19.2432H38.5731C39.3549 19.2432 39.9894 19.8777 39.9894 20.6595C39.9894 21.4413 39.3549 22.0758 38.5731 22.0758Z" fill="#388E3C"/>
<path id="Vector_8" d="M38.5731 27.7413H35.7405C34.9587 27.7413 34.3242 27.1068 34.3242 26.325C34.3242 25.5432 34.9587 24.9087 35.7405 24.9087H38.5731C39.3549 24.9087 39.9894 25.5432 39.9894 26.325C39.9894 27.1068 39.3549 27.7413 38.5731 27.7413Z" fill="#388E3C"/>
<path id="Vector_9" d="M38.5731 33.4063H35.7405C34.9587 33.4063 34.3242 32.7718 34.3242 31.99C34.3242 31.2082 34.9587 30.5737 35.7405 30.5737H38.5731C39.3549 30.5737 39.9894 31.2082 39.9894 31.99C39.9894 32.7718 39.3549 33.4063 38.5731 33.4063Z" fill="#388E3C"/>
</g>
<path id="Vector_10" d="M25.3087 2.57277C24.9858 2.30368 24.5524 2.18754 24.1445 2.27252L1.48382 6.5214C0.812498 6.64604 0.328125 7.22955 0.328125 7.9122V39.0707C0.328125 39.7505 0.812498 40.3369 1.48382 40.4615L24.1445 44.7104C24.2295 44.7274 24.3173 44.7359 24.4051 44.7359C24.7337 44.7359 25.0538 44.6226 25.3087 44.4101C25.6345 44.141 25.8214 43.7388 25.8214 43.3196V3.66332C25.8214 3.24126 25.6345 2.84187 25.3087 2.57277Z" fill="#2E7D32"/>
<path id="Vector_11" d="M19.807 28.2253L15.3287 23.1068L19.858 17.283C20.3396 16.6655 20.2262 15.776 19.6116 15.2945C18.9969 14.8129 18.1075 14.9262 17.6231 15.5409L13.428 20.9342L9.89296 16.8949C9.3746 16.3001 8.4795 16.2462 7.89599 16.7618C7.30681 17.2773 7.24732 18.1724 7.76285 18.7587L11.6577 23.2116L7.70903 28.2876C7.22749 28.9051 7.3408 29.7945 7.95547 30.276C8.21607 30.4772 8.52482 30.5735 8.82791 30.5735C9.24996 30.5735 9.66635 30.3865 9.94678 30.0268L13.5583 25.3813L17.6769 30.0863C17.9573 30.4092 18.3482 30.5735 18.742 30.5735C19.0734 30.5735 19.4048 30.4573 19.6739 30.2222C20.2631 29.7067 20.3226 28.8116 19.807 28.2253Z" fill="#FAFAFA"/>
</g>
<defs>
<clipPath id="clip0_21900_62225">
<rect width="45.3214" height="45.3214" fill="white" transform="translate(0.328125 0.830078)"/>
</clipPath>
</defs>
</svg>
