<svg width="21" height="22" viewBox="0 0 21 22" fill="none" xmlns="http://www.w3.org/2000/svg">
<path fill-rule="evenodd" clip-rule="evenodd" d="M7.60733 7.14973C7.60733 5.73938 8.92264 4.45455 10.7303 4.45455C12.538 4.45455 13.8533 5.73938 13.8533 7.14973C13.8533 8.56008 12.538 9.84492 10.7303 9.84492C8.92264 9.84492 7.60733 8.56008 7.60733 7.14973ZM10.7303 3C8.28511 3 6.15278 4.77974 6.15278 7.14973C6.15278 9.51973 8.28511 11.2995 10.7303 11.2995C13.1755 11.2995 15.3079 9.51973 15.3079 7.14973C15.3079 4.77974 13.1755 3 10.7303 3ZM5.04048 16.1337C5.04048 15.6459 5.45856 15.0751 6.60242 14.5902C7.69272 14.128 9.19487 13.8663 10.7303 13.8663C12.2493 13.8663 13.7504 14.172 14.8467 14.6592C15.3957 14.9032 15.8088 15.1776 16.0745 15.4508C16.337 15.7208 16.4202 15.9497 16.4202 16.1337C16.4202 16.176 16.4057 16.286 16.1956 16.4606C15.9791 16.6405 15.617 16.8313 15.0899 17.002C14.0419 17.3415 12.5202 17.5455 10.7303 17.5455C8.94046 17.5455 7.41879 17.3415 6.37079 17.002C5.84368 16.8313 5.48155 16.6405 5.26505 16.4606C5.05496 16.286 5.04048 16.176 5.04048 16.1337ZM10.7303 12.4118C9.05722 12.4118 7.35082 12.6931 6.0347 13.251C4.77214 13.7863 3.58594 14.7128 3.58594 16.1337C3.58594 16.7457 3.91524 17.2302 4.3354 17.5793C4.74915 17.9231 5.30375 18.1854 5.92256 18.3858C7.16638 18.7887 8.85326 19 10.7303 19C12.6074 19 14.2943 18.7887 15.5381 18.3858C16.1569 18.1854 16.7115 17.9231 17.1252 17.5793C17.5454 17.2302 17.8747 16.7457 17.8747 16.1337C17.8747 15.4621 17.5568 14.8888 17.1174 14.4369C16.6812 13.9882 16.0917 13.6208 15.4375 13.3301C14.1273 12.7478 12.4199 12.4118 10.7303 12.4118Z" fill="#6078EC"/>
</svg>
