<svg width="18" height="18" viewBox="0 0 18 18" fill="none" xmlns="http://www.w3.org/2000/svg">
<path d="M9.75 18H8.57325C8.45607 18 8.34052 17.9726 8.23585 17.9199C8.13118 17.8672 8.04031 17.7908 7.97053 17.6966C7.90075 17.6025 7.854 17.4933 7.83402 17.3779C7.81404 17.2624 7.8214 17.1439 7.8555 17.0317C8.07025 16.3734 8.20276 15.6909 8.25 15C8.25 14.6022 8.09196 14.2206 7.81066 13.9393C7.52936 13.658 7.14782 13.5 6.75 13.5C6.35218 13.5 5.97064 13.658 5.68934 13.9393C5.40804 14.2206 5.25 14.6022 5.25 15C5.29724 15.6909 5.42975 16.3734 5.6445 17.0317C5.6786 17.1439 5.68596 17.2624 5.66598 17.3779C5.646 17.4933 5.59925 17.6025 5.52947 17.6966C5.45969 17.7908 5.36882 17.8672 5.26415 17.9199C5.15948 17.9726 5.04393 18 4.92675 18H3.75C2.7558 17.9988 1.80267 17.6033 1.09966 16.9003C0.396661 16.1973 0.00119089 15.2442 0 14.25L0 8.25C0.00119089 7.2558 0.396661 6.30267 1.09966 5.59966C1.80267 4.89666 2.7558 4.50119 3.75 4.5H3.954C3.83522 4.00823 3.76687 3.50563 3.75 3C3.75 2.20435 4.06607 1.44129 4.62868 0.87868C5.19129 0.316071 5.95435 0 6.75 0C7.54565 0 8.30871 0.316071 8.87132 0.87868C9.43393 1.44129 9.75 2.20435 9.75 3C9.73313 3.50563 9.66478 4.00823 9.546 4.5H9.75C10.7154 4.50011 11.6437 4.87211 12.342 5.53874C13.0404 6.20536 13.4551 7.11537 13.5 8.07975C13.9918 7.96113 14.4944 7.89253 15 7.875C15.7956 7.875 16.5587 8.19107 17.1213 8.75368C17.6839 9.31629 18 10.0794 18 10.875C18 11.6706 17.6839 12.4337 17.1213 12.9963C16.5587 13.5589 15.7956 13.875 15 13.875C14.4944 13.8577 13.9919 13.7893 13.5 13.671V14.25C13.4988 15.2442 13.1033 16.1973 12.4003 16.9003C11.6973 17.6033 10.7442 17.9988 9.75 18ZM9.546 16.5H9.75C10.3467 16.5 10.919 16.2629 11.341 15.841C11.7629 15.419 12 14.8467 12 14.25V12.6982C12 12.5811 12.0274 12.4655 12.0801 12.3608C12.1328 12.2562 12.2092 12.1653 12.3034 12.0955C12.3975 12.0258 12.5067 11.979 12.6221 11.959C12.7376 11.939 12.8561 11.9464 12.9683 11.9805C13.6267 12.1951 14.3091 12.3276 15 12.375C15.3978 12.375 15.7794 12.217 16.0607 11.9357C16.342 11.6544 16.5 11.2728 16.5 10.875C16.5 10.4772 16.342 10.0956 16.0607 9.81434C15.7794 9.53304 15.3978 9.375 15 9.375C14.3091 9.42243 13.6267 9.55493 12.9683 9.7695C12.8561 9.8036 12.7376 9.81096 12.6221 9.79098C12.5067 9.771 12.3975 9.72425 12.3034 9.65447C12.2092 9.58469 12.1328 9.49382 12.0801 9.38915C12.0274 9.28448 12 9.16893 12 9.05175V8.25C12 7.65326 11.7629 7.08097 11.341 6.65901C10.919 6.23705 10.3467 6 9.75 6H8.57325C8.45607 6.00003 8.34052 5.97261 8.23585 5.91993C8.13118 5.86724 8.04031 5.79077 7.97053 5.69663C7.90075 5.6025 7.854 5.49332 7.83402 5.37786C7.81404 5.2624 7.8214 5.14386 7.8555 5.03175C8.07025 4.37335 8.20276 3.69092 8.25 3C8.25 2.60218 8.09196 2.22064 7.81066 1.93934C7.52936 1.65804 7.14782 1.5 6.75 1.5C6.35218 1.5 5.97064 1.65804 5.68934 1.93934C5.40804 2.22064 5.25 2.60218 5.25 3C5.29724 3.69092 5.42975 4.37335 5.6445 5.03175C5.6786 5.14386 5.68596 5.2624 5.66598 5.37786C5.646 5.49332 5.59925 5.6025 5.52947 5.69663C5.45969 5.79077 5.36882 5.86724 5.26415 5.91993C5.15948 5.97261 5.04393 6.00003 4.92675 6H3.75C3.15326 6 2.58097 6.23705 2.15901 6.65901C1.73705 7.08097 1.5 7.65326 1.5 8.25V14.25C1.5 14.8467 1.73705 15.419 2.15901 15.841C2.58097 16.2629 3.15326 16.5 3.75 16.5H3.954C3.83522 16.0082 3.76687 15.5056 3.75 15C3.75 14.2044 4.06607 13.4413 4.62868 12.8787C5.19129 12.3161 5.95435 12 6.75 12C7.54565 12 8.30871 12.3161 8.87132 12.8787C9.43393 13.4413 9.75 14.2044 9.75 15C9.73313 15.5056 9.66478 16.0082 9.546 16.5Z" fill="#6078EC"/>
</svg>
