<svg width="22" height="22" viewBox="0 0 22 22" fill="none" xmlns="http://www.w3.org/2000/svg">
<path d="M11.75 20H10.5732C10.4561 20 10.3405 19.9726 10.2358 19.9199C10.1312 19.8672 10.0403 19.7908 9.97053 19.6966C9.90075 19.6025 9.854 19.4933 9.83402 19.3779C9.81404 19.2624 9.8214 19.1439 9.8555 19.0317C10.0703 18.3734 10.2028 17.6909 10.25 17C10.25 16.6022 10.092 16.2206 9.81066 15.9393C9.52936 15.658 9.14782 15.5 8.75 15.5C8.35218 15.5 7.97064 15.658 7.68934 15.9393C7.40804 16.2206 7.25 16.6022 7.25 17C7.29724 17.6909 7.42975 18.3734 7.6445 19.0317C7.6786 19.1439 7.68596 19.2624 7.66598 19.3779C7.646 19.4933 7.59925 19.6025 7.52947 19.6966C7.45969 19.7908 7.36882 19.8672 7.26415 19.9199C7.15948 19.9726 7.04393 20 6.92675 20H5.75C4.7558 19.9988 3.80267 19.6033 3.09966 18.9003C2.39666 18.1973 2.00119 17.2442 2 16.25L2 10.25C2.00119 9.2558 2.39666 8.30267 3.09966 7.59966C3.80267 6.89666 4.7558 6.50119 5.75 6.5H5.954C5.83522 6.00823 5.76687 5.50563 5.75 5C5.75 4.20435 6.06607 3.44129 6.62868 2.87868C7.19129 2.31607 7.95435 2 8.75 2C9.54565 2 10.3087 2.31607 10.8713 2.87868C11.4339 3.44129 11.75 4.20435 11.75 5C11.7331 5.50563 11.6648 6.00823 11.546 6.5H11.75C12.7154 6.50011 13.6437 6.87211 14.342 7.53874C15.0404 8.20536 15.4551 9.11537 15.5 10.0798C15.9918 9.96113 16.4944 9.89253 17 9.875C17.7956 9.875 18.5587 10.1911 19.1213 10.7537C19.6839 11.3163 20 12.0794 20 12.875C20 13.6706 19.6839 14.4337 19.1213 14.9963C18.5587 15.5589 17.7956 15.875 17 15.875C16.4944 15.8577 15.9919 15.7893 15.5 15.671V16.25C15.4988 17.2442 15.1033 18.1973 14.4003 18.9003C13.6973 19.6033 12.7442 19.9988 11.75 20ZM11.546 18.5H11.75C12.3467 18.5 12.919 18.2629 13.341 17.841C13.7629 17.419 14 16.8467 14 16.25V14.6982C14 14.5811 14.0274 14.4655 14.0801 14.3608C14.1328 14.2562 14.2092 14.1653 14.3034 14.0955C14.3975 14.0258 14.5067 13.979 14.6221 13.959C14.7376 13.939 14.8561 13.9464 14.9683 13.9805C15.6267 14.1951 16.3091 14.3276 17 14.375C17.3978 14.375 17.7794 14.217 18.0607 13.9357C18.342 13.6544 18.5 13.2728 18.5 12.875C18.5 12.4772 18.342 12.0956 18.0607 11.8143C17.7794 11.533 17.3978 11.375 17 11.375C16.3091 11.4224 15.6267 11.5549 14.9683 11.7695C14.8561 11.8036 14.7376 11.811 14.6221 11.791C14.5067 11.771 14.3975 11.7242 14.3034 11.6545C14.2092 11.5847 14.1328 11.4938 14.0801 11.3892C14.0274 11.2845 14 11.1689 14 11.0518V10.25C14 9.65326 13.7629 9.08097 13.341 8.65901C12.919 8.23705 12.3467 8 11.75 8H10.5732C10.4561 8.00003 10.3405 7.97261 10.2358 7.91993C10.1312 7.86724 10.0403 7.79077 9.97053 7.69663C9.90075 7.6025 9.854 7.49332 9.83402 7.37786C9.81404 7.2624 9.8214 7.14386 9.8555 7.03175C10.0703 6.37335 10.2028 5.69092 10.25 5C10.25 4.60218 10.092 4.22064 9.81066 3.93934C9.52936 3.65804 9.14782 3.5 8.75 3.5C8.35218 3.5 7.97064 3.65804 7.68934 3.93934C7.40804 4.22064 7.25 4.60218 7.25 5C7.29724 5.69092 7.42975 6.37335 7.6445 7.03175C7.6786 7.14386 7.68596 7.2624 7.66598 7.37786C7.646 7.49332 7.59925 7.6025 7.52947 7.69663C7.45969 7.79077 7.36882 7.86724 7.26415 7.91993C7.15948 7.97261 7.04393 8.00003 6.92675 8H5.75C5.15326 8 4.58097 8.23705 4.15901 8.65901C3.73705 9.08097 3.5 9.65326 3.5 10.25V16.25C3.5 16.8467 3.73705 17.419 4.15901 17.841C4.58097 18.2629 5.15326 18.5 5.75 18.5H5.954C5.83522 18.0082 5.76687 17.5056 5.75 17C5.75 16.2044 6.06607 15.4413 6.62868 14.8787C7.19129 14.3161 7.95435 14 8.75 14C9.54565 14 10.3087 14.3161 10.8713 14.8787C11.4339 15.4413 11.75 16.2044 11.75 17C11.7331 17.5056 11.6648 18.0082 11.546 18.5Z" fill="#6078EC"/>
</svg>
