<svg width="58" height="58" viewBox="0 0 58 58" fill="none" xmlns="http://www.w3.org/2000/svg">
<path d="M43.5 25.9791C42.5092 25.9791 41.6875 25.1575 41.6875 24.1666V19.3333C41.6875 11.7208 39.5367 6.64581 29 6.64581C18.4633 6.64581 16.3125 11.7208 16.3125 19.3333V24.1666C16.3125 25.1575 15.4908 25.9791 14.5 25.9791C13.5092 25.9791 12.6875 25.1575 12.6875 24.1666V19.3333C12.6875 12.325 14.3792 3.02081 29 3.02081C43.6208 3.02081 45.3125 12.325 45.3125 19.3333V24.1666C45.3125 25.1575 44.4908 25.9791 43.5 25.9791Z" fill="#BDBDBD"/>
<path d="M41.0835 54.9792H16.9168C6.25933 54.9792 3.021 51.7409 3.021 41.0834V36.25C3.021 25.5925 6.25933 22.3542 16.9168 22.3542H41.0835C51.741 22.3542 54.9793 25.5925 54.9793 36.25V41.0834C54.9793 51.7409 51.741 54.9792 41.0835 54.9792ZM16.9168 25.9792C8.26516 25.9792 6.646 27.6225 6.646 36.25V41.0834C6.646 49.7109 8.26516 51.3542 16.9168 51.3542H41.0835C49.7352 51.3542 51.3543 49.7109 51.3543 41.0834V36.25C51.3543 27.6225 49.7352 25.9792 41.0835 25.9792H16.9168Z" fill="#BDBDBD"/>
<path d="M19.3332 41.0834C19.019 41.0834 18.7048 41.0109 18.4148 40.8901C18.1007 40.7692 17.859 40.6 17.6174 40.3825C17.1824 39.9233 16.9165 39.3192 16.9165 38.6667C16.9165 38.3525 16.989 38.0383 17.1098 37.7483C17.2306 37.4342 17.3999 37.1925 17.6174 36.9509C17.859 36.7334 18.1007 36.5642 18.4148 36.4433C19.2848 36.0567 20.3723 36.2742 21.049 36.9509C21.2665 37.1925 21.4357 37.4583 21.5565 37.7483C21.6774 38.0383 21.7498 38.3525 21.7498 38.6667C21.7498 39.295 21.484 39.9233 21.049 40.3825C20.5898 40.8175 19.9615 41.0834 19.3332 41.0834Z" fill="#BDBDBD"/>
<path d="M29.0002 41.0834C28.3718 41.0834 27.7435 40.8176 27.2843 40.3826C26.8493 39.9234 26.5835 39.3192 26.5835 38.6667C26.5835 38.3526 26.6318 38.0384 26.7768 37.7484C26.8976 37.4584 27.0668 37.1926 27.2843 36.9509C27.8402 36.3951 28.686 36.1292 29.4593 36.2984C29.6285 36.3225 29.7735 36.3709 29.9185 36.4434C30.0635 36.4917 30.2085 36.5643 30.3535 36.6609C30.4743 36.7334 30.5951 36.8543 30.716 36.9509C30.9335 37.1926 31.1027 37.4584 31.2235 37.7484C31.3444 38.0384 31.4168 38.3526 31.4168 38.6667C31.4168 39.3192 31.151 39.9234 30.716 40.3826C30.5951 40.4792 30.4743 40.5759 30.3535 40.6725C30.2085 40.7692 30.0635 40.8418 29.9185 40.8901C29.7735 40.9626 29.6285 41.0109 29.4593 41.0351C29.3143 41.0593 29.1452 41.0834 29.0002 41.0834Z" fill="#BDBDBD"/>
<path d="M38.6667 41.0834C38.0142 41.0834 37.41 40.8176 36.9509 40.3826C36.7334 40.1409 36.5641 39.8751 36.4433 39.5851C36.3225 39.2951 36.25 38.9809 36.25 38.6667C36.25 38.0384 36.5159 37.4101 36.9509 36.9509C37.0717 36.8543 37.1925 36.7576 37.3133 36.6609C37.4583 36.5643 37.6033 36.4917 37.7483 36.4434C37.8933 36.3709 38.0383 36.3225 38.1833 36.2984C38.9808 36.1292 39.8025 36.3951 40.3825 36.9509C40.8175 37.4101 41.0833 38.0142 41.0833 38.6667C41.0833 38.9809 41.0109 39.2951 40.89 39.5851C40.7692 39.8993 40.6 40.1409 40.3825 40.3826C39.9233 40.8176 39.295 41.0834 38.6667 41.0834Z" fill="#BDBDBD"/>
</svg>
