<svg width="16" height="17" viewBox="0 0 16 17" fill="none" xmlns="http://www.w3.org/2000/svg">
<path d="M7.99984 15.6667C7.21984 15.6667 6.49318 15.3667 5.94651 14.82L1.6865 10.56C1.13984 10.0134 0.839844 9.28001 0.839844 8.50667C0.839844 7.73334 1.13984 7 1.6865 6.45333L5.94651 2.19332C6.49318 1.64665 7.2265 1.34668 7.99984 1.34668C8.77317 1.34668 9.5065 1.64665 10.0532 2.19332L14.3132 6.45333C14.8598 7 15.1598 7.73334 15.1598 8.50667C15.1598 9.28001 14.8598 10.0134 14.3132 10.56L10.0532 14.82C9.5065 15.3667 8.77984 15.6667 7.99984 15.6667ZM7.99984 2.33333C7.4865 2.33333 7.00651 2.53334 6.65318 2.88668L2.39317 7.14665C2.03317 7.50665 1.83984 7.98666 1.83984 8.49333C1.83984 8.99999 2.03983 9.48667 2.39317 9.84001L6.65318 14.1C7.36651 14.8133 8.63316 14.8133 9.3465 14.1L13.6065 9.84001C13.9665 9.48001 14.1598 9.00666 14.1598 8.49333C14.1598 7.97999 13.9598 7.49998 13.6065 7.14665L9.3465 2.88668C8.99316 2.53334 8.51317 2.33333 7.99984 2.33333Z" fill="#424242"/>
<path d="M11.833 12.8335C11.7063 12.8335 11.5796 12.7868 11.4796 12.6868L3.81297 5.02016C3.61964 4.82683 3.61964 4.50679 3.81297 4.31346C4.0063 4.12012 4.3263 4.12012 4.51963 4.31346L12.1863 11.9801C12.3796 12.1735 12.3796 12.4935 12.1863 12.6868C12.0863 12.7868 11.9596 12.8335 11.833 12.8335Z" fill="#424242"/>
<path d="M4.1663 12.8335C4.03963 12.8335 3.91297 12.7868 3.81297 12.6868C3.61964 12.4935 3.61964 12.1735 3.81297 11.9801L11.4796 4.31346C11.673 4.12012 11.993 4.12012 12.1863 4.31346C12.3796 4.50679 12.3796 4.82683 12.1863 5.02016L4.51963 12.6868C4.41963 12.7868 4.29297 12.8335 4.1663 12.8335Z" fill="#424242"/>
</svg>
