<svg width="18" height="17" viewBox="0 0 18 17" fill="none" xmlns="http://www.w3.org/2000/svg">
<path d="M17.2508 10.2503H16.7505C16.563 10.2503 16.377 10.2645 16.1917 10.293L10.9073 6.33001L12.1733 5.11801C12.4725 4.83151 12.483 4.35601 12.1965 4.05751C11.9093 3.75826 11.4338 3.74851 11.136 4.03426L8.00625 7.03051C7.85025 7.18651 7.638 7.26676 7.41525 7.24801C7.19175 7.23001 6.99525 7.11676 6.861 6.92926C6.6555 6.64426 6.7185 6.19801 6.987 5.92876L10.5143 2.60701C11.1825 1.97926 12.2273 1.82551 13.0448 2.23576L14.7818 3.10426C15.2993 3.36301 15.8798 3.49951 16.458 3.49951H17.25C17.6648 3.49951 18 3.16426 18 2.74951C18 2.33476 17.6648 1.99951 17.25 1.99951H16.458C16.1108 1.99951 15.762 1.91776 15.4515 1.76251L13.716 0.894012C12.348 0.209262 10.6013 0.463512 9.48525 1.51501L9.02175 1.95151L8.49675 1.47301C7.8075 0.845262 6.915 0.499512 5.95425 0.499512C5.376 0.499512 4.79925 0.636012 4.284 0.893262L2.5485 1.76176C2.23725 1.91701 1.8885 1.99876 1.54125 1.99876H0.75075C0.336 1.99876 0.00075 2.33401 0.00075 2.74876C0.00075 3.16351 0.336 3.49876 0.75075 3.49876H1.54275C2.121 3.49876 2.7015 3.36151 3.21975 3.10351L4.95675 2.23501C5.72325 1.84951 6.80025 1.95376 7.48725 2.58151L7.9275 2.98276L5.943 4.85176C5.13825 5.65576 5.01 6.92701 5.6445 7.80526C6.0345 8.34751 6.80925 8.74951 7.4775 8.74951C8.07225 8.74951 8.643 8.51551 9.0555 8.10226L9.81 7.38001L14.5695 10.9493C14.5463 10.9658 9.921 14.4338 9.921 14.4338C9.37875 14.8553 8.622 14.8553 8.0685 14.4255L3.50025 10.9995C2.856 10.5158 2.0565 10.2495 1.25025 10.2495H0.75C0.33525 10.2495 0 10.5848 0 10.9995C0 11.4143 0.33525 11.7495 0.75 11.7495H1.25025C1.734 11.7495 2.21325 11.9093 2.60025 12.1995L7.158 15.618C7.70175 16.041 8.3535 16.2525 9.00375 16.2525C9.65025 16.2525 10.296 16.0433 10.8315 15.6263L15.4013 12.2003C15.7875 11.91 16.2668 11.7503 16.7505 11.7503H17.2508C17.6655 11.7503 18.0008 11.415 18.0008 11.0003C18.0008 10.5855 17.6655 10.2503 17.2508 10.2503Z" fill="#757575"/>
</svg>
