<svg width="20" height="21" viewBox="0 0 20 21" fill="none" xmlns="http://www.w3.org/2000/svg">
<path d="M6.24987 13.2085C6.09154 13.2085 5.9332 13.1502 5.8082 13.0252C5.56654 12.7835 5.56654 12.3835 5.8082 12.1419L8.47487 9.4752C8.6082 9.34186 8.7832 9.2752 8.97487 9.29186C9.1582 9.30853 9.32487 9.40853 9.4332 9.56686L10.3415 10.9335L13.2999 7.9752C13.5415 7.73353 13.9415 7.73353 14.1832 7.9752C14.4249 8.21686 14.4249 8.61686 14.1832 8.85853L10.6832 12.3585C10.5499 12.4919 10.3749 12.5585 10.1832 12.5419C9.99987 12.5252 9.8332 12.4252 9.72487 12.2669L8.81654 10.9002L6.69154 13.0252C6.56654 13.1502 6.4082 13.2085 6.24987 13.2085Z" fill="#FF3333"/>
<path d="M13.7507 10.7082C13.409 10.7082 13.1257 10.4248 13.1257 10.0832V9.0415H12.084C11.7423 9.0415 11.459 8.75817 11.459 8.4165C11.459 8.07484 11.7423 7.7915 12.084 7.7915H13.7507C14.0923 7.7915 14.3757 8.07484 14.3757 8.4165V10.0832C14.3757 10.4248 14.0923 10.7082 13.7507 10.7082Z" fill="#FF3333"/>
<path d="M12.4993 19.4582H7.49935C2.97435 19.4582 1.04102 17.5248 1.04102 12.9998V7.99984C1.04102 3.47484 2.97435 1.5415 7.49935 1.5415H12.4993C17.0243 1.5415 18.9577 3.47484 18.9577 7.99984V12.9998C18.9577 17.5248 17.0243 19.4582 12.4993 19.4582ZM7.49935 2.7915C3.65768 2.7915 2.29102 4.15817 2.29102 7.99984V12.9998C2.29102 16.8415 3.65768 18.2082 7.49935 18.2082H12.4993C16.341 18.2082 17.7077 16.8415 17.7077 12.9998V7.99984C17.7077 4.15817 16.341 2.7915 12.4993 2.7915H7.49935Z" fill="#FF3333"/>
</svg>
