<svg width="14" height="15" viewBox="0 0 14 15" fill="none" xmlns="http://www.w3.org/2000/svg">
<g id="vuesax/outline/mouse-circle">
<g id="mouse-circle">
<path id="Vector" d="M9.54579 13.7827C9.53996 13.7827 9.53996 13.7827 9.53412 13.7827C8.94496 13.7769 8.45496 13.4152 8.27996 12.8494L7.20079 9.37857C7.05496 8.90023 7.17746 8.3869 7.53329 8.04273C7.88329 7.69856 8.39079 7.57023 8.85746 7.71606L12.3341 8.79523C12.8941 8.97023 13.2616 9.46023 13.2675 10.0494C13.2733 10.6327 12.9175 11.1286 12.3575 11.3152L11.4066 11.6361C11.2725 11.6827 11.1675 11.7819 11.1266 11.9161L10.8 12.8727C10.6191 13.4269 10.1291 13.7827 9.54579 13.7827ZM8.46079 8.53273C8.30329 8.53273 8.19829 8.62023 8.15163 8.66106C8.02913 8.78356 7.98829 8.95273 8.04079 9.1219L9.11996 12.5927C9.21329 12.8902 9.46996 12.9019 9.55162 12.9077C9.63329 12.9077 9.88412 12.8844 9.97746 12.5986L10.3041 11.6419C10.4325 11.2511 10.7475 10.9419 11.1383 10.8077L12.0891 10.4869C12.3808 10.3936 12.3983 10.1369 12.3983 10.0611C12.3983 9.98524 12.375 9.72857 12.0833 9.63524L8.60663 8.55606C8.54829 8.53856 8.50163 8.53273 8.46079 8.53273Z" fill="#6078EC"/>
<path id="Vector_2" d="M6.9974 13.7707C3.53823 13.7707 0.726562 10.959 0.726562 7.49984C0.726562 4.04067 3.53823 1.229 6.9974 1.229C10.4566 1.229 13.2682 4.04067 13.2682 7.49984C13.2682 7.739 13.0699 7.93734 12.8307 7.93734C12.5916 7.93734 12.3932 7.739 12.3932 7.49984C12.3932 4.52484 9.9724 2.104 6.9974 2.104C4.0224 2.104 1.60156 4.52484 1.60156 7.49984C1.60156 10.4748 4.0224 12.8957 6.9974 12.8957C7.23656 12.8957 7.4349 13.094 7.4349 13.3332C7.4349 13.5723 7.23656 13.7707 6.9974 13.7707Z" fill="#6078EC"/>
</g>
</g>
</svg>
