<svg width="14" height="15" viewBox="0 0 14 15" fill="none" xmlns="http://www.w3.org/2000/svg">
<path d="M9.5497 13.7827C9.54386 13.7827 9.54386 13.7827 9.53803 13.7827C8.94886 13.7769 8.45886 13.4152 8.28386 12.8494L7.2047 9.37857C7.05886 8.90023 7.18136 8.3869 7.5372 8.04273C7.8872 7.69856 8.3947 7.57023 8.86136 7.71606L12.338 8.79523C12.898 8.97023 13.2655 9.46023 13.2714 10.0494C13.2772 10.6327 12.9214 11.1286 12.3614 11.3152L11.4105 11.6361C11.2764 11.6827 11.1714 11.7819 11.1305 11.9161L10.8039 12.8727C10.623 13.4269 10.133 13.7827 9.5497 13.7827ZM8.4647 8.53273C8.3072 8.53273 8.2022 8.62023 8.15553 8.66106C8.03303 8.78356 7.9922 8.95273 8.0447 9.1219L9.12386 12.5927C9.2172 12.8902 9.47386 12.9019 9.55553 12.9077C9.6372 12.9077 9.88803 12.8844 9.98136 12.5986L10.308 11.6419C10.4364 11.2511 10.7514 10.9419 11.1422 10.8077L12.093 10.4869C12.3847 10.3936 12.4022 10.1369 12.4022 10.0611C12.4022 9.98524 12.3789 9.72857 12.0872 9.63524L8.61053 8.55606C8.5522 8.53856 8.50553 8.53273 8.4647 8.53273Z" fill="#424242"/>
<path d="M7.0013 13.7707C3.54214 13.7707 0.730469 10.959 0.730469 7.49984C0.730469 4.04067 3.54214 1.229 7.0013 1.229C10.4605 1.229 13.2721 4.04067 13.2721 7.49984C13.2721 7.739 13.0738 7.93734 12.8346 7.93734C12.5955 7.93734 12.3971 7.739 12.3971 7.49984C12.3971 4.52484 9.9763 2.104 7.0013 2.104C4.0263 2.104 1.60547 4.52484 1.60547 7.49984C1.60547 10.4748 4.0263 12.8957 7.0013 12.8957C7.24047 12.8957 7.4388 13.094 7.4388 13.3332C7.4388 13.5723 7.24047 13.7707 7.0013 13.7707Z" fill="#424242"/>
</svg>
