<svg width="40" height="40" viewBox="0 0 40 40" fill="none" xmlns="http://www.w3.org/2000/svg">
<g id="fi_4654143" clip-path="url(#clip0_20500_54377)">
<g id="_x30_4_Job_Offer">
<g id="Group">
<path id="Vector" d="M38.758 17.1543L35.4291 19.6864L20.754 30.8532L6.07886 19.6864L2.75 17.1543L6.07878 14.009L14.8264 5.7454L19.0448 1.76157C20.0042 0.855519 21.5039 0.855519 22.4633 1.76157L26.6817 5.7454L35.4291 14.009L38.758 17.1543Z" fill="#6078EC" fill-opacity="0.6"/>
<path id="Vector_2" d="M34.9669 20.0412V9.06944C34.9669 7.69461 33.8523 6.58008 32.4775 6.58008H9.04016C7.66532 6.58008 6.55078 7.69461 6.55078 9.06944V20.0412L20.7589 30.8533L34.9669 20.0412Z" fill="#EEEEEE"/>
<path id="Vector_3" opacity="0.1" d="M34.9643 9.06856V20.0412L33.497 21.1587V10.5379C33.497 9.16323 32.3816 8.04786 31.0069 8.04786H7.56949C7.2649 8.04786 6.97273 8.10344 6.70312 8.20424C7.05293 7.25556 7.96663 6.58057 9.03884 6.58057H32.4742C33.851 6.58057 34.9643 7.69389 34.9643 9.06856Z" fill="#212121"/>
<path id="Vector_4" d="M32.5516 9.96563V14.2373C32.5516 14.6894 32.185 15.056 31.7329 15.056H9.78741C9.33529 15.056 8.96875 14.6894 8.96875 14.2373V9.96563C8.96875 9.51351 9.33529 9.14697 9.78741 9.14697H31.7329C32.185 9.14697 32.5516 9.51351 32.5516 9.96563Z" fill="#5DB887"/>
<path id="Vector_5" d="M38.7581 17.1558V36.8683C38.7581 37.5786 38.4601 38.2198 37.9807 38.6736C37.5348 39.0978 36.933 39.3582 36.2681 39.3582H5.23998C4.57506 39.3582 3.97322 39.0977 3.52739 38.6736C3.04793 38.2198 2.75 37.5786 2.75 36.8683V17.1558L6.07856 19.6832L18.0253 28.775L20.0872 27.3702C20.4897 27.0959 21.0184 27.0959 21.421 27.3702L23.4808 28.775H23.4828L35.4275 19.6832L38.7581 17.1558Z" fill="#6078EC" fill-opacity="0.6"/>
<g id="Group_2">
<path id="Vector_6" d="M1.18806 26.4116C1.05182 26.4116 0.941406 26.522 0.941406 26.6583V27.33C0.941406 27.4663 1.05182 27.5767 1.18806 27.5767C1.32431 27.5767 1.43472 27.4663 1.43472 27.33V26.6583C1.43472 26.522 1.32431 26.4116 1.18806 26.4116Z" fill="#212121"/>
<path id="Vector_7" d="M1.18806 28.3647C1.05182 28.3647 0.941406 28.4752 0.941406 28.6114V32.2887C0.941406 32.4249 1.05182 32.5353 1.18806 32.5353C1.32431 32.5353 1.43472 32.4249 1.43472 32.2887V28.6114C1.43472 28.4752 1.32431 28.3647 1.18806 28.3647Z" fill="#212121"/>
<path id="Vector_8" d="M38.9242 16.9741L35.2053 13.4602V9.06796C35.2053 7.55902 33.9778 6.33134 32.4687 6.33134H27.658L22.6289 1.5805C21.5763 0.586449 19.9258 0.586449 18.8708 1.5805L13.8418 6.33126H9.03087C7.52313 6.33126 6.29635 7.55894 6.29635 9.06789V13.4601L2.57747 16.9741C2.52734 17.0216 2.5 17.0965 2.5 17.155V36.8685C2.5 38.3817 3.74041 39.6044 5.23588 39.6044H36.2647C37.7569 39.6044 39.0005 38.384 39.0005 36.8685V17.1701C38.9903 17.0745 38.9657 17.0134 38.9242 16.9741ZM38.3741 17.1331C38.3543 17.1482 34.9916 19.7033 35.2052 19.541V14.1387L38.3741 17.1331ZM19.2094 1.93931C20.0739 1.12437 21.4271 1.12437 22.2901 1.93908L26.9394 6.33126H14.5603L19.2094 1.93931ZM9.03087 6.82458H32.4686C33.7056 6.82458 34.712 7.83097 34.712 9.06796V19.9164L23.4706 28.4724L21.5562 27.1657C21.0668 26.8316 20.4336 26.8318 19.9443 27.1657L18.0312 28.4716C17.6407 28.1744 20.257 30.1653 6.78959 19.9172V9.06796C6.78967 7.83089 7.79501 6.82458 9.03087 6.82458ZM6.29635 14.1387V19.5418C5.45194 18.9004 3.89089 17.715 3.12751 17.1331L6.29635 14.1387ZM2.99324 17.652C3.81856 18.2779 16.4883 27.919 17.6007 28.7654L3.55752 38.3509C3.20764 37.9552 2.99324 37.437 2.99324 36.8686V17.652ZM5.23588 39.1113C4.75029 39.1113 4.30158 38.9545 3.93405 38.6912L20.2221 27.5733C20.5431 27.3544 20.9574 27.3544 21.2784 27.5733L37.5666 38.6911C37.199 38.9544 36.7503 39.1113 36.2647 39.1113H5.23588ZM38.5072 36.8686C38.5072 37.437 38.2929 37.9552 37.943 38.3509L23.9006 28.7659C23.9204 28.7509 39.4951 16.9001 38.5072 17.652V36.8686Z" fill="#212121"/>
<path id="Vector_9" d="M32.6914 5.26971C33.9498 5.33734 35.0914 6.02581 35.745 7.11142C35.816 7.22903 35.9683 7.26508 36.0835 7.19541C36.2003 7.1252 36.2379 6.97366 36.1677 6.85689C35.4294 5.6311 34.1398 4.85357 32.7028 4.77686C32.569 4.77686 32.4608 4.88333 32.4571 5.01685C32.4536 5.15044 32.5581 5.26259 32.6914 5.26971Z" fill="#212121"/>
<path id="Vector_10" d="M36.2753 9.14799C36.2753 9.28423 36.3858 9.39465 36.522 9.39465C36.6582 9.39465 36.7687 9.28423 36.7687 9.14799C36.7659 9.08264 36.7885 8.74056 36.6877 8.23664C36.6611 8.10305 36.5315 8.01581 36.3975 8.04308C36.264 8.06966 36.1773 8.19961 36.2041 8.33313C36.2872 8.75071 36.2739 9.11384 36.2753 9.14799Z" fill="#212121"/>
<path id="Vector_11" d="M9.79188 15.3012H31.7373C32.3248 15.3012 32.8026 14.8233 32.8026 14.2359V9.96424C32.8026 9.37687 32.3248 8.89893 31.7373 8.89893H9.79188C9.20443 8.89893 8.72656 9.37687 8.72656 9.96424V14.2359C8.72656 14.8233 9.20443 15.3012 9.79188 15.3012ZM9.2198 9.96424C9.2198 9.64882 9.47646 9.39216 9.79188 9.39216H31.7373C32.0527 9.39216 32.3094 9.64882 32.3094 9.96424V14.2359C32.3094 14.5513 32.0527 14.8079 31.7373 14.8079H9.79188C9.47646 14.8079 9.2198 14.5513 9.2198 14.2359V9.96424Z" fill="#212121"/>
<path id="Vector_12" d="M25.1803 13.5125C25.3165 13.5125 25.4269 13.4021 25.4269 13.2659V12.2915H26.5277C26.6639 12.2915 26.7743 12.1811 26.7743 12.0449C26.7743 11.9086 26.6639 11.7982 26.5277 11.7982H25.4269V11.213H26.5277C26.6639 11.213 26.7743 11.1026 26.7743 10.9664C26.7743 10.8301 26.6639 10.7197 26.5277 10.7197H25.1803C25.044 10.7197 24.9336 10.8301 24.9336 10.9664V12.0448V13.2658C24.9336 13.4021 25.044 13.5125 25.1803 13.5125Z" fill="#212121"/>
<path id="Vector_13" d="M22.813 13.5125C22.9492 13.5125 23.0596 13.4021 23.0596 13.2659V12.2915H24.1606C24.2969 12.2915 24.4073 12.1811 24.4073 12.0449C24.4073 11.9086 24.2969 11.7982 24.1606 11.7982H23.0596V11.213H24.1606C24.2969 11.213 24.4073 11.1026 24.4073 10.9664C24.4073 10.8301 24.2969 10.7197 24.1606 10.7197H22.8131C22.6768 10.7197 22.5664 10.8301 22.5664 10.9664V13.2658C22.5663 13.4021 22.6767 13.5125 22.813 13.5125Z" fill="#212121"/>
<path id="Vector_14" d="M20.662 13.5129C21.4319 13.5129 22.0583 12.8865 22.0583 12.1165C22.0583 11.3466 21.4319 10.7202 20.662 10.7202C19.892 10.7202 19.2656 11.3466 19.2656 12.1165C19.2656 12.8865 19.892 13.5129 20.662 13.5129ZM20.662 11.2135C21.1598 11.2135 21.5651 11.6185 21.5651 12.1165C21.5651 12.6146 21.1598 13.0196 20.662 13.0196C20.1641 13.0196 19.7589 12.6146 19.7589 12.1165C19.7589 11.6185 20.1641 11.2135 20.662 11.2135Z" fill="#212121"/>
<path id="Vector_15" d="M15.8952 13.4807H16.8311C17.3017 13.4807 17.7046 13.0906 17.6815 12.5882C17.6712 12.3661 17.5666 12.1647 17.4062 12.0184C17.4307 11.9919 17.454 11.964 17.4749 11.9338C17.8354 11.4155 17.484 10.688 16.7924 10.688H15.8951C15.7589 10.688 15.6484 10.7984 15.6484 10.9346V13.2341C15.6486 13.3702 15.759 13.4807 15.8952 13.4807ZM16.8311 12.9874H16.1418V12.2734H16.7918C17.002 12.2734 17.1802 12.4249 17.1887 12.6111C17.1986 12.825 17.0279 12.9874 16.8311 12.9874ZM16.1418 11.1812H16.7925C17.0764 11.1812 17.2084 11.4534 17.07 11.6522C16.9687 11.7981 16.8126 11.7758 16.7918 11.7801H16.1418V11.1812Z" fill="#212121"/>
<path id="Vector_16" d="M11.0061 13.4811C11.478 13.4811 11.8621 13.0971 11.8621 12.6251V10.9351C11.8621 10.7989 11.7516 10.6885 11.6154 10.6885C11.4792 10.6885 11.3687 10.7989 11.3687 10.9351V12.6252C11.3687 12.8252 11.2061 12.988 11.0061 12.988C10.8073 12.988 10.6457 12.8252 10.6457 12.6252C10.6457 12.489 10.5352 12.3786 10.399 12.3786C10.2628 12.3786 10.1523 12.489 10.1523 12.6252C10.1524 13.0972 10.5355 13.4811 11.0061 13.4811Z" fill="#212121"/>
<path id="Vector_17" d="M13.7401 13.4807C14.5101 13.4807 15.1364 12.8543 15.1364 12.0843C15.1364 11.3144 14.5101 10.688 13.7401 10.688C12.9701 10.688 12.3438 11.3144 12.3438 12.0843C12.3438 12.8543 12.9702 13.4807 13.7401 13.4807ZM13.7401 11.1812C14.238 11.1812 14.6432 11.5863 14.6432 12.0843C14.6432 12.5823 14.238 12.9874 13.7401 12.9874C13.2422 12.9874 12.837 12.5823 12.837 12.0843C12.8371 11.5864 13.2422 11.1812 13.7401 11.1812Z" fill="#212121"/>
<path id="Vector_18" d="M29.9028 13.5129C30.0391 13.5129 30.1495 13.4025 30.1495 13.2662V12.3631H30.3811C30.6483 12.3631 30.8657 12.5815 30.8657 12.85V13.2662C30.8657 13.4025 30.9761 13.5129 31.1123 13.5129C31.2486 13.5129 31.359 13.4025 31.359 13.2662V12.85C31.359 12.5802 31.2496 12.3357 31.0731 12.1583C31.0965 12.1381 31.1215 12.1199 31.1426 12.0969C31.2983 11.9268 31.3762 11.6965 31.3557 11.4649C31.3557 11.4646 31.3557 11.4643 31.3557 11.464C31.3176 11.0469 30.94 10.7202 30.4962 10.7202H29.9029C29.7667 10.7202 29.6563 10.8306 29.6563 10.9669V13.2663C29.6562 13.4025 29.7666 13.5129 29.9028 13.5129ZM30.1495 11.2135H30.4961C30.6842 11.2135 30.8493 11.3458 30.8643 11.5085C30.8817 11.709 30.7263 11.8699 30.5375 11.8699H30.3811H30.1495V11.2135Z" fill="#212121"/>
<path id="Vector_19" d="M27.524 13.5125H28.9038C29.04 13.5125 29.1504 13.4021 29.1504 13.2659C29.1504 13.1296 29.04 13.0192 28.9038 13.0192H27.7706V12.3628H28.9038C29.04 12.3628 29.1504 12.2524 29.1504 12.1161C29.1504 11.9799 29.04 11.8695 28.9038 11.8695H27.7706V11.213H28.9038C29.04 11.213 29.1504 11.1026 29.1504 10.9664C29.1504 10.8301 29.04 10.7197 28.9038 10.7197H27.524C27.3878 10.7197 27.2773 10.8301 27.2773 10.9664V13.2658C27.2774 13.4021 27.3878 13.5125 27.524 13.5125Z" fill="#212121"/>
<path id="Vector_20" d="M31.1059 17.3022H10.399C10.2628 17.3022 10.1523 17.4127 10.1523 17.5489C10.1523 17.6851 10.2628 17.7956 10.399 17.7956H31.1059C31.2422 17.7956 31.3526 17.6851 31.3526 17.5489C31.3526 17.4127 31.2422 17.3022 31.1059 17.3022Z" fill="#212121"/>
<path id="Vector_21" d="M31.1059 19.7935H10.399C10.2628 19.7935 10.1523 19.9039 10.1523 20.0401C10.1523 20.1764 10.2628 20.2868 10.399 20.2868H31.1059C31.2422 20.2868 31.3526 20.1764 31.3526 20.0401C31.3526 19.9039 31.2422 19.7935 31.1059 19.7935Z" fill="#212121"/>
</g>
<g id="Group_3">
<path id="Vector_22" d="M37.1178 28.563C36.9815 28.563 36.8711 28.6734 36.8711 28.8096V29.4815C36.8711 29.6177 36.9815 29.7281 37.1178 29.7281C37.254 29.7281 37.3644 29.6177 37.3644 29.4815V28.8096C37.3643 28.6734 37.2539 28.563 37.1178 28.563Z" fill="white"/>
<path id="Vector_23" d="M37.1178 30.5156C36.9815 30.5156 36.8711 30.626 36.8711 30.7623V32.3246C36.8711 32.4609 36.9815 32.5713 37.1178 32.5713C37.254 32.5713 37.3644 32.4609 37.3644 32.3246V30.7623C37.3643 30.626 37.2539 30.5156 37.1178 30.5156Z" fill="white"/>
</g>
</g>
</g>
</g>
<defs>
<clipPath id="clip0_20500_54377">
<rect width="38.7746" height="38.7744" fill="white" transform="translate(0.589844 0.837891)"/>
</clipPath>
</defs>
</svg>
