<svg width="19" height="19" viewBox="0 0 19 19" fill="none" xmlns="http://www.w3.org/2000/svg">
<path d="M15.2741 7.63249H13.2891C12.7327 7.63246 12.1992 7.41144 11.8058 7.01804C11.4124 6.62463 11.1914 6.09108 11.1914 5.53474V3.56488C11.1914 3.41571 11.2507 3.27265 11.3561 3.16718C11.4616 3.0617 11.6047 3.00244 11.7538 3.00244C11.903 3.00244 12.0461 3.0617 12.1515 3.16718C12.257 3.27265 12.3163 3.41571 12.3163 3.56488V5.53474C12.3165 5.7927 12.419 6.04003 12.6015 6.22244C12.7839 6.40485 13.0312 6.50741 13.2892 6.50761H15.2742C15.4234 6.50761 15.5665 6.56687 15.6719 6.67234C15.7774 6.77782 15.8367 6.92088 15.8367 7.07005C15.8367 7.21922 15.7774 7.36227 15.6719 7.46775C15.5665 7.57323 15.4234 7.63249 15.2742 7.63249H15.2741Z" fill="#212121"/>
<path d="M13.7401 16.5049H5.64853C5.09217 16.5049 4.5586 16.2839 4.1652 15.8905C3.77179 15.4971 3.55078 14.9635 3.55078 14.4071V11.9926C3.55078 11.8434 3.61004 11.7004 3.71552 11.5949C3.82099 11.4894 3.96405 11.4302 4.11322 11.4302C4.26239 11.4302 4.40544 11.4894 4.51092 11.5949C4.6164 11.7004 4.67566 11.8434 4.67566 11.9926V14.4071C4.67586 14.6651 4.77842 14.9124 4.96083 15.0948C5.14323 15.2772 5.39057 15.3798 5.64853 15.38H13.7401C13.998 15.3798 14.2454 15.2772 14.4278 15.0948C14.6102 14.9124 14.7128 14.6651 14.713 14.4071V12.1331C14.713 11.9839 14.7722 11.8409 14.8777 11.7354C14.9832 11.6299 15.1262 11.5706 15.2754 11.5706C15.4246 11.5706 15.5676 11.6299 15.6731 11.7354C15.7786 11.8409 15.8378 11.9839 15.8378 12.1331V14.4071C15.8378 14.6826 15.7836 14.9554 15.6782 15.2099C15.5728 15.4644 15.4182 15.6957 15.2234 15.8905C15.0286 16.0853 14.7974 16.2398 14.5429 16.3452C14.2883 16.4506 14.0156 16.5049 13.7401 16.5049Z" fill="#212121"/>
<path d="M15.2752 8.8343C15.2013 8.83431 15.1282 8.81977 15.0599 8.79151C14.9917 8.76325 14.9297 8.72182 14.8775 8.66959C14.8252 8.61736 14.7838 8.55535 14.7556 8.48711C14.7273 8.41887 14.7128 8.34572 14.7128 8.27186V7.25257C14.7128 7.23835 14.7076 7.22463 14.6981 7.214L11.5194 3.63907C11.514 3.63294 11.5073 3.62804 11.4998 3.62468C11.4923 3.62133 11.4842 3.6196 11.476 3.6196H5.64853C5.39059 3.6198 5.14326 3.72235 4.96086 3.90474C4.77846 4.08712 4.67588 4.33444 4.67566 4.59238V8.23679C4.67566 8.38596 4.6164 8.52902 4.51092 8.63449C4.40545 8.73997 4.26239 8.79923 4.11322 8.79923C3.96405 8.79923 3.82099 8.73997 3.71552 8.63449C3.61004 8.52902 3.55078 8.38596 3.55078 8.23679V4.59238C3.55078 4.03602 3.77179 3.50245 4.1652 3.10905C4.5586 2.71564 5.09217 2.49463 5.64853 2.49463H11.4761C11.6431 2.49471 11.8082 2.53013 11.9606 2.59855C12.113 2.66698 12.2491 2.76686 12.3602 2.89164L15.5388 6.46657C15.7315 6.68308 15.8379 6.96285 15.8377 7.25267V8.27186C15.8377 8.34573 15.8232 8.41888 15.7949 8.48713C15.7667 8.55538 15.7252 8.61739 15.673 8.66962C15.6208 8.72185 15.5587 8.76328 15.4905 8.79154C15.4222 8.81979 15.3491 8.83432 15.2752 8.8343Z" fill="#212121"/>
<path d="M3.59756 10.7806H2.65228C2.50311 10.7806 2.36006 10.7214 2.25458 10.6159C2.1491 10.5104 2.08984 10.3674 2.08984 10.2182C2.08984 10.069 2.1491 9.92597 2.25458 9.8205C2.36006 9.71502 2.50311 9.65576 2.65228 9.65576H3.59756C3.74672 9.65576 3.88978 9.71502 3.99526 9.8205C4.10074 9.92597 4.15999 10.069 4.15999 10.2182C4.15999 10.3674 4.10074 10.5104 3.99526 10.6159C3.88978 10.7214 3.74672 10.7806 3.59756 10.7806Z" fill="#212121"/>
<path d="M13.7169 10.7806H12.0308C11.8816 10.7806 11.7385 10.7214 11.6331 10.6159C11.5276 10.5104 11.4683 10.3674 11.4683 10.2182C11.4683 10.069 11.5276 9.92597 11.6331 9.8205C11.7385 9.71502 11.8816 9.65576 12.0308 9.65576H13.7169C13.8661 9.65576 14.0092 9.71502 14.1146 9.8205C14.2201 9.92597 14.2794 10.069 14.2794 10.2182C14.2794 10.3674 14.2201 10.5104 14.1146 10.6159C14.0092 10.7214 13.8661 10.7806 13.7169 10.7806ZM10.3439 10.7806H8.65774C8.50857 10.7806 8.36551 10.7214 8.26003 10.6159C8.15456 10.5104 8.0953 10.3674 8.0953 10.2182C8.0953 10.069 8.15456 9.92597 8.26003 9.8205C8.36551 9.71502 8.50857 9.65576 8.65774 9.65576H10.3443C10.4935 9.65576 10.6365 9.71502 10.742 9.8205C10.8475 9.92597 10.9067 10.069 10.9067 10.2182C10.9067 10.3674 10.8475 10.5104 10.742 10.6159C10.6365 10.7214 10.4935 10.7806 10.3443 10.7806H10.3439ZM6.9709 10.7806H5.28509C5.13593 10.7806 4.99287 10.7214 4.88739 10.6159C4.78191 10.5104 4.72266 10.3674 4.72266 10.2182C4.72266 10.069 4.78191 9.92597 4.88739 9.8205C4.99287 9.71502 5.13593 9.65576 5.28509 9.65576H6.97127C7.12044 9.65576 7.2635 9.71502 7.36898 9.8205C7.47445 9.92597 7.53371 10.069 7.53371 10.2182C7.53371 10.3674 7.47445 10.5104 7.36898 10.6159C7.2635 10.7214 7.12044 10.7806 6.97127 10.7806H6.9709Z" fill="#212121"/>
<path d="M16.3476 10.7806H15.4023C15.2531 10.7806 15.1101 10.7214 15.0046 10.6159C14.8991 10.5104 14.8398 10.3674 14.8398 10.2182C14.8398 10.069 14.8991 9.92597 15.0046 9.8205C15.1101 9.71502 15.2531 9.65576 15.4023 9.65576H16.3476C16.4967 9.65576 16.6398 9.71502 16.7453 9.8205C16.8507 9.92597 16.91 10.069 16.91 10.2182C16.91 10.3674 16.8507 10.5104 16.7453 10.6159C16.6398 10.7214 16.4967 10.7806 16.3476 10.7806Z" fill="#212121"/>
</svg>
