<svg width="21" height="20" viewBox="0 0 21 20" fill="none" xmlns="http://www.w3.org/2000/svg">
<path d="M10.4889 12.5924C8.95694 12.5924 7.71111 11.4297 7.71111 9.99984C7.71111 8.57002 8.95694 7.40724 10.4889 7.40724C12.0208 7.40724 13.2667 8.57002 13.2667 9.99984C13.2667 11.4297 12.0208 12.5924 10.4889 12.5924ZM10.4889 8.70354C9.72292 8.70354 9.1 9.28493 9.1 9.99984C9.1 10.7147 9.72292 11.2961 10.4889 11.2961C11.2549 11.2961 11.8778 10.7147 11.8778 9.99984C11.8778 9.28493 11.2549 8.70354 10.4889 8.70354ZM13.9604 15.8332C12.8257 15.8332 11.809 15.5746 10.8264 15.3244C9.89028 15.0859 9.00694 14.8609 8.05833 14.8609C6.96736 14.8609 6.27917 14.9264 5.68403 15.0872C4.84653 15.3121 3.96597 15.1604 3.26736 14.6697C2.56111 14.1739 2.15625 13.4169 2.15625 12.5924V7.70021C2.15625 6.36308 3.05833 5.14391 4.40139 4.66623C5.33264 4.33437 6.21319 4.1665 7.01806 4.1665C8.15278 4.1665 9.16875 4.42512 10.1521 4.6753C11.0882 4.91382 11.9715 5.13873 12.9201 5.13873C14.0104 5.13873 14.6993 5.07326 15.2944 4.91252C16.1333 4.68762 17.0139 4.83928 17.7118 5.32993C18.4181 5.82576 18.8229 6.5828 18.8229 7.40724V12.2995C18.8229 13.6366 17.9201 14.8558 16.5771 15.3334C15.6458 15.6653 14.766 15.8332 13.9604 15.8332ZM8.05833 13.5647C9.19306 13.5647 10.209 13.8233 11.1924 14.0734C12.1285 14.312 13.0118 14.5369 13.9604 14.5369C14.5951 14.5369 15.309 14.3975 16.0826 14.1221C16.9042 13.8304 17.434 13.1148 17.434 12.2995V7.40724C17.434 6.99437 17.2306 6.61456 16.8764 6.36632C16.5299 6.12326 16.0944 6.04678 15.6785 6.15826C14.9486 6.35465 14.1493 6.43502 12.9187 6.43502C11.784 6.43502 10.7681 6.17641 9.78472 5.92623C8.84861 5.68771 7.96528 5.4628 7.01667 5.4628C6.38125 5.4628 5.66806 5.60215 4.89444 5.87761C4.07292 6.16928 3.54306 6.88484 3.54306 7.70021V12.5924C3.54306 13.0053 3.74653 13.3851 4.10069 13.6334C4.44722 13.8764 4.88264 13.9529 5.29792 13.8408C6.02778 13.6444 6.82778 13.564 8.05764 13.564L8.05833 13.5647Z" fill="#6078EC"/>
</svg>
