<svg width="14" height="15" viewBox="0 0 14 15" fill="none" xmlns="http://www.w3.org/2000/svg">
<g clip-path="url(#clip0_22047_52662)">
<path d="M13.071 7.68138C13.0147 7.56613 13.0147 7.43395 13.071 7.31872L13.5931 6.25054C13.8839 5.65579 13.6535 4.94691 13.0687 4.63664L12.0185 4.07938C11.9052 4.01928 11.8275 3.91231 11.8053 3.78601L11.5999 2.61491C11.4855 1.96288 10.8824 1.52473 10.227 1.61745L9.04982 1.78397C8.92275 1.80191 8.79711 1.76106 8.70493 1.67189L7.85042 0.845237C7.37461 0.384935 6.62922 0.384907 6.15345 0.845237L5.2989 1.67197C5.2067 1.76117 5.08106 1.80193 4.95402 1.78405L3.7768 1.61753C3.12123 1.52475 2.51831 1.96296 2.40393 2.615L2.19852 3.78604C2.17635 3.91237 2.09867 4.01931 1.98538 4.07944L0.935114 4.6367C0.350344 4.94694 0.120001 5.65588 0.410718 6.25063L0.932844 7.31878C0.989172 7.43403 0.989172 7.56621 0.932844 7.68144L0.410691 8.74959C0.119974 9.34434 0.350316 10.0532 0.935086 10.3635L1.98535 10.9207C2.09867 10.9808 2.17635 11.0878 2.19852 11.2141L2.40393 12.3852C2.50805 12.9788 3.01703 13.3951 3.60199 13.395C3.6596 13.395 3.71806 13.391 3.77682 13.3827L4.95405 13.2161C5.081 13.1981 5.20673 13.239 5.29893 13.3282L6.15345 14.1549C6.39139 14.385 6.6966 14.5001 7.00192 14.5001C7.30715 14.5001 7.61256 14.385 7.85039 14.1549L8.70493 13.3282C8.79713 13.239 8.9228 13.1983 9.04982 13.2161L10.227 13.3827C10.8827 13.4754 11.4855 13.0372 11.5999 12.3852L11.8053 11.2141C11.8275 11.0878 11.9052 10.9809 12.0185 10.9207L13.0687 10.3635C13.6535 10.0532 13.8839 9.34431 13.5931 8.74956L13.071 7.68138ZM5.38698 3.86648C6.20324 3.86648 6.86733 4.53058 6.86733 5.34684C6.86733 6.1631 6.20324 6.82719 5.38698 6.82719C4.57072 6.82719 3.90662 6.1631 3.90662 5.34684C3.90662 4.53058 4.57072 3.86648 5.38698 3.86648ZM4.62289 10.45C4.54406 10.5288 4.44073 10.5683 4.33742 10.5683C4.23412 10.5683 4.13076 10.5289 4.05195 10.45C3.89429 10.2923 3.89429 10.0367 4.05195 9.87904L9.38092 4.55007C9.53856 4.39241 9.79422 4.39241 9.95188 4.55007C10.1095 4.70774 10.1095 4.96337 9.95188 5.12104L4.62289 10.45ZM8.6168 11.1336C7.80054 11.1336 7.13645 10.4696 7.13645 9.65329C7.13645 8.83703 7.80054 8.17294 8.6168 8.17294C9.43306 8.17294 10.0972 8.83703 10.0972 9.65329C10.0972 10.4696 9.43306 11.1336 8.6168 11.1336Z" fill="#5DB887"/>
<path d="M8.6143 8.98047C8.24328 8.98047 7.94141 9.28231 7.94141 9.65334C7.94141 10.0244 8.24325 10.3262 8.6143 10.3262C8.98533 10.3262 9.28718 10.0244 9.28718 9.65334C9.28718 9.28231 8.98533 8.98047 8.6143 8.98047Z" fill="#5DB887"/>
<path d="M5.38381 4.67383C5.01278 4.67383 4.71094 4.97567 4.71094 5.3467C4.71094 5.71772 5.01278 6.0196 5.38381 6.0196C5.75483 6.0196 6.05671 5.71775 6.05671 5.3467C6.05668 4.9757 5.75483 4.67383 5.38381 4.67383Z" fill="#5DB887"/>
</g>
<defs>
<clipPath id="clip0_22047_52662">
<rect width="14" height="14" fill="white" transform="translate(0 0.5)"/>
</clipPath>
</defs>
</svg>
