<svg width="14" height="20" viewBox="0 0 14 20" fill="none" xmlns="http://www.w3.org/2000/svg">
<path d="M11.8125 7.25H3.5625V4.98812C3.5625 4.12932 3.90366 3.30569 4.51092 2.69842C5.11819 2.09116 5.94182 1.75 6.80062 1.75H7.19938C8.05818 1.75 8.88181 2.09116 9.48908 2.69842C10.0963 3.30569 10.4375 4.12932 10.4375 4.98812C10.4375 5.17046 10.5099 5.34533 10.6389 5.47426C10.7678 5.60319 10.9427 5.67562 11.125 5.67562C11.3073 5.67562 11.4822 5.60319 11.6111 5.47426C11.7401 5.34533 11.8125 5.17046 11.8125 4.98812C11.8107 3.76521 11.3241 2.5929 10.4593 1.72816C9.5946 0.863427 8.42229 0.376818 7.19938 0.375H6.80062C5.57771 0.376818 4.4054 0.863427 3.54066 1.72816C2.67593 2.5929 2.18932 3.76521 2.1875 4.98812V7.25C1.64049 7.25 1.11589 7.4673 0.729092 7.85409C0.342299 8.24089 0.125 8.76549 0.125 9.3125V15.7062C0.126818 16.745 0.540268 17.7407 1.27478 18.4752C2.0093 19.2097 3.00499 19.6232 4.04375 19.625H9.95625C10.995 19.6232 11.9907 19.2097 12.7252 18.4752C13.4597 17.7407 13.8732 16.745 13.875 15.7062V9.3125C13.875 8.76549 13.6577 8.24089 13.2709 7.85409C12.8841 7.4673 12.3595 7.25 11.8125 7.25ZM12.5 15.7062C12.5 16.3809 12.232 17.0279 11.755 17.505C11.2779 17.982 10.6309 18.25 9.95625 18.25H4.04375C3.36911 18.25 2.72209 17.982 2.24505 17.505C1.768 17.0279 1.5 16.3809 1.5 15.7062V9.3125C1.5 9.13016 1.57243 8.9553 1.70136 8.82636C1.8303 8.69743 2.00516 8.625 2.1875 8.625H11.8125C11.9948 8.625 12.1697 8.69743 12.2986 8.82636C12.4276 8.9553 12.5 9.13016 12.5 9.3125V15.7062ZM7.6875 13.245V15.5C7.6875 15.6823 7.61507 15.8572 7.48614 15.9861C7.35721 16.1151 7.18234 16.1875 7 16.1875C6.81766 16.1875 6.6428 16.1151 6.51386 15.9861C6.38493 15.8572 6.3125 15.6823 6.3125 15.5V13.245C6.05037 13.0937 5.8455 12.86 5.72967 12.5804C5.61383 12.3008 5.59351 11.9907 5.67185 11.6983C5.75019 11.406 5.92282 11.1476 6.16295 10.9634C6.40309 10.7791 6.69732 10.6792 7 10.6792C7.30268 10.6792 7.59691 10.7791 7.83705 10.9634C8.07718 11.1476 8.24981 11.406 8.32815 11.6983C8.40649 11.9907 8.38617 12.3008 8.27033 12.5804C8.1545 12.86 7.94963 13.0937 7.6875 13.245Z" fill="#616161"/>
</svg>
