<svg width="17" height="9" viewBox="0 0 17 9" fill="none" xmlns="http://www.w3.org/2000/svg">
<path d="M14.4924 0.656738H10.4924C10.1237 0.656738 9.82569 0.954738 9.82569 1.3234C9.82569 1.69207 10.1237 1.99007 10.4924 1.99007H14.2164L9.84169 6.36474C9.46569 6.74074 8.85369 6.74074 8.47702 6.36474L6.78435 4.67207C5.88835 3.77607 4.43035 3.77607 3.53435 4.67207L0.687688 7.51874C0.427021 7.7794 0.427021 8.20074 0.687688 8.46141C0.817688 8.59141 0.988354 8.65674 1.15902 8.65674C1.32969 8.65674 1.50035 8.59141 1.63035 8.46141L4.47702 5.61474C4.84169 5.25007 5.47702 5.25007 5.84169 5.61474L7.53435 7.3074C8.43035 8.2034 9.88835 8.2034 10.7844 7.3074L15.1597 2.93274V6.65674C15.1597 7.0254 15.4577 7.32341 15.8264 7.32341C16.195 7.32341 16.493 7.0254 16.493 6.65674V2.65674C16.493 1.55407 15.5957 0.656738 14.493 0.656738H14.4924Z" fill="#6078EC"/>
</svg>
