<svg width="18" height="19" viewBox="0 0 18 19" fill="none" xmlns="http://www.w3.org/2000/svg">
<path fill-rule="evenodd" clip-rule="evenodd" d="M2.85876 2.04482C2.66944 2.04482 2.47016 2.127 2.31028 2.30317C2.14806 2.48191 2.04531 2.73958 2.04531 3.0226V15.467C2.04531 15.7501 2.14806 16.0077 2.31028 16.1865C2.47016 16.3626 2.66944 16.4448 2.85876 16.4448H11.7394V8.77424V3.0226C11.7394 2.73959 11.6367 2.48191 11.4745 2.30317C11.3146 2.127 11.1153 2.04482 10.926 2.04482H2.85876ZM2.85876 18.0448H12.5394H14.4218C15.1332 18.0448 15.8155 17.7622 16.3185 17.2592C16.8215 16.7561 17.1041 16.0739 17.1041 15.3625V8.77424C17.1041 8.33241 16.746 7.97424 16.3041 7.97424H13.3394V3.0226C13.3394 2.36263 13.1022 1.71593 12.6593 1.22788C12.214 0.73725 11.5925 0.444824 10.926 0.444824H2.85876C2.19225 0.444824 1.57075 0.73725 1.12548 1.22788C0.682539 1.71593 0.445312 2.36263 0.445312 3.0226V15.467C0.445312 16.127 0.68254 16.7737 1.12548 17.2618C1.57075 17.7524 2.19225 18.0448 2.85876 18.0448ZM13.3394 16.4448V9.57424H15.5041V15.3625C15.5041 15.6495 15.3901 15.9248 15.1871 16.1278C14.9841 16.3308 14.7088 16.4448 14.4218 16.4448H13.3394ZM5.01002 5.15071C4.56819 5.15071 4.21002 5.50888 4.21002 5.95071C4.21002 6.39253 4.56819 6.75071 5.01002 6.75071H8.77472C9.21655 6.75071 9.57472 6.39253 9.57472 5.95071C9.57472 5.50888 9.21655 5.15071 8.77472 5.15071H5.01002ZM4.21002 8.77424C4.21002 8.33241 4.56819 7.97424 5.01002 7.97424H8.77472C9.21655 7.97424 9.57472 8.33241 9.57472 8.77424C9.57472 9.21606 9.21655 9.57424 8.77472 9.57424H5.01002C4.56819 9.57424 4.21002 9.21606 4.21002 8.77424ZM5.01002 11.7389C4.56819 11.7389 4.21002 12.0971 4.21002 12.5389C4.21002 12.9808 4.56819 13.3389 5.01002 13.3389H7.83355C8.27537 13.3389 8.63355 12.9808 8.63355 12.5389C8.63355 12.0971 8.27537 11.7389 7.83355 11.7389H5.01002Z" fill="#757575"/>
</svg>
