<svg width="21" height="20" viewBox="0 0 21 20" fill="none" xmlns="http://www.w3.org/2000/svg">
<path fill-rule="evenodd" clip-rule="evenodd" d="M5.25409 4.04264C5.08647 4.04264 4.91002 4.1154 4.76846 4.27138C4.62483 4.42965 4.53385 4.6578 4.53385 4.90838V15.9269C4.53385 16.1775 4.62483 16.4056 4.76846 16.5639C4.91002 16.7199 5.08647 16.7926 5.25409 16.7926H13.1172V10.001V4.90838C13.1172 4.6578 13.0262 4.42965 12.8826 4.27138C12.741 4.1154 12.5646 4.04264 12.3969 4.04264H5.25409ZM5.25409 18.2093H13.8255H15.4922C16.1221 18.2093 16.7262 17.9591 17.1716 17.5137C17.617 17.0683 17.8672 16.4642 17.8672 15.8343V10.001C17.8672 9.60978 17.5501 9.29264 17.1589 9.29264H14.5339V4.90838C14.5339 4.32403 14.3238 3.75144 13.9316 3.31931C13.5374 2.8849 12.9871 2.62598 12.3969 2.62598H5.25409C4.66396 2.62598 4.11367 2.8849 3.71942 3.31931C3.32723 3.75144 3.11719 4.32403 3.11719 4.90838V15.9269C3.11719 16.5113 3.32723 17.0839 3.71942 17.516C4.11367 17.9504 4.66396 18.2093 5.25409 18.2093ZM14.5339 16.7926V10.7093H16.4505V15.8343C16.4505 16.0885 16.3496 16.3322 16.1698 16.512C15.9901 16.6917 15.7464 16.7926 15.4922 16.7926H14.5339ZM7.15885 6.79264C6.76765 6.79264 6.45052 7.10978 6.45052 7.50098C6.45052 7.89218 6.76765 8.20931 7.15885 8.20931H10.4922C10.8834 8.20931 11.2005 7.89218 11.2005 7.50098C11.2005 7.10978 10.8834 6.79264 10.4922 6.79264H7.15885ZM6.45052 10.001C6.45052 9.60978 6.76765 9.29264 7.15885 9.29264H10.4922C10.8834 9.29264 11.2005 9.60978 11.2005 10.001C11.2005 10.3922 10.8834 10.7093 10.4922 10.7093H7.15885C6.76765 10.7093 6.45052 10.3922 6.45052 10.001ZM7.15885 12.626C6.76765 12.626 6.45052 12.9431 6.45052 13.3343C6.45052 13.7255 6.76765 14.0426 7.15885 14.0426H9.65885C10.0501 14.0426 10.3672 13.7255 10.3672 13.3343C10.3672 12.9431 10.0501 12.626 9.65885 12.626H7.15885Z" fill="#757575"/>
</svg>
