<svg width="17" height="16" viewBox="0 0 17 16" fill="none" xmlns="http://www.w3.org/2000/svg">
<g clip-path="url(#clip0_4770_6324)">
<path d="M12.4766 6.25131L8.48991 5.45397V2.07197C8.4962 1.58983 8.33267 1.12084 8.02796 0.747145C7.72325 0.373446 7.29678 0.11886 6.82324 0.0279735C6.5364 -0.0205109 6.24244 -0.00583818 5.96185 0.0709685C5.68127 0.147775 5.42082 0.284867 5.19867 0.472681C4.97651 0.660496 4.79801 0.894513 4.67559 1.15841C4.55318 1.42231 4.48981 1.70973 4.48991 2.00064V6.44131L2.63057 8.86731C2.08523 9.50555 1.79963 10.3254 1.83037 11.1643C1.86112 12.0033 2.20598 12.8 2.79657 13.3966L4.39657 15.0133C5.0244 15.6433 5.87653 15.9983 6.7659 16.0006H11.8232C12.707 15.9996 13.5542 15.6481 14.1791 15.0232C14.804 14.3983 15.1555 13.551 15.1566 12.6673V9.51997C15.1549 8.74976 14.8873 8.00375 14.399 7.40814C13.9106 6.81253 13.2315 6.40387 12.4766 6.25131ZM13.8232 12.6673C13.8232 13.1977 13.6125 13.7064 13.2375 14.0815C12.8624 14.4566 12.3537 14.6673 11.8232 14.6673H6.7659C6.23168 14.6658 5.71995 14.4521 5.34324 14.0733L3.74324 12.4546C3.38571 12.0909 3.17903 11.6053 3.16469 11.0955C3.15034 10.5857 3.3294 10.0893 3.6659 9.70597L4.48991 8.63064V11.334C4.48991 11.5108 4.56014 11.6804 4.68517 11.8054C4.81019 11.9304 4.97976 12.0006 5.15657 12.0006C5.33338 12.0006 5.50295 11.9304 5.62798 11.8054C5.753 11.6804 5.82324 11.5108 5.82324 11.334V2.00064C5.82318 1.90312 5.84451 1.80678 5.88574 1.7184C5.92696 1.63003 5.98708 1.55177 6.06183 1.48916C6.13659 1.42654 6.22418 1.38109 6.31841 1.356C6.41265 1.33092 6.51124 1.32681 6.60724 1.34397C6.76865 1.38348 6.91146 1.4775 7.01156 1.61014C7.11165 1.74279 7.16287 1.90592 7.15657 2.07197V6.00064C7.15654 6.15433 7.20961 6.30331 7.3068 6.42236C7.40399 6.54142 7.53932 6.62324 7.68991 6.65397L12.2126 7.55864C12.6659 7.6499 13.0739 7.89495 13.3674 8.25234C13.6608 8.60973 13.8219 9.05752 13.8232 9.51997V12.6673Z" fill="#757575"/>
</g>
<defs>
<clipPath id="clip0_4770_6324">
<rect width="16" height="16" fill="white" transform="translate(0.492188)"/>
</clipPath>
</defs>
</svg>
