<svg width="15" height="17" viewBox="0 0 15 17" fill="none" xmlns="http://www.w3.org/2000/svg">
<path d="M11.4766 6.90805L7.48991 6.11071V2.72871C7.4962 2.24657 7.33267 1.77758 7.02796 1.40388C6.72325 1.03018 6.29678 0.775598 5.82324 0.684712C5.5364 0.636227 5.24244 0.6509 4.96185 0.727707C4.68127 0.804513 4.42082 0.941605 4.19867 1.12942C3.97651 1.31723 3.79801 1.55125 3.67559 1.81515C3.55318 2.07905 3.48981 2.36647 3.48991 2.65738V7.09805L1.63057 9.52405C1.08523 10.1623 0.799626 10.9822 0.830373 11.8211C0.86112 12.66 1.20598 13.4568 1.79657 14.0534L3.39657 15.67C4.0244 16.3 4.87653 16.6551 5.7659 16.6574H10.8232C11.707 16.6563 12.5542 16.3048 13.1791 15.6799C13.804 15.055 14.1555 14.2078 14.1566 13.324V10.1767C14.1549 9.4065 13.8873 8.66049 13.399 8.06488C12.9106 7.46926 12.2315 7.06061 11.4766 6.90805ZM12.8232 13.324C12.8232 13.8545 12.6125 14.3632 12.2375 14.7383C11.8624 15.1133 11.3537 15.324 10.8232 15.324H5.7659C5.23168 15.3225 4.71995 15.1088 4.34324 14.73L2.74324 13.1114C2.38571 12.7476 2.17903 12.2621 2.16469 11.7522C2.15034 11.2424 2.3294 10.746 2.6659 10.3627L3.48991 9.28738V11.9907C3.48991 12.1675 3.56014 12.3371 3.68517 12.4621C3.81019 12.5871 3.97976 12.6574 4.15657 12.6574C4.33338 12.6574 4.50295 12.5871 4.62798 12.4621C4.753 12.3371 4.82324 12.1675 4.82324 11.9907V2.65738C4.82318 2.55986 4.84451 2.46352 4.88574 2.37514C4.92696 2.28677 4.98708 2.20851 5.06183 2.14589C5.13659 2.08328 5.22418 2.03782 5.31841 2.01274C5.41265 1.98765 5.51124 1.98355 5.60724 2.00071C5.76865 2.04022 5.91146 2.13424 6.01156 2.26688C6.11165 2.39953 6.16287 2.56266 6.15657 2.72871V6.65738C6.15654 6.81107 6.20961 6.96004 6.3068 7.0791C6.40399 7.19816 6.53932 7.27997 6.68991 7.31071L11.2126 8.21538C11.6659 8.30664 12.0739 8.55169 12.3674 8.90908C12.6608 9.26647 12.8219 9.71426 12.8232 10.1767V13.324Z" fill="#6078EC"/>
</svg>
