<svg width="20" height="20" viewBox="0 0 20 20" fill="none" xmlns="http://www.w3.org/2000/svg">
<path d="M11.1377 1.39934L12.5612 2.61737C12.8919 2.86642 13.2894 3.01106 13.7028 3.03275H15.2353C15.6965 3.03483 16.1383 3.2193 16.464 3.54588C16.7898 3.87246 16.9731 4.31465 16.974 4.77592V6.30658C16.9952 6.71834 17.1396 7.11424 17.3885 7.44294L18.6048 8.86821C18.8629 9.18921 19.0036 9.58874 19.0036 10.0006C19.0036 10.4125 18.8629 10.812 18.6048 11.133L17.3885 12.5583C17.1396 12.887 16.9952 13.2829 16.974 13.6947V15.2262C16.9727 15.687 16.7892 16.1286 16.4637 16.4548C16.1382 16.781 15.697 16.9653 15.2361 16.9676H13.7046C13.2933 16.989 12.8979 17.1337 12.57 17.383L11.1465 18.601C10.8264 18.8592 10.4275 19 10.0163 19C9.60502 19 9.20617 18.8592 8.88606 18.601L7.46255 17.3856C7.13389 17.1377 6.73896 16.9931 6.32794 16.9702H4.75162C4.2902 16.9682 3.84835 16.7836 3.52256 16.4568C3.19678 16.13 3.01353 15.6876 3.01284 15.2262V13.6868C2.99478 13.2785 2.85331 12.8853 2.60712 12.5592L1.39173 11.1242C1.13801 10.8032 1 10.4059 1 9.99666C1 9.58744 1.13801 9.19017 1.39173 8.86909L2.608 7.43415C2.85283 7.10726 2.99414 6.71453 3.01372 6.30658V4.78207C3.0151 4.32125 3.19854 3.87965 3.52406 3.55347C3.84958 3.22729 4.29081 3.04297 4.75162 3.04065H6.3095C6.72084 3.01929 7.1162 2.87454 7.4441 2.62527L8.8764 1.39934C9.19658 1.14094 9.59561 1 10.0071 1C10.4185 1 10.8175 1.14094 11.1377 1.39934V1.39934Z" stroke="#757575" stroke-width="1.5" stroke-linecap="round" stroke-linejoin="round"/>
<path d="M10.0033 13.0754C11.7008 13.0754 13.0769 11.6993 13.0769 10.0018C13.0769 8.30432 11.7008 6.92822 10.0033 6.92822C8.30579 6.92822 6.92969 8.30432 6.92969 10.0018C6.92969 11.6993 8.30579 13.0754 10.0033 13.0754Z" stroke="#757575" stroke-width="1.5"/>
</svg>
