<svg width="18" height="16" viewBox="0 0 18 16" fill="none" xmlns="http://www.w3.org/2000/svg">
<path fill-rule="evenodd" clip-rule="evenodd" d="M13.8744 3.64815C13.8744 3.17392 13.8749 2.8325 13.8978 2.5657C13.9212 2.2932 13.9622 2.19324 13.9817 2.16073C13.9868 2.15234 13.9888 2.15089 13.9914 2.14897L13.9918 2.14868C13.9972 2.14471 14.0201 2.12933 14.078 2.11144C14.2079 2.07135 14.4337 2.04167 14.8327 2.04167C15.2317 2.04167 15.4574 2.07135 15.5873 2.11144C15.6453 2.12933 15.6682 2.14471 15.6736 2.14868L15.674 2.14897C15.6766 2.15089 15.6786 2.15234 15.6836 2.16073C15.7031 2.19324 15.7442 2.2932 15.7676 2.5657C15.7904 2.8325 15.791 3.17392 15.791 3.64815V3.65903V3.66999V3.68102V3.69212V3.7033V3.71454V3.72585V3.73724V3.74869V3.76021V3.7718V3.78346V3.79519V3.80699V3.81886V3.83079V3.84279V3.85486V3.867V3.8792V3.89147V3.9038V3.9162V3.92867V3.9412V3.9538V3.96646V3.97918V3.99197V4.00483V4.01774V4.03073V4.04377V4.05688V4.07004V4.08328V4.09657V4.10992V4.12334V4.13682V4.15036V4.16395V4.17761V4.19133V4.20511V4.21895V4.23285V4.2468V4.26082V4.27489V4.28902V4.30321V4.31745V4.33176V4.34611V4.36053V4.375V4.38953V4.40412V4.41876V4.43345V4.4482V4.46301V4.47786V4.49278V4.50774V4.52276V4.53784V4.55296V4.56814V4.58337V4.59866V4.61399V4.62938V4.64482V4.6603V4.67584V4.69143V4.70707V4.72276V4.7385V4.75429V4.77013V4.78601V4.80195V4.81793V4.83396V4.85004V4.86616V4.88234V4.89856V4.91482V4.93113V4.94749V4.96389V4.98034V4.99684V5.01337V5.02996V5.04658V5.06325V5.07997V5.09673V5.11353V5.13037V5.14726V5.16419V5.18116V5.19817V5.21522V5.23232V5.24945V5.26663V5.28384V5.3011V5.31839V5.33573V5.3531V5.37052V5.38797V5.40546V5.42299V5.44055V5.45815V5.47579V5.49347V5.51118V5.52893V5.54672V5.56454V5.5824V5.60029V5.61822V5.63618V5.65418V5.67221V5.69027V5.70837V5.7265V5.74466V5.76286V5.78109V5.79935V5.81764V5.83597V5.85432V5.87271V5.89113V5.90957V5.92805V5.94656V5.96509V5.98366V6.00226V6.02088V6.03953V6.05821V6.07692V6.09566V6.11442V6.13321V6.15203V6.17087V6.18974V6.20864V6.22756V6.2465V6.26548V6.28447V6.30349V6.32254V6.34161V6.3607V6.37981V6.39895V6.41812V6.4373V6.45651V6.47573V6.49498V6.51426V6.53355V6.55286V6.5722V6.59155V6.61093V6.63032V6.64973V6.66917V6.68862V6.70809V6.72757V6.74708V6.76661V6.78615V6.80571V6.82528V6.84487V6.86448V6.88411V6.90375V6.9234V6.94307V6.96276V6.98246V7.00217V7.0219V7.04165V7.0614V7.08117V7.10095V7.12075V7.14056V7.16038V7.18021V7.20005V7.2199V7.23977V7.25965V7.27953V7.29943V7.31933V7.33925V7.35918V7.37911V7.39905V7.419V7.43896V7.45893V7.47891V7.49889V7.51888V7.53887V7.55888V7.57888V7.5989V7.61892V7.63894V7.65898V7.67901V7.69905V7.7191V7.73914V7.75919V7.77925V7.79931V7.81937V7.83943V7.8595V7.87957V7.89964V7.91971V7.93978V7.95985V7.97993V8V8.02007V8.04015V8.06022V8.08029V8.10036V8.12043V8.1405V8.16057V8.18063V8.20069V8.22075V8.2408V8.26086V8.2809V8.30095V8.32099V8.34102V8.36105V8.38108V8.4011V8.42111V8.44112V8.46113V8.48112V8.50111V8.52109V8.54107V8.56104V8.58099V8.60095V8.62089V8.64082V8.66075V8.68066V8.70057V8.72047V8.74035V8.76023V8.78009V8.79995V8.81979V8.83962V8.85944V8.87925V8.89905V8.91883V8.9386V8.95835V8.9781V8.99783V9.01754V9.03724V9.05693V9.0766V9.09625V9.11589V9.13552V9.15513V9.17472V9.19429V9.21385V9.23339V9.25292V9.27242V9.29191V9.31138V9.33083V9.35027V9.36968V9.38907V9.40845V9.4278V9.44714V9.46645V9.48574V9.50501V9.52426V9.54349V9.5627V9.58188V9.60105V9.62018V9.6393V9.65839V9.67746V9.69651V9.71553V9.73452V9.75349V9.77244V9.79136V9.81026V9.82913V9.84797V9.86679V9.88558V9.90434V9.92308V9.94179V9.96047V9.97912V9.99774V10.0163V10.0349V10.0534V10.0719V10.0904V10.1089V10.1273V10.1457V10.164V10.1824V10.2006V10.2189V10.2371V10.2553V10.2735V10.2916V10.3097V10.3278V10.3458V10.3638V10.3818V10.3997V10.4176V10.4355V10.4533V10.4711V10.4888V10.5065V10.5242V10.5418V10.5594V10.577V10.5945V10.612V10.6295V10.6469V10.6643V10.6816V10.6989V10.7162V10.7334V10.7505V10.7677V10.7848V10.8018V10.8188V10.8358V10.8527V10.8696V10.8865V10.9033V10.92V10.9367V10.9534V10.97V10.9866V11.0032V11.0197V11.0361V11.0525V11.0689V11.0852V11.1014V11.1177V11.1338V11.15V11.166V11.1821V11.1981V11.214V11.2299V11.2457V11.2615V11.2772V11.2929V11.3086V11.3242V11.3397V11.3552V11.3706V11.386V11.4013V11.4166V11.4319V11.447V11.4622V11.4772V11.4923V11.5072V11.5221V11.537V11.5518V11.5665V11.5812V11.5959V11.6105V11.625V11.6395V11.6539V11.6682V11.6825V11.6968V11.711V11.7251V11.7392V11.7532V11.7672V11.7811V11.7949V11.8087V11.8224V11.836V11.8496V11.8632V11.8767V11.8901V11.9034V11.9167V11.93V11.9431V11.9562V11.9693V11.9823V11.9952V12.008V12.0208V12.0335V12.0462V12.0588V12.0713V12.0838V12.0962V12.1085V12.1208V12.133V12.1451V12.1572V12.1692V12.1811V12.193V12.2048V12.2165V12.2282V12.2398V12.2513V12.2628V12.2741V12.2855V12.2967V12.3079V12.319V12.33V12.341V12.3519C15.791 12.912 15.7592 13.2914 15.7068 13.5488C15.6542 13.8074 15.5929 13.8805 15.5825 13.8915C15.5787 13.8955 15.5753 13.8986 15.5645 13.9038C15.5504 13.9104 15.5194 13.922 15.459 13.9324C15.3209 13.9562 15.1399 13.9583 14.8327 13.9583C14.5207 13.9583 14.3374 13.9562 14.1983 13.9323C14.1374 13.9219 14.1069 13.9103 14.0935 13.904C14.0834 13.8993 14.081 13.8968 14.0781 13.8937C14.069 13.8839 14.0084 13.8118 13.9566 13.5517C13.9051 13.2933 13.8744 12.913 13.8744 12.3519V3.64815ZM14.8327 0.625C14.0274 0.625 13.2 0.710118 12.767 1.43186C12.5781 1.74657 12.515 2.10957 12.4863 2.44472C12.4577 2.77897 12.4577 3.1806 12.4577 3.62201V3.62202V3.64815V12.3519C12.4577 12.9481 12.489 13.4358 12.5672 13.8285C12.6451 14.2194 12.7818 14.5814 13.0431 14.861C13.3175 15.1546 13.6522 15.2761 13.9591 15.3287C14.2306 15.3752 14.5338 15.3751 14.7991 15.375L14.8327 15.375L14.8657 15.375C15.127 15.3751 15.4282 15.3752 15.6991 15.3286C16.0051 15.276 16.3388 15.1546 16.6135 14.8631C16.8757 14.5848 17.0151 14.2238 17.095 13.8314C17.1751 13.4377 17.2077 12.9491 17.2077 12.3519V12.341V12.33V12.319V12.3079V12.2967V12.2855V12.2741V12.2628V12.2513V12.2398V12.2282V12.2165V12.2048V12.193V12.1811V12.1692V12.1572V12.1451V12.133V12.1208V12.1085V12.0962V12.0838V12.0713V12.0588V12.0462V12.0335V12.0208V12.008V11.9952V11.9823V11.9693V11.9562V11.9431V11.93V11.9167V11.9034V11.8901V11.8767V11.8632V11.8496V11.836V11.8224V11.8087V11.7949V11.7811V11.7672V11.7532V11.7392V11.7251V11.711V11.6968V11.6825V11.6682V11.6539V11.6395V11.625V11.6105V11.5959V11.5812V11.5665V11.5518V11.537V11.5221V11.5072V11.4923V11.4772V11.4622V11.447V11.4319V11.4166V11.4013V11.386V11.3706V11.3552V11.3397V11.3242V11.3086V11.2929V11.2772V11.2615V11.2457V11.2299V11.214V11.1981V11.1821V11.166V11.15V11.1338V11.1177V11.1014V11.0852V11.0689V11.0525V11.0361V11.0197V11.0032V10.9866V10.97V10.9534V10.9367V10.92V10.9033V10.8865V10.8696V10.8527V10.8358V10.8188V10.8018V10.7848V10.7677V10.7505V10.7334V10.7162V10.6989V10.6816V10.6643V10.6469V10.6295V10.612V10.5945V10.577V10.5594V10.5418V10.5242V10.5065V10.4888V10.4711V10.4533V10.4355V10.4176V10.3997V10.3818V10.3638V10.3458V10.3278V10.3097V10.2916V10.2735V10.2553V10.2371V10.2189V10.2006V10.1824V10.164V10.1457V10.1273V10.1089V10.0904V10.0719V10.0534V10.0349V10.0163V9.99774V9.97912V9.96047V9.94179V9.92308V9.90434V9.88558V9.86679V9.84797V9.82913V9.81026V9.79136V9.77244V9.75349V9.73452V9.71553V9.69651V9.67746V9.65839V9.6393V9.62018V9.60105V9.58188V9.5627V9.54349V9.52426V9.50501V9.48574V9.46645V9.44714V9.4278V9.40845V9.38907V9.36968V9.35027V9.33083V9.31138V9.29191V9.27242V9.25292V9.23339V9.21385V9.19429V9.17472V9.15513V9.13552V9.11589V9.09625V9.0766V9.05693V9.03724V9.01754V8.99783V8.9781V8.95835V8.9386V8.91883V8.89905V8.87925V8.85944V8.83962V8.81979V8.79995V8.78009V8.76023V8.74035V8.72047V8.70057V8.68066V8.66075V8.64082V8.62089V8.60095V8.58099V8.56104V8.54107V8.52109V8.50111V8.48112V8.46113V8.44112V8.42111V8.4011V8.38108V8.36105V8.34102V8.32099V8.30095V8.2809V8.26086V8.2408V8.22075V8.20069V8.18063V8.16057V8.1405V8.12043V8.10036V8.08029V8.06022V8.04015V8.02007V8V7.97993V7.95985V7.93978V7.91971V7.89964V7.87957V7.8595V7.83943V7.81937V7.79931V7.77925V7.75919V7.73914V7.7191V7.69905V7.67901V7.65898V7.63894V7.61892V7.5989V7.57888V7.55888V7.53887V7.51888V7.49889V7.47891V7.45893V7.43896V7.419V7.39905V7.37911V7.35918V7.33925V7.31933V7.29943V7.27953V7.25965V7.23977V7.2199V7.20005V7.18021V7.16038V7.14056V7.12075V7.10095V7.08117V7.0614V7.04165V7.0219V7.00217V6.98246V6.96276V6.94307V6.9234V6.90375V6.88411V6.86448V6.84487V6.82528V6.80571V6.78615V6.76661V6.74708V6.72757V6.70809V6.68862V6.66917V6.64973V6.63032V6.61093V6.59155V6.5722V6.55286V6.53355V6.51426V6.49498V6.47573V6.45651V6.4373V6.41812V6.39895V6.37981V6.3607V6.34161V6.32254V6.30349V6.28447V6.26548V6.2465V6.22756V6.20864V6.18974V6.17087V6.15203V6.13321V6.11442V6.09566V6.07692V6.05821V6.03953V6.02088V6.00226V5.98366V5.96509V5.94656V5.92805V5.90957V5.89113V5.87271V5.85432V5.83597V5.81764V5.79935V5.78109V5.76286V5.74466V5.7265V5.70837V5.69027V5.67221V5.65418V5.63618V5.61822V5.60029V5.5824V5.56454V5.54672V5.52893V5.51118V5.49347V5.47579V5.45815V5.44055V5.42299V5.40546V5.38797V5.37052V5.3531V5.33573V5.31839V5.3011V5.28384V5.26663V5.24945V5.23232V5.21522V5.19817V5.18116V5.16419V5.14726V5.13037V5.11353V5.09673V5.07997V5.06325V5.04658V5.02996V5.01337V4.99684V4.98034V4.96389V4.94749V4.93113V4.91482V4.89856V4.88234V4.86616V4.85004V4.83396V4.81793V4.80195V4.78601V4.77013V4.75429V4.7385V4.72276V4.70707V4.69143V4.67584V4.6603V4.64482V4.62938V4.61399V4.59866V4.58337V4.56814V4.55296V4.53784V4.52276V4.50774V4.49278V4.47786V4.46301V4.4482V4.43345V4.41876V4.40412V4.38953V4.375V4.36053V4.34611V4.33176V4.31745V4.30321V4.28902V4.27489V4.26082V4.2468V4.23285V4.21895V4.20511V4.19133V4.17761V4.16395V4.15036V4.13682V4.12334V4.10992V4.09657V4.08328V4.07004V4.05688V4.04377V4.03073V4.01774V4.00483V3.99197V3.97918V3.96646V3.9538V3.9412V3.92867V3.9162V3.9038V3.89147V3.8792V3.867V3.85486V3.84279V3.83079V3.81886V3.80699V3.79519V3.78346V3.7718V3.76021V3.74869V3.73724V3.72585V3.71454V3.7033V3.69212V3.68102V3.66999V3.65903V3.64815L17.2077 3.62201C17.2077 3.1806 17.2077 2.77897 17.1791 2.44472C17.1503 2.10957 17.0872 1.74657 16.8984 1.43186C16.4654 0.710118 15.6379 0.625 14.8327 0.625ZM8.06518 5.91664C8.04434 6.1045 8.0435 6.32324 8.0435 6.61111L8.0435 9.66667L8.04351 12.7222C8.04351 12.729 8.04341 12.7358 8.04321 12.7426C8.02256 13.4589 8.15294 13.701 8.23042 13.784C8.29738 13.8558 8.46567 13.9583 8.99912 13.9583C9.52062 13.9583 9.69412 13.857 9.76544 13.7814C9.84471 13.6973 9.97788 13.4548 9.9551 12.7449C9.95486 12.7374 9.95474 12.7298 9.95474 12.7222V9.66667L9.95474 6.61111C9.95474 6.32324 9.9539 6.1045 9.93306 5.91664C9.91252 5.73149 9.8777 5.63676 9.84743 5.58622L9.84641 5.5845C9.82689 5.5514 9.72286 5.375 8.99912 5.375C8.27537 5.375 8.17135 5.5514 8.15182 5.5845L8.15081 5.58622C8.12054 5.63676 8.08571 5.73149 8.06518 5.91664ZM6.9355 4.85823C7.33464 4.1919 8.07252 3.95833 8.99912 3.95833C9.92571 3.95833 10.6636 4.1919 11.0627 4.85823C11.2405 5.15491 11.3096 5.47685 11.3411 5.76045C11.3714 6.03416 11.3714 6.328 11.3714 6.59052L11.3714 6.61111L11.3714 9.66667V12.7112C11.3961 13.5244 11.2712 14.2495 10.796 14.7534C10.3106 15.268 9.62764 15.375 8.99912 15.375C8.36449 15.375 7.67879 15.2692 7.19479 14.7507C6.72334 14.2456 6.60476 13.5196 6.62684 12.7123L6.62684 9.66667L6.62683 6.61111L6.62683 6.59052C6.62681 6.32799 6.62679 6.03416 6.65715 5.76045C6.68861 5.47685 6.75778 5.15491 6.9355 4.85823ZM2.23025 10.0997C2.20841 10.3195 2.20768 10.5848 2.20768 10.9398V13.2452C2.20768 13.6457 2.3045 13.7552 2.35143 13.7949C2.42777 13.8595 2.63439 13.9583 3.16602 13.9583C3.68577 13.9583 3.89556 13.8606 3.97605 13.7931C4.02673 13.7506 4.12435 13.6387 4.12435 13.2452V13.2393V13.2334V13.2275V13.2216V13.2157V13.2099V13.204V13.1982V13.1923V13.1865V13.1807V13.1749V13.1691V13.1633V13.1576V13.1518V13.1461V13.1404V13.1346V13.1289V13.1232V13.1176V13.1119V13.1062V13.1006V13.0949V13.0893V13.0837V13.0781V13.0725V13.0669V13.0614V13.0558V13.0502V13.0447V13.0392V13.0337V13.0282V13.0227V13.0172V13.0117V13.0062V13.0008V12.9953V12.9899V12.9845V12.9791V12.9737V12.9683V12.9629V12.9575V12.9522V12.9468V12.9415V12.9362V12.9308V12.9255V12.9202V12.9149V12.9097V12.9044V12.8991V12.8939V12.8886V12.8834V12.8782V12.873V12.8678V12.8626V12.8574V12.8522V12.8471V12.8419V12.8368V12.8316V12.8265V12.8214V12.8163V12.8112V12.8061V12.801V12.7959V12.7909V12.7858V12.7808V12.7757V12.7707V12.7657V12.7607V12.7557V12.7507V12.7457V12.7407V12.7358V12.7308V12.7258V12.7209V12.716V12.711V12.7061V12.7012V12.6963V12.6914V12.6865V12.6817V12.6768V12.6719V12.6671V12.6623V12.6574V12.6526V12.6478V12.643V12.6382V12.6334V12.6286V12.6238V12.619V12.6143V12.6095V12.6047V12.6V12.5953V12.5905V12.5858V12.5811V12.5764V12.5717V12.567V12.5623V12.5577V12.553V12.5483V12.5437V12.539V12.5344V12.5297V12.5251V12.5205V12.5159V12.5113V12.5067V12.5021V12.4975V12.4929V12.4883V12.4838V12.4792V12.4746V12.4701V12.4656V12.461V12.4565V12.452V12.4475V12.4429V12.4384V12.4339V12.4294V12.425V12.4205V12.416V12.4115V12.4071V12.4026V12.3982V12.3937V12.3893V12.3849V12.3804V12.376V12.3716V12.3672V12.3628V12.3584V12.354V12.3496V12.3452V12.3408V12.3364V12.3321V12.3277V12.3234V12.319V12.3147V12.3103V12.306V12.3016V12.2973V12.293V12.2887V12.2844V12.2801V12.2758V12.2715V12.2672V12.2629V12.2586V12.2543V12.25V12.2458V12.2415V12.2372V12.233V12.2287V12.2245V12.2202V12.216V12.2117V12.2075V12.2033V12.1991V12.1948V12.1906V12.1864V12.1822V12.178V12.1738V12.1696V12.1654V12.1612V12.157V12.1528V12.1487V12.1445V12.1403V12.1361V12.132V12.1278V12.1236V12.1195V12.1153V12.1112V12.107V12.1029V12.0988V12.0946V12.0905V12.0864V12.0822V12.0781V12.074V12.0699V12.0658V12.0616V12.0575V12.0534V12.0493V12.0452V12.0411V12.037V12.0329V12.0288V12.0247V12.0207V12.0166V12.0125V12.0084V12.0043V12.0003V11.9962V11.9921V11.988V11.984V11.9799V11.9758V11.9718V11.9677V11.9637V11.9596V11.9556V11.9515V11.9475V11.9434V11.9394V11.9353V11.9313V11.9272V11.9232V11.9191V11.9151V11.9111V11.907V11.903V11.899V11.8949V11.8909V11.8869V11.8828V11.8788V11.8748V11.8708V11.8667V11.8627V11.8587V11.8547V11.8506V11.8466V11.8426V11.8386V11.8346V11.8305V11.8265V11.8225V11.8185V11.8145V11.8105V11.8064V11.8024V11.7984V11.7944V11.7904V11.7864V11.7824V11.7783V11.7743V11.7703V11.7663V11.7623V11.7583V11.7543V11.7502V11.7462V11.7422V11.7382V11.7342V11.7302V11.7262V11.7221V11.7181V11.7141V11.7101V11.7061V11.702V11.698V11.694V11.69V11.686V11.6819V11.6779V11.6739V11.6699V11.6658V11.6618V11.6578V11.6538V11.6497V11.6457V11.6417V11.6376V11.6336V11.6295V11.6255V11.6215V11.6174V11.6134V11.6093V11.6053V11.6012V11.5972V11.5931V11.5891V11.585V11.581V11.5769V11.5729V11.5688V11.5647V11.5607V11.5566V11.5525V11.5485V11.5444V11.5403V11.5362V11.5322V11.5281V11.524V11.5199V11.5158V11.5117V11.5076V11.5035V11.4994V11.4953V11.4912V11.4871V11.483V11.4789V11.4748V11.4706V11.4665V11.4624V11.4583V11.4541V11.45V11.4459V11.4417V11.4376V11.4334V11.4293V11.4251V11.421V11.4168V11.4127V11.4085V11.4043V11.4002V11.396V11.3918V11.3876V11.3834V11.3792V11.375V11.3708V11.3666V11.3624V11.3582V11.354V11.3498V11.3456V11.3413V11.3371V11.3329V11.3286V11.3244V11.3202V11.3159V11.3117V11.3074V11.3031V11.2989V11.2946V11.2903V11.286V11.2817V11.2775V11.2732V11.2689V11.2646V11.2602V11.2559V11.2516V11.2473V11.243V11.2386V11.2343V11.23V11.2256V11.2212V11.2169V11.2125V11.2082V11.2038V11.1994V11.195V11.1906V11.1862V11.1818V11.1774V11.173V11.1686V11.1642V11.1597V11.1553V11.1509V11.1464V11.142V11.1375V11.1331V11.1286V11.1241V11.1196V11.1151V11.1107V11.1062V11.1016V11.0971V11.0926V11.0881V11.0836V11.079V11.0745V11.0699V11.0654V11.0608V11.0563V11.0517V11.0471V11.0425V11.0379V11.0333V11.0287V11.0241V11.0195V11.0148V11.0102V11.0056V11.0009V10.9963V10.9916V10.9869V10.9822V10.9776V10.9729V10.9682V10.9635V10.9587V10.954V10.9524L4.11858 10.7838V10.7838C4.10937 10.5095 4.10217 10.295 4.0817 10.1058C4.05713 9.87861 4.02012 9.77268 3.99067 9.72105L3.99011 9.71986C3.98261 9.70307 3.91046 9.54167 3.16602 9.54167C2.41831 9.54167 2.33125 9.70486 2.31927 9.72732L2.31835 9.729C2.28962 9.77788 2.25206 9.88024 2.23025 10.0997ZM1.09701 9.01116C1.50556 8.31606 2.27035 8.125 3.16602 8.125C4.06332 8.125 4.82081 8.31719 5.22121 9.01911C5.39395 9.32194 5.45804 9.65655 5.49015 9.95345C5.51684 10.2002 5.52606 10.4794 5.53512 10.7539C5.5369 10.8077 5.53867 10.8614 5.54057 10.9146L5.54081 10.9227L5.54102 10.9398V10.9446V10.9493V10.954V10.9587V10.9635V10.9682V10.9729V10.9776V10.9822V10.9869V10.9916V10.9963V11.0009V11.0056V11.0102V11.0148V11.0195V11.0241V11.0287V11.0333V11.0379V11.0425V11.0471V11.0517V11.0563V11.0608V11.0654V11.0699V11.0745V11.079V11.0836V11.0881V11.0926V11.0971V11.1016V11.1062V11.1107V11.1151V11.1196V11.1241V11.1286V11.1331V11.1375V11.142V11.1464V11.1509V11.1553V11.1597V11.1642V11.1686V11.173V11.1774V11.1818V11.1862V11.1906V11.195V11.1994V11.2038V11.2082V11.2125V11.2169V11.2212V11.2256V11.23V11.2343V11.2386V11.243V11.2473V11.2516V11.2559V11.2602V11.2646V11.2689V11.2732V11.2775V11.2817V11.286V11.2903V11.2946V11.2989V11.3031V11.3074V11.3117V11.3159V11.3202V11.3244V11.3286V11.3329V11.3371V11.3413V11.3456V11.3498V11.354V11.3582V11.3624V11.3666V11.3708V11.375V11.3792V11.3834V11.3876V11.3918V11.396V11.4002V11.4043V11.4085V11.4127V11.4168V11.421V11.4251V11.4293V11.4334V11.4376V11.4417V11.4459V11.45V11.4541V11.4583V11.4624V11.4665V11.4706V11.4748V11.4789V11.483V11.4871V11.4912V11.4953V11.4994V11.5035V11.5076V11.5117V11.5158V11.5199V11.524V11.5281V11.5322V11.5362V11.5403V11.5444V11.5485V11.5525V11.5566V11.5607V11.5647V11.5688V11.5729V11.5769V11.581V11.585V11.5891V11.5931V11.5972V11.6012V11.6053V11.6093V11.6134V11.6174V11.6215V11.6255V11.6295V11.6336V11.6376V11.6417V11.6457V11.6497V11.6538V11.6578V11.6618V11.6658V11.6699V11.6739V11.6779V11.6819V11.686V11.69V11.694V11.698V11.702V11.7061V11.7101V11.7141V11.7181V11.7221V11.7262V11.7302V11.7342V11.7382V11.7422V11.7462V11.7502V11.7543V11.7583V11.7623V11.7663V11.7703V11.7743V11.7783V11.7824V11.7864V11.7904V11.7944V11.7984V11.8024V11.8064V11.8105V11.8145V11.8185V11.8225V11.8265V11.8305V11.8346V11.8386V11.8426V11.8466V11.8506V11.8547V11.8587V11.8627V11.8667V11.8708V11.8748V11.8788V11.8828V11.8869V11.8909V11.8949V11.899V11.903V11.907V11.9111V11.9151V11.9191V11.9232V11.9272V11.9313V11.9353V11.9394V11.9434V11.9475V11.9515V11.9556V11.9596V11.9637V11.9677V11.9718V11.9758V11.9799V11.984V11.988V11.9921V11.9962V12.0003V12.0043V12.0084V12.0125V12.0166V12.0207V12.0247V12.0288V12.0329V12.037V12.0411V12.0452V12.0493V12.0534V12.0575V12.0616V12.0658V12.0699V12.074V12.0781V12.0822V12.0864V12.0905V12.0946V12.0988V12.1029V12.107V12.1112V12.1153V12.1195V12.1236V12.1278V12.132V12.1361V12.1403V12.1445V12.1487V12.1528V12.157V12.1612V12.1654V12.1696V12.1738V12.178V12.1822V12.1864V12.1906V12.1948V12.1991V12.2033V12.2075V12.2117V12.216V12.2202V12.2245V12.2287V12.233V12.2372V12.2415V12.2458V12.25V12.2543V12.2586V12.2629V12.2672V12.2715V12.2758V12.2801V12.2844V12.2887V12.293V12.2973V12.3016V12.306V12.3103V12.3147V12.319V12.3234V12.3277V12.3321V12.3364V12.3408V12.3452V12.3496V12.354V12.3584V12.3628V12.3672V12.3716V12.376V12.3804V12.3849V12.3893V12.3937V12.3982V12.4026V12.4071V12.4115V12.416V12.4205V12.425V12.4294V12.4339V12.4384V12.4429V12.4475V12.452V12.4565V12.461V12.4656V12.4701V12.4746V12.4792V12.4838V12.4883V12.4929V12.4975V12.5021V12.5067V12.5113V12.5159V12.5205V12.5251V12.5297V12.5344V12.539V12.5437V12.5483V12.553V12.5577V12.5623V12.567V12.5717V12.5764V12.5811V12.5858V12.5905V12.5953V12.6V12.6047V12.6095V12.6143V12.619V12.6238V12.6286V12.6334V12.6382V12.643V12.6478V12.6526V12.6574V12.6623V12.6671V12.6719V12.6768V12.6817V12.6865V12.6914V12.6963V12.7012V12.7061V12.711V12.716V12.7209V12.7258V12.7308V12.7358V12.7407V12.7457V12.7507V12.7557V12.7607V12.7657V12.7707V12.7757V12.7808V12.7858V12.7909V12.7959V12.801V12.8061V12.8112V12.8163V12.8214V12.8265V12.8316V12.8368V12.8419V12.8471V12.8522V12.8574V12.8626V12.8678V12.873V12.8782V12.8834V12.8886V12.8939V12.8991V12.9044V12.9097V12.9149V12.9202V12.9255V12.9308V12.9362V12.9415V12.9468V12.9522V12.9575V12.9629V12.9683V12.9737V12.9791V12.9845V12.9899V12.9953V13.0008V13.0062V13.0117V13.0172V13.0227V13.0282V13.0337V13.0392V13.0447V13.0502V13.0558V13.0614V13.0669V13.0725V13.0781V13.0837V13.0893V13.0949V13.1006V13.1062V13.1119V13.1176V13.1232V13.1289V13.1346V13.1404V13.1461V13.1518V13.1576V13.1633V13.1691V13.1749V13.1807V13.1865V13.1923V13.1982V13.204V13.2099V13.2157V13.2216V13.2275V13.2334V13.2393V13.2452C5.54102 13.8645 5.38126 14.4634 4.88658 14.8784C4.42171 15.2684 3.79817 15.375 3.16602 15.375C2.52767 15.375 1.90096 15.2695 1.43646 14.8765C0.942549 14.4587 0.791016 13.8575 0.791016 13.2452V10.9398V10.917V10.9169C0.791001 10.5905 0.790985 10.2569 0.82053 9.95958C0.850805 9.65492 0.917413 9.31674 1.09701 9.01116Z" fill="#757575"/>
</svg>
