<svg width="22" height="22" viewBox="0 0 22 22" fill="none" xmlns="http://www.w3.org/2000/svg">
<g id="vuesax/outline/sms-tracking">
<g id="sms-tracking">
<path id="Vector" d="M15.5835 19.4792H6.41683C6.041 19.4792 5.72933 19.1675 5.72933 18.7917C5.72933 18.4159 6.041 18.1042 6.41683 18.1042H15.5835C18.2052 18.1042 19.4793 16.83 19.4793 14.2084V7.79171C19.4793 5.17004 18.2052 3.89587 15.5835 3.89587H6.41683C3.79516 3.89587 2.521 5.17004 2.521 7.79171C2.521 8.16754 2.20933 8.47921 1.8335 8.47921C1.45766 8.47921 1.146 8.16754 1.146 7.79171C1.146 4.44587 3.071 2.52087 6.41683 2.52087H15.5835C18.9293 2.52087 20.8543 4.44587 20.8543 7.79171V14.2084C20.8543 17.5542 18.9293 19.4792 15.5835 19.4792Z" fill="#616161"/>
<path id="Vector_2" d="M10.9999 11.7975C10.2299 11.7975 9.45071 11.5591 8.85488 11.0733L5.98571 8.78164C5.69238 8.54331 5.63738 8.11247 5.87571 7.81914C6.11405 7.5258 6.54487 7.47081 6.8382 7.70914L9.70737 10.0008C10.404 10.56 11.5865 10.56 12.2832 10.0008L15.1524 7.70914C15.4457 7.47081 15.8857 7.51664 16.1149 7.81914C16.3532 8.11247 16.3074 8.55247 16.0049 8.78164L13.1357 11.0733C12.549 11.5591 11.7699 11.7975 10.9999 11.7975Z" fill="#616161"/>
<path id="Vector_3" d="M7.3335 15.8125H1.8335C1.45766 15.8125 1.146 15.5008 1.146 15.125C1.146 14.7492 1.45766 14.4375 1.8335 14.4375H7.3335C7.70933 14.4375 8.021 14.7492 8.021 15.125C8.021 15.5008 7.70933 15.8125 7.3335 15.8125Z" fill="#616161"/>
<path id="Vector_4" d="M4.5835 12.1459H1.8335C1.45766 12.1459 1.146 11.8342 1.146 11.4584C1.146 11.0825 1.45766 10.7709 1.8335 10.7709H4.5835C4.95933 10.7709 5.271 11.0825 5.271 11.4584C5.271 11.8342 4.95933 12.1459 4.5835 12.1459Z" fill="#616161"/>
</g>
</g>
</svg>
