<svg width="14" height="15" viewBox="0 0 14 15" fill="none" xmlns="http://www.w3.org/2000/svg">
<path d="M6.99985 11.799C5.95568 11.799 4.91151 11.4023 4.11234 10.6032C2.51984 9.01068 2.51984 6.42066 4.11234 4.82816C5.70484 3.23566 8.29486 3.23566 9.88736 4.82816C11.4799 6.42066 11.4799 9.01068 9.88736 10.6032C9.08819 11.4023 8.04402 11.799 6.99985 11.799ZM6.99985 4.50734C6.17735 4.50734 5.35484 4.82233 4.73068 5.4465C3.48234 6.70066 3.48234 8.73068 4.73068 9.98485C5.98484 11.239 8.02069 11.2332 9.26903 9.98485C10.5174 8.73068 10.5174 6.70066 9.26903 5.4465C8.64486 4.82233 7.82235 4.50734 6.99985 4.50734Z" fill="#424242"/>
<path d="M4.81163 13.5608C4.75913 13.5608 4.70079 13.5492 4.64829 13.5317C3.33579 13.0067 2.27412 12.0792 1.56245 10.8542C0.874121 9.65834 0.599956 8.30502 0.78079 6.92835C0.809956 6.68918 1.03162 6.52 1.27079 6.54917C1.50995 6.57833 1.67912 6.80002 1.64995 7.03918C1.49828 8.21752 1.73163 9.38417 2.3208 10.4108C2.92747 11.4608 3.84329 12.26 4.96912 12.7092C5.19079 12.8025 5.30163 13.0533 5.21413 13.2808C5.14996 13.4558 4.98079 13.5608 4.81163 13.5608Z" fill="#424242"/>
<path d="M3.4113 3.55063C3.28296 3.55063 3.15463 3.49231 3.06713 3.38147C2.91547 3.18897 2.95047 2.91482 3.14297 2.76898C4.25714 1.89982 5.58713 1.43896 6.99879 1.43896C8.37546 1.43896 9.68796 1.88231 10.7905 2.72231C10.983 2.86814 11.018 3.1423 10.8721 3.3348C10.7263 3.5273 10.4521 3.56231 10.2596 3.41647C9.31462 2.69314 8.18879 2.31396 6.99879 2.31396C5.78546 2.31396 4.63629 2.71064 3.67963 3.45731C3.59796 3.52148 3.50463 3.55063 3.4113 3.55063Z" fill="#424242"/>
<path d="M9.18905 13.5609C9.01405 13.5609 8.85071 13.4558 8.78071 13.2867C8.69321 13.065 8.79821 12.8084 9.02571 12.715C10.1515 12.26 11.0674 11.4667 11.6741 10.4167C12.2691 9.39002 12.5024 8.22334 12.3449 7.04501C12.3157 6.80584 12.4849 6.58419 12.724 6.55503C12.9574 6.52586 13.1849 6.69504 13.214 6.93421C13.389 8.30504 13.1207 9.6642 12.4324 10.86C11.7265 12.085 10.659 13.0067 9.34654 13.5375C9.29987 13.5492 9.24738 13.5609 9.18905 13.5609Z" fill="#424242"/>
</svg>
