<svg width="19" height="18" viewBox="0 0 19 18" fill="none" xmlns="http://www.w3.org/2000/svg">
<path fill-rule="evenodd" clip-rule="evenodd" d="M9.11458 2.20915C12.89 2.20915 15.9062 5.22535 15.9062 9.00081C15.9062 9.83353 15.7546 10.6603 15.4569 11.4044C15.3877 11.5774 15.3895 11.7707 15.4618 11.9424L16.3811 14.1258H13.7812C13.6204 14.1258 13.4644 14.1806 13.3388 14.281C12.2019 15.1905 10.6885 15.7925 9.11458 15.7925C5.33912 15.7925 2.32292 12.7763 2.32292 9.00081C2.32292 5.22535 5.33912 2.20915 9.11458 2.20915ZM17.3229 9.00081C17.3229 4.44295 13.6724 0.79248 9.11458 0.79248C4.55671 0.79248 0.90625 4.44295 0.90625 9.00081C0.90625 13.5587 4.55671 17.2091 9.11458 17.2091C10.9478 17.2091 12.6848 16.5466 14.0234 15.5425H17.1969C17.8227 15.5425 18.2462 14.9047 18.0033 14.3279L16.8769 11.6526C17.1756 10.8077 17.3229 9.90182 17.3229 9.00081ZM5.78126 8.45916C5.25199 8.45916 4.82293 8.88822 4.82293 9.41749C4.82293 9.94676 5.25199 10.3758 5.78126 10.3758C6.31054 10.3758 6.7396 9.94676 6.7396 9.41749C6.7396 8.88822 6.31054 8.45916 5.78126 8.45916ZM9.1146 8.45916C8.58532 8.45916 8.15626 8.88822 8.15626 9.41749C8.15626 9.94676 8.58532 10.3758 9.1146 10.3758C9.64387 10.3758 10.0729 9.94676 10.0729 9.41749C10.0729 8.88822 9.64387 8.45916 9.1146 8.45916ZM12.4479 8.45916C11.9187 8.45916 11.4896 8.88822 11.4896 9.41749C11.4896 9.94676 11.9187 10.3758 12.4479 10.3758C12.9772 10.3758 13.4063 9.94676 13.4063 9.41749C13.4063 8.88822 12.9772 8.45916 12.4479 8.45916Z" fill="#6078EC"/>
</svg>
