<svg width="20" height="20" viewBox="0 0 20 20" fill="none" xmlns="http://www.w3.org/2000/svg">
<path fill-rule="evenodd" clip-rule="evenodd" d="M9.58776 2.52952C13.7408 2.52952 17.0586 5.84735 17.0586 10.0004C17.0586 10.9164 16.8917 11.8258 16.5643 12.6443C16.4882 12.8346 16.4901 13.0472 16.5696 13.2361L17.5809 15.6379H14.7211C14.5442 15.6379 14.3725 15.6981 14.2343 15.8086C12.9838 16.8091 11.319 17.4712 9.58776 17.4712C5.43475 17.4712 2.11693 14.1534 2.11693 10.0004C2.11693 5.84735 5.43475 2.52952 9.58776 2.52952ZM18.6169 10.0004C18.6169 4.9867 14.6014 0.971191 9.58776 0.971191C4.5741 0.971191 0.558594 4.9867 0.558594 10.0004C0.558594 15.014 4.5741 19.0295 9.58776 19.0295C11.6043 19.0295 13.515 18.3007 14.9874 17.1962H18.4783C19.1667 17.1962 19.6325 16.4946 19.3654 15.8602L18.1263 12.9174C18.4549 11.9879 18.6169 10.9915 18.6169 10.0004ZM5.92111 9.40454C5.33891 9.40454 4.86694 9.8765 4.86694 10.4587C4.86694 11.0409 5.33891 11.5129 5.92111 11.5129C6.50331 11.5129 6.97528 11.0409 6.97528 10.4587C6.97528 9.8765 6.50331 9.40454 5.92111 9.40454ZM9.58777 9.40454C9.00557 9.40454 8.53361 9.8765 8.53361 10.4587C8.53361 11.0409 9.00557 11.5129 9.58777 11.5129C10.17 11.5129 10.6419 11.0409 10.6419 10.4587C10.6419 9.8765 10.17 9.40454 9.58777 9.40454ZM13.2544 9.40454C12.6722 9.40454 12.2003 9.8765 12.2003 10.4587C12.2003 11.0409 12.6722 11.5129 13.2544 11.5129C13.8366 11.5129 14.3086 11.0409 14.3086 10.4587C14.3086 9.8765 13.8366 9.40454 13.2544 9.40454Z" fill="#757575"/>
</svg>
