<svg width="21" height="21" viewBox="0 0 21 21" fill="none" xmlns="http://www.w3.org/2000/svg">
<g id="trash-2">
<path id="Vector" d="M3.13281 5.86572H4.81138H18.24" stroke="#363939" stroke-width="1.00714" stroke-linecap="round" stroke-linejoin="round"/>
<path id="Vector_2" d="M7.32645 5.86593V4.18736C7.32645 3.74218 7.5033 3.31522 7.81809 3.00043C8.13289 2.68564 8.55984 2.50879 9.00502 2.50879H12.3622C12.8074 2.50879 13.2343 2.68564 13.5491 3.00043C13.8639 3.31522 14.0407 3.74218 14.0407 4.18736V5.86593M16.5586 5.86593V17.6159C16.5586 18.0611 16.3817 18.4881 16.067 18.8029C15.7522 19.1177 15.3252 19.2945 14.88 19.2945H6.48717C6.04198 19.2945 5.61503 19.1177 5.30024 18.8029C4.98544 18.4881 4.80859 18.0611 4.80859 17.6159V5.86593H16.5586Z" stroke="#363939" stroke-width="1.00714" stroke-linecap="round" stroke-linejoin="round"/>
<path id="Vector_3" d="M9.00781 10.0625V15.0982" stroke="#363939" stroke-width="1.00714" stroke-linecap="round" stroke-linejoin="round"/>
<path id="Vector_4" d="M12.3633 10.0625V15.0982" stroke="#363939" stroke-width="1.00714" stroke-linecap="round" stroke-linejoin="round"/>
</g>
</svg>
