<svg width="20" height="20" viewBox="0 0 20 20" fill="none" xmlns="http://www.w3.org/2000/svg">
<path d="M6.24792 12.7083C6.08958 12.7083 5.93125 12.65 5.80625 12.525C5.56458 12.2833 5.56458 11.8833 5.80625 11.6417L8.47292 8.97501C8.60625 8.84168 8.78125 8.77501 8.97292 8.79168C9.15625 8.80835 9.32292 8.90835 9.43125 9.06668L10.3396 10.4333L13.2979 7.47501C13.5396 7.23335 13.9396 7.23335 14.1813 7.47501C14.4229 7.71668 14.4229 8.11668 14.1813 8.35835L10.6813 11.8583C10.5479 11.9917 10.3729 12.0583 10.1813 12.0417C9.99792 12.025 9.83125 11.925 9.72292 11.7667L8.81458 10.4L6.68958 12.525C6.56458 12.65 6.40625 12.7083 6.24792 12.7083Z" fill="#616161"/>
<path d="M13.7526 10.2083C13.4109 10.2083 13.1276 9.92499 13.1276 9.58332V8.54166H12.0859C11.7443 8.54166 11.4609 8.25832 11.4609 7.91666C11.4609 7.57499 11.7443 7.29166 12.0859 7.29166H13.7526C14.0943 7.29166 14.3776 7.57499 14.3776 7.91666V9.58332C14.3776 9.92499 14.0943 10.2083 13.7526 10.2083Z" fill="#616161"/>
<path d="M12.4974 18.9583H7.4974C2.9724 18.9583 1.03906 17.025 1.03906 12.5V7.49999C1.03906 2.97499 2.9724 1.04166 7.4974 1.04166H12.4974C17.0224 1.04166 18.9557 2.97499 18.9557 7.49999V12.5C18.9557 17.025 17.0224 18.9583 12.4974 18.9583ZM7.4974 2.29166C3.65573 2.29166 2.28906 3.65832 2.28906 7.49999V12.5C2.28906 16.3417 3.65573 17.7083 7.4974 17.7083H12.4974C16.3391 17.7083 17.7057 16.3417 17.7057 12.5V7.49999C17.7057 3.65832 16.3391 2.29166 12.4974 2.29166H7.4974Z" fill="#616161"/>
</svg>
