<svg width="34" height="34" viewBox="0 0 34 34" fill="none" xmlns="http://www.w3.org/2000/svg">
<path d="M8.43132 18.7798C8.43305 18.9153 8.40764 19.0497 8.35658 19.1752C8.30552 19.3008 8.22985 19.4148 8.13404 19.5106C8.03822 19.6064 7.92419 19.6821 7.79867 19.7332C7.67315 19.7842 7.53868 19.8096 7.40318 19.8079H1.7484C1.55739 19.8063 1.3704 19.7529 1.20742 19.6533C1.04443 19.5537 0.911581 19.4117 0.82307 19.2424C0.740764 19.0701 0.706853 18.8786 0.724962 18.6884C0.743072 18.4983 0.812521 18.3166 0.925884 18.1629C1.83577 16.9415 3.04992 15.9799 4.44727 15.374C3.84683 14.8244 3.38549 14.14 3.10124 13.3772C2.81699 12.6145 2.71794 11.7951 2.81225 10.9865C2.90656 10.178 3.19153 9.4034 3.64371 8.72652C4.09589 8.04964 4.70235 7.48982 5.41317 7.09313C6.124 6.69644 6.91887 6.47422 7.73236 6.44477C8.54585 6.41532 9.35471 6.57948 10.0924 6.92373C10.83 7.26798 11.4754 7.78249 11.9753 8.4249C12.4752 9.06731 12.8155 9.81927 12.968 10.6189C13.006 10.8271 12.9797 11.042 12.8924 11.2349C12.8051 11.4278 12.6612 11.5895 12.4796 11.6984C10.8174 12.6841 9.55322 14.2211 8.90684 16.0423C8.5882 16.9196 8.42722 17.8464 8.43132 18.7798ZM32.387 18.1629C31.4772 16.9415 30.263 15.9799 28.8657 15.374C29.4661 14.8244 29.9274 14.14 30.2117 13.3772C30.4959 12.6145 30.595 11.7951 30.5007 10.9865C30.4064 10.178 30.1214 9.4034 29.6692 8.72652C29.217 8.04964 28.6106 7.48982 27.8998 7.09313C27.1889 6.69644 26.3941 6.47422 25.5806 6.44477C24.7671 6.41532 23.9582 6.57948 23.2206 6.92373C22.4829 7.26798 21.8376 7.78249 21.3376 8.4249C20.8377 9.06731 20.4975 9.81927 20.3449 10.6189C20.3069 10.8271 20.3333 11.042 20.4205 11.2349C20.5078 11.4278 20.6518 11.5895 20.8333 11.6984C22.4977 12.6816 23.7626 14.2195 24.4061 16.0423C24.7247 16.9196 24.8857 17.8464 24.8816 18.7798C24.8799 18.9153 24.9053 19.0497 24.9564 19.1752C25.0074 19.3008 25.0831 19.4148 25.1789 19.5106C25.2747 19.6064 25.3887 19.6821 25.5143 19.7332C25.6398 19.7842 25.7743 19.8096 25.9097 19.8079H31.5645C31.7555 19.8079 31.9426 19.7547 32.1051 19.6543C32.2675 19.554 32.3987 19.4103 32.4841 19.2396C32.5695 19.0688 32.6057 18.8776 32.5885 18.6874C32.5714 18.4973 32.5016 18.3156 32.387 18.1629ZM20.4092 23.6763C21.4324 22.892 22.1842 21.8069 22.559 20.5733C22.9337 19.3397 22.9126 18.0198 22.4985 16.7988C22.0844 15.5779 21.2982 14.5174 20.2504 13.7663C19.2025 13.0152 17.9457 12.6113 16.6565 12.6113C15.3672 12.6113 14.1104 13.0152 13.0626 13.7663C12.0147 14.5174 11.2285 15.5779 10.8145 16.7988C10.4004 18.0198 10.3792 19.3397 10.754 20.5733C11.1287 21.8069 11.8805 22.892 12.9037 23.6763C10.9047 24.5638 9.28402 26.1298 8.32851 28.0973C8.25249 28.2537 8.21843 28.4271 8.2297 28.6006C8.24097 28.7741 8.29716 28.9417 8.39277 29.0869C8.48175 29.2358 8.60788 29.3592 8.75882 29.4448C8.90975 29.5304 9.08032 29.5753 9.25384 29.5753H24.0591C24.2326 29.5753 24.4032 29.5304 24.5541 29.4448C24.705 29.3592 24.8312 29.2358 24.9202 29.0869C25.0158 28.9417 25.072 28.7741 25.0832 28.6006C25.0945 28.4271 25.0604 28.2537 24.9844 28.0973C24.0289 26.1298 22.4082 24.5638 20.4092 23.6763Z" fill="#6078EC"/>
</svg>
